<svg id="a8d34bf1-8778-4a56-a2fa-c14bda472c9f" data-name="Layer 1" xmlns="http://www.w3.org/2000/svg" width="2000" height="2000" viewBox="0 0 2000 2000"><defs><style>.a55eb794-240f-4226-a1ba-eeb981601c7b{fill:#364560;}.fbd43466-d8e0-4711-a94c-6abaae4f55ca{fill:#fff;}.f9dcddd3-cd71-454b-b15f-522e1e90643f{fill:none;}</style></defs><title>fiber_panel_solutions_thumbnail</title><rect class="a55eb794-240f-4226-a1ba-eeb981601c7b" x="-23" y="-29.6" width="2045.9" height="2059.24"/><rect class="fbd43466-d8e0-4711-a94c-6abaae4f55ca" x="1381.1" y="838.6" width="140" height="87.25"/><polygon class="fbd43466-d8e0-4711-a94c-6abaae4f55ca" points="1350 957 1350 838.6 1210 838.6 1210 984.4 1210 984.4 1210 1044.3 1381.1 1044.3 1381.1 1161.3 1521.2 1161.3 1521.2 1044.3 1521.2 1015.6 1521.2 957 1350 957"/><rect class="fbd43466-d8e0-4711-a94c-6abaae4f55ca" x="1210" y="1074.1" width="140" height="87.25" transform="translate(2560 2235.4) rotate(180)"/><rect class="fbd43466-d8e0-4711-a94c-6abaae4f55ca" x="478.8" y="838.6" width="140" height="145.8"/><rect class="fbd43466-d8e0-4711-a94c-6abaae4f55ca" x="478.8" y="1015.5" width="140" height="145.87"/><rect class="fbd43466-d8e0-4711-a94c-6abaae4f55ca" x="650" y="838.6" width="140" height="87.25"/><rect class="fbd43466-d8e0-4711-a94c-6abaae4f55ca" x="650" y="957" width="140" height="87.25"/><rect class="fbd43466-d8e0-4711-a94c-6abaae4f55ca" x="844.4" y="1074.1" width="140" height="87.25" transform="translate(1828.9 2235.5) rotate(180)"/><rect class="fbd43466-d8e0-4711-a94c-6abaae4f55ca" x="844.4" y="838.6" width="140" height="205.63"/><polygon class="fbd43466-d8e0-4711-a94c-6abaae4f55ca" points="1015.6 838.7 1015.6 925.9 1085.6 925.9 1085.6 957 1015.6 957 1015.6 1044.3 1155.6 1044.3 1155.6 980.3 1155.6 957 1155.6 925.9 1155.6 893.1 1155.6 838.7 1015.6 838.7"/><rect class="f9dcddd3-cd71-454b-b15f-522e1e90643f" x="92" y="81.8" width="1856.3" height="622.8"/><rect class="f9dcddd3-cd71-454b-b15f-522e1e90643f" x="92" y="696.2" width="1856.3" height="622.8"/><rect class="f9dcddd3-cd71-454b-b15f-522e1e90643f" x="92" y="1328.3" width="1856.3" height="622.8"/></svg>