<svg id="bff68b67-98c9-4a7d-a986-801ea2e363fd" data-name="Layer 1" xmlns="http://www.w3.org/2000/svg" width="2001" height="2001" viewBox="0 0 2001 2001"><defs><style>.a628ea8b-ae3a-46bd-a1fe-3878e0a8a5b2{fill:#d8d8d8;}</style></defs><title>aaaaa</title><rect class="a628ea8b-ae3a-46bd-a1fe-3878e0a8a5b2" x="-90.3" y="-77.6" width="2267.2" height="2174.82"/><path d="M1740.3,924.1a5,5,0,0,0-.2-1.2,5.8,5.8,0,0,0-.3-1.4,5,5,0,0,0-.4-1.3,13.9,13.9,0,0,0-.6-1.3,7.5,7.5,0,0,0-.7-1.2,4.7,4.7,0,0,0-.6-.9c-4.3-5.8-90.5-117.2-234.6-167.5,71.5-118.1,75.6-241.1,75.7-247.8v-1c-.1-.5-.1-1-.2-1.6a5.3,5.3,0,0,0-.3-1.2l-.3-1.4-.6-1.2-.6-1.2a7.6,7.6,0,0,0-.8-1.1l-.8-1.1-1-.9-1-.9-1.2-.7a4.1,4.1,0,0,0-1.1-.7l-1.5-.6-.9-.3c-6.4-1.8-121.6-32.5-252.7-.8-21.8-98.2-66-166-69-170.5-.1-.3-.4-.5-.6-.8l-1-1.2-.9-.9-1.1-.9-1.2-.7-1.2-.6-1.2-.4-1.3-.4-1.3-.2-1.4-.2h-2.7l-1.4.3-1.1.3c-4,1.4-52.4,19.1-110.2,58.8-48.6-77.9-104.1-123.5-108.1-126.7l-.8-.5-1.3-.9-1.2-.5-1.3-.6-1.4-.3-1.3-.2h-3.9l-1.4.3a4.3,4.3,0,0,0-1.2.5l-1.4.5-1.2.8-.9.5c-4.2,3.2-63.9,49.2-115.8,129.1-58.9-40.3-108.4-58-112.6-59.5l-.9-.2a8,8,0,0,0-1.5-.3h-2.7l-1.4.2-1.3.2-1.2.4-1.3.4-1.1.6-1.3.8-1,.8a9.4,9.4,0,0,0-1,1,4.8,4.8,0,0,0-.9,1.1l-.7.8c-3,4.6-46.8,72.8-68,171.4-139.4-32.4-262.6,6.5-269.2,8.7l-.9.4-1.4.6-1.1.7-1.2.8-1,.9-.9,1-.7,1.1a8.3,8.3,0,0,0-.8,1.2,11.7,11.7,0,0,0-.5,1.1,5.8,5.8,0,0,0-.5,1.4,5.3,5.3,0,0,0-.3,1.2l-.3,1.4v1.4c0,.4-.1.7-.1,1.1.5,6.7,10.1,128,85.6,242.1C350,806.5,267.7,913.8,263.4,919.5a5.6,5.6,0,0,0-.5.8l-.8,1.3-.5,1.2c-.2.5-.3.9-.5,1.3s-.1.9-.2,1.4a5.9,5.9,0,0,0-.2,1.3,5.7,5.7,0,0,0,0,1.3v1.4l.3,1.3a6.1,6.1,0,0,0,.3,1.3,5,5,0,0,0,.5,1.3l.5,1.2.9,1.3a5.6,5.6,0,0,0,.5.8c3.1,3.8,44.5,54.1,115.4,100.6-42.9,70.3-58.8,131-60,135.6,0,.3-.1.6-.1.9a8.8,8.8,0,0,0-.2,1.6,5.7,5.7,0,0,0,0,1.3v1.4l.3,1.3.3,1.3a6.1,6.1,0,0,1,.5,1.2l.6,1.3a8.6,8.6,0,0,0,.7,1l.9,1.2.9.9a9.4,9.4,0,0,0,1,1l1.2.8.9.6c3.5,1.8,42.2,22.1,101.2,37.9-38.3,91.7-41.7,171.3-41.8,176.7a2.7,2.7,0,0,0,0,.9c0,.5.1,1.1.1,1.6l.3,1.3a6.5,6.5,0,0,0,.4,1.3,11.2,11.2,0,0,0,.5,1.3l.6,1.1.8,1.2.8,1a4.3,4.3,0,0,0,1,.9l1,1,1.1.7,1.2.7,1.4.6.9.3c4.3,1.2,57.4,15.9,131.6,16.3-9,64.6-4.3,111.6-3.9,115.7a5.2,5.2,0,0,1,.2,1.1l.3,1.3a5.8,5.8,0,0,0,.5,1.4l.5,1a5.4,5.4,0,0,0,.9,1.5c.1.3.3.5.4.8l1.5,1.5.6.6a8.3,8.3,0,0,0,1.8,1.3l.9.5,1.5.7,1,.3,1.6.3h.3c2.7.4,23,3,54.4,3a580.7,580.7,0,0,0,83.7-6.1c22.7,89.9,62.5,151,65.4,155.3l.3.4.5.7.9,1,.4.4a17.2,17.2,0,0,0,3.2,2.3l.5.2,1.3.5.7.2,1.3.3h.6l1.8.2h.3l2.1-.2h.6l1.6-.5h.3c4.2-1.6,58.4-21.3,120.8-66.3,44.3,64.2,89.7,101.6,93.8,105h.1l1.8,1.2.4.2a8.8,8.8,0,0,0,2,.9h.2l1.8.5h.6l2,.2,2.7-.3.7-.2,2.1-.7.6-.3a14.9,14.9,0,0,0,2.4-1.4c3.7-2.8,50.6-38.9,97.2-102.2,61.8,43.5,114.8,62.5,119.1,64h.3l1.5.4h.7l2,.2h.3l1.8-.2h.6l1.3-.3.6-.2,1.4-.6.4-.2a14.6,14.6,0,0,0,3.3-2.2l.4-.4.9-1.1.5-.6.4-.5c2.8-4.4,43.4-67.5,65.4-159.8a579.6,579.6,0,0,0,106.7,9.9c31.4,0,51.7-2.6,54.3-3h.3l1.7-.5,1-.2,1.6-.8.8-.4,2.1-1.5c0-.1,0-.1.1-.2a12.9,12.9,0,0,0,1.6-1.7l.4-.6,1-1.7a3,3,0,0,0,.4-.8l.6-1.6c.1-.4.1-.8.2-1.2l.3-1.2c.4-4.4,5.8-59-6.4-131.9,100.6-1.2,176.1-30.5,181.1-32.5l.9-.5,1.4-.7,1-.8a4.8,4.8,0,0,0,1.1-.9l.9-1,.9-1,.7-1.1a6.7,6.7,0,0,0,.6-1.2l.5-1.2a7.4,7.4,0,0,0,.4-1.4,5.1,5.1,0,0,0,.2-1.3,5.9,5.9,0,0,0,.2-1.4v-1.4c-.1-.4,0-.7-.1-1.1-.7-5-10.8-75.2-51.6-156.3,54.9-18.1,90.2-38.8,93.5-40.7l.7-.6,1.3-.9.9-1a9.4,9.4,0,0,0,1-1l.7-1.1a7.5,7.5,0,0,0,.7-1.2l.5-1.2c.2-.4.3-.8.5-1.3a5.1,5.1,0,0,0,.2-1.3,5.9,5.9,0,0,0,.2-1.3,3.3,3.3,0,0,0,0-1.4v-1.3l-.3-1.6c-.1-.3-.1-.6-.2-.9-1.3-4.4-18.8-60.5-61.5-125.7,67-45.6,106-93.3,108.9-96.9a5.6,5.6,0,0,1,.5-.8l.9-1.3a6.1,6.1,0,0,0,.5-1.2,11.2,11.2,0,0,0,.5-1.3,3.5,3.5,0,0,0,.3-1.4l.3-1.3v-1.3A6.6,6.6,0,0,0,1740.3,924.1ZM1002.8,272.2c17.2,15.7,57.7,55.7,94,114.2-33.2,25.3-67.8,57.7-98,98-29.9-39.4-64-71.1-96.7-96C940.9,328.4,984.5,287.8,1002.8,272.2ZM349.6,1168.9c6.4-20.1,22.8-65.7,53.9-116.5a491.5,491.5,0,0,0,102.7,45.4,466.4,466.4,0,0,0-66.9,102.4A533.3,533.3,0,0,1,349.6,1168.9Zm200.9,366a548.4,548.4,0,0,1,5.7-102.1,510.8,510.8,0,0,0,102-14.9,478.6,478.6,0,0,0,8.9,112.6A547.3,547.3,0,0,1,550.5,1534.9ZM979,1728.8a551.1,551.1,0,0,1-80.2-93.1,506.8,506.8,0,0,0,79.1-78.8,503.2,503.2,0,0,0,83.5,82.1A560.1,560.1,0,0,1,979,1728.8Zm452.2-193.9c-22.4,1.8-76,3.8-140.1-8.2,7.4-40.4,10.6-85.3,5.7-132.5a470.8,470.8,0,0,0,126.1,22.7C1432.5,1470.9,1432.1,1515.1,1431.2,1534.9Zm228.1-380.8a540.6,540.6,0,0,1-82.8,33.9,485.7,485.7,0,0,0-71-95.3,493.2,493.2,0,0,0,98.8-46.3C1635,1093.3,1652.3,1135.2,1659.3,1154.1Zm-176.9-83.6a418.7,418.7,0,0,0-147.3-85.6l-13.7,25.1a391.7,391.7,0,0,1,101.1,49.2c139.8,95,180.8,259.2,189.5,303.3-42.6,14-205.7,59.1-357.3-15.8a392.2,392.2,0,0,1-77.8-51l-14.2,24.7a416.2,416.2,0,0,0,79.9,51.6q12.3,6,24.6,11.1c19.6,144.6-44.9,271.1-65,306.3-41.5-17.3-194.2-90.1-259.6-246a399,399,0,0,1-18.6-56.3l-23.5,20.8a408.9,408.9,0,0,0,16.4,46.6,424.7,424.7,0,0,0,43.5,78.8c-72.8,94-172,141.6-204.1,155.3-19.2-32.9-77.7-145.6-69.4-279a431,431,0,0,0,96-44.6,417.2,417.2,0,0,0,55.9-42.1l-8.6-30.2a384,384,0,0,1-62,48.3c-143.2,89.9-310,61.6-353.9,51.9,3.8-40.3,23.6-179.9,122.2-286.8a435.1,435.1,0,0,0,74.1,10.5q10.9.6,21.9.6a421.8,421.8,0,0,0,99.5-12l-15-25.4a389.4,389.4,0,0,1-104.6,8.8c-168.9-8.8-289.1-127.9-319.4-161,27.2-32,130.4-141.8,281.7-167.8l-13.5-26.1c-15.4,3-30.3,6.8-44.7,11.1-62.3-91.4-79.9-190.5-84.2-223.3,32.6-8.5,134-29.9,244.4-4.4-1.6,9.9-2.9,20.1-3.9,30.4h5.8c7.6-.2,22.7,1.3,22.7,1.3,10.2-99.9,51-179.1,66.3-205.9,33.1,13.9,137.4,63.2,211.3,162.2h39.8c73.2-99.5,177.3-149.6,210.4-163.6,12.6,21.7,42.5,78.4,58.9,152.9a439.9,439.9,0,0,0-64.8,25.6l17.1,23c131.1-61.8,270.1-39.3,309.6-30.9-3.8,44.7-26.2,212.1-154.7,322.2-9.9,8.4-20.2,16.4-30.8,23.8v33.6a412.2,412.2,0,0,0,49-36.1,437.5,437.5,0,0,0,73.7-81.8C1604.7,813.2,1684.5,897.7,1708,925,1683.7,951.8,1601.5,1034.3,1482.4,1070.5Z"/><path d="M1378.3,592.8C1358,577,1327,572,1285.9,577.9a318.2,318.2,0,0,0-46.7,10.6L1198,533.1H796l-41.1,55.4a317.1,317.1,0,0,0-46.8-10.6c-41-5.9-72.1-.9-92.3,14.9-24.5,19.2-38.6,46.5-39.5,76.9-1.4,45.9,26,94.2,81.4,143.7V920.3l2,7.2,123.9,210v86.1l14.2,14.1h57.8l8.4-2.7,137.9-101.6,137.5,101.3,8.8,3H1206l14.1-14.1v-86.1l114.3-210,1.9-7.2V813.4c55.5-49.5,82.9-97.8,81.5-143.7C1416.8,639.3,1402.8,612,1378.3,592.8Zm-375.8,511.6h0c-.5-12.9-6.2-59.6-40.9-75.3-48.3-21.8-47.2-32.2-47.2-32.2s-3.4-13.4,11.1-15.3a34.4,34.4,0,0,1,5.4-.4,48.3,48.3,0,0,1,12.9,1.9l21.8,8.8,6.4,2.3a85.7,85.7,0,0,0,29.5,5,93.7,93.7,0,0,0,16.9-1.5h.6l4-.8.7-.2,1.6-.4a106.5,106.5,0,0,0,13.2-4.3h.2c9.1-3.4,16.7-6.6,16.7-6.6h.2l3.9-1.5h0a48.3,48.3,0,0,1,15.1-2.4l4.9.3c14.6,1.4,11.1,15.3,11.1,15.3s1.1,10.4-47.1,32.2C1008.7,1044.8,1003,1091.5,1002.5,1104.4Zm333.8-330V737.9l-28.2-28.3h0V916.5l-88,165.4v-64.7l-28.2,28.3v164h-38.8l-122.4-90.4c.9-13.5,6.2-55.5,24.1-63.6,32.2-14.5,61.9-31.3,63.8-55.6,1-6.8,1.1-18.9-6.6-30.1-6.7-9.7-17.3-15.7-29.8-16.9a64.5,64.5,0,0,0-7.6-.4,77.1,77.1,0,0,0-23.7,3.7l-.7.3-.7.2-3.8,1.5-1,.4-.6.3c-1.8.8-7.8,3.2-14.7,5.7h-1.1a70.3,70.3,0,0,1-9.8,3.2h-1.6l-3,.6h-.5a67.5,67.5,0,0,1-11.9,1.1,60.6,60.6,0,0,1-20.1-3.3l-6-2.2-21.3-8.6-1.2-.5-1.3-.4a73.5,73.5,0,0,0-20.7-3h0a68,68,0,0,0-9,.6c-12.4,1.6-22.8,7.9-29.2,17.6s-7.2,22.6-6.3,29.3c2,24.3,31.6,41.1,63.9,55.6,8,3.7,14.4,11.7,18.8,23.8s5,31.3,5.3,39.3L851,1209.5H811.9v-164l-28.2-28.3v64.7L686,916.5V709.6h0l-28.3,28.3v36.5c-35.8-36.8-54.1-72.3-53.2-103.8.9-29.5,18.4-47.4,28.7-55.5,13.6-10.6,38-13.8,70.4-9.2a296.6,296.6,0,0,1,33.3,6.8l-18.6,25,4.5,41.4h0l87.4-117.7h373.6l87.5,117.7,4.5-41.4-18.6-25a281,281,0,0,1,32.8-6.8c32.6-4.7,57.1-1.5,70.8,9.2,10.4,8.1,27.8,26,28.7,55.5C1390.5,702.1,1372.2,737.6,1336.3,774.4Z"/><path d="M974.9,1182.2l-117.7,94.4,29.6,103.2,51.3-45.8,64.4,112.9,57.6-79.1,24.3,25,65.7-114.4L1030,1182C1007.3,1163.1,984.4,1173.6,974.9,1182.2Zm105.4,167.7-20.7-24.7-54.2,69.7-60.1-105.2-43.8,39-11.9-41.8,104.1-83.6c3.3-2.9,10-6.5,18.2.5l102.8,82.4Z"/><path d="M773.9,741.7,745.6,770h50.5l25.1,56.2h98.1l5.3,15.2L886.9,882v41.6l70.5-76L915.9,741.7Zm65.6,56.2L827.1,770h69.5l11.7,27.9Z"/><path d="M1078.9,741.7l-41.4,105.9,70.4,76V882l-37.6-40.6,5.2-15.2h98.1l25.1-56.2h50.5l-28.3-28.3Zm76.4,56.2h-68.7l11.6-27.9h69.5Z"/></svg>