<svg width="2000" height="700" viewBox="0 0 2000 700" fill="none" xmlns="http://www.w3.org/2000/svg">
<rect width="2000" height="700" fill="white"/>
<g clip-path="url(#clip0_1731_72114)">
<path d="M218 430.212H696.678" stroke="#EB00FF" stroke-opacity="0.5" stroke-width="1.99449"/>
<path d="M218 350.432H696.678" stroke="#EB00FF" stroke-opacity="0.5" stroke-width="1.99449"/>
<path d="M218 270.652H696.678" stroke="#EB00FF" stroke-opacity="0.5" stroke-width="1.99449"/>
<path d="M218 589.771L696.678 111.093" stroke="#EB00FF" stroke-opacity="0.5" stroke-width="1.99449"/>
<path d="M696.678 589.771L218 111.093" stroke="#EB00FF" stroke-opacity="0.5" stroke-width="1.99449"/>
<path d="M537.119 111.093V589.771" stroke="#EB00FF" stroke-opacity="0.5" stroke-width="1.99449"/>
<path d="M457.339 111.093V589.771" stroke="#EB00FF" stroke-opacity="0.5" stroke-width="1.99449"/>
<path d="M377.559 111.093V589.771" stroke="#EB00FF" stroke-opacity="0.5" stroke-width="1.99449"/>
<path d="M457.339 529.937C556.477 529.937 636.843 449.57 636.843 350.432C636.843 251.295 556.477 170.928 457.339 170.928C358.202 170.928 277.835 251.295 277.835 350.432C277.835 449.57 358.202 529.937 457.339 529.937Z" stroke="#0000FF" stroke-opacity="0.5" stroke-width="1.99449" stroke-miterlimit="10"/>
<path d="M457.339 450.157C512.415 450.157 557.064 405.509 557.064 350.432C557.064 295.356 512.415 250.708 457.339 250.708C402.263 250.708 357.615 295.356 357.615 350.432C357.615 405.509 402.263 450.157 457.339 450.157Z" stroke="#0000FF" stroke-opacity="0.5" stroke-width="1.99449" stroke-miterlimit="10"/>
<rect x="278.832" y="171.925" width="357.014" height="357.014" rx="43.8788" stroke="#0000FF" stroke-opacity="0.5" stroke-width="1.99449"/>
<rect x="258.887" y="191.87" width="396.904" height="317.124" rx="43.8788" stroke="#0000FF" stroke-opacity="0.5" stroke-width="1.99449"/>
<rect x="298.777" y="151.98" width="317.124" height="396.904" rx="43.8788" stroke="#0000FF" stroke-opacity="0.5" stroke-width="1.99449"/>
<rect x="222.986" y="116.079" width="468.706" height="468.706" stroke="#FF0000" stroke-opacity="0.1" stroke-width="9.97246"/>
</g>
<path d="M607.724 432.606C615.901 432.606 622.682 425.825 622.682 417.647C622.682 409.47 615.901 402.689 607.724 402.689H570.427C562.249 402.689 555.468 409.47 555.468 417.647C555.468 425.825 562.249 432.606 570.427 432.606H607.724Z" fill="#FF821C"/>
<path d="M343.055 439.587C335.276 439.587 327.498 437.393 320.716 433.005C290.998 413.658 266.067 388.727 246.521 359.209C235.751 342.654 238.344 320.117 252.704 305.557L380.352 177.311C388.928 168.735 400.097 164.147 412.064 163.948H469.705C481.672 163.948 493.04 168.535 501.417 177.112C509.994 185.688 514.581 196.857 514.581 208.824V266.465C514.581 278.432 510.193 289.8 501.617 298.377L374.169 426.623C365.592 435.199 354.224 439.587 343.055 439.587ZM412.064 194.065C408.075 194.065 404.285 195.66 401.493 198.453L273.846 326.699C269.258 331.286 268.261 337.868 271.452 342.654C288.605 368.782 310.744 390.722 337.071 407.874C341.858 411.066 348.44 410.068 353.027 405.282L480.675 277.036C483.467 274.243 485.062 270.454 485.062 266.265V208.625C485.062 204.636 483.267 200.846 480.475 198.054C477.683 195.262 473.893 193.666 469.904 193.666H412.263L412.064 194.065Z" fill="#FF821C"/>
<path d="M459.732 234.154C451.555 234.154 444.774 227.373 444.774 219.195C444.774 211.018 451.555 204.237 459.732 204.237C467.91 204.237 474.691 211.018 474.691 219.195C474.691 227.572 467.91 234.154 459.732 234.154Z" fill="#FF821C"/>
<path d="M414.258 432.606H451.555C459.732 432.606 466.514 425.825 466.514 417.647C466.514 409.47 459.732 402.689 451.555 402.689H440.186L411.067 432.008C412.064 432.207 413.061 432.606 414.258 432.606Z" fill="#FF821C"/>
<path d="M578.405 321.513L604.732 361.602H570.626C511.39 361.602 538.315 361.602 476.686 361.602C468.508 361.602 461.727 368.383 461.727 376.561C461.727 384.738 468.508 391.52 476.686 391.52H628.865C628.865 391.52 629.065 391.52 629.264 391.52C629.264 391.719 629.464 391.918 629.663 392.716C630.062 393.913 630.261 395.509 630.261 397.503V430.612C630.261 444.573 628.865 454.944 625.475 461.526C623.879 464.518 622.283 466.313 620.488 467.51C618.693 468.706 615.702 469.704 610.715 469.704H403.089C397.903 469.704 396.307 468.507 395.909 468.308C395.51 468.108 393.316 466.512 392.518 463.521C391.72 456.141 385.537 450.158 377.958 450.158C370.379 450.158 363.598 456.54 363.199 464.319C363.199 464.319 363.199 464.917 363.199 465.116V507.001C362.999 523.555 376.363 536.918 392.717 536.918H422.435C438.99 536.918 452.353 523.555 452.353 507.001V499.422H571.224V507.001C571.224 523.555 584.588 536.918 601.142 536.918H630.86C647.414 536.918 660.777 523.555 660.777 507.001V439.986H660.578C660.578 436.795 660.777 433.404 660.777 430.213V397.104C660.777 391.918 659.979 386.334 657.785 380.949L666.362 377.359C673.941 374.167 677.531 365.392 674.34 357.813C671.149 350.234 662.373 346.643 654.794 349.835L638.04 356.815L604.134 305.158C595.557 291.994 580.399 284.415 564.842 283.817C564.443 283.817 564.044 283.618 563.845 283.618H552.077C543.9 283.618 537.119 290.399 537.119 298.576C537.119 306.754 543.9 313.535 552.077 313.535H563.246C570.427 313.535 575.413 316.926 578.405 321.513ZM421.638 507.001H392.318V498.225C395.709 498.823 399.1 499.222 402.69 499.222H421.638V507.001ZM630.062 507.001H600.344V499.422H610.317C617.497 499.422 624.078 497.826 630.062 495.233V507.001Z" fill="#FF821C"/>
<g clip-path="url(#clip1_1731_72114)">
<g clip-path="url(#clip2_1731_72114)">
<path d="M760.678 430.243H1239.54" stroke="#EB00FF" stroke-opacity="0.5" stroke-width="1.99527"/>
<path d="M760.678 350.432H1239.54" stroke="#EB00FF" stroke-opacity="0.5" stroke-width="1.99527"/>
<path d="M760.678 270.621H1239.54" stroke="#EB00FF" stroke-opacity="0.5" stroke-width="1.99527"/>
<path d="M760.678 589.864L1239.54 111" stroke="#EB00FF" stroke-opacity="0.5" stroke-width="1.99527"/>
<path d="M1239.54 589.864L760.678 111" stroke="#EB00FF" stroke-opacity="0.5" stroke-width="1.99527"/>
<path d="M1079.92 111V589.864" stroke="#EB00FF" stroke-opacity="0.5" stroke-width="1.99527"/>
<path d="M1000.11 111V589.864" stroke="#EB00FF" stroke-opacity="0.5" stroke-width="1.99527"/>
<path d="M920.299 111V589.864" stroke="#EB00FF" stroke-opacity="0.5" stroke-width="1.99527"/>
<path d="M1000.11 530.006C1099.29 530.006 1179.68 449.608 1179.68 350.432C1179.68 251.256 1099.29 170.858 1000.11 170.858C900.934 170.858 820.536 251.256 820.536 350.432C820.536 449.608 900.934 530.006 1000.11 530.006Z" stroke="#0000FF" stroke-opacity="0.5" stroke-width="1.99527" stroke-miterlimit="10"/>
<path d="M1000.11 450.195C1055.21 450.195 1099.87 405.53 1099.87 350.432C1099.87 295.334 1055.21 250.669 1000.11 250.669C945.012 250.669 900.347 295.334 900.347 350.432C900.347 405.53 945.012 450.195 1000.11 450.195Z" stroke="#0000FF" stroke-opacity="0.5" stroke-width="1.99527" stroke-miterlimit="10"/>
<rect x="821.534" y="171.856" width="357.153" height="357.153" rx="43.8959" stroke="#0000FF" stroke-opacity="0.5" stroke-width="1.99527"/>
<rect x="801.581" y="191.808" width="397.058" height="317.247" rx="43.8959" stroke="#0000FF" stroke-opacity="0.5" stroke-width="1.99527"/>
<rect x="841.487" y="151.903" width="317.247" height="397.058" rx="43.8959" stroke="#0000FF" stroke-opacity="0.5" stroke-width="1.99527"/>
<rect x="765.666" y="115.988" width="468.888" height="468.888" stroke="#FF0000" stroke-opacity="0.1" stroke-width="9.97633"/>
</g>
<path d="M1212.47 394.907C1186.07 371.543 1140 358.414 1101.17 384.851C1086.37 394.927 1071.82 404.824 1057.3 413.404C1056.1 406.181 1053.32 399.177 1049.02 393.012C1039.68 379.644 1024.37 371.663 1008.07 371.663H920.121C896.158 372.84 877.682 384.073 864.234 396.883L864.034 391.974C863.535 379.564 852.422 369.887 839.253 370.425L806.151 371.762C792.983 372.301 782.687 382.816 783.186 395.227L789.072 541.719C789.551 553.81 800.106 563.288 812.836 563.288C813.175 563.288 813.514 563.288 813.853 563.288L846.935 561.951C852.861 561.712 858.447 559.437 862.677 555.546C866.788 551.775 869.282 546.727 869.8 541.4L957.692 557.462C960.525 557.981 963.398 558.24 966.252 558.24C974.053 558.24 981.815 556.344 988.738 552.673L1116.57 484.994L1208.26 431.241C1214.76 427.43 1219.07 420.786 1219.77 413.483C1220.45 406.42 1217.77 399.656 1212.43 394.907H1212.47ZM818.702 533.1L813.414 401.392L834.444 400.554L839.732 532.262L818.702 533.1ZM1102.31 458.676L974.771 526.196C971.2 528.091 967.05 528.73 963.099 527.992L868.823 510.753L866.109 443.352L866.149 443.313C872.674 431.281 891.09 403.228 921.238 401.572H1008.09C1014.72 401.572 1020.7 404.684 1024.49 410.131C1028.26 415.558 1029.14 422.203 1026.87 428.368L1026.57 429.166C1000.35 440.18 973.873 444.19 946.059 434.254C938.278 431.481 929.718 435.531 926.925 443.313C924.151 451.094 928.202 459.654 935.983 462.447C1004.46 486.909 1062.18 447.622 1118.05 409.613C1130.84 400.913 1145.07 398.14 1160.37 401.332C1170.13 403.367 1178.17 407.338 1183.88 410.909L1102.35 458.716L1102.31 458.676Z" fill="#FF821C"/>
<path d="M847.532 319.626L908.907 347.799C910.922 348.717 913.037 349.156 915.132 349.156C919.821 349.156 924.39 346.941 927.283 342.931L937.459 328.804L951.665 335.189C958.35 338.202 966.251 335.907 970.281 329.782L978.661 317.072L988.638 321.342C992.09 322.818 995.98 322.938 999.532 321.681L1033.11 309.749C1034.07 309.41 1035.07 309.031 1036.07 308.632C1036.7 308.393 1037.46 308.093 1038.2 307.814C1042.71 311.565 1046.52 313.8 1047.6 314.418C1060.35 321.841 1074.91 326.17 1089.7 326.989C1114.9 328.365 1139.12 319.826 1157.94 302.926C1176.71 286.046 1187.83 262.821 1189.22 237.561C1190.62 212.301 1182.12 187.998 1165.32 169.143C1148.5 150.268 1125.35 139.114 1100.15 137.718C1058.99 135.443 1029.28 155.436 1011.94 197.117C1011.72 197.655 1011.52 198.194 1011.36 198.753C1011.24 199.052 1011.04 199.451 1010.86 199.71C1010.51 199.81 1010.15 199.91 1009.81 200.03L884.764 241.651C881.751 242.649 879.157 244.584 877.302 247.158L841.567 297.259C838.973 300.89 838.135 305.5 839.292 309.809C840.449 314.119 843.462 317.691 847.513 319.546L847.532 319.626ZM898.871 268.567L1018.61 228.702C1031.26 225.609 1037.84 214.815 1039.98 207.831C1052.57 178.102 1070.1 166.05 1098.56 167.627C1115.76 168.584 1131.54 176.186 1143.03 189.076C1154.54 201.985 1160.35 218.626 1159.39 235.925C1158.43 253.224 1150.83 269.126 1137.98 280.698C1125.15 292.231 1108.61 298.077 1091.41 297.119C1081.14 296.561 1071.44 293.648 1062.62 288.5C1062.5 288.42 1062.46 288.4 1062.34 288.34C1062.34 288.34 1059.01 286.445 1055.48 283.113C1044.92 273.156 1031.7 278.264 1025.35 280.718C1024.59 281.018 1023.85 281.297 1023.16 281.556L995.082 291.533L978.981 284.649C972.316 281.796 964.595 284.13 960.604 290.176L952.344 302.686L938.616 296.521C932.132 293.608 924.49 295.663 920.34 301.429L910.224 315.476L876.484 299.993L898.871 268.587V268.567Z" fill="#FF821C"/>
<path d="M1115.7 241.052C1123.86 241.511 1131.02 235.106 1131.46 226.926C1131.92 218.765 1125.51 211.602 1117.33 211.163C1109.17 210.704 1102.01 217.109 1101.57 225.29C1101.13 233.47 1107.32 240.593 1115.7 241.052Z" fill="#FF821C"/>
</g>
<g clip-path="url(#clip3_1731_72114)">
<g clip-path="url(#clip4_1731_72114)">
<path d="M1303.54 430.212H1782.22" stroke="#EB00FF" stroke-opacity="0.5" stroke-width="1.99449"/>
<path d="M1303.54 350.432H1782.22" stroke="#EB00FF" stroke-opacity="0.5" stroke-width="1.99449"/>
<path d="M1303.54 270.652H1782.22" stroke="#EB00FF" stroke-opacity="0.5" stroke-width="1.99449"/>
<path d="M1303.54 589.771L1782.22 111.093" stroke="#EB00FF" stroke-opacity="0.5" stroke-width="1.99449"/>
<path d="M1782.22 589.771L1303.54 111.093" stroke="#EB00FF" stroke-opacity="0.5" stroke-width="1.99449"/>
<path d="M1622.66 111.093V589.771" stroke="#EB00FF" stroke-opacity="0.5" stroke-width="1.99449"/>
<path d="M1542.88 111.093V589.771" stroke="#EB00FF" stroke-opacity="0.5" stroke-width="1.99449"/>
<path d="M1463.1 111.093V589.771" stroke="#EB00FF" stroke-opacity="0.5" stroke-width="1.99449"/>
<path d="M1542.88 529.936C1642.02 529.936 1722.39 449.57 1722.39 350.432C1722.39 251.295 1642.02 170.928 1542.88 170.928C1443.74 170.928 1363.38 251.295 1363.38 350.432C1363.38 449.57 1443.74 529.936 1542.88 529.936Z" stroke="#0000FF" stroke-opacity="0.5" stroke-width="1.99449" stroke-miterlimit="10"/>
<path d="M1542.88 450.157C1597.96 450.157 1642.61 405.508 1642.61 350.432C1642.61 295.356 1597.96 250.707 1542.88 250.707C1487.8 250.707 1443.16 295.356 1443.16 350.432C1443.16 405.508 1487.8 450.157 1542.88 450.157Z" stroke="#0000FF" stroke-opacity="0.5" stroke-width="1.99449" stroke-miterlimit="10"/>
<rect x="1364.37" y="171.925" width="357.014" height="357.014" rx="43.8788" stroke="#0000FF" stroke-opacity="0.5" stroke-width="1.99449"/>
<rect x="1344.43" y="191.87" width="396.904" height="317.124" rx="43.8788" stroke="#0000FF" stroke-opacity="0.5" stroke-width="1.99449"/>
<rect x="1384.32" y="151.98" width="317.124" height="396.904" rx="43.8788" stroke="#0000FF" stroke-opacity="0.5" stroke-width="1.99449"/>
<rect x="1308.53" y="116.079" width="468.706" height="468.706" stroke="#FF0000" stroke-opacity="0.1" stroke-width="9.97246"/>
</g>
<path fill-rule="evenodd" clip-rule="evenodd" d="M1548.17 182.409C1545.25 179.488 1540.51 179.488 1537.59 182.409L1398.28 321.721V507.495C1398.28 511.626 1401.63 514.974 1405.76 514.974H1418.23V392.812C1418.23 372.158 1434.97 355.415 1455.62 355.415H1625.15C1646.93 355.415 1670.03 368.704 1670.03 392.812V514.974H1680C1684.13 514.974 1687.48 511.626 1687.48 507.495V321.721L1548.17 182.409ZM1717.4 351.638L1726.77 361.006C1732.61 366.848 1742.08 366.848 1747.92 361.006C1753.76 355.164 1753.76 345.693 1747.92 339.851L1569.32 161.254C1554.72 146.65 1531.04 146.65 1516.44 161.254L1337.84 339.851C1332 345.693 1332 355.164 1337.84 361.006C1343.68 366.848 1353.15 366.848 1359 361.006L1368.36 351.638V507.495C1368.36 528.149 1385.11 544.892 1405.76 544.892H1680C1700.66 544.892 1717.4 528.149 1717.4 507.495V351.638ZM1640.11 514.974V392.812C1640.11 392.005 1639.79 390.528 1637.56 388.818C1635.25 387.047 1631.1 385.332 1625.15 385.332H1455.62C1451.49 385.332 1448.14 388.681 1448.14 392.812V514.974H1640.11Z" fill="#FF821C"/>
<path fill-rule="evenodd" clip-rule="evenodd" d="M1460.11 430.212C1460.11 421.95 1466.81 415.253 1475.07 415.253H1487.04C1495.3 415.253 1502 421.95 1502 430.212C1502 438.473 1495.3 445.17 1487.04 445.17H1475.07C1466.81 445.17 1460.11 438.473 1460.11 430.212Z" fill="#FF821C"/>
<path fill-rule="evenodd" clip-rule="evenodd" d="M1583.77 430.212C1583.77 421.95 1590.47 415.253 1598.73 415.253H1610.7C1618.96 415.253 1625.66 421.95 1625.66 430.212C1625.66 438.473 1618.96 445.17 1610.7 445.17H1598.73C1590.47 445.17 1583.77 438.473 1583.77 430.212Z" fill="#FF821C"/>
<path fill-rule="evenodd" clip-rule="evenodd" d="M1521.94 430.212C1521.94 421.95 1528.64 415.253 1536.9 415.253H1548.87C1557.13 415.253 1563.83 421.95 1563.83 430.212C1563.83 438.473 1557.13 445.17 1548.87 445.17H1536.9C1528.64 445.17 1521.94 438.473 1521.94 430.212Z" fill="#FF821C"/>
</g>
<defs>
<clipPath id="clip0_1731_72114">
<rect width="478.678" height="478.678" fill="white" transform="translate(218 111.093)"/>
</clipPath>
<clipPath id="clip1_1731_72114">
<rect width="478.864" height="478.864" fill="white" transform="translate(760.678 111)"/>
</clipPath>
<clipPath id="clip2_1731_72114">
<rect width="478.864" height="478.864" fill="white" transform="translate(760.678 111)"/>
</clipPath>
<clipPath id="clip3_1731_72114">
<rect width="478.678" height="478.678" fill="white" transform="translate(1303.54 111.093)"/>
</clipPath>
<clipPath id="clip4_1731_72114">
<rect width="478.678" height="478.678" fill="white" transform="translate(1303.54 111.093)"/>
</clipPath>
</defs>
</svg>
