<svg xmlns="http://www.w3.org/2000/svg" width="1000" height="1000" fill="none" xmlns:v="https://vecta.io/nano"><style><![CDATA[.B{stroke-opacity:.8}]]></style><path fill="#fff" d="M0 0h1000v1000H0z"/><g clip-path="url(#A)"><path fill="#fff" d="M150 150h700v700H150z"/><g stroke="red"><path stroke-opacity=".1" stroke-width="43.75" d="M171.875 171.875h656.25v656.25h-656.25z"/><g stroke-width=".292" stroke-linecap="round" class="B"><use href="#B"/><path d="M208.333 851.458V150M237.5 851.458V150m29.167 701.458V150m29.166 701.458V150M325 851.458V150m29.167 701.458V150m29.166 701.458V150M412.5 851.458V150m29.167 701.458V150m29.166 701.458V150M500 851.458V150m29.167 701.458V150m29.166 701.458V150M587.5 851.458V150m29.167 701.458V150m29.166 701.458V150M675 851.458V150m29.167 701.458V150m29.166 701.458V150M762.5 851.458V150m29.167 701.458V150m29.166 701.458V150"/><path d="M850 179.167H150m700 29.166H150M850 237.5H150m700 29.167H150m700 29.166H150M850 325H150m700 29.167H150m700 29.166H150M850 412.5H150m700 29.167H150m700 29.166H150M850 500H150m700 29.167H150m700 29.166H150M850 587.5H150m700 29.167H150m700 29.166H150M850 675H150m700 116.667H150"/><path d="M850 704.167H150m700 116.666H150"/><path d="M850 733.333H150M850 850H150"/><path d="M850 762.5H150"/></g></g></g><defs><clipPath id="A"><path fill="#fff" transform="translate(150 150)" d="M0 0h700v700H0z"/></clipPath><path id="B" d="M179.167 851.458V150"/></defs></svg>