<svg xmlns="http://www.w3.org/2000/svg" viewBox="0 0 500 500" xmlns:v="https://vecta.io/nano"><path d="M497.63 240.99l-.16-4.92c-1.33-42.12-15.31-82.81-37.89-118.46-18.91-29.85-43.88-55.29-73.38-74.74-36.96-24.36-79.66-39.34-123.87-40.44l-6.43-.16c-.12 0-.52-.26-.42-.22h-11.15c-2.11.34-4.29.26-6.61.37-38.76 1.91-76.43 12.79-110.2 32.03a248.98 248.98 0 0 0-82.98 76.84A246.23 246.23 0 0 0 2.32 240.45a263.89 263.89 0 0 0 0 19.08C5.25 339.6 46.9 412.91 113.54 456.95c38.33 25.33 82.91 38.61 128.78 40.77l2.78.13c3.44.16 6.85.1 10.25-.03l6.11-.24c81.09-3.17 156.08-47.84 198.98-116.6 22.05-35.33 34.73-75.54 37.01-117.08.11-1.94.4-3.88.4-5.61v-16.6c-.07-.03-.22-.5-.23-.7zm-312.82 75.49c12.44 12.17 28.27 20.94 45.89 24.61v38.18c0 .51-.06.83-.11 1.11-65.21-9.65-113.5-66.24-112.43-132.51.56-34.87 14.88-68.16 39.97-92.43 19.77-19.25 45.11-31.86 72.56-35.87l.02 39.3c-17.6 3.71-33.49 12.42-45.89 24.63-37.28 36.45-37.26 96.51 0 132.97zm45.31-235.72c-67.86 7.79-124.9 56.23-143.84 121.83-9.2 31.85-8.93 65.8.8 97.49 19.75 64.34 76.17 111.47 143.02 119.16.35.08.53.29.61.67l-.02 38.3c-72.62-6.54-136.62-51-168.67-116.47-14.34-29.29-21.47-61.45-21.13-94.07.44-41.08 12.88-81.02 35.97-114.97 35.08-51.65 91.41-85.25 153.82-90.9l.03 38.31c0 .32-.31.63-.59.66zm195.9 282.14c-34.79 54.07-92.42 89.46-156.83 95.33l-.02-415.45c0-.35-.03-.92.14-.94s.47-.01.85.02c63.87 6.09 121.17 41.3 155.86 95.22 44.11 68.56 44.11 157.26 0 225.82zM307.88 89.66v320.68c47.09-17.14 84.46-54.13 101.87-101 14.18-38.23 14.14-80.32.11-118.37-17.32-46.92-54.75-84.14-101.99-101.31z"/></svg>