<svg xmlns="http://www.w3.org/2000/svg" width="2000" height="1372" fill="none" xmlns:v="https://vecta.io/nano"><style><![CDATA[.B{fill:#000}.C{fill:#fff}.D{fill:#bbb}.E{fill:#f3f3f3}.F{fill:#e6e6e6}.G{fill:#2b5190}.H{stroke-miterlimit:10}.I{fill:#f6d272}.J{fill:#f1ba2c}.K{opacity:.5}.L{stroke-linecap:round}.M{fill:#bc890b}.N{fill:#162d5b}.O{fill:#2d2d2d}.P{fill:#8e8e8e}.Q{opacity:.2}.R{fill:#e9e9e9}.S{fill:#dadada}.T{fill:#535353}.U{stroke:#bcbcbc}.V{fill:#ffc780}.W{fill:#bebebe}.X{fill:#5581cf}.Y{stroke-width:20.31}.Z{fill:#d7d7d7}.a{fill:#ace889}.b{fill:#6abdf6}.c{fill:#1e3f74}.d{fill:#1f3e74}.e{fill:#efb927}.f{color-interpolation-filters:sRGB}.g{flood-opacity:0}]]></style><path fill="#fafbfb" d="M0 0h2000v1372H0z"/><g clip-path="url(#F)"><g stroke="#1e3f74" stroke-width="5.8" class="H L"><path d="M520.63 1058.41l48.64-145.09m47.12 145.09l-45.66-146.541M256.57 991.66l48.64-145.08m47.12 145.079l-45.67-146.54"/></g><g class="U H L"><path d="M436.48 1167.22V907.51" class="Y"/><g stroke-width="11.61"><path d="M415.74 872.689l-109.08-27.57m264.07 66.75l-110.78-28"/></g></g><g class="Z"><path d="M436.48 911.87c16.027 0 29.02-12.993 29.02-29.02s-12.993-29.02-29.02-29.02-29.02 12.993-29.02 29.02 12.993 29.02 29.02 29.02zM265.27 1209.3c0-24.04 77.34-60.94 171.89-60.94s170.52 36.9 170.52 60.94H265.27z"/></g><use href="#G" class="I"/><g class="J"><use href="#H"/><use href="#I"/></g><path d="M568.61 967.87l47.88-6.5c-6.2-.66-11.29-9.15-12.93-16.14L568.61 948v19.86.01z" class="I"/><path d="M520.63 1068.34h95.93" class="H L U Y"/><path d="M256.85 894.66l47.67 6.4v93.92l-32.55-22.66c-9.61-6.7-15.35-17.79-15.35-29.64v-47.99c.07 0 .16-.02.23-.03z" class="M"/><g class="J"><path d="M304.52 901.13l-47.88-6.5c6.2-.66 11.29-9.15 12.93-16.14l34.95 2.77v19.86.01zm47.7-6.47l-47.67 6.4v93.92l32.55-22.66c9.61-6.7 15.35-17.79 15.35-29.64v-47.99c-.07 0-.16-.02-.23-.03z"/></g><use href="#J" class="M"/><path d="M256.57 1001.6H352.5" class="H L U Y"/><path d="M954.07 874.529l75.99 10.2v149.741l-51.89-36.121c-15.32-10.69-24.48-28.37-24.48-47.25v-76.52c.1 0 .25-.03.37-.05h.01z" class="M"/><g class="J"><path d="M1030.07 884.84l-76.34-10.36c9.89-1.06 18.01-14.58 20.62-25.73l55.72 4.42v31.67zm76.04-10.311l-75.99 10.2v149.741l51.89-36.121c15.32-10.69 24.48-28.37 24.48-47.25v-76.52c-.1 0-.25-.03-.37-.05h-.01z"/></g><path d="M1030.12 884.84l76.34-10.36c-9.89-1.06-18.01-14.58-20.62-25.73l-55.72 4.42v31.67z" class="M"/><g stroke="#162d5b" stroke-width="13.98" class="H L"><path d="M1012.58 946.02l48.45-37.75m-61.93 20.769l13.48 16.98"/></g><path d="M1183.26 1119.17c-.12-3.64-1.15-9.4-1.15-9.4s-.11-3.73-3.01-12.13l-4.34-13.13c-3.68-13.75-21.28-14.45-21.28-14.45 2.07-4.44-.9-17.58-8.81-20.6-14.03-5.36-16.84 6.5-16.84 6.5 1.05-20.68-8.53-22.85-12.69-25.42-4.16-2.58-16.75 1.21-18.78 4.36-2.02 3.13-6.52 6.03-6.58 6.07.03-.05.05-.46-1.75-4-2.06-4.05-5.23-17.53-5.92-19.87l-9.29-31.17c-.42-2.84-4.95-18.04-10.27-28.76s-15.07-4.4-17.6-1.53c-2.54 2.88-2.36 18.51-2.37 22.75 0 4.24 5.69 19.09 6.53 29.02s4.84 17.65 5.3 19.21 6.71 34 6.71 34l6.67 27.21s7.43 14.11-3.2 8.45c-1.06-.56-3.74-1.54-7.02-2.61-4.6-3.23-11.96-5.92-11.96-5.92s-4.02-12.34-6.89-15.68c-5.02-5.83-13.01-10.63-19.54-12.11s-13.81 2.13-17.49 4.12-2.16 5.97-.97 7.86c1.19 1.88 13.41 13.94 13.41 13.94s4.42 5.44 5.74 8.57c1.31 3.12 1.76 10.09 4.27 11.47 2.52 1.38 5.66 5.32 7.41 6.52s14.44 12.96 16.14 16.17c1.48 2.81 6.44 10.72 14.42 15l35.85 37.6 80.3-25.21 4.16-28.46c.13-1.38 1-3.95.85-8.38l-.01.01z" class="Z"/><path d="M1061.09 1060.46l8.64 36.86c.4.23 1.29-.14 1.39-.6.79-3.69 3.66-17.35 2.95-19.03-5.13-12.15-5.33-16.4-5.74-20.35s-.4-8.5-1.26-15.05-1.49-10.19-2.12-13.83-7.27-18.84-6.98-21.83c.29-3-1.67-3.46-1.38-6.46s-2.84-10.229-5.22-17.849c-1.99-6.36-2.45-24.3-2.54-30.1-2.46.97-2.96 2.41-3.87 3.44-2.54 2.88-2.36 18.51-2.37 22.75 0 4.24 5.69 19.09 6.53 29.019s4.84 17.65 5.3 19.21c.41 1.39 6.68 33.83 6.68 33.83l-.01-.01z" fill="#bcbcbc"/><path d="M1051.39 951.24c4.44-1.33 9.13 1.13 10.57 5.54 1.07 3.28 2.18 6.93 2.46 8.71.57 3.67-12.85 13.29-16.52 4.46-1.79-4.3-2.75-7.93-3.28-10.53-.56-2.78.78-5.62 3.34-6.85a22.53 22.53 0 0 1 3.44-1.33h-.01z" class="F"/><g fill="#bcbcbc"><path d="M1089.46 1041.1l9.12 23.42s-.32-10.13-.16-12.3-4.38-14.69-4.38-14.69l-4.58 3.56v.01zm32.11 132.42c-16.17-19.18-26.95-22.68-38.33-31.16-11.38-8.49-26.3-19.6-27.77-26.58s-9.71-6.54-12.93-11.06c-2.12-2.97-8.57-6.73-8.81-9.63-.23-2.91-5.12-4.16-6.02-6.64-11.86-32.74-27.01-24.1-25.47-24.92-3.74 1.9 10.76 21.11 12.56 22.87 6.67 6.53 6.93 16.98 8.66 18.87 1.48 1.61 22.29 20.06 23.72 22.55 2.88 5.01 7.52 11.46 14.71 15.62 3.37 3.29 36.03 37.77 36.03 37.77l23.84-7.49c-.07-.08-.15-.13-.22-.21l.03.01z"/></g><path d="M1018.22 1076.45s-8.73-10.53-12.11-11.86c-3.38-1.32-6.74-.25-6.57 3.76s15.03 18.69 15.03 18.69 4.27-6.91 3.65-10.6v.01z" class="F"/><path d="M1201.72 1187.94l-94.66 37.82c-1.56.63-3.34-.14-3.95-1.71l-14.2-36.41c-.6-1.55.15-3.29 1.68-3.91l93.11-37.8a3.02 3.02 0 0 1 3.92 1.61l15.74 36.4c.68 1.57-.07 3.39-1.66 4.02l.02-.02z" fill="#406cb1"/><path d="M1144.89 1210.6l-37.82 15.17a3.05 3.05 0 0 1-3.95-1.73l-14.2-36.41c-.61-1.55.15-3.3 1.69-3.93l36.27-14.75c1.54-.62 3.29.09 3.95 1.61l15.72 36.35c.68 1.58-.05 3.06-1.66 3.69z" class="B Q"/><use href="#K" class="I"/><g class="J"><use href="#L"/><use href="#M"/></g><g class="I"><use href="#N"/><path d="M1127.28 896.859l39.18 5.26v77.21l-26.75-18.63c-7.9-5.51-12.62-14.63-12.62-24.37v-39.45c.05 0 .13-.02.19-.02z"/></g><g class="J"><path d="M1166.46 902.18l-39.36-5.34c5.1-.55 9.28-7.52 10.63-13.27l28.73 2.28v16.33zm39.21-5.321l-39.18 5.26v77.21l26.75-18.63c7.9-5.51 12.62-14.63 12.62-24.37v-39.45c-.05 0-.13-.02-.19-.02z"/></g><path d="M1166.49 902.18l39.36-5.34c-5.1-.55-9.28-7.52-10.63-13.27l-28.73 2.28v16.33z" class="I"/><use href="#O" class="a"/><path d="M1760.1 1079.87c2.4 0 4.35-1.95 4.35-4.35s-1.95-4.35-4.35-4.35-4.35 1.95-4.35 4.35 1.95 4.35 4.35 4.35z" class="b"/><path d="M1603.41 888.349c5.61 0 10.16-4.549 10.16-10.16s-4.55-10.16-10.16-10.16-10.16 4.549-10.16 10.16 4.55 10.16 10.16 10.16z" class="N"/><g class="a"><path d="M1719.19 881.12a12.9 12.9 0 0 1-3.01-.36c-6.85-1.65-11.09-8.57-9.44-15.42a12.74 12.74 0 0 1 5.75-7.92c2.91-1.78 6.34-2.33 9.66-1.53 6.85 1.64 11.09 8.56 9.44 15.41a12.74 12.74 0 0 1-5.75 7.92c-2.04 1.25-4.33 1.89-6.66 1.89l.01.01zm-.04-20.38a7.49 7.49 0 0 0-3.94 1.12 7.52 7.52 0 0 0-3.41 4.7 7.6 7.6 0 0 0 5.6 9.15 7.58 7.58 0 0 0 5.73-.91 7.52 7.52 0 0 0 3.41-4.7c.98-4.07-1.54-8.17-5.6-9.14a7.76 7.76 0 0 0-1.79-.22zm-265.18 155.59a12.9 12.9 0 0 1-3.01-.36c-6.85-1.65-11.09-8.57-9.44-15.42a12.74 12.74 0 0 1 5.75-7.919c2.91-1.78 6.34-2.33 9.66-1.53 6.85 1.64 11.09 8.56 9.44 15.409a12.74 12.74 0 0 1-5.75 7.92c-2.04 1.25-4.33 1.89-6.66 1.89l.01.01zm-.04-20.379a7.49 7.49 0 0 0-3.94 1.12c-1.73 1.06-2.94 2.73-3.41 4.699-.97 4.07 1.54 8.17 5.6 9.15 1.97.47 4 .15 5.73-.91a7.52 7.52 0 0 0 3.41-4.7c.98-4.07-1.54-8.169-5.6-9.139a7.76 7.76 0 0 0-1.79-.22z"/></g><use href="#P" class="V"/><path d="M1774.61 876.739a4.35 4.35 0 0 0 4.35-4.35c0-2.402-1.95-4.35-4.35-4.35s-4.35 1.948-4.35 4.35a4.35 4.35 0 0 0 4.35 4.35z" class="b"/><path d="M1572.94 856.43c3.2 0 5.8-2.597 5.8-5.8s-2.6-5.8-5.8-5.8-5.8 2.597-5.8 5.8 2.6 5.8 5.8 5.8z" class="a"/><path d="M1536.46 887.769c4.86-3.23 14.29-5.98 14.29-5.98.68-.2.79-.73.23-1.18 0 0-7.74-6.23-11.01-11.15-3.23-4.86-5.97-14.3-5.97-14.3-.2-.68-.73-.79-1.18-.23 0 0-6.23 7.75-11.14 11.01-4.86 3.23-14.29 5.98-14.29 5.98-.68.2-.79.73-.23 1.18 0 0 7.74 6.23 11.01 11.15 3.23 4.86 5.97 14.3 5.97 14.3.2.68.73.79 1.18.24 0 0 6.23-7.75 11.14-11.01v-.01z" fill="#5580cd"/><path d="M1662.48 864.38c-.63 0-1.26-.24-1.8-.69-1.16-1-4.69-3.82-7.04-4.83-2.38-1.03-6.89-1.65-8.43-1.81-1.06-.12-1.91-.73-2.27-1.65s-.17-1.94.52-2.73c.99-1.16 3.81-4.69 4.82-7.04 1.02-2.37 1.65-6.9 1.81-8.44.11-1.05.72-1.89 1.63-2.26s1.94-.18 2.74.51c1.17 1 4.7 3.82 7.04 4.83 2.37 1.02 6.89 1.65 8.43 1.81 1.05.11 1.9.72 2.26 1.64.37.92.17 1.94-.51 2.74-1 1.16-3.81 4.69-4.83 7.04-1.02 2.37-1.65 6.9-1.81 8.44-.1 1.05-.71 1.89-1.63 2.26-.31.12-.63.18-.95.18h.02zm-13.53-11.36c2.04.34 4.61.89 6.48 1.7 1.83.79 3.96 2.25 5.59 3.47.34-2.04.9-4.62 1.7-6.48.79-1.83 2.25-3.97 3.48-5.6-2.04-.35-4.61-.9-6.48-1.7-1.83-.79-3.97-2.25-5.6-3.48-.34 2.04-.89 4.62-1.7 6.48-.79 1.83-2.25 3.97-3.48 5.6l.01.01z" fill="#ef3a36"/><path d="M1779.41 970.519a1.77 1.77 0 0 1-.77-.18c-.61-.3-.99-.93-1.01-1.68 0-.05-.14-5.66-1.16-8.7-1.04-3.07-4.38-7.65-4.41-7.69-.44-.61-.53-1.34-.22-1.95.3-.61.93-.99 1.68-1 .05 0 5.66-.14 8.7-1.17 3.07-1.04 7.65-4.38 7.7-4.42.61-.44 1.34-.53 1.95-.22.61.3.98.93 1 1.68 0 .05.14 5.66 1.16 8.69 1.04 3.07 4.38 7.65 4.41 7.69.44.6.53 1.33.23 1.94s-.93.99-1.67 1.01c-.06 0-5.67.14-8.71 1.17-3.07 1.04-7.65 4.38-7.7 4.42-.36.27-.77.41-1.18.41zm-3.91-18.38c1.17 1.74 2.95 4.6 3.72 6.9.77 2.27 1.09 5.57 1.22 7.64 1.74-1.17 4.61-2.95 6.91-3.73 2.27-.77 5.57-1.09 7.64-1.23-1.17-1.74-2.95-4.6-3.72-6.9-.77-2.27-1.09-5.57-1.22-7.64-1.74 1.17-4.6 2.95-6.91 3.73-2.27.77-5.57 1.09-7.64 1.23z" class="N"/><g fill="#ef8036"><path d="M1473.03 850.379c1.82 2.05 4.02 4.76 5.28 7.15 1.24 2.34 2.22 5.62 2.89 8.24 2.05-1.82 4.77-4.02 7.15-5.28 2.34-1.24 5.63-2.23 8.25-2.89-1.82-2.05-4.02-4.77-5.28-7.15-1.24-2.34-2.22-5.63-2.89-8.25-2.05 1.82-4.77 4.03-7.15 5.28-2.34 1.24-5.63 2.23-8.25 2.89v.01zm-5.63 257.491c1.83 2.04 4.05 4.74 5.32 7.12 1.25 2.33 2.25 5.61 2.93 8.23 2.04-1.83 4.74-4.05 7.12-5.32 2.34-1.25 5.62-2.26 8.24-2.94-1.83-2.04-4.05-4.74-5.32-7.12-1.25-2.34-2.25-5.62-2.93-8.23-2.04 1.83-4.74 4.05-7.12 5.32-2.34 1.25-5.62 2.26-8.24 2.94z"/></g><path d="M1487.33 963.79c2.4 0 4.35-1.948 4.35-4.35a4.35 4.35 0 1 0-8.7 0c0 2.402 1.95 4.35 4.35 4.35z" class="V"/><use href="#Q" fill="#5580cc"/><use href="#R" class="V"/><path d="M1754.3 905.76c4 0 7.25-3.246 7.25-7.25s-3.25-7.25-7.25-7.25-7.25 3.246-7.25 7.25 3.25 7.25 7.25 7.25z" fill="#5580cc"/><path d="M1786.22 1042.14a7.26 7.26 0 0 0 7.25-7.25 7.26 7.26 0 0 0-7.25-7.25 7.26 7.26 0 0 0-7.25 7.25 7.26 7.26 0 0 0 7.25 7.25z" class="V"/><path d="M1730.69 908.289h-216.93c-10.63 0-19.25 8.619-19.25 19.25v268.051c0 10.63 8.62 19.25 19.25 19.25h216.93c10.63 0 19.25-8.62 19.25-19.25V927.539c0-10.631-8.62-19.25-19.25-19.25z" class="Z"/><g class="c"><path d="M1671.18 1092.19h-128.6c-2.45 0-4.44 1.99-4.44 4.44v.39c0 2.45 1.99 4.44 4.44 4.44h128.6c2.45 0 4.44-1.99 4.44-4.44v-.39c0-2.45-1.99-4.44-4.44-4.44zm15.83 55.43h-144.43c-2.45 0-4.44 1.99-4.44 4.44v.39c0 2.45 1.99 4.44 4.44 4.44h144.43c2.45 0 4.44-1.99 4.44-4.44v-.39c0-2.45-1.99-4.44-4.44-4.44zm13.49-27.71h-157.92c-2.45 0-4.44 1.99-4.44 4.44v.39c0 2.45 1.99 4.44 4.44 4.44h157.92c2.45 0 4.44-1.99 4.44-4.44v-.39c0-2.45-1.99-4.44-4.44-4.44z"/></g><path d="M1726.83 919.859h-209.21a11.44 11.44 0 0 0-11.44 11.44v260.541a11.44 11.44 0 0 0 11.44 11.44h209.21a11.44 11.44 0 0 0 11.44-11.44V931.299a11.44 11.44 0 0 0-11.44-11.44z" stroke-width="3.28" class="H U"/><path d="M1573.22 968.359l47.67 6.4v93.921l-32.55-22.66c-9.61-6.7-15.35-17.79-15.35-29.64v-47.991c.07 0 .16-.02.23-.03z" class="M"/><g class="J"><path d="M1620.89 974.829l-47.88-6.5c6.2-.66 11.29-9.15 12.93-16.14l34.95 2.77v19.86.01zm47.69-6.47l-47.67 6.4v93.921l32.55-22.66c9.61-6.7 15.35-17.79 15.35-29.64v-47.991c-.07 0-.16-.02-.23-.03z"/></g><path d="M1620.92 974.829l47.88-6.5c-6.2-.66-11.29-9.15-12.93-16.14l-34.95 2.77v19.86.01z" class="M"/><path d="M1478.49 1009.99c2.36 1.4 5.28 3.32 7.2 5.21 1.89 1.85 3.82 4.68 5.26 6.98 1.4-2.36 3.32-5.28 5.21-7.2 1.86-1.89 4.69-3.83 6.98-5.26-2.36-1.4-5.28-3.32-7.2-5.21-1.89-1.86-3.83-4.691-5.26-6.981-1.4 2.36-3.32 5.281-5.2 7.201-1.86 1.89-4.69 3.83-6.99 5.27v-.01z" class="N"/><path d="M1734.16 967.4c2.62.81 5.91 1.98 8.22 3.37 2.27 1.36 4.82 3.65 6.75 5.55.81-2.62 1.98-5.91 3.37-8.23 1.36-2.27 3.65-4.82 5.55-6.76-2.62-.81-5.91-1.98-8.22-3.37-2.27-1.36-4.82-3.66-6.75-5.55-.81 2.62-1.98 5.91-3.36 8.23-1.36 2.27-3.66 4.83-5.55 6.76h-.01z" fill="#ef8036"/><path d="M1668.7 914.459c3.2 0 5.8-2.596 5.8-5.8s-2.6-5.8-5.8-5.8-5.8 2.597-5.8 5.8 2.6 5.8 5.8 5.8z" class="b"/><path d="M1665.81 241.201c-16.56 0-12.48-26.88 4.8-28.02s21.6 6.86 20.88 8.01l-.72 1.14s8.64-25.17 27.35-26.32c18.72-1.14 23.04 12.59 23.04 12.59s9.36-27.46 31.67-25.17c22.32 2.29 30.95 18.31 30.95 18.31s15.21-5.72 25.92-5.72c32.39 0 43.91 44.62 12.96 44.62l-176.85.56z" class="R"/><path d="M1669.65 227.98s25.92 10.93 40.79 2.88c14.88-8.05 48.47-25.31 64.31-16.68s24.96 15.53 46.55 10.93c21.6-4.6 35.99 0 38.39 2.88 0 0 1.92 13.23-24.96 13.23h-162.21c-6.72 0-12-13.23-2.88-13.23l.01-.01z" class="S"/><path d="M1116.22 304.049c-17.53 0-16.21-32.15 2.08-33.09 18.3-.94 22.77 7.99 22.77 7.99s2.1-20.74 21.92-21.68 30.22 18.54 30.22 18.54 10.23-11.29 33.86-9.41 28.94 35.77 12.57 35.77-105.89 1.88-123.42 1.88z" class="R"/><path d="M1116.22 304.049c-17.53 0-13.12-15.41 5.18-16.35s20.24 5.32 42.16 5.32 24.71-11.77 48.34-9.89 34.36 19.04 17.99 19.04-96.13 1.88-113.67 1.88z" class="S"/><path d="M1503.96 172.849c10.97 0 11.44-17.3 0-17.88-11.44-.59-14.37 2.4-14.37 2.4s-6.76-10.76-19.16-11.34c-12.4-.59-13.45 9.38-13.45 9.38s-6.4-7.06-21.18-5.89c-14.78 1.18-18.1 22.37-7.86 22.37l76.02.96z" class="R"/><path d="M1502.89 173.069c10.01-.22 8.21-9.64-3.24-10.23-11.44-.59-12.66 3.33-26.37 3.33s-15.46-7.36-30.24-6.18-21.49 11.91-11.25 11.91 60.13 1.42 71.09 1.18l.01-.01z" class="S"/><g opacity=".7"><g class="E"><path d="M1629.15 364.829c.03 5.69 1.06 13.23 1.57 15.43.5 2.2 4.25 6.3 4.25 6.3v-7.81c-.38-8.71.85-10.43 1.79-11.82.93-1.39 3.81-.68 3.81-.68s1.26.15 3.86.9c2.6.74 3.89 4.61 3.89 4.61l.93 2.83 4.8 14.52c.54 1.6 3.52 3.96 3.52 3.96.32-.01 2.06.33 2.06.33l5.52 1.38 38.45 9.59.52.13.21.05.14-2.38v-.2l.55-3.09.46-2.65v-.07l-.11-1.9c-.71-5.45 1.51-12.07 1.51-12.07.61-4.6 3.84-3.64 3.84-3.64 5.83.66 8.91 2.07 10.44 3.11 1.04.7 1.37 1.23 1.37 1.23 1.63 2.08 4.12 8.13 5.89 12.77 1.24 3.26 2.16 5.4 2.16 5.4.66 1.82 1.47 3.34 2.3 4.46 1.51 2.04 3.11 3.21 4.73 4.56 2.51 2.09 8.1 6.15 8.1 6.15l5.57.33c9.06.45 15.08.36 17.86.26 1.31-.4 6.26-2.08 8.5-5.22l8.22-11.77s37.41-.26 44.65-1.35c0 0 3.32 1.17 3.18 3.46l-.42 6.48s-.13 3.39-2.65 5.03l4.68-.35 2.98-.23 4.89-6.76 3.89-5.38c1.97-2.47 1.94-10 1.94-10v-12.62c-.1-2.47-1.84-4.09-1.84-4.09s-4.23-10.18-6.45-12.59c-1.97-2.13-3.66-3.07-4.69-3.47l1.79 1.01-1.77 5.25-4.7 2.89h-2.73s1.41-3.99.81-5.04c0 0-1.28-6.15-27.13-11.61-.39.51-.77.69-.77.69-.58-.18-1.28-.64-2.05-1.26l-1.46-.28 1.05-.07c-3.73-3.27-8.68-10.13-8.68-10.13a1.82 1.82 0 0 1 .56-.39c-6.72-8.89-14.09-14.95-14.09-14.95-3.59-3.03-8.99-3.71-8.99-3.71-6.44-1.29-41.21-3.11-41.21-3.11-15.49-.64-35.53 0-35.53 0l-10.83.3c-4.62-.08-27.9 1.54-27.9 1.54h-1.16c-2.6.73-6.46 6.26-6.46 6.26-8.69 12.93-12.78 21.49-12.78 21.49s-2.92 8.4-2.88 18l.04-.01zm85.57-12.6c17.42-7.37 44.84 4.39 44.54 4.39-13.36 0-44.54-4.39-44.54-4.39z"/><path d="M1836.03 357.93l-.92-.28c.15.03.47.11.92.28zm-8.75-2.509l-9.49-2.11 9.49 2.11zm4.09 1.079l-4.06-1.07 4.06 1.07zm3.17.97l-3.14-.96 3.14.96zm-32.99-6.341c-.58-.18-1.28-.64-2.05-1.26l2.82.57c-.39.51-.77.69-.77.69zm-2.46-1.609c-3.73-3.27-8.68-10.13-8.68-10.13a1.82 1.82 0 0 1 .56-.39c2.92-1.36 9.98 3.7 9.98 3.7s2.38 1.88 2.28 4.8c-.04 1.22-.34 2.05-.68 2.61l-2.97-.61-.49.03v-.01z"/></g><g class="B"><path d="M1638.36 414.18c.19-.1 1.15-.24 2.3-.36.66.9 1.4 1.68 2.21 2.31l.13.11s.01 0 .02.01c1.59 1.27 3.94 2.21 6.71 2.21 4.36 0 8.34-2.34 11.14-6.15l29.85-2.06 12.68 3.45.09 1.24.06 1.06.09 1.17c.05.53.11 1.04.17 1.55l.06.47.16 1.08c.03.17.06.33.08.5l.18 1.03.09.46c.07.37.15.73.23 1.09.03.12.05.24.08.36l.31 1.26c.01.05.03.1.04.15.39 1.48.85 2.9 1.36 4.24 1.9 5.4 4.66 9.59 8.38 12.16 0 0 .04.03.06.04-6.54-1.36-12.59-3.13-17.87-5.41l-58.95-21.02s-.98-.25.32-.96l.02.01z" class="Q"/><path d="M1724.96 387.261c-.71-1.54-1.41-2.88-2.01-3.8.89 1.04 1.59 2.3 2.01 3.8z"/><path d="M1703.44 413.6v.11l.05 1.23.06 1.06.09 1.17.17 1.55.06.47.16 1.08.08.5.18 1.03.09.46.23 1.09.08.36.31 1.26c.01.05.03.1.04.15.39 1.48.85 2.9 1.36 4.24 1.9 5.4 4.66 9.59 8.38 12.16 0 0 .04.03.06.04.05.04.11.07.16.11 0 0 .02.01.03.02 2.6 1.85 6.44 3.21 10.98 3.21 1.98 0 3.91-.27 5.77-.76 8.71-2.33 15.74-9.81 18.22-19.66l.04-.16c0-.02.01-.05.02-.07 0 0 .67-2.19 1.05-5.7.07-.63.12-1.3.17-2.01l-5.57-.33-8.27-6.35c-1.6-1.25-3.04-2.31-4.56-4.36-.83-1.12-1.66-2.21-2.32-4.04 0 0-.89-2.56-2.14-5.82-1.02-2.67-2.28-5.81-3.47-8.38-.71-1.54-1.41-2.88-2.01-3.8-.14-.21-.28-.41-.41-.58 0 0-.33-.53-1.37-1.23-.05.01-.1.03-.15.04-7.73 1.68-12.86 7.13-15.54 14.52l-.46 2.66-.56 3.09v.2l-.14 2.38-.21-.05c-.51 2.83-.75 5.9-.67 9.12l.01-.01zm13.8-16.71a6.87 6.87 0 0 1 .63-.1c5.38-.51 10.48 6.86 11.39 16.47.91 9.6-2.71 17.81-8.09 18.32a6.84 6.84 0 0 1-.64.02c-5.14-.1-9.88-7.26-10.76-16.49-.88-9.22 2.43-17.15 7.46-18.21l.01-.01z"/><path d="M1750.02 424.481l.04-.16c0-.02.01-.05.02-.07 0 0 .67-2.19 1.05-5.7l17.44 2.92c.22.09 19.48 4.72 35.73 8.63a16.58 16.58 0 0 0 2.34 1.95c.07.06.15.1.22.15 0 0 .02.01.03.02 2.6 1.85 6.44 3.21 10.98 3.21 1.93 0 3.81-.25 5.62-.72l3.01.72s13.12 5.28 1.2 6.19c-8.96.68-56.45 6.67-95.89 2.53 8.71-2.33 15.74-9.81 18.22-19.66l-.01-.01z" class="Q"/><path d="M1804.81 416.33c2.16 3.78 5.13 6.04 8.2 5.75 3.01-.29 5.48-2.99 6.9-7l6.3-.63 2.05-.22c.97-.11 1.75-.41 2.38-.82l4.68-.35 2.98-.23 4.89-6.76c-.2 5.22-1.27 8.66-1.27 8.66s-.01.06-.02.08l-.04.17c-2.49 9.91-9.59 17.42-18.37 19.7-1.81.47-3.69.72-5.62.72-4.55 0-8.39-1.37-10.98-3.21 0 0-.02-.01-.03-.02-.07-.05-.15-.1-.22-.15-.83-.57-1.61-1.23-2.34-1.95-2.57-2.54-4.56-6.01-6.04-10.21a39.7 39.7 0 0 1-1.03-3.08l7.58-.47v.02z"/></g><path d="M1639.8 397.93c.56 6.61 3.68 11.69 6.97 11.34s5.5-6 4.95-12.61c-.56-6.61-3.68-11.69-6.97-11.34s-5.5 6-4.95 12.61zm9.56 3.49s.58-1.47.35-2.31h1.65s.25 2.52-.67 4.7l-1.32-2.4-.01.01zm-.66-8.68l.78-2.76s1.25 1 1.59 5.21h-1.45s.05-1.78-.93-2.44l.01-.01zm-2.65 13.84l.33-3.4 1.43 3.4s-.83.48-1.76 0zm-.83-9c0-.94.43-1.7.96-1.7s.96.76.96 1.7-.43 1.7-.96 1.7-.96-.76-.96-1.7zm-.54-9.58s.35-.88 1.75-.73c.05 0-.74 3.71-.74 3.71l-1.01-2.98zm-2.14 11.11l2.03.07v.44l-1.12 2.07c-.47-.46-.91-2.58-.91-2.58zm-.17-6.92l1.51 2.99h-1.95s.03-1.85.44-2.99z" class="D"/><g class="B"><path d="M1651.07 395.18h-1.45s.05-1.78-.93-2.44l.78-2.76s1.25 1 1.59 5.21l.01-.01zm-4.63-7.921l-.74 3.71-1.01-2.98s.35-.88 1.75-.73zm3.26 11.851h1.65s.25 2.52-.67 4.7l-1.32-2.4s.58-1.47.35-2.31l-.01.01zm-1.9 7.47s-.83.48-1.76 0l.33-3.4 1.43 3.4zm-3.23-6.961l-1.12 2.07c-.47-.46-.91-2.58-.91-2.58l2.03.07v.44zm-2.64-4.44s.03-1.85.44-2.99l1.51 2.99h-1.95zm4.25.702c.53 0 .96.76.96 1.7s-.43 1.7-.96 1.7-.96-.76-.96-1.7.43-1.7.96-1.7z"/></g><path d="M1846.85 391.222c.24-3.754-.79-6.875-2.31-6.971-1.51-.097-2.94 2.867-3.18 6.621s.8 6.874 2.31 6.971c1.52.097 2.94-2.868 3.18-6.621z" class="D"/><path d="M1841.43 393.659a3.17 3.17 0 0 0 3.17-3.17c0-1.75-1.17-2.9-2.69-3.13 0 0-.91 2.59-.61 5.8l.05.51h.08v-.01z" class="C"/><path d="M1757.99 400.401c4.19 0 7.59-3.398 7.59-7.59s-3.4-7.59-7.59-7.59-7.59 3.398-7.59 7.59 3.4 7.59 7.59 7.59z" class="D"/><path d="M1755.51 396.591a4.27 4.27 0 1 0 0-8.54 4.27 4.27 0 1 0 0 8.54z" class="C"/><g class="B"><path d="M1715.39 317.459c31.81-6.82 43.07 2.72 43.07 2.72s-9.44-1.61-16.05-2.16c0 0-.29-1.57-.61-1.71s-2.92-1.06-12.67.16l.05.68-13.8.31h.01zm-17.23 2.181c-3.15-3.03-9.39-4.33-9.39-4.33v-1.33c-19.32-1.1-26.54 1.91-26.54 1.91l-.75 2.62-5.58.35c3.03-6.77 21.34-6.56 32.1-6.26 7.99.22 12.73 4.76 14.17 7.09l-4.01-.05z"/><path d="M1671.58 317.839l-4.81.33.57-3.63 4.47-.51-.23 3.81z"/></g><g class="O"><path d="M1776.85 333.54l2.97 3.27c-1.17 1.13-1.91.2-1.91.2l-1.07-1.08c-.34-.42-1.04-1.48-.78-2.06.27-.59.78-.32.78-.32l.01-.01zm-62.64-5.44h9.41s.53.78.62 3.01v5.04l-3.98-.49s-.25-3.67-2.23-4.32c-1.99-.64-4.13-.47-4.13-.47l.3-2.76.01-.01zm33.8 3.67l3.37 12.16c-1.63-.42-5.79-.84-5.79-.84 3.22-2.92.8-11.32.8-11.32h1.63-.01zm7.16-5.27l11.34.35c4.49.08 7.95 4.27 7.95 4.27-1.36 4.6.67 4.99 2.47 7.25 1.71 2.14 5.36 1.74 5.36 1.74l3.98 6.47c-20.72.91-24.16-.75-24.16-.75-.95-5.15-6.93-19.33-6.93-19.33h-.01zm-20.99-.07l9.42-.13s1.59-.18 1.88 1.09h-6.74s-.86.05-.8 1.25l.06 1.2s-.96.45-1.78 1.74l-2.05-4.85v-.3h.01zm0 3.41l1.37 3.18-.99 3.38-.38-6.56z" class="K"/></g><path d="M1705.74 322.001l4.36 25.11c.68 3.98 5.53 3.04 5.53 3.04 13.23-1.44 80.93-.58 83.44-.55-.41-.05-2.53-.75-8.61-9.59-6.87-10-15.38-16.56-15.38-16.56-35.68-4.32-69.35-1.44-69.35-1.44l.01-.01zm56.36 23.83c-.95-5.15-6.93-19.33-6.93-19.33l11.34.35c4.49.08 7.95 4.27 7.95 4.27-1.36 4.6.67 4.99 2.47 7.25 1.71 2.14 5.36 1.74 5.36 1.74l3.98 6.47c-20.72.91-24.16-.75-24.16-.75h-.01zm13.97-11.97c.27-.59.78-.32.78-.32l2.97 3.27c-1.17 1.13-1.91.2-1.91.2s-.74-.68-1.07-1.08c-.34-.42-1.04-1.48-.78-2.06l.01-.01zm-29.69-2.09h1.63l3.37 12.16c-1.63-.42-5.79-.84-5.79-.84 3.22-2.92.8-11.32.8-11.32h-.01zm-12.2-5.03v-.3l9.42-.13s1.59-.18 1.88 1.09h-6.74s-.86.05-.8 1.25l.06 1.2s-.96.45-1.78 1.74l-2.05-4.85h.01zm1.37 6.28l-.98 3.37-.38-6.55 1.36 3.18zm-21.65-2.15l.3-2.76h9.41s.53.78.62 3.01v5.04l-3.98-.49s-.25-3.67-2.23-4.32c-1.99-.64-4.13-.47-4.13-.47l.01-.01z" class="B"/><g class="O"><path d="M1699.97 329.53c-2.42-.15-3.81.15-3.81.15-.04-2.08-1.59-2.22-1.59-2.22-5.88-.83-7.75.25-7.75.25l.53-1.21 11.51.61c1.49.08 1.26 1.21 1.26 1.21l-.15 1.21zm-29.29 1.36c-.05-3.13-.78-3.64-.78-3.64l.91-1.26 7.42.23-1.29 3.89c-5.68-.61-6.26.78-6.26.78z" class="K"/></g><path d="M1653.41 346.27l49.84 7.06.52.03c.3.07.18-.55.18-.55l-2.47-26.32c-.45-4.72-3.38-4.82-3.38-4.82-5.91-1.36-27.67-.61-27.67-.61-4.14-.11-5.4 2.78-5.4 2.78-4.44 5.86-11.61 22.42-11.61 22.42l-.01.01zm46.71-17.95l-.15 1.21c-2.42-.15-3.81.15-3.81.15-.04-2.08-1.59-2.22-1.59-2.22-5.88-.83-7.75.25-7.75.25l.53-1.21 11.51.61c1.49.08 1.26 1.21 1.26 1.21zm-21.89-2.1l-1.29 3.89c-5.68-.61-6.26.78-6.26.78-.05-3.13-.78-3.64-.78-3.64l.91-1.26 7.42.23z" class="B"/><path d="M1698.07 346.92l.13-.59 2.35 1.01-1.08 5.45c.05 0 .34.04.74.1-1.8-.07-5.93-1.93-8.77-3.31l5.73.02.91-2.68h-.01z" class="P"/><path d="M1681.25 343.06c1.92-3.36 8.33-4.97 13.48-3.86 4.21.91 3.77 5.48 3.46 7.13-.07.37-.13.59-.13.59l-.91 2.68-5.73-.02-5.68.02c-5.25.05-6.41-3.18-4.49-6.54z" class="E"/><path d="M1700.55 347.339l1.95-9.81 1.51 15.91-3.81-.55-.74-.1 1.08-5.45h.01z" class="P"/><g class="B"><path d="M1646.92 345.16s-7.28-.81-9.22-2.42c0 0 .61-2.35 2.88-7.52 2.27-5.15 6.16-10.66 6.16-10.66s2.07-3.65 13.3-2.58c0 0-10.13 14.53-13.12 23.18zm-11 46.41c-.15 2.01-.14 4.1.04 6.24l.1 1.54c.26 3.06.86 5.91 1.7 8.41.75 2.39 1.72 4.42 2.91 6.04.66.9 1.4 1.68 2.21 2.31l.13.11s.01 0 .02.01c1.59 1.27 3.94 2.21 6.71 2.21 4.36 0 8.34-2.34 11.14-6.15 1.62-2.2 2.85-4.9 3.52-7.91l.03-.11c0-.02 0-.03.01-.05 0 0 .1-.39.24-1.07l.06-.3c0-.05.02-.11.03-.16l.03-.18c.28-1.65.59-4.39.36-7.67l-5.53-1.37-1.69-.35c-.26-.05-.2-.03-.24-.07h-.13c.25.07.11.02 0 0-.09-.02-.16 0 0 0 0 0-2.98-2.36-3.52-3.96l-3.76-11.38-1.04-3.14h-.3c-8.1.51-12.32 7.78-13.02 17h-.01zm8.82-6.25c3.29-.35 6.41 4.72 6.97 11.34.56 6.61-1.66 12.26-4.95 12.61s-6.41-4.72-6.97-11.34c-.56-6.61 1.66-12.26 4.95-12.61z"/></g><path d="M1636.05 368.16c.91-2.6 3.41-2.02 3.41-2.02l4.65.99c3.03.92 4.19 4.66 4.19 4.66l2.21 6.68 3.47 10.49c.56 1.94 3.59 4.09 3.59 4.09l2.05.42s-6.96-17.03-9.27-26.1c0 0-1.15-6.92-13.12-6.01 0 0-4.19.49-2.75 10.04l.3 1.7s.56-4.37 1.26-4.95l.01.01z" class="E"/><path d="M1813 422.09c-3.06.29-6.04-1.98-8.2-5.75l7.28-.55-.26 2.4c1.52.69 2.87 0 2.87 0l-1.19-2.52 6.39-.57c-1.42 4.01-3.89 6.71-6.9 7l.01-.01z" class="D"/><g class="B"><path d="M1811.83 418.18l.26-2.4 1.42-.12 1.19 2.52s-1.36.69-2.87 0zm-107.79 2.08l.08.5-.08-.5zm.99 4.711l.04.15c-.01-.05-.03-.1-.04-.15zm-1.38-7.791l-.09-1.18.09 1.17z"/></g><path d="M1634.96 378.74c-.38-8.71.86-10.43 1.79-11.82s3.81-.68 3.81-.68 1.26.15 3.86.9c2.6.74 3.89 4.61 3.89 4.61l1.97 5.96-1.04-3.14h-.3c-8.1.51-12.32 7.78-13.02 17 0 0-.52-2.07-1.01-5.09.03.04.06.06.06.06v-7.81l-.01.01z" class="T"/><g class="B"><path d="M1664.76 402.69l.03-.18c.28-1.65.59-4.39.36-7.67l36.07 8.92 2.89.72-.05.28c-.48 2.75-.7 5.73-.63 8.84v.11h-.04l-12.68-3.46-26.05-7.09.06-.3c0-.05.02-.11.03-.16l.01-.01zm112.89 8.891l8.22-11.77s37.41-.26 44.65-1.35c0 0 3.32 1.17 3.18 3.46l-.42 6.48s-.13 3.39-2.65 5.03c-.63.41-1.41.71-2.38.82l-2.05.22-6.3.63-6.39.57-1.42.12-7.28.55-7.58.47c-10.07.55-20.6.69-28.36 0 0 0 .12-.03.33-.1 1.31-.4 6.21-2 8.45-5.13z"/></g><path d="M1830.89 366.93l2.53.04s3.16.34 3.04 3.37c-.07 1.83-.2 11.87-.2 11.87s-.05 2.98-2.35 3.62c0 0-6.94 3.08-22.62 3.64 0 0-12.23.75-26.81-.89 0 0-4.4.24-5.29-7.29l-1.1-8.23s-.67-3.8 1.86-4.43l9.31-.82s13.46-.86 41.64-.89l-.01.01z" class="D"/><path d="M1829.86 367.869l3.1.07s2.48.12 2.49 1.78c0 1.67-.2 12.16-.2 12.16s-.02 2.37-2.09 3.07c0 0-6.82 3.11-22.02 3.39 0 0-11.69.67-25.63-.83 0 0-4.21.21-5.07-6.63l-1.06-7.48s-.65-3.46 1.77-4.02l8.89-.73s12.86-.78 39.8-.78h.02z" class="B"/><g class="D"><path d="M1810.86 382.031c1.86 0 3.36-1.787 3.36-3.99s-1.5-3.99-3.36-3.99-3.36 1.786-3.36 3.99 1.5 3.99 3.36 3.99zm30.45-19.881s-2.46 5.7-2.33 8.12c0 0 .5 3.79 1.14 4.65 0 0 5.18.46 6.37-2.54 0 0-.92-6.95-5.18-10.23z"/></g><path d="M1841.72 362.481s-2.17 5.95-1.95 7.88c0 0 .58 3.02 1.13 3.68 0 0 4.64-.05 5.45-2.49 0 0-1.25-6.57-4.62-9.08l-.01.01z" class="C"/><path d="M1775.72 371.48s-9.16-5.82-32.05-5.16c0 0-1.23 3.63-1.23 4.44l4.31 5.13s.44.83 3.18 1l19.62 1.23s6-.73 6.48-2.79l-.3-3.85h-.01z" class="D"/><path d="M1773.55 371.909s-8.04-4.76-28.13-4.22c0 0-1.08 2.97-1.08 3.63l3.6 4.15s.32.74 2.97.86l17.65.94s4.83-.53 5.25-2.22l-.26-3.15v.01z" class="C"/><path d="M1720.53 431.591l.64-.02c5.38-.51 9-8.71 8.09-18.32-.91-9.6-6.01-16.98-11.39-16.47a6.87 6.87 0 0 0-.63.1c-5.03 1.07-8.34 8.99-7.46 18.21s5.61 16.38 10.76 16.49l-.01.01z" class="D"/><g class="B"><path d="M1720.53 422.711l2.34 4.95s-1.36.69-2.87 0l.53-4.95zm7.69-11.6h-2.37s.08-2.59-1.52-3.55l1.28-4.01s2.05 1.45 2.61 7.56zm-10.45-10.442s.58-1.28 2.87-1.06c.07 0-1.22 5.39-1.22 5.39l-1.65-4.33zm8.21 16.142h2.69s.41 3.67-1.1 6.83l-2.16-3.48s.95-2.13.57-3.35zm-8.4.11v.64l-1.83 3c-.76-.67-1.49-3.75-1.49-3.75l3.32.11zm-3.59-10.161l2.48 4.35h-3.19s.05-2.69.71-4.35zm6.22 5.359c.86 0 1.56 1.11 1.56 2.48s-.7 2.48-1.56 2.48-1.56-1.11-1.56-2.48.7-2.48 1.56-2.48z"/></g><g class="F"><path d="M1715.86 379.451l-.62-.15h.01l.6.15h.01zm4.29 1.588c.66.34 1.28.74 1.77 1.17-.37-.32-.94-.74-1.77-1.17zm-15.4 19.311l-.29 1.66v-.06l.29-1.6zm1.89-22.02c-.64.16-1.22.48-1.73.93.41-.42.98-.8 1.73-.93zm-77.34-17.529l-.03.44c0-.15.02-.29.03-.44z"/></g><path d="M1629.24 361.67c0-.15.02-.29.03-.43 0-.15.02-.29.03-.44.86-11.91 3.83-16.14 3.83-16.14l3.02.69c-.53.72-1.19 2-1.89 3.53-2.27 4.96-4.94 12.58-5.01 12.77v.01l-.01.01z" class="D"/><path d="M1720.15 381.04l-.7-.34-.47-.2-.14-.06-.35-.14c-.04-.02-.09-.03-.13-.05l-.45-.16c-.02 0-.04-.01-.06-.02l-.38-.13c-.04-.01-.08-.03-.13-.04l-.32-.1-.1-.03-.38-.11c-.02 0-.03 0-.04-.01l-.31-.09c-.02 0-.05-.01-.07-.02l-.27-.07-.45-.11c-.05-.01-.08-.02-.11-.03h-.04-.01l-5.89-.77h-.04c-1-.35-1.89-.4-2.67-.2-.75.13-1.31.51-1.73.93-5.01 4.5-3.89 22.01-3.69 24.49l-1.33-.33-.41-9.79c-.76-9.14 2.61-17.04 2.61-17.04 1.7-5.76 8.65-4.25 8.65-4.25l7.54 1.4c8.56 2.2 9.94 8.1 9.94 8.1l6.98 19.28c1.58 4.62 3.91 5.98 3.91 5.98l12.75 9.43-6.14-.33c-4.03-2.98-11.57-8.88-11.57-8.88-.25-.2-.53-.5-.81-.86-1.17-1.53-2.39-4.11-2.42-4.17l-3.93-10.19c-.84-1.99-2.47-5.48-2.47-5.48l-1.82-3.45c-.18-.34-.45-.66-.78-.95-.33-.3-.72-.57-1.14-.83a19.01 19.01 0 0 0-.62-.34l-.01-.04z" class="E"/><path d="M1709.43 379.069v-.5l-.12-.04 5.95.77h.04c.03 0 .06.01.11.03.1.02.25.06.43.11l.29.07c.02 0 .05.01.07.02l.31.09c.01 0 .03 0 .04.01l.38.11c.03 0 .06.02.1.03l.32.1c.04.01.08.03.13.04l.38.13c.02 0 .04.01.06.02l.45.16c.04.02.09.03.13.05l.35.14.14.06.47.2 1.31.68c.15.08.28.17.41.26-7.73 1.68-13.01 7.17-15.68 14.55.1-.27.21-.54.32-.81 0-10.37 3.62-16.33 3.62-16.33l-.01.05z" class="T"/><path d="M1704.91 379.261c.51-.46 1.08-.78 1.73-.93.78-.19 1.66-.14 2.67.2h.03c.03 0 .06.02.09.03v.5s-3.62 5.95-3.62 16.33l-.32.81-.46 2.66-.27 1.49-.29 1.6v.06.14l-.14 2.38-.21-.05-2.89-.72c-.2-2.48-1.32-20 3.69-24.49l-.01-.01z" class="P"/><g class="F"><path d="M1840.36 409.951l5.76-7.47s2.42-2.98 2.73-9.04c.3-6.06.66-13.48 0-16.06l-.81.45v15.83s-.56 4.87-2.58 6.54-5.1 9.75-5.1 9.75zm-4.3-45.761l-4.7 2.89h-2.73s1.41-3.99.81-5.04c0 0-1.28-6.15-27.13-11.61l-2.82-.57-1.46-.28 1.05-.07.49-.03 2.97.61 15.25 3.2 9.49 2.11h.04l4.06 1.08h.02.02l3.14.96.57.17.92.28 1.79 1.01-1.77 5.25-.01.04zm-76.8-7.569c-13.36 0-44.54-4.39-44.54-4.39 17.42-7.37 44.84 4.39 44.54 4.39zm-130.02 5.04c.07-.19 2.74-7.82 5.01-12.77l3.24.5c-2.73 4.79 1.17 5.06 1.17 5.06l19.9 3.94-.94-7.3 81.18 11.98s-4.38 7.11 5.5 12.22v27.35s-1.87 6.32 24.57 14.13v.04l-14.46-.07-8.69-.53 6.14.33-12.75-9.43s-2.33-1.36-3.91-5.98-6.98-19.28-6.98-19.28-1.38-5.91-9.94-8.1l-7.54-1.4s-6.94-1.5-8.65 4.25c0 0-3.37 7.9-2.61 17.04l.41 9.79 1.33.33-36.07-8.92-5.53-1.37-1.69-.35c-.26-.05-.2-.03-.24-.07-.02-.01-.05-.04-.14-.08 0 0-2.97-2.29-3.51-3.89l-3.76-11.38-1.97-5.96s-1.29-3.86-3.89-4.61c-2.6-.74-3.86-.9-3.86-.9s-2.88-.71-3.81.68-2.17 3.11-1.79 11.82v7.81s-.02-.02-.05-.06c-.46-.51-3.72-4.19-4.19-6.23-.51-2.2-1.54-9.74-1.57-15.43a55.12 55.12 0 0 1 .09-3.17v.01z"/></g><g class="B"><path d="M1648.99 353.9l4.51.7s.86.48.19 1.73c0 0-.39.4-1.89.13l-2.81-.54s-.8-.16-.8-.96.51-1.09.8-1.05v-.01zm22.2 3.441l5.34.82s1.02.57.23 2.05c0 0-.46.47-2.23.15l-3.33-.64s-.95-.19-.95-1.14.61-1.29.95-1.24h-.01z"/></g><g class="D"><path d="M1701.34 362.43s-.76 2.78 11.92 4.34l18.33 2.52m-33.53 26.59s-.51-3.29-8.69-4.57l-23.03-4.83-8.03-2.05"/></g></g><g opacity=".7"><g class="B"><path d="M1325.24 434.71c-.09-10.11-3.41-18.3-7.57-18.79-.04 0-.09-.02-.13-.02-.35.19-3.75 2.27-5.4 9.95-.1.47-.19.96-.28 1.48v.03l-1.67 6.98c0 1.57-.67 3.74-1.19 5.16-.17.53-.36 1.02-.56 1.45 0 .02-.01.03-.01.03l.03 2.76-7.63 1.73c.55 2.08 1.25 3.9 2.08 5.34 1.31 2.28 2.92 3.62 4.65 3.62h9.72c1.08 0 2.1-.52 3.04-1.45 2.73-2.72 4.69-8.97 4.92-16.4l.02-1.41v-.44l-.02-.02zm-67.19 6.94c-.51-5.33-1.75-9.99-3.45-13.34-1.66-3.31-3.77-5.34-6.07-5.52-.11 0-.22-.02-.34-.02h-8.59c-.23.17-.58.35-.81.54-4.3 3.64-9.19 12.1-10.22 31.66l-.49.46c.17-.07.33-.15.45-.22 0 0 1.09 3.77-.69 6.93.09.29.19.57.28.85 0 .02.01.04.02.06l.3.82c.31.81.65 1.56 1 2.26.02.03.03.06.05.09.1.2.21.4.31.59.02.03.03.06.05.09.24.43.5.84.76 1.22 0 .01.02.02.02.03l.35.49.09.12.3.38c.04.04.07.08.11.12l.33.36c.03.03.05.06.08.08.14.14.28.28.42.4.02.01.03.03.05.04.12.11.24.21.37.31l.13.1c.1.07.2.14.29.21.05.03.1.07.15.1l.3.18c.05.02.09.05.14.07.15.07.29.14.44.2a4.41 4.41 0 0 0 1.67.34h12.33c1.64 0 3.2-.95 4.57-2.63 2.33-2.85 4.13-7.81 4.99-13.82l.11-.78.09-.77.07-.61c.02-.2.04-.4.05-.6.06-.61.1-1.22.14-1.85.03-.45.08-1.76.08-1.96l.02-1.42a55.32 55.32 0 0 0-.27-5.55l.02-.01zm-15.98 5.55c0-9.45 3.17-17.12 7.09-17.12s7.09 7.66 7.09 17.12-3.17 17.12-7.09 17.12-7.09-7.66-7.09-17.12zm-102.31 14.28c2.52.74 5.33 1.15 8.29 1.15 3.92 0 7.57-.72 10.63-1.97l-26.14-2.82c1.9 1.54 4.37 2.8 7.22 3.63v.01z"/></g><g class="E"><path d="M1325.22 436.581c4.92-12.18-.23-21.57-.23-21.57-.66-2.92-1.42-5.63-2.14-7.96l-1.1-1.33-2.94-3.54s-.21-.2-.17-.53c.03-.27.22-.63.84-1.04.78-.52.7-1.17.6-1.48l-.09-.23c-7.4-16.75-13.82-21.86-13.82-21.86-10.28-7.47-35.15-7.59-35.15-7.59-32.89-1.49-52.63 1.34-60.13 1.8s-13.67 3.6-13.67 3.6c-15.42 8.07-27.41 17.16-27.41 17.16-6.72 5.04-8.46 5.65-8.46 5.65l-8.98 2.6c-10.86 2.91-23.54 11.36-23.54 11.36-1.52 1.07-2.68 2.09-3.57 3.04.22-.08.37-.11.37-.11.23-.09.38-.13.38-.13-.3.6.39 2.55.39 2.55s1.9 3.28 2.59 5.36c.69 2.07-.82 3.02-1.51 4.23s-1.64.73-1.64.73c-3.93-2.42-3.93-3.5-3.93-3.5l.27-1.87.2-1.81c-4.1 2.92-3.85 9.71-3.85 9.71-.27 1.58-.43 4.02-.43 4.02-.58.21.04 13.23.04 13.23-.06 0-.08 1.19.03 2.68.15-.08.26-.07.26-.07s.51 5.53 2.44 5.62c0 0 3.13-.02 8.12-2.23.33-.14.66-.3 1.01-.46l35.82 2.91 6.05.49 10.87 5.22s1.57.92 11.04-.34l10.15-1.36c12.03-1.95 20.4-5.35 20.4-5.35l1.59-.73c2.29-39.62 20.56-36.8 20.56-36.8 12.77 2.46 12.7 17.63 12.7 17.63s.18 8.06-.34 13.75c4.18-1.25 41.78-12.64 51.39-20.69l1.92-1.51c1.65-7.68 5.05-9.75 5.4-9.95.04 0 .09.01.13.02 1.62-1.13 3.38-1.37 4.76.09 2.91 3.08 3.02 9.73 3.02 9.73.36 5.43.05 7.63-.2 8.49v.48.44l-.02 1.41v.03l-.02.01zm-120.47-41.01l-28.66.22 12.11-7.88s12.75-9.4 24.51-10.07l-7.97 17.73h.01zm20.13-.22s-5.65.62-10.96.45l2.14-4.9 3.6-7.76 3.6.31s-1.37 2-1.85 4.63c-.46 2.48-1.7 6.39 3.48 6.12v1.16l-.01-.01zm.86-.19v-1.08l2.91.12-2.91.96zm3.63-12.47s2.28-3.46-.53-3.44l-4.59.05v-.38s.34-1.28 3.46-1.08c3.12.21 8.24 1.32 8.24 1.32l-3.12 5.57s-.58-1.58-3.46-2.04zm7.27 10.28l-1.54.15s-.9-5.83-1.7-7.07l3.65-6.6s1.82-.18 1.75.87c-.08 1.05-2.16 12.64-2.16 12.64v.01zm42.09-.07h-1.77s.93-.36.59-1.95c-.33-1.59-6.06-1.52-6.06-1.52-.57-8.79-7.73-7.22-7.73-7.22l1.23-1.7 11.1-.49c2.85 2.83 2.65 12.87 2.65 12.87l-.01.01zm16.39.15c1.99-7.13-4.18-8.77-4.18-8.77h-3.77l-1.63-4.45 12.42.38c2.64 1.92 5 12.54 5 12.54-.58.96-7.85.31-7.85.31l.01-.01z"/><path d="M1122.38 419.96l.03-.23-.03.23z"/></g><path d="M1319.47 400.609c-.61.41-.81.77-.84 1.04-.03.33.17.53.17.53l2.94 3.54 1.1 1.33.01-1.21v-.06l.05-4.14s.16-1.29-1.87-2.09l-1.05-.6s.04.07.07.18c.1.31.18.96-.6 1.48h.02z" class="P"/><g class="E"><path d="M1252.41 424.63l-.42-.48.42.48zm-1.01-1.101l.51.52-.51-.52zm3.11 4.54l-.29-.62.29.62zm-25.93 26.891l.93-9.69c-.43 2.89-.76 6.11-.95 9.71l.02-.02zm-.49.47l-.12.06.12-.06zm26.52-27.129l-.04-.09c.01.02.02.05.03.07l.01.02zm3.46 13.45l-.02-.11c0 .03.01.07.02.1v.01zm-7.38-18.842l-.6-.46.6.46zm3.11 3.761l-.36-.6.36.6zm-3.85-4.31l-.6-.38.6.38zm3.42 3.59l-.35-.52.35.52zm-4.97-4.47l-.73-.31.73.31zm.87.451l-.7-.37.7.37z"/></g><path d="M1257.75 455.191l28.59-6.47 14.47-3.27 7.63-1.73-.03-2.76-50.47 12.67-.09.77-.11.78.01.01z" class="B"/><path d="M1248.57 422.76s-.01 0-.04.02c2.3.18 4.41 2.22 6.07 5.52-1.45-3.37-4.08-6.69-8.84-7.7h-.01c-.22-.02-2.92-.22-6.14 2.16h8.96z" class="T"/><path d="M1259.16 434.279s.06-15.16-12.7-17.63c0 0-18.27-2.82-20.56 36.8l-1.59.73s-8.37 3.4-20.4 5.35c0 0 18.74-1.64 23.58-3.81l.48-.24.12-.06.46-.23c0-.07 0-.15.01-.22.2-3.6.52-6.82.95-9.71 1.89-12.7 5.79-18.88 9.29-21.88 3.56-3.05 6.71-2.82 6.95-2.8h.01c.3.06.59.14.87.22a4.39 4.39 0 0 1 .19.06 9.61 9.61 0 0 1 .81.27c.01 0 .03.01.04.02a15.99 15.99 0 0 1 .73.31c.06.03.11.05.17.08.24.12.48.24.7.37.02.01.05.03.07.04.21.12.41.25.6.38.05.03.1.06.14.1a9.48 9.48 0 0 1 .6.46c.03.02.05.05.08.07a10.48 10.48 0 0 1 .5.44c.04.04.08.07.12.11.18.17.35.34.51.52.03.03.06.06.08.09l.42.48a1.06 1.06 0 0 0 .1.12c.15.19.29.38.43.57.03.04.05.08.08.11.12.17.24.34.35.52.02.04.05.08.07.11.13.2.24.4.36.6.02.04.05.09.07.13l.29.54c.02.04.04.07.05.11.1.21.2.41.29.62.02.05.04.09.06.14.01.03.03.06.04.09 1.7 3.36 2.93 8.01 3.45 13.34.17 1.79.27 3.65.27 5.56l-.02 1.42v.3c-.06.73 0 1.08-.08 1.66l-.14 1.85c.34-.99.58-2.57.75-4.39.52-5.69.34-13.75.34-13.75l.01.03z" class="F"/><g class="B"><use href="#S"/><use href="#S" opacity=".7"/><path d="M1248.19 422.76c.11 0 .22.01.34.02l.04-.02h-.37-.01z"/></g><path d="M1325.24 434.709v-.48c.26-.86.57-3.06.21-8.49 0 0-.11-6.65-3.02-9.73-1.38-1.46-3.14-1.22-4.76-.09 4.16.5 7.48 8.68 7.57 18.79z" class="T"/><path d="M1233.61 471.03l-.3-.18-.15-.1-.29-.21-.13-.1-.37-.31c-.02-.01-.03-.03-.05-.04l-.42-.4c-.03-.03-.05-.06-.08-.08l-.33-.36-.11-.12-.3-.38-.09-.12-.35-.49c0-.01-.02-.02-.02-.03l-.76-1.22c-.02-.03-.03-.06-.05-.09l-.31-.59c-.02-.03-.03-.06-.05-.09l-1-2.26-.3-.82c0-.02-.01-.04-.02-.06l-.28-.85c-.39.7-.92 1.36-1.63 1.95 0 0-22.32 3.03-43.77-.11 0 0-8.56-2.31-15.06-2.37l-8.71-.94c-3.06 1.24-6.71 1.97-10.63 1.97-2.97 0-5.77-.41-8.29-1.15l-8.45 1.98s34.23 9.75 102.88 7.85c-.15-.06-.29-.13-.44-.2-.05-.02-.09-.05-.14-.07v-.01z" class="B Q"/><path d="M1308.43 440.93c.2-.43.39-.92.56-1.45l-.56 1.45z" class="E"/><path d="M1307.55 454.41c-1.74 0-3.34-1.35-4.65-3.62l-16.55-2.06-28.59 6.47c-.86 6.02-2.66 10.98-4.99 13.82l70.15-15.73-2.61-.33c-.94.93-1.96 1.45-3.04 1.45h-9.72z" class="B Q"/><g class="F"><path d="M1249.15 464.32c3.92 0 7.09-7.665 7.09-17.12s-3.17-17.12-7.09-17.12-7.09 7.665-7.09 17.12 3.17 17.12 7.09 17.12zm68.87-15.69c3.09 0 5.59-6.039 5.59-13.49s-2.5-13.49-5.59-13.49-5.59 6.04-5.59 13.49 2.5 13.49 5.59 13.49z"/></g><mask id="A" maskUnits="userSpaceOnUse" x="1313" y="424" width="10" height="22"><path d="M1318.02 445.821c2.44 0 4.42-4.782 4.42-10.68s-1.98-10.68-4.42-10.68-4.42 4.782-4.42 10.68 1.98 10.68 4.42 10.68z" class="C"/></mask><g mask="url(#A)" class="B"><path d="M1317.56 445.76v-6.94l-1.78 5.52s.58 1.03 1.78 1.43v-.01zm1.23-.089l-.13-6.54 1.59 5.24s-.59.92-1.46 1.3zm-4.66-5.089s.23 1.24.69 2.05l1.85-4.37-2.54 2.32zm8.27-3.881c-.01.12-2.68-1.7-2.68-1.7l2.7-1.03s.18.72-.02 2.74v-.01zm-.26 2.339l-2.84-1.79 1.76 5.64s.86-1.88 1.08-3.86v.01zm0-7.988l-2.84 1.9 1.66-5.78s.78 1.58 1.18 3.87v.01zm-8.33 7.398l2.86-2.54-3.05.03.19 2.51zm1.33-11.409l1.65 4.82-2.53-2.35s.37-1.56.88-2.48v.01zm-1.28 4.48l2.93 2.69-3.17.461.24-3.151zm4.16-7.06l-.42 6.09-1.63-4.87s.54-1.2 2.06-1.22h-.01zm.79.17l-.2 5.76 1.64-4.47s-.47-.82-1.45-1.29h.01z"/></g><mask id="B" maskUnits="userSpaceOnUse" x="1243" y="433" width="12" height="28"><path d="M1249.15 460.761c3.1 0 5.61-6.071 5.61-13.56s-2.51-13.56-5.61-13.56-5.61 6.071-5.61 13.56 2.51 13.56 5.61 13.56z" class="C"/></mask><g mask="url(#B)" class="B"><path d="M1248.57 460.681v-8.81l-2.26 7s.74 1.31 2.26 1.81zm1.56-.131l-.17-8.3 2.02 6.65s-.75 1.16-1.86 1.65h.01zm-5.91-6.45s.29 1.57.87 2.61l2.35-5.55-3.22 2.94zm10.49-4.919c-.02.16-3.41-2.16-3.41-2.16l3.43-1.31s.23.91-.03 3.47h.01zm-.33 2.96l-3.6-2.27 2.23 7.16s1.09-2.38 1.37-4.9v.01zm0-10.141l-3.6 2.41 2.11-7.33s1 2.01 1.49 4.92zm-10.57 9.4l3.63-3.23-3.87.04.24 3.19zm1.68-14.48l2.1 6.12-3.21-2.98s.47-1.98 1.12-3.15l-.01.01zm-1.62 5.682l3.72 3.41-4.02.59.3-4zm5.28-8.961l-.54 7.73-2.07-6.18s.68-1.52 2.61-1.55zm1 .221l-.25 7.31 2.09-5.68s-.59-1.04-1.84-1.64v.01z"/></g><path d="M1182.7 434.13s-2.25-3.17-8.16-6.06-38.07-2.29-38.07-2.29c-2.16.01-3.21.31-3.21.31-7.45 3.63-7.6 6.06-7.6 6.06s3.79 9.81 4.91 11.43 2.4 1.52 2.4 1.52l36.87 2.25 2.5.22c1.9.05 2.49-.33 2.49-.33l7.29-12.13.58-.97v-.01z" class="B"/><path d="M1227.97 455.489l-.48.24c-4.83 2.17-23.57 3.81-23.58 3.81l-10.15 1.36c-9.46 1.25-11.04.34-11.04.34l-10.87-5.22-6.05-.49-35.82-2.91-1.01.46c-4.99 2.21-8.12 2.23-8.12 2.23-1.93-.09-2.44-5.62-2.44-5.62s-.11 0-.26.07c-.39.2-1.01.94-.46 3.71.76 3.84 3.53 3.88 3.53 3.88l4.37-.26 6.95.75 26.14 2.82 8.71.94c6.5.06 15.06 2.37 15.06 2.37 21.45 3.14 43.77.11 43.77.11a7 7 0 0 0 1.63-1.95c1.78-3.16.69-6.93.69-6.93-.13.07-.28.15-.45.23-.04.02-.08.04-.13.06h.01z" class="T"/><g class="B"><path d="M1198.84 374.879c-15.42 8.07-27.41 17.16-27.41 17.16-5.1 3.82-7.61 5.13-8.27 5.65 0 0 58.43-.02 77.55 1.21 0 0 6.75.55 8.09-2.57s11.41-21.65 13.22-22.34c0 0-39.64-2.19-63.18.88v.01zm5.91 20.69l-28.66.22 12.11-7.88s12.75-9.4 24.51-10.07l-7.97 17.73h.01zm20.13-.22s-5.65.62-10.96.45l2.14-4.9 3.6-7.76 3.6.31s-1.37 2-1.85 4.63c-.46 2.48-1.7 6.39 3.48 6.12v1.16l-.01-.01zm.86-.19v-1.08l2.91.12-2.91.96zm3.63-12.47s2.28-3.46-.53-3.44l-4.59.05v-.38s.34-1.28 3.46-1.08c3.12.21 8.24 1.32 8.24 1.32l-3.12 5.57s-.58-1.58-3.46-2.04zm7.27 10.28l-1.54.15s-.9-5.83-1.7-7.07l3.65-6.6s1.82-.18 1.75.87c-.08 1.05-2.16 12.64-2.16 12.64v.01zm24.51 6.072l.77-2.08c1.95-4.09 7.81-3.44 7.81-3.44 8.63.65 10.17 3.51 10.43 4.7l30.05-3.11c-1.49-7.19-9.3-17.29-9.3-17.29s-6.89-3.83-21.28-4.14-17.83 10.07-17.83 10.07l-8.17 17.22 7.52-.78c-.21-.42 0-1.14 0-1.14v-.01zm36.81-18.84c2.64 1.92 5 12.54 5 12.54-.58.96-7.85.31-7.85.31 1.99-7.13-4.18-8.77-4.18-8.77h-3.77l-1.63-4.45 12.42.38.01-.01zm-32.98.31l11.1-.49c2.85 2.83 2.65 12.87 2.65 12.87h-1.77s.93-.36.59-1.95c-.33-1.59-6.06-1.52-6.06-1.52-.57-8.79-7.73-7.22-7.73-7.22l1.23-1.7-.01.01z"/></g><g class="F"><path d="M1139.67 418.181s1.54-8.42 9.66-14.38c0 0-8.27 3.44-10.82 15.57m74.55-17.41s-24.87 6.3-49.9 22.09c0 0 30.78-16.72 49.9-22.09z"/></g><g class="P"><path d="M1285.27 407.879a.93.93 0 0 1-.91-.74c-.11-.5.21-1 .71-1.11l6.49-1.4c.5-.11 1 .21 1.11.71s-.21 1-.71 1.11l-6.49 1.4c-.07.01-.13.02-.2.02v.01zm22.67-4.138a.93.93 0 0 1-.91-.74c-.11-.5.21-1 .71-1.11l3.88-.84c.5-.11 1 .21 1.11.71s-.21 1-.71 1.11l-3.88.84c-.07.01-.13.02-.2.02v.01z"/></g><g class="D"><path d="M1125.74 416.849s1.63 3.11 2.22 5.08-.7 2.87-1.3 4.01c-.59 1.15-1.37.46-1.37.46-3.37-2.29-3.3-2.98-3.3-2.98l.16-1.48-.27 1.87s0 1.08 3.93 3.5c0 0 .95.48 1.64-.73s2.2-2.16 1.51-4.23-2.59-5.36-2.59-5.36-.69-1.94-.39-2.55c0 0-.15.04-.38.13-.26.57.13 2.29.13 2.29l.01-.01zm67.6 4.762l-7.52 1.74s-4.65 2.05-4.83 3.72c0 0 3.79 4.08 9.58 4.38l19.44-1.12s5.79.39 7.34-4.81c1.56-5.21.69-7.11-.69-8.06l-23.33 4.15h.01z"/></g><g class="C"><path d="M1122 423.43s-.07.69 3.3 2.98c0 0 .78.69 1.37-.46s1.89-2.05 1.3-4.01c-.59-1.97-2.22-5.08-2.22-5.08s-.39-1.71-.13-2.29l-.37.11c-.78.26-2.51 1.03-2.57 2.58l-.27 2.46-.03.23-.02.17-.2 1.81-.16 1.48v.02zm71.94-1.221l-6.8 1.44s-4.21 1.7-4.37 3.08c0 0 3.43 3.37 8.66 3.62l17.58-.93s5.24.33 6.64-3.98c1.41-4.3.63-5.87-.63-6.66l-21.1 3.43h.02z"/></g><g class="K O"><path d="M1278.73 392.9h-1.77s.93-.36.59-1.95c-.33-1.59-6.06-1.52-6.06-1.52-.57-8.79-7.73-7.22-7.73-7.22l1.23-1.7 11.1-.49c2.85 2.83 2.65 12.87 2.65 12.87l-.01.01zm16.39.15c1.99-7.13-4.18-8.77-4.18-8.77h-3.77l-1.63-4.45 12.42.38c2.64 1.92 5 12.54 5 12.54-.58.96-7.85.31-7.85.31l.01-.01z"/></g><g class="K O"><path d="M1204.75 395.57l-28.66.22 12.11-7.88s12.75-9.4 24.51-10.07l-7.97 17.73h.01zm20.13-.221s-5.65.62-10.96.45l2.14-4.9 3.6-7.76 3.6.31s-1.37 2-1.85 4.63c-.46 2.48-1.7 6.39 3.48 6.12v1.16l-.01-.01zm.86-.189v-1.08l2.91.12-2.91.96zm3.63-12.47s2.28-3.46-.53-3.44l-4.59.05v-.38s.34-1.28 3.46-1.08c3.12.21 8.24 1.32 8.24 1.32l-3.12 5.57s-.58-1.58-3.46-2.04zm7.27 10.279l-1.54.15s-.9-5.83-1.7-7.07l3.65-6.6s1.82-.18 1.75.87c-.08 1.05-2.16 12.64-2.16 12.64v.01z"/></g><path d="M1261.28 402.481l-8.46.21 5.78-12.64 1.8 8.84.75.15.77-2.08c1.95-4.09 7.81-3.44 7.81-3.44 10.95.82 10.48 5.22 10.48 5.22-.15 7.58-18.53 3.08-18.53 3.08l-.4.66z" class="P"/><path d="M1269.73 393.521s-5.86-.64-7.81 3.44l-.77 2.08s-.21.73 0 1.14c.09.17.24.29.52.28.94-.03 12.66 1.76 18.55-1.73 0 0 .02-.2-.05-.52-.27-1.19-1.81-4.05-10.43-4.7l-.01.01z" class="E"/><g class="F"><path d="M1318.63 401.65l-20.94 6.07c-.18.05-.29.23-.26.41.02.1.11.16.2.15 1.85-.31 17.8-2.93 24.11-2.55l-2.94-3.54s-.21-.2-.17-.53v-.01zm4.29 4.199l-.05-.07v.06h.05v.01zm-107.86 32.831l-21.31 3.84 28.93-2.36c-.27-3.19-7.62-1.47-7.62-1.47v-.01zm49.19 1.851l44.2-18.71c-14.18-11.72-44.2 18.71-44.2 18.71zm45.96-13.181c-10.18 8.53-51.9 20.85-51.9 20.85l-.04 1.03-.06 1.36-.14 1.85c-.02.2-.03.4-.05.6-.02.21-.05.41-.07.61l50.47-12.67s0-.01.01-.03c.06-.13.29-.68.56-1.45.52-1.42 1.19-3.59 1.19-5.16l1.66-6.98v-.03l.28-1.48-1.92 1.51.01-.01z"/></g></g><path d="M1663.66 197.6h-345.32a18.48 18.48 0 0 0-18.48 18.48v227.44a18.48 18.48 0 0 0 18.48 18.48h345.32a18.48 18.48 0 0 0 18.48-18.48V216.08a18.48 18.48 0 0 0-18.48-18.48z" fill="#2b518e"/><path d="M1324.99 216.439h332.03a6.72 6.72 0 0 1 6.71 6.71v224.87h-345.44v-224.87a6.72 6.72 0 0 1 6.71-6.71h-.01z" stroke="#efb927" stroke-width="5.63" class="H"/><g class="B"><path opacity=".3" d="M1736.25 614.161l-206.64-59.53-247.42 15.39c-2.68.17-3.23 3.87-.72 4.81 40.42 15.2 163.99 65.02 185.73 67.57 28.83 3.38 182.14 7.18 269.15-26.2a1.08 1.08 0 0 0-.09-2.04h-.01z"/><path d="M1628.95 436.1l-58.62-44.69-82.6-8.44-137.66-1.12-28.8 55.49 128.92 21.33 190.92-7.69-12.16-14.88z" class="K"/></g><path d="M1626.43 421.8l11.14.4a7.47 7.47 0 0 1 7.13 6.44l.56 4.05a2.49 2.49 0 0 1-2.25 2.81l-13.34 1.11c-.33.03-.63-.19-.7-.51l-3.19-13.48c-.1-.43.23-.84.67-.82h-.02z" class="E"/><g class="B"><path d="M1693.4 615.04c21.25 0 38.48-11.278 38.48-25.19s-17.23-25.19-38.48-25.19-38.48 11.278-38.48 25.19 17.23 25.19 38.48 25.19zm-407.73-128.689v24.93s-.23 9.38 5.01 12.54h41.88l-5.46-49.19-31.64-14.49-6.15 7.26-3.64 18.94v.01zm209.99 18.809l11.31 54.92-67.07 5.52-12.49-25.77 17.47-57.08 43.94 3.6 6.84 18.81z"/><path d="M1469.19 517.711h33.65c13.43 0 24.31 26.45 24.31 59.07s-10.88 59.07-24.31 59.07h-33.65c-13.43 0-24.31-26.45-24.31-59.07s10.88-59.07 24.31-59.07zM1308.8 499.66h24.96c9.96 0 18.03 18.44 18.03 41.18s-8.07 41.18-18.03 41.18h-24.96c-9.96 0-18.03-18.44-18.03-41.18s8.07-41.18 18.03-41.18z"/></g><g class="W"><path d="M1306.28 570.02c5.62 0 10.18-12.612 10.18-28.17s-4.56-28.17-10.18-28.17-10.18 12.612-10.18 28.17 4.56 28.17 10.18 28.17zm159.52 49.6c7.77 0 14.06-18.531 14.06-41.39s-6.29-41.39-14.06-41.39-14.06 18.531-14.06 41.39 6.29 41.39 14.06 41.39zm-137.66-95.789l-3.93-11.04-7.22-29.23c-.52-2.09-2.11-3.75-4.18-4.36l-16.96-4.94a3.23 3.23 0 0 0-.88-.13c-1.15 0-2.15.8-2.39 1.92l-6.42 29.11-2.21-3.25 7.45-36.64s-6.64-9.86 12.28-2.21l18.92 7.65 4.23 8.28 7.59 39.64-6.28 5.2zm192.19 31.238l-12.65 14.3-4.84-12.35-7.78-28.9-4.37-15.31c-1.32-4.61-4.71-8.34-9.19-10.06-3.73-1.44-8.38-3.01-12.55-3.82-5.18-1-9.85-2.33-13.31-2.28-2.46.04-4.19 1.77-5.74 3.68-3.85 4.74-10.5 47.39-9.28 47.39l-6.43-.65-3.86-18.98 5.61-22.92 5.96-18.81 47.34 2.81 21.59 36.82 4.74 16.13 4.75 12.96.01-.01z"/></g><g class="B"><path d="M1450.19 380.659l49.28-.72 69.91 3.03c2.14 0 8.45 3.42 8.45 3.42s20.49 13.04 28.37 18.77 36.1 28.94 36.1 28.94l7.29 6.24c-.68-.68-17.75 5.36-17.75 5.36l-111.52 1.15-60.69-3.44-32.24-59.17 22.78-3.58h.02zm111.83 34.58c4.3 10.96 7.8 22.09 7.8 22.09l51.03-.44-16.92-14.47s-16.48-13.5-25.34-18.67-12.01-8.77-27.53-11.13c0 0 6.66 11.66 10.96 22.62zm-50.38-20.19l-.97-1.07c-.07-.08-.17-.12-.27-.12h-4.29c-.07 0-.13-.02-.19-.05l-3.95-2.35c-.06-.03-.12-.05-.19-.05h-2.26c-.28 0-.46.3-.32.54l2.31 4.24c.07.13.21.2.35.19l9.54-.72c.3-.02.45-.39.25-.61h-.01zm-.47 19.94l4.37-7.63c.06-.11.06-.25 0-.37l-1.45-2.53c-.07-.11-.19-.18-.32-.18h-7.3c-.24 0-.41.22-.36.45l.58 2.4a1.92 1.92 0 0 0 .03.08l3.8 7.76a.37.37 0 0 0 .65.02zm-18.4-23.1c.63 1.76 2.73 8.07 3.76 16.52 1.08 8.81 1.35 16.6 1.39 18.32 0 .2.17.35.37.35h3.36c.14 0 .27-.08.33-.2.32-.64 1.35-2.65 2.45-3.74 1.16-1.16 3.14-2.59 3.59-2.91a.38.38 0 0 0 .13-.18l.71-2.12a.46.46 0 0 0 0-.26l-5.55-13.15a.36.36 0 0 0-.34-.22h-1.84a.37.37 0 0 1-.37-.37v-5.25c0-.06-.01-.11-.04-.16l-3.39-6.91c-.06-.13-.19-.21-.33-.21h-3.87c-.25 0-.43.25-.35.49h-.01zm-16.81 21.14l6.43 8.52a.36.36 0 0 0 .48.09l4.61-2.78c.12-.07.19-.2.18-.34-.1-1.44-.7-9.62-1.74-14.25-1.06-4.74-2.05-8.03-3.81-8.95a.38.38 0 0 0-.53.21l-5.69 17.15c-.04.11-.02.24.06.34l.01.01zm-87.59-33.919l-4.95 13.06h-25.32s-4.75 5.74-6.92 10.48l-7.72 15.43h16.62l4.55-13.49 14.44.83-6.92 36.99-58.75-16.02s-1.58-7.91-.99-7.32 1.19-9.73 1.19-9.73l32.24-30.23c.79 0 15.82-1.78 15.82-1.78l26.7 1.78h.01zm4.65 7.279l2.01-6.45s18.19 3.3 23.35 6.45l5.3 7.31-17.91-1s-6.3 16.88-6.3 21.33-.43 10.61-.43 10.61h3.01l2.44-8.02 17.05.43 8.45-12.46 20.2 41.54-16.19 3.58h-23.21l-32.09-9.46 8.05-37.68 6.27-16.19v.01zm51.86 189.341l-83.42-23.89-26.78-7.25s-2.42-1.41-3.62-5.03c-1.21-3.62-2.02-10.81-2.02-10.81l18.33-7.51 76.1 23.15 14.09 10.68 8.07 7.06-.75 13.6z"/></g><path d="M1282.42 437.019l1.79-8.23 8.59-4.47s6.44-9.3 9.48-12.34l19.32-20.93 2.5-5.55s8.23-8.23 13.42-9.66 8.48-2.15 8.48-2.15 32.54-4.21 58.26-3.39l74.05 1.47 62.75 4.42s25.39 3.77 35.06 9.34c-4.1 1.31-10.16.16-10.16.16s-29.33-3.11-54.23-3.11-67.66 1.97-67.66 1.97l-12.29.82s5.9 8.36 8.85 15.07c2.95 6.72 20.15 41.78 20.15 41.78l43.91.82c.66 0 7.37.49 7.37.49s6.71 1.64 8.27 1.64 54.64-1.31 64.47-1.31h47.68s6.06-2.29 12.12-3.11 13.11-.33 13.11-.33 47.35 10.32 59.96 14.75c12.62 4.42 20.32 10.65 20.32 10.65s3.18 3.26 5.52 7.93c2.33 4.66 4.24 10.39 4.24 10.39l10.39 7.84 1.06 4.24v15.05l-1.91 21.41s-1.27 10.6.85 16.53 3.18 13.14 3.18 13.14v4.66l-8.69 8.9-144.55 11.87h-49.38l-49.38-6.15 1.7-2.97-3.76-10.44 3.56-6.11c1.08-1.89 1.35-4.14.75-6.23l-13.9-48.66s-1.48-8.27-9.54-11.45c-8.05-3.18-16.96-5.01-16.96-5.01s-15.9-3.25-17.8-3.25-4.82-.2-6.94 5.74c-2.12 5.93-9.8 25-10.86 35.17s1.27 13.56 1.27 13.56l3.81 5.72 1.06 7.42 1.7 6.36-10.08-3.3a10.19 10.19 0 0 1-3.89-2.34l-9.17-8.84c-.53-.51-1.18-.88-1.89-1.08l-44.07-12.21-25.93-7.42c-1.51-.43-3.14-.25-4.52.52l-5.88 3.27a6.37 6.37 0 0 1-3.08.8h-4.33a1.36 1.36 0 0 1-1.33-1.11l-1.08-5.95c-.19-1.04.07-2.11.68-2.98a9.17 9.17 0 0 0 1.47-7.46l-7.37-31c-1.31-5.5-4.88-10.92-10.38-12.23-2.16-.52-12.76-3.23-15.33-3.37-2.64-.14-4.99 1.64-5.55 4.22l-6.69 30.68-1.58-5.52 1.19-54.05-2.16-5.1-.02.01zm107.06-13.79s4.6-1.01 15.67-1.58c4.03-.21 7.34-.21 9.91-.12 4.17.14 7.92 2.57 9.75 6.32 1.52 3.11 3.05 6.59 3.05 8.04 0 2.88-1.15 4.74-1.15 4.74l2.44 4.46 17.11-1.73-22-46.87c-2.73-5.32-8.05-9.2-12.22-11.07s-14.77-2.44-14.77-2.44l-3.63 11.36c-1.58 5.03-6.9 27.03-8.77 33.93 2.01-4.74 4.6-5.03 4.6-5.03l.01-.01zm-19.41 13.95s2.73-16.39 5.18-25.3c2.44-8.91 10.5-29.33 11.5-30.34h-27.46c-.72 0-1.61-.02-2.59-.02-1.44 2.77-6.74 13.07-8.73 18.44-1.94 5.24-6.84 21.57-8.68 30.06l30.78 7.16zm-41.06-9.56l8.89-19.74s9.81-20.34 15.73-26.32c-4.54.17-9.99.96-13.18 4.14-4.74 4.74-23.29 25.88-23.29 25.88-2.12 4.59-2.63 8.98-.86 13.08l12.71 2.96z" class="E"/><path d="M1604.62 505.691c2.05 0 4.02-1.03 5.03-2.81 1.1-1.94.96-4.3-.36-6.08l-9.54-12.91-2.08-1.36-80.39-17.98c-1.69-.38-3.47.08-4.77 1.22l-.17.15c-1.3 1.15-1.98 2.85-1.81 4.58l.49 5.22c.29 3.03 1.42 5.91 3.28 8.31l6.27 8.11a34.88 34.88 0 0 0 27.6 13.55h56.44.01z" class="W"/><path d="M1608.21 498.91l-9.54-12.91-83.08-18.59.75 7.97a12.47 12.47 0 0 0 2.56 6.47l6.27 8.11c5.94 7.67 15.09 12.17 24.79 12.17h56.63a2.02 2.02 0 0 0 1.62-3.22z" class="C"/><path d="M1736.08 493.53c.74 0 1.46-.16 2.13-.48 2.53-1.21 8.28-7.76 8.28-7.76a5.8 5.8 0 0 0 .13-3.01c-1.43-6.22-4.26-10.49-5.86-12.54-.68-.86-1.79-1.25-2.86-1.02l.22-.13c-.98.21-1.79.91-2.14 1.85l-4.61 12.24-.21 1.16v4.59c0 1.29.43 2.57 1.31 3.52.95 1.02 2.25 1.59 3.62 1.59l-.01-.01z" class="W"/><g class="B"><path d="M1337.17 407.88s9.73-20.3 15.65-26.28l3.88-.09c-1.47 2.83-6.67 13.09-8.65 18.44-1.94 5.24-6.84 21.57-8.68 30.06l19.29 4.49-31.19-7.25.81.38 8.89-19.74v-.01zm32.18 29.3s3.54-16.39 5.98-25.3c2.43-8.87 9.6-29.1 10.67-30.31h1.34l11.22 1.49-1.2-.08-3.63 11.36c-1.58 5.03-6.9 27.03-8.77 33.93l-1.99 11.25-13.63-2.34h.01z"/></g><path d="M1732.99 489.92v-5.16l4.95-13.14a1.11 1.11 0 0 1 1.92-.28c1.53 2.01 4.07 6 5.42 11.77a2.84 2.84 0 0 1-.9 2.8c-2.97 2.58-6.5 4.5-8.83 5.62a1.79 1.79 0 0 1-2.56-1.61z" class="C"/><g class="B"><path d="M1730.86 496.489l5.1 6.09a6.38 6.38 0 0 1 1.25 5.82l-7.16 25.48c-.73 2.62-3.05 4.48-5.76 4.64l-95.94 5.76a6.37 6.37 0 0 1-6.37-4.17l-8.83-24.03c-.94-2.55-.15-5.42 1.96-7.14l10.57-8.62c1.06-.86 2.36-1.36 3.72-1.43l96.27-4.68c1.99-.1 3.92.75 5.2 2.28h-.01zm-160.79 38.63l-30.59-2.1c-.8-.05-1.59.1-2.31.44l-1.89.9c-1.28.61-2.21 1.76-2.53 3.14l-4.89 20.77c-.16.68-.17 1.39-.01 2.08.59 2.67 2.61 9.14 8.17 9.14h16.95c.29 0 .57-.02.86-.08 1.32-.27 4.84-1.4 7.72-6.18 2.87-4.75 9.58-16.47 12.26-21.16.72-1.26.81-2.77.24-4.11-.68-1.62-2.22-2.72-3.97-2.84h-.01z"/></g><g class="W"><path d="M1381.87 462.931s1.66.57.9 3.11c-.75 2.53-3.25 1.83-3.25 1.83l-11.36-4.1c-.29-.11-.53-.32-.66-.61-.21-.46-.4-1.24-.07-2.29.55-1.74 2.3-1.52 2.3-1.52l12.14 3.57v.01zm-52.55-16.17s1.39.48.76 2.61-2.73 1.54-2.73 1.54l-9.53-3.44a.97.97 0 0 1-.56-.51c-.17-.39-.34-1.04-.06-1.92.46-1.46 1.93-1.28 1.93-1.28l10.19 3z"/></g><g class="F"><path d="M1760.52 558.079l-1.36-5.62-3.79-6.71a13.78 13.78 0 0 0-11.98-6.99 10.95 10.95 0 0 0-.81.02l-153.07 9c-8.78.52-16.96 5.17-21.88 12.46l-2.98 4.41a18.89 18.89 0 0 1-15.68 8.33 19.7 19.7 0 0 1-1.33-.05l-23.94-1.68c-3.89-6.48-6.72-19.83-6.72-19.83l-14.43-50.74a17.59 17.59 0 0 0-13.4-12.42l-38.78-7.91c-3.98-.81-7.96 1.37-9.41 5.16l-7.35 19.19a7.5 7.5 0 0 1-8.82 4.59l-67.22-16.84c-2.52-.63-5.2-.03-7.21 1.61l-3.18 2.6a8.77 8.77 0 0 1-7.39 1.79l-6.44-1.38c-2.53-.54-4.5-2.52-5.02-5.05l-2.82-13.57a16.62 16.62 0 0 0-13.62-13.03l-15.58-2.53c-3.17-.51-6.23 1.38-7.18 4.45l-3.6 11.61-1.79-.86-.4 18.05 1.58 5.52 6.69-30.68c.56-2.58 2.91-4.37 5.55-4.22 2.57.14 13.16 2.86 15.33 3.37 5.5 1.31 9.07 6.73 10.38 12.23l7.37 31a9.17 9.17 0 0 1-1.47 7.46 3.9 3.9 0 0 0-.68 2.98l1.08 5.95a1.36 1.36 0 0 0 1.33 1.11h4.33a6.29 6.29 0 0 0 3.08-.8l5.88-3.27c1.38-.76 3-.95 4.52-.52l25.93 7.42 44.06 12.21c.71.2 1.36.57 1.89 1.08l9.17 8.84a10.19 10.19 0 0 0 3.89 2.34l10.08 3.3-1.7-6.36-1.06-7.42-3.81-5.72s-2.33-3.39-1.27-13.56 8.74-29.24 10.86-35.17 5.03-5.74 6.94-5.74 17.8 3.25 17.8 3.25 8.9 1.83 16.96 5.01c8.05 3.18 9.54 11.45 9.54 11.45l13.9 48.66c.6 2.09.33 4.34-.75 6.23l-3.5 6.14 3.7 10.26.9 12.6c.17 1.01.91 3.7 4.14 6.23 4.58 3.59 12.15 5.42 22.53 5.42 13.62 0 80.61-6.48 134.44-11.69l75.45-6.87c.45.19.98.29 1.56.29 3.26 0 6.78-6.46 9.43-12.31.46-1.01 1-4.21 1-4.21l.92-.93v-4.66c-.32-2.21-.79-4.26-.79-4.26v-.02zm-154.44-69.989s6.82 10.79 7.72 10.79 113.44-7.16 113.44-7.16l1.8-8.96-122.96 5.34v-.01zm29.86-45.089c-3.73.6 78.45 27.79 78.45 27.79s-24.42-13.77-39.22-19.48-28.5-10.04-39.22-8.32l-.01.01zm-296.81-60.161h-.13c-.56 0-1.09.24-1.46.66l-23.68 26.64c-2.96 3.33-4.19 7.86-3.32 12.24 1.02 5.15 4.81 9.3 9.82 10.73l144.73 39.94c10.1 2.89 20.95 1.18 29.7-4.69l3.49-2.34c1.48-.99.99-3.31-.76-3.6l-92.01-19.31-50.64-9.09s-.08-.01-.12-.02l-37.4-9.08c-.78-.19-1.37-.84-1.48-1.64l-.78-5.47c-.04-.25-.02-.51.04-.76l1.54-6.27a1.94 1.94 0 0 1 .49-.9l21.75-22.68a1.96 1.96 0 0 1 .82-.51c2.14-.68 1.65-3.87-.59-3.87l-.01.02z"/></g><g class="B"><path d="M1431.92 450.049l-5.2-9.42-18.65-1.27-5.09-2.02-20.01-4.3s-1.56 8.27 6.33 10.71 25.13 4.37 25.13 4.37l7.66 10.35s4.47 1.14 7.54-1.93 2.28-6.49 2.28-6.49h.01zM1760.72 567l-8-14.15c-2.14-3.78-6.24-6.021-10.58-5.771l-153.07 9a26.05 26.05 0 0 0-20.05 11.421l-2.98 4.41c-4.26 6.3-11.55 9.85-19.14 9.32l-39.26-3 1.08 3.4 3.74 13.72s1.77 10.94 25.47 10.94 209.43-19.7 210.61-18.51c1.19 1.19 9.65-2.181 12.19-7.791s0-12.979 0-12.979l-.01-.01zm-5.81-42.71l-2.13 1.25a.9.9 0 0 0-.44.8l.44 18.47c0 .12.03.24.08.34l3.04 6.3c.37.75 1.49.5 1.5-.33.09-6.01.12-18.87-1.14-26.21-.11-.62-.8-.93-1.34-.62h-.01zm-297.69 55.34l4.66-.27.65 6.82-3.82 9.1-3.01.79c1.55 10.29 4.48 17.79 7.95 19.66l-.71-9.98 1.37-15.16h2.11l1.37 15.16-.71 9.98c3.48-1.87 6.4-9.37 7.95-19.66l-3.01-.79-3.82-9.1.65-6.82 4.66.27 2.57 5.37c.09-1.87.13-3.78.13-5.73 0-10.18-1.21-19.4-3.17-26.08l-1.15 9.48-3.72 9.54-1.71-4.22 1.52-15 2.29-6.65c-1.48-2.56-3.15-4.01-4.92-4.01s-3.44 1.45-4.92 4.01l2.29 6.65 1.52 15-1.71 4.22-3.72-9.54-1.15-9.48c-1.96 6.68-3.17 15.9-3.17 26.08 0 1.95.05 3.86.13 5.73l2.57-5.37h.03zm8.15-6.11c.93 0 1.69 2.57 1.69 5.75s-.76 5.75-1.69 5.75-1.69-2.57-1.69-5.75.76-5.75 1.69-5.75zm-165.09-31.249l3.31-.19.46 4.84-2.71 6.46-2.13.56c1.1 7.31 3.18 12.63 5.65 13.96l-.5-7.08.97-10.76h1.5l.97 10.76-.5 7.08c2.47-1.33 4.55-6.65 5.65-13.96l-2.13-.56-2.71-6.46.46-4.84 3.31.19 1.83 3.81c.06-1.33.09-2.68.09-4.07 0-7.23-.86-13.77-2.25-18.51l-.82 6.73-2.64 6.77-1.21-2.99 1.08-10.64 1.63-4.72c-1.05-1.81-2.23-2.84-3.49-2.84s-2.44 1.03-3.49 2.84l1.63 4.72 1.08 10.64-1.21 2.99-2.64-6.77-.82-6.73c-1.39 4.74-2.25 11.29-2.25 18.51 0 1.38.03 2.74.09 4.07l1.83-3.81h-.04zm5.79-4.33c.66 0 1.2 1.83 1.2 4.08s-.54 4.08-1.2 4.08-1.2-1.83-1.2-4.08.54-4.08 1.2-4.08z"/></g><g class="C"><path d="M1569.35 275.41h-92.18a3.96 3.96 0 0 0-3.96 3.96v.34a3.96 3.96 0 0 0 3.96 3.96h92.18a3.96 3.96 0 0 0 3.96-3.96v-.34a3.96 3.96 0 0 0-3.96-3.96zm36.45 49.369h-128.63a3.96 3.96 0 0 0-3.96 3.96v.34a3.96 3.96 0 0 0 3.96 3.96h128.63a3.96 3.96 0 0 0 3.96-3.96v-.34a3.96 3.96 0 0 0-3.96-3.96zm12.01-24.679h-140.64a3.96 3.96 0 0 0-3.96 3.96v.34a3.96 3.96 0 0 0 3.96 3.96h140.64a3.96 3.96 0 0 0 3.96-3.96v-.34a3.96 3.96 0 0 0-3.96-3.96z"/></g><path d="M1358.92 267.459l41.65 5.59v82.07l-28.44-19.8c-8.4-5.86-13.42-15.55-13.42-25.9v-41.94c.06 0 .14-.02.2-.03l.01.01z" class="I"/><g class="J"><path d="M1400.55 273.11l-41.84-5.68c5.42-.58 9.87-7.99 11.3-14.1l30.54 2.42v17.36zm41.7-5.651l-41.65 5.59v82.07l28.44-19.8c8.4-5.86 13.42-15.55 13.42-25.9v-41.94c-.06 0-.14-.02-.2-.03l-.01.01z"/></g><path d="M1400.62 273.11l41.84-5.68c-5.42-.58-9.87-7.99-11.3-14.1l-30.54 2.42v17.36z" class="I"/><path d="M292.07 223.34c16.48 0 15.23-30.21-1.96-31.09s-21.39 7.51-21.39 7.51-1.98-19.49-20.6-20.37-28.4 17.42-28.4 17.42-9.61-10.61-31.82-8.84-27.19 33.61-11.81 33.61 99.5 1.77 115.98 1.77v-.01z" class="R"/><path d="M292.07 223.34c16.48 0 12.33-14.48-4.86-15.37-17.19-.88-19.02 5-39.62 5s-23.22-11.06-45.43-9.29-32.29 17.89-16.9 17.89c15.38 0 90.33 1.77 106.81 1.77z" class="S"/><path d="M599.63 240.919c-20.25 0-15.26-32.87 5.87-34.27s26.41 8.4 25.53 9.79l-.88 1.4s10.56-30.78 33.45-32.18 28.17 15.39 28.17 15.39 11.44-33.58 38.74-30.78c27.29 2.8 37.86 22.39 37.86 22.39s18.61-7 31.69-7c39.62 0 53.7 54.57 15.85 54.57l-216.27.69h-.01z" class="R"/><g class="S"><path d="M604.33 224.741s31.69 13.36 49.89 3.52c18.19-9.85 59.28-30.95 78.64-20.4 19.37 10.55 30.52 18.99 56.93 13.36s44.02 0 46.95 3.52c0 0 2.35 16.18-30.52 16.18H607.85c-8.22 0-14.67-16.18-3.52-16.18zm357.14 283.538c0 69.75-184.12 126.29-411.23 126.29S139 578.029 139 508.279"/></g><g class="X"><path d="M449.71 437.199c.05 10.91 2.03 25.37 3 29.58s8.14 12.07 8.14 12.07v-14.98c-.74-16.7 1.64-20 3.43-22.66s7.31-1.31 7.31-1.31 2.42.29 7.41 1.72 7.46 8.84 7.46 8.84l1.79 5.42 9.2 27.84c1.04 3.07 6.75 7.6 6.75 7.6.62-.02 3.95.63 3.95.63l10.59 2.64 73.73 18.39 1 .25.4.1.27-4.56v-.38l1.06-5.92.89-5.09v-.13l-.2-3.65c-1.36-10.46 2.9-23.14 2.9-23.14 1.16-8.81 7.36-6.97 7.36-6.97 11.18 1.27 17.08 3.98 20.02 5.96 2 1.35 2.63 2.36 2.63 2.36 3.13 3.98 7.9 15.58 11.29 24.48 2.39 6.24 4.15 10.35 4.15 10.35 1.27 3.5 2.81 6.4 4.4 8.55 2.9 3.92 5.96 6.15 9.07 8.74 4.82 4.02 15.53 11.79 15.53 11.79l10.69.63c17.38.87 28.92.69 34.24.5 2.52-.77 11.99-4 16.29-10l15.76-22.56s71.73-.5 85.61-2.59c0 0 6.37 2.25 6.09 6.63l-.8 12.42s-.24 6.51-5.07 9.64l8.97-.66 5.71-.44 9.38-12.96 7.47-10.32c3.78-4.74 3.73-19.17 3.73-19.17v-24.21c-.19-4.74-3.53-7.84-3.53-7.84s-8.11-19.53-12.37-24.14c-3.78-4.09-7.03-5.88-8.99-6.66l3.44 1.94-3.39 10.07-9.01 5.54h-5.23s2.7-7.66 1.55-9.66c0 0-2.46-11.8-52.03-22.25-.76.98-1.47 1.33-1.47 1.33-1.11-.34-2.46-1.22-3.93-2.42l-2.8-.54 2.02-.13c-7.16-6.27-16.63-19.42-16.63-19.42a3.63 3.63 0 0 1 1.07-.75c-12.88-17.04-27.02-28.68-27.02-28.68-6.88-5.81-17.24-7.12-17.24-7.12-12.35-2.47-79.01-5.96-79.01-5.96-29.7-1.23-68.12 0-68.12 0l-20.77.58c-8.86-.15-53.5 2.95-53.5 2.95h-2.23c-4.99 1.4-12.39 12.01-12.39 12.01-16.65 24.79-24.5 41.2-24.5 41.2s-5.6 16.11-5.52 34.52zm164.08-24.16c33.41-14.14 85.99 8.42 85.4 8.42-25.62 0-85.4-8.42-85.4-8.42zm232.61 10.94l-1.76-.54a10.53 10.53 0 0 1 1.76.54zm-16.77-4.82l-18.19-4.05c5.97 1.21 12.27 2.59 18.19 4.05z"/><path d="M837.48 421.24l-7.78-2.06 7.78 2.06zm6.07 1.86l-6.01-1.85 6.01 1.85zm-63.27-12.16c-1.11-.34-2.46-1.22-3.93-2.42l5.4 1.1c-.76.98-1.47 1.33-1.47 1.33v-.01zm-4.71-3.08c-7.16-6.27-16.63-19.42-16.63-19.42a3.63 3.63 0 0 1 1.07-.75c5.6-2.61 19.13 7.09 19.13 7.09s4.57 3.61 4.36 9.2c-.08 2.33-.66 3.93-1.3 5l-5.69-1.17-.93.06-.01-.01z"/></g><g class="B"><path opacity=".3" d="M467.38 531.829c.36-.2 2.2-.45 4.42-.7 1.27 1.72 2.68 3.21 4.23 4.42.08.07.18.14.26.2.01 0 .02.02.03.02 3.04 2.44 7.55 4.24 12.88 4.24 8.37 0 16-4.49 21.36-11.79l57.23-3.94 24.31 6.61.17 2.38.12 2.04.18 2.24v.02c.09.99.21 1.98.33 2.95l.12.89a68.04 68.04 0 0 0 .3 2.06l.16.96.35 1.98.17.88.44 2.09.16.69.6 2.42c.03.1.05.19.07.29.75 2.84 1.63 5.55 2.61 8.14 3.65 10.35 8.94 18.38 16.07 23.31h-.01a.79.79 0 0 0 .11.08c-12.54-2.61-24.15-6-34.26-10.37l-113.03-40.3s-1.89-.47.61-1.84l.01.03z"/><path d="M633.44 480.22c-1.37-2.96-2.7-5.53-3.86-7.29 1.7 2 3.05 4.41 3.86 7.29zm-41.27 50.501v.21l.09 2.36.12 2.04.18 2.24v.02l.33 2.95.12.89.3 2.06.16.96.35 1.98.17.88.44 2.09.16.69.6 2.42c.03.1.05.19.07.29.75 2.84 1.63 5.55 2.61 8.14 3.64 10.35 8.93 18.38 16.07 23.31h-.01a.79.79 0 0 0 .11.08c.1.07.21.14.31.21.02.01.04.02.05.04 4.98 3.54 12.34 6.16 21.06 6.16 3.8 0 7.5-.51 11.06-1.46 16.7-4.46 30.19-18.81 34.93-37.7l.08-.31.03-.14v-.02s1.3-4.17 2.02-10.91c.13-1.2.24-2.49.32-3.85l-10.69-.63-15.86-12.18c-3.07-2.39-5.84-4.43-8.74-8.35-1.59-2.15-3.18-4.24-4.45-7.74 0 0-1.71-4.91-4.1-11.15-1.96-5.12-4.37-11.13-6.66-16.08-1.37-2.96-2.7-5.53-3.86-7.29-.27-.41-.53-.79-.78-1.11 0 0-.64-1.01-2.63-2.36-.1.02-.19.05-.29.07-14.82 3.22-24.66 13.68-29.79 27.84v.02l-.89 5.09-1.07 5.92v.38l-.26 4.56-.4-.1c-.98 5.43-1.44 11.32-1.29 17.49l.03-.01zm26.46-32.04c.4-.08.8-.15 1.21-.19 10.32-.98 20.1 13.16 21.85 31.57 1.75 18.42-5.2 34.14-15.52 35.12-.41.04-.82.05-1.22.04-9.86-.19-18.94-13.92-20.62-31.61s4.66-32.88 14.31-34.93h-.01z"/><path opacity=".3" d="M681.48 551.591l.08-.31.03-.14v-.02s1.3-4.17 2.02-10.91l33.43 5.59c.43.17 37.36 9.06 68.52 16.55 1.41 1.39 2.9 2.64 4.49 3.74h-.01c.13.11.29.2.42.29.02.01.04.02.05.04 4.98 3.54 12.34 6.16 21.06 6.16 3.69 0 7.3-.49 10.77-1.39l5.78 1.39s25.16 10.12 2.29 11.86c-17.19 1.31-108.24 12.79-183.87 4.85 16.7-4.46 30.19-18.81 34.93-37.7h.01z"/><path d="M786.53 535.97c4.14 7.24 9.84 11.59 15.72 11.03 5.78-.55 10.5-5.73 13.23-13.41l12.07-1.2 3.93-.43c1.86-.21 3.36-.79 4.57-1.57l8.97-.66 5.71-.44 9.38-12.96c-.38 10.02-2.43 16.61-2.43 16.61v.02s-.03.09-.04.14l-.08.32c-4.77 18.99-18.39 33.39-35.22 37.77-3.47.9-7.07 1.39-10.77 1.39-8.72 0-16.08-2.62-21.06-6.16-.02-.01-.04-.02-.05-.04-.14-.1-.29-.19-.42-.29h.01c-1.59-1.1-3.08-2.35-4.49-3.74-4.92-4.87-8.75-11.52-11.59-19.57a81.57 81.57 0 0 1-1.98-5.9l14.54-.9v-.01z"/></g><path d="M470.13 500.679c1.07 12.68 7.05 22.41 13.36 21.74s10.55-11.5 9.49-24.18c-1.07-12.68-7.05-22.41-13.36-21.74s-10.55 11.5-9.49 24.18zm18.33 6.68s1.12-2.81.67-4.43h3.16s.48 4.84-1.29 9.02l-2.54-4.59zm-1.27-16.64l1.5-5.3s2.4 1.92 3.05 9.99h-2.77s.09-3.42-1.78-4.69zm-5.08 26.54l.62-6.53 2.74 6.53s-1.59.91-3.37 0h.01zm-1.58-17.25c0-1.8.82-3.27 1.83-3.27s1.83 1.46 1.83 3.27c0 1.8-.82 3.27-1.83 3.27s-1.83-1.46-1.83-3.27zm-1.04-18.38s.68-1.68 3.36-1.4c.09 0-1.43 7.11-1.43 7.11l-1.94-5.71h.01zm-4.1 21.31l3.89.14v.84l-2.14 3.97c-.89-.89-1.75-4.95-1.75-4.95zm-.33-13.27l2.9 5.74h-3.74s.06-3.55.84-5.74z" class="G"/><g class="B"><path d="M491.74 495.41h-2.77s.09-3.42-1.78-4.69l1.5-5.3s2.4 1.92 3.05 9.99zm-8.88-15.179c.09 0-1.43 7.11-1.43 7.11l-1.94-5.71s.68-1.68 3.36-1.4h.01zm6.26 22.708h3.16s.48 4.84-1.29 9.02l-2.54-4.59s1.12-2.81.67-4.43zm-3.64 14.321s-1.59.91-3.37 0l.62-6.53 2.74 6.53h.01zm-6.2-13.341l-2.14 3.97c-.89-.89-1.75-4.95-1.75-4.95l3.89.14v.84zm-5.05-8.509s.06-3.55.84-5.74l2.9 5.74h-3.74zm8.13 1.34c1.01 0 1.83 1.46 1.83 3.27 0 1.8-.82 3.27-1.83 3.27s-1.83-1.46-1.83-3.27c0-1.8.82-3.27 1.83-3.27z"/></g><path d="M867.048 487.799c.459-7.193-1.528-13.174-4.438-13.36s-5.642 5.495-6.101 12.688 1.529 13.174 4.439 13.36 5.641-5.495 6.1-12.688z" class="G"/><path d="M856.76 492.5a6.08 6.08 0 0 0 6.08-6.08c0-3.05-2.24-5.57-5.16-6.01 0 0-1.74 4.97-1.16 11.11l.1.97h.16l-.02.01z" class="C"/><path d="M696.76 505.411c8.036 0 14.55-6.515 14.55-14.55s-6.514-14.55-14.55-14.55-14.55 6.514-14.55 14.55 6.514 14.55 14.55 14.55z" class="G"/><path d="M692.01 498.13a8.2 8.2 0 0 0 0-16.4 8.2 8.2 0 0 0 0 16.4z" class="C"/><g class="B"><path d="M615.08 346.38c61-13.07 82.59 5.22 82.59 5.22s-18.11-3.09-30.77-4.15c0 0-.56-3.02-1.16-3.27s-5.59-2.03-24.29.3l.09 1.3-26.45.59-.01.01zm-33.05 4.169c-6.05-5.81-18-8.31-18-8.31v-2.55c-37.04-2.11-50.88 3.66-50.88 3.66l-1.44 5.02-10.7.68c5.81-12.98 40.93-12.58 61.55-12 15.31.43 24.42 9.14 27.16 13.59l-7.69-.09z"/><path d="M531.08 347.111l-9.22.63 1.08-6.97 8.57-.96-.43 7.3z"/></g><g class="O"><path d="M732.93 377.201l5.7 6.27c-2.25 2.16-3.66.38-3.66.38s-1.43-1.3-2.04-2.07c-.65-.81-2-2.83-1.49-3.96s1.49-.62 1.49-.62zM612.81 366.78h18.05s1.02 1.49 1.2 5.77v9.66l-7.63-.95s-.47-7.04-4.28-8.28c-3.81-1.23-7.92-.91-7.92-.91l.58-5.3v.01zm64.82 7.05l6.46 23.31c-3.12-.8-11.11-1.6-11.11-1.6 6.17-5.6 1.53-21.71 1.53-21.71h3.12zm13.72-10.119l21.74.68c8.62.15 15.25 8.18 15.25 8.18-2.61 8.81 1.28 9.57 4.73 13.9 3.27 4.1 10.28 3.34 10.28 3.34l7.63 12.41c-39.72 1.75-46.33-1.45-46.33-1.45-1.82-9.88-13.29-37.06-13.29-37.06h-.01zm-40.23-.121l18.06-.24s3.05-.34 3.61 2.08h-12.93s-1.65.1-1.53 2.4l.12 2.3s-1.84.87-3.41 3.34l-3.92-9.3v-.58zm0 6.529l2.61 6.1-1.89 6.47-.72-12.57z" class="K"/></g><path d="M596.58 355.09l8.35 48.15c1.31 7.62 10.6 5.83 10.6 5.83 25.37-2.77 155.18-1.12 160-1.06-.79-.09-4.86-1.45-16.5-18.4-13.17-19.17-29.48-31.76-29.48-31.76-68.41-8.28-132.97-2.76-132.97-2.76zm108.06 45.68c-1.82-9.88-13.29-37.06-13.29-37.06l21.74.68c8.62.15 15.25 8.18 15.25 8.18-2.61 8.81 1.28 9.57 4.73 13.9 3.27 4.1 10.28 3.34 10.28 3.34l7.63 12.41c-39.72 1.75-46.33-1.45-46.33-1.45h-.01zm26.8-22.95c.51-1.13 1.49-.62 1.49-.62l5.7 6.27c-2.25 2.16-3.66.38-3.66.38s-1.43-1.3-2.04-2.07c-.65-.81-2-2.83-1.49-3.96zm-56.94-3.99h3.12l6.46 23.31c-3.12-.8-11.11-1.6-11.11-1.6 6.17-5.6 1.53-21.71 1.53-21.71zm-23.38-9.66v-.58l18.06-.24s3.05-.34 3.61 2.08h-12.93s-1.65.1-1.53 2.4l.12 2.3s-1.84.87-3.41 3.34l-3.92-9.3zm2.61 12.05l-1.89 6.46-.73-12.56 2.61 6.1h.01zm-41.5-4.14l.58-5.3h18.05s1.02 1.49 1.2 5.77v9.66l-7.63-.95s-.47-7.04-4.28-8.28c-3.81-1.23-7.92-.91-7.92-.91v.01z" class="B"/><g class="O"><path d="M585.52 369.521c-4.65-.29-7.31.29-7.31.29-.07-3.98-3.05-4.26-3.05-4.26-11.28-1.6-14.86.48-14.86.48l1.02-2.32 22.08 1.16c2.86.15 2.42 2.32 2.42 2.32l-.29 2.32-.01.01zm-56.17 2.609c-.1-6-1.5-6.97-1.5-6.97l1.74-2.42 14.23.44-2.47 7.46c-10.89-1.16-12.01 1.5-12.01 1.5l.01-.01z" class="K"/></g><path d="M496.24 401.621l95.58 13.54.99.06c.58.14.35-1.05.35-1.05l-4.73-50.46c-.87-9.05-6.49-9.25-6.49-9.25-11.33-2.61-53.06-1.17-53.06-1.17-7.94-.2-10.36 5.34-10.36 5.34-8.5 11.23-22.27 42.99-22.27 42.99h-.01zm89.57-34.43l-.29 2.32c-4.65-.29-7.31.29-7.31.29-.07-3.98-3.05-4.26-3.05-4.26-11.28-1.6-14.86.48-14.86.48l1.02-2.32 22.08 1.16c2.86.15 2.42 2.32 2.42 2.32l-.01.01zm-41.98-4.02l-2.47 7.46c-10.89-1.16-12.01 1.5-12.01 1.5-.1-6-1.5-6.97-1.5-6.97l1.74-2.42 14.23.44.01-.01z" class="B"/><path d="M581.87 402.88s.12-.43.25-1.14l4.5 1.95-2.08 10.45c.1 0 .65.08 1.41.19-3.45-.14-11.36-3.7-16.81-6.35l10.99.04 1.74-5.13v-.01z" class="d"/><path d="M549.62 395.47c3.68-6.44 15.98-9.54 25.85-7.41 8.06 1.74 7.22 10.51 6.64 13.67-.13.71-.25 1.14-.25 1.14l-1.74 5.13-10.99-.04-10.9.04c-10.07.1-12.3-6.1-8.62-12.54l.01.01z" class="X"/><path d="M586.62 403.679l3.74-18.82 2.9 30.5-7.31-1.05-1.41-.19 2.08-10.45v.01z" class="d"/><g class="B"><path d="M483.79 399.491s-13.96-1.55-17.67-4.65c0 0 1.16-4.51 5.52-14.43 4.34-9.88 11.81-20.43 11.81-20.43s3.97-7.01 25.5-4.94c0 0-19.42 27.86-25.17 44.45h.01zm-21.09 89c-.29 3.85-.27 7.87.07 11.97a74.73 74.73 0 0 0 .18 2.94c.49 5.87 1.64 11.34 3.26 16.13 1.44 4.58 3.29 8.48 5.59 11.59 1.27 1.72 2.68 3.21 4.23 4.42.08.07.18.14.26.2.01 0 .02.02.03.02 3.04 2.44 7.55 4.24 12.88 4.24 8.37 0 16-4.49 21.36-11.79 3.11-4.22 5.46-9.39 6.75-15.17l.05-.21c0-.03.01-.06.02-.1v-.02s.2-.73.46-2.03c.04-.18.07-.38.11-.58.02-.1.04-.2.05-.3l.06-.34c.53-3.17 1.12-8.42.69-14.71l-10.6-2.62-3.24-.66c-.49-.1-.38-.07-.46-.13-.1 0-.18-.01-.24-.01.48.14.21.04 0 0-.17-.03-.31.01 0 0 0 0-5.71-4.53-6.75-7.6l-7.21-21.83-1.99-6.02h-.58c-15.53.98-23.63 14.92-24.97 32.59l-.01.02zm16.92-11.99c6.31-.67 12.29 9.06 13.36 21.74s-3.18 23.5-9.49 24.18c-6.31.67-12.29-9.06-13.36-21.74s3.18-23.5 9.49-24.18z"/></g><path d="M462.94 443.589c1.74-4.99 6.54-3.87 6.54-3.87l8.91 1.9c5.81 1.76 8.04 8.94 8.04 8.94l4.23 12.81 6.66 20.11c1.07 3.73 6.89 7.85 6.89 7.85l3.94.81s-13.35-32.65-17.78-50.05c0 0-2.2-13.27-25.15-11.52 0 0-8.04.94-5.28 19.25l.58 3.27s1.07-8.38 2.42-9.49v-.01z" class="X"/><path d="M802.25 547c-5.87.56-11.57-3.79-15.72-11.03l13.96-1.06-.49 4.6c2.91 1.33 5.51 0 5.51 0l-2.28-4.83 12.25-1.09c-2.73 7.69-7.45 12.87-13.23 13.41z" class="G"/><g class="B"><path d="M800 539.51l.49-4.6 2.73-.23 2.28 4.83s-2.6 1.33-5.51 0h.01zm-207.1 1.029l.12.89-.12-.89zm.93 5.9l.17.88-.17-.88zm.62 2.971l.16.69-.16-.69zm.75 3.11c.03.1.05.19.07.29-.03-.1-.05-.19-.07-.29zm-2.63-14.95l-.18-2.24.18 2.24z"/></g><path d="M460.85 463.881c-.73-16.7 1.65-20 3.44-22.66s7.31-1.31 7.31-1.31 2.42.29 7.41 1.72 7.46 8.84 7.46 8.84l3.78 11.43-1.99-6.02h-.58c-15.53.98-23.63 14.92-24.97 32.59 0 .01-1.01-3.96-1.94-9.76a1.63 1.63 0 0 1 .11.12v-14.98l-.03.03z" class="N"/><path d="M517.99 509.81l.06-.34c.53-3.17 1.12-8.42.69-14.71l69.17 17.11 5.55 1.37-.09.53c-.92 5.28-1.34 10.99-1.2 16.95v.21l-.08-.02-24.31-6.61-49.96-13.59c.04-.18.07-.38.11-.58.02-.1.04-.2.05-.3l.01-.02z" class="B"/><path d="M734.46 526.849l15.76-22.56s71.73-.5 85.61-2.59c0 0 6.37 2.25 6.09 6.63l-.8 12.42s-.24 6.51-5.07 9.64c-1.21.79-2.71 1.37-4.57 1.57l-3.93.43-12.07 1.2-12.25 1.09-2.73.23-13.96 1.06-14.54.9c-19.31 1.05-39.5 1.32-54.38 0 0 0 .23-.06.63-.19 2.52-.77 11.92-3.83 16.21-9.83z" class="N"/><path d="M856.53 432.071s-4.71 10.93-4.47 15.56c0 0 .95 7.27 2.18 8.92 0 0 9.93.89 12.22-4.87 0 0-1.77-13.34-9.92-19.62l-.01.01z" class="G"/><path d="M857.31 432.711s-4.16 11.41-3.74 15.1c0 0 1.11 5.78 2.17 7.07 0 0 8.89-.09 10.44-4.77 0 0-2.4-12.6-8.87-17.4z" class="C"/><path d="M730.75 449.97s-17.56-11.16-61.46-9.9c0 0-2.35 6.96-2.35 8.52l8.26 9.84s.84 1.59 6.09 1.92l37.62 2.35s11.51-1.39 12.43-5.35l-.57-7.38h-.02z" class="G"/><path d="M726.59 450.79s-15.41-9.12-53.93-8.09c0 0-2.06 5.69-2.06 6.97l6.9 7.96s.61 1.42 5.69 1.65l33.84 1.81s9.27-1.02 10.07-4.26l-.5-6.03-.01-.01z" class="C"/><path d="M624.94 565.219l1.22-.04c10.32-.98 17.27-16.7 15.52-35.12s-11.53-32.55-21.85-31.57c-.41.04-.81.11-1.21.19-9.64 2.05-15.99 17.24-14.31 34.93s10.77 31.42 20.62 31.61h.01z" class="G"/><g class="B"><path d="M624.94 548.199l4.49 9.48s-2.6 1.33-5.51 0l1.02-9.48zm14.73-22.25h-4.54s.15-4.97-2.91-6.81l2.45-7.7s3.93 2.79 5 14.51zm-20.04-20.009s1.11-2.45 5.5-2.04c.14.01-2.33 10.33-2.33 10.33l-3.17-8.29zm15.76 30.941h5.17s.78 7.03-2.11 13.1l-4.15-6.67s1.83-4.08 1.09-6.43zm-16.11.21v1.22l-3.5 5.76c-1.46-1.29-2.86-7.19-2.86-7.19l6.36.2v.01zm-6.89-19.482l4.75 8.34h-6.12s.11-5.15 1.37-8.34zm11.94 10.282c1.66 0 3 2.12 3 4.75 0 2.62-1.34 4.75-3 4.75s-3-2.12-3-4.75 1.34-4.75 3-4.75z"/></g><g fill="#406caf"><path d="M615.98 465.251l-1.18-.29h.03l1.16.29h-.01zm8.23 3.038c1.27.66 2.45 1.41 3.39 2.25-.71-.62-1.8-1.41-3.39-2.25zm-20.72-4.798h-.03c-.02 0-.04-.01-.06-.02h.08l.01.02zm-8.81 41.839l-.55 3.18-.01-.12.56-3.06zm3.62-42.23c-1.23.3-2.33.92-3.31 1.79.79-.81 1.87-1.54 3.31-1.79z"/></g><path d="M449.88 431.149l.06-.82.06-.84c1.64-22.83 7.34-30.95 7.34-30.95l5.79 1.33c-1.02 1.39-2.29 3.83-3.63 6.76-4.35 9.51-9.47 24.13-9.6 24.5v.02h-.02z" class="G"/><path d="M624.21 468.29l-1.35-.66-.89-.39-.26-.11-.66-.26-.25-.1-.85-.31c-.04-.01-.07-.03-.11-.04l-.73-.25-.24-.08-.61-.19-.19-.06-.73-.22c-.03 0-.05-.02-.08-.02l-.59-.17c-.05-.01-.09-.02-.13-.04l-.52-.14h-.03l-.84-.21-.23-.05c-.06 0-.09-.02-.09-.02h-.03l-11.3-1.47h-.08c-1.92-.67-3.62-.76-5.11-.39-1.44.25-2.52.98-3.31 1.79-9.61 8.62-7.46 42.21-7.08 46.96l-2.55-.64-.79-18.77c-1.45-17.53 5.01-32.68 5.01-32.68 3.27-11.04 16.58-8.16 16.58-8.16l14.45 2.69c16.41 4.21 19.06 15.54 19.06 15.54l13.38 36.96c3.03 8.86 7.5 11.47 7.5 11.47l24.46 18.08-11.76-.63c-7.72-5.71-22.19-17.03-22.19-17.03-.49-.38-1.01-.96-1.54-1.65-2.25-2.93-4.58-7.89-4.63-7.99v-.01-.02l-7.54-19.52c-1.61-3.81-4.74-10.51-4.74-10.51l-3.48-6.62c-.34-.65-.87-1.26-1.5-1.83s-1.38-1.1-2.19-1.58l-.02-.01c-.38-.23-.77-.45-1.17-.65l-.05-.01z" class="X"/><path d="M603.64 464.51v-.95l-.23-.08 11.41 1.48s.03 0 .07.02c.07.01.14.03.23.05l.85.21c.01 0 .03 0 .04.01l.52.14c.04.01.09.02.13.04l.59.17c.03 0 .05.02.08.02l.73.22.19.06.61.19.24.08.73.25c.04.01.07.03.11.04l.85.31.25.1.66.26.26.11.89.39 2.52 1.31s.02 0 .02.01l.76.49c-14.82 3.22-24.94 13.75-30.08 27.91.19-.53.4-1.04.6-1.55 0-19.89 6.95-31.3 6.95-31.3l.02.01z" class="N"/><path d="M594.99 464.889c.98-.88 2.08-1.49 3.31-1.79 1.5-.37 3.19-.28 5.11.38.02 0 .04.01.06.02.06.02.12.03.18.06v.95s-6.95 11.41-6.95 31.3l-.6 1.55v.02l-.89 5.09-.52 2.86-.55 3.07v.11.26l-.27 4.56-.4-.1-.09.54.09-.53-5.55-1.37v-.02c-.38-4.76-2.54-38.34 7.08-46.96h-.01z" class="d"/><g fill="#406caf"><path d="M854.71 523.72l11.04-14.33s4.65-5.71 5.23-17.33 1.26-25.85 0-30.79l-1.55.87v30.36s-1.07 9.34-4.94 12.54-9.78 18.69-9.78 18.69v-.01zm-8.24-87.731l-9.01 5.54h-5.23s2.7-7.66 1.55-9.66c0 0-2.46-11.8-52.03-22.25l-5.4-1.1-2.8-.54 2.02-.13.93-.06 5.69 1.17 29.24 6.14 18.19 4.05h.04.03l7.78 2.07h.03l.03.02 6.01 1.85 1.09.33 1.76.54h.01l3.44 1.94-3.39 10.07.02.02zm-147.28-14.52c-25.62 0-85.4-8.42-85.4-8.42 33.41-14.14 85.99 8.42 85.4 8.42zm-249.3 9.662c.13-.37 5.25-14.99 9.6-24.5l6.22.96c-5.23 9.18 2.25 9.71 2.25 9.71l38.15 7.55-1.8-13.99 155.67 22.97s-8.41 13.63 10.54 23.44v52.45s-3.58 12.12 47.11 27.09v.07l-27.73-.13-16.65-1.02 11.76.63-24.46-18.08s-4.47-2.61-7.5-11.47-13.38-36.96-13.38-36.96-2.64-11.33-19.06-15.54l-14.45-2.69s-13.31-2.88-16.58 8.16c0 0-6.46 15.15-5.01 32.68l.79 18.77 2.55.64v.02l-69.17-17.11-10.6-2.62-3.24-.66c-.49-.1-.38-.07-.46-.13a1.62 1.62 0 0 0-.26-.15s-5.69-4.39-6.73-7.46l-7.21-21.83-3.78-11.43s-2.47-7.41-7.46-8.84-7.41-1.72-7.41-1.72-5.52-1.36-7.31 1.31c-1.79 2.66-4.16 5.95-3.44 22.66v14.98s-.03-.05-.1-.12c-.88-.97-7.13-8.04-8.03-11.95-.97-4.21-2.95-18.67-3-29.58a100.51 100.51 0 0 1 .18-6.07v-.04z"/></g><g class="B"><path d="M487.76 416.25l8.65 1.34s1.66.92.37 3.31c0 0-.75.77-3.62.25l-5.4-1.04s-1.53-.31-1.53-1.84.99-2.09 1.53-2.01v-.01zm42.57 6.59l10.24 1.58s1.96 1.09.44 3.92c0 0-.89.91-4.28.29l-6.39-1.23s-1.82-.36-1.82-2.18 1.17-2.48 1.82-2.38h-.01z"/></g><g class="G"><path d="M588.14 432.6s-1.45 5.33 22.85 8.33l35.15 4.84m-64.29 50.979s-.97-6.31-16.66-8.76l-44.15-9.27-15.4-3.93m330.92-33.559l4.85.08s6.06.66 5.83 6.47c-.14 3.51-.38 22.75-.38 22.75s-.1 5.71-4.5 6.94c0 0-13.32 5.91-43.38 6.97 0 0-23.44 1.43-51.4-1.7 0 0-8.44.46-10.15-13.98l-2.11-15.77s-1.29-7.29 3.56-8.49l17.84-1.56s25.8-1.66 79.85-1.71h-.01z"/></g><path d="M834.57 443.051l5.95.14s4.75.23 4.77 3.42c.02 3.2-.39 23.31-.39 23.31s-.04 4.54-4 5.89c0 0-13.09 5.95-42.22 6.51 0 0-22.41 1.28-49.14-1.59 0 0-8.07.41-9.71-12.72l-2.03-14.34s-1.24-6.63 3.39-7.71l17.06-1.41s24.66-1.49 76.32-1.49v-.01z" class="B"/><g class="c"><path d="M311.88 210.249l22.89 15.97 10.17-25.98 19.33 20.12 15.05-23.5 15.04 23.51 19.34-20.12 10.15 25.99 22.9-15.95 4.89 27.47 17.03-7.45v-71.52H289.74v71.39l17.23 7.53 4.91-27.46zm134.79 325.62l-22.9-15.95-10.17 25.98-19.32-20.12-15.05 23.5-15.04-23.51-19.33 20.11-10.17-25.99-22.89 15.95-4.9-27.47-17.19 7.52v110.44l89.59-68.76 89.52 68.76v-110.38l-17.25-7.55-4.9 27.47z"/></g><path d="M531.97 388.14l23.51-15.03-23.5-15.05 20.12-19.33-25.98-10.17 15.96-22.9-27.47-4.91 11.19-25.56-27.89.55 5.99-27.25-26.66 5.84v-104.1H281.18v104.04l-26.46-5.82 5.97 27.25-27.9-.56 11.18 25.56-27.47 4.9 15.95 22.89-25.99 10.16L226.59 358l-23.51 15.03 23.5 15.05-20.12 19.33 25.98 10.17-15.95 22.88 27.45 4.91-11.18 25.56 27.89-.54-5.99 27.25 26.51-5.81v151.89l98.14-75.33 98.09 75.34V491.89l26.45 5.82-5.98-27.25 27.9.55-11.18-25.56 27.47-4.89-15.95-22.9 25.99-10.16-20.12-19.34-.01-.02zM289.74 158.79h178.93v71.51l-17.04 7.45-4.89-27.47-22.9 15.95-10.16-25.99-19.34 20.11-15.03-23.5-15.05 23.5-19.33-20.13-10.17 25.99-22.89-15.97-4.9 27.46-17.23-7.53v-71.38zm179.08 467.54l-89.52-68.76-89.58 68.76V515.89l17.19-7.52 4.9 27.47 22.89-15.96 10.16 25.99 19.34-20.11 15.04 23.51 15.05-23.5 19.32 20.12 10.16-25.99 22.9 15.95 4.9-27.47 17.25 7.55V626.3v.03z" class="e"/><path d="M379.2 226.711c-80.96 0-146.54 65.65-146.54 146.56 0 80.86 65.58 146.38 146.54 146.38 80.93 0 146.64-65.52 146.64-146.38 0-80.91-65.71-146.56-146.64-146.56z" class="c"/><g class="C"><path d="M467.58 316.21l-14.15 9.87-4.68-6.66 14.14-9.87 13.08-24.53 5.13 7.29-9.39 16.12 18.35-3.38 5.13 7.29-27.61 3.87zm-45.12-20.689l25.5-33.38 22.07 16.73-4.43 5.81-15.54-11.77-5.98 7.83 13.23 10.02-4.45 5.81-13.22-10.03-6.19 8.11 15.52 11.77-4.44 5.81-22.07-16.73v.02zm-29.52-10.001l11.27-40.42 7.91 2.19-9.31 33.38 18.42 5.09-1.97 7.04-26.33-7.28h.01zm-31.77.949l-3.79-41.79 8.19-.74 3.12 34.51 19.03-1.71.66 7.28-27.21 2.44v.01zm-30.75 12.351l-17.54-38.14 25.22-11.51 3.06 6.64-17.74 8.1 4.11 8.95 15.11-6.9 3.06 6.64-15.12 6.9 4.27 9.27 17.74-8.09 3.06 6.64-25.22 11.51-.01-.01z"/></g><g filter="url(#C)" class="C"><path d="M320.81 307.84l-21.52-4.56 1.27 8.35 9.48 8.35-5.45 6.13-31.54-27.78 5.45-6.13 13.73 12.1-3.9-23.17 6.62-7.46 3.29 21.45 28.91 5.57-6.34 7.15z"/></g><g class="C"><path d="M502.39 396.43l-9.98-21.09-5.02 7.16v13.93h-7.58v-46.35h7.58v20.18l13.69-20.18h9.23l-12.88 18.42 13.8 27.92h-8.84v.01zm-31.43-4.691c-2.73 3.25-6.06 5.08-10.48 5.08s-7.8-1.83-10.53-5.08c-3.93-4.69-3.82-10.48-3.82-18.49 0-8-.11-13.8 3.82-18.48 2.73-3.25 6.11-5.08 10.53-5.08s7.75 1.83 10.48 5.08c3.93 4.68 3.87 10.48 3.87 18.48 0 8.01.05 13.8-3.87 18.49zm-5.62-31.5c-1.09-1.49-2.78-2.47-4.85-2.47a6.01 6.01 0 0 0-4.91 2.47c-1.47 1.95-1.85 4.1-1.85 13.02s.38 11.06 1.85 13.02c1.09 1.5 2.84 2.48 4.91 2.48a5.88 5.88 0 0 0 4.85-2.48c1.47-1.96 1.91-4.1 1.91-13.02 0-8.91-.44-11.06-1.91-13.02zm-26.74 31.5c-2.73 3.25-6.06 5.08-10.47 5.08-4.42 0-7.8-1.83-10.53-5.08-3.93-4.69-3.82-10.48-3.82-18.49 0-8-.11-13.8 3.82-18.48 2.73-3.25 6.11-5.08 10.53-5.08s7.74 1.83 10.47 5.08c3.93 4.68 3.87 10.48 3.87 18.48 0 8.01.05 13.8-3.87 18.49zm-5.61-31.5c-1.09-1.49-2.78-2.47-4.85-2.47a6.01 6.01 0 0 0-4.91 2.47c-1.47 1.95-1.85 4.1-1.85 13.02s.38 11.06 1.85 13.02c1.09 1.5 2.84 2.48 4.91 2.48a5.88 5.88 0 0 0 4.85-2.48c1.47-1.96 1.91-4.1 1.91-13.02 0-8.91-.44-11.06-1.91-13.02zm-34.76 36.191h-16.26v-46.35h15.6c7.58 0 12 5.07 12 13.02 0 5.14-2.83 8.46-4.8 9.57 2.34 1.3 5.34 4.23 5.34 10.42 0 8.66-4.96 13.34-11.89 13.34h.01zm-1.26-38.27h-7.42v10.67h7.42c3.22 0 5.02-2.15 5.02-5.34s-1.8-5.34-5.02-5.34v.01zm.49 18.81h-7.91v11.39h7.91c3.44 0 5.07-2.61 5.07-5.73s-1.64-5.66-5.07-5.66zm-55.6 19.46v-46.35h25.58v8.07h-18v10.87h15.33v8.07h-15.33v11.26h18v8.07h-25.58v.01zm-19.97.39c-7.97 0-14.3-6.44-14.3-16.27v-30.46h7.58v30.14c0 5.34 2.62 8.53 6.71 8.53s6.76-3.19 6.76-8.53v-30.14h7.53v30.46c0 9.83-6.33 16.27-14.29 16.27h.01zm-41.62-.39v-46.35h7.58v38.28h17.62v8.07h-25.21.01z"/></g><g filter="url(#D)" class="C"><path d="M263.41 396.43h-16.26v-46.35h15.6c7.58 0 12 5.07 12 13.02 0 5.14-2.84 8.46-4.8 9.57 2.34 1.3 5.34 4.23 5.34 10.42 0 8.66-4.96 13.34-11.89 13.34h.01zm-1.26-38.27h-7.42v10.67h7.42c3.22 0 5.02-2.15 5.02-5.34s-1.8-5.34-5.02-5.34v.01zm.49 18.81h-7.91v11.39h7.91c3.44 0 5.08-2.61 5.08-5.73s-1.64-5.66-5.08-5.66z"/></g><g class="C"><path d="M281.44 440.579c-2.37-.41-4.31-1.56-5.85-3.83s-1.93-4.56-1.47-6.96c.67-3.45 3.22-5.17 6.69-7.62 3.47-2.44 5.96-4.27 9.36-3.69 2.37.41 4.33 1.59 5.87 3.85 1.54 2.27 1.91 4.54 1.45 6.94-.67 3.45-3.2 5.19-6.68 7.63-3.48 2.45-5.98 4.25-9.38 3.67l.01.01zm11.72-12.52c.27-1.02.11-2.19-.62-3.25-.72-1.07-1.76-1.67-2.79-1.77-1.36-.17-2.43.3-6.29 3.03-3.87 2.72-4.67 3.58-5 4.93-.27 1.02-.09 2.22.63 3.28s1.74 1.64 2.77 1.74c1.36.16 2.44-.27 6.32-3 3.87-2.73 4.65-3.61 4.98-4.96zm9.17 10.82l-4.35 4.23 6.48 6.93-3.08 3-6.48-6.92-7.18 6.99-3.21-3.43 17.69-17.23 10.81 11.56-3.08 3-7.6-8.13zm14.53 13.802l-3.55 4.96 7.58 5.64-2.51 3.51-7.58-5.64-5.85 8.18-3.75-2.79 14.43-20.15 12.65 9.42-2.51 3.51-8.9-6.63-.01-.01zm3.14 26.54l11.23-22.17 4.13 2.17-11.23 22.17-4.12-2.17H320zm17.37 7.94c-2.45-.92-4.13-2.59-5.11-4.82-1.41-3.22-.29-6.12 1.15-10.17 1.45-4.05 2.44-7 5.55-8.53 2.15-1.06 4.49-1.23 6.94-.32 4.18 1.56 6.54 5.27 5.57 10.47l-4.43-1.64c.24-2.04-.38-3.91-2.57-4.73-1.2-.45-2.33-.35-3.23.17-1.2.68-1.85 1.71-3.47 6.21-1.61 4.51-1.76 5.72-1.27 7.03.36.99 1.16 1.82 2.36 2.26 2.2.82 3.85-.21 4.95-1.93l4.43 1.65c-2.55 4.61-6.73 5.89-10.87 4.35zm13.72 4.218l5.03-24.43 4.54.97-5.02 24.43-4.55-.97zm23.46 3.261l-1.05-4.53-8.42-.69-1.78 4.28-4.82-.4 10.58-24.14 3.63.3 6.69 25.57-4.83-.4v.01zm-4.14-17.98l-3.71 8.8 5.89.49-2.18-9.29zm12.04 17.971l-1.42-24.9 4.64-.27 1.17 20.56 10.77-.63.25 4.33-15.4.93-.01-.02zm39.25-10.881c-1.1 2.6-2.98 4.12-5.37 5-2.45.9-4.79.72-6.94-.34-3.1-1.55-4.07-4.5-5.52-8.56-1.44-4.05-2.54-6.96-1.12-10.17.99-2.23 2.61-3.87 5.12-4.8 5.18-1.91 9.08.67 11.08 4.41l-4.39 1.62c-1.3-2.02-3.01-2.76-5.25-1.94-1.19.44-1.99 1.3-2.34 2.29-.5 1.3-.34 2.47 1.27 6.99 1.6 4.52 2.21 5.56 3.41 6.23.9.52 2.04.63 3.23.18 1.32-.49 2.21-1.38 2.64-2.47.42-1.12.33-2.28-.11-3.51l-.31-.89-4.12 1.52-1.35-3.83 8.44-3.12 1.21 3.43c1.21 3.4 1.37 5.65.41 7.95l.01.01zm16.45-4.32c-4.26 2.42-9.3 1.31-11.83-3.31l-7.83-14.33 4.05-2.3 7.75 14.17c1.38 2.51 3.59 3.22 5.79 1.97 2.18-1.25 2.8-3.55 1.43-6.06l-7.75-14.18 4.03-2.29 7.82 14.32c2.53 4.62.81 9.58-3.46 12v.01zm13.86-8.93l-15.45-19.36 3.61-2.99 15.44 19.35-3.59 2.99-.01.01zm17.3-18.949c.02 2.29-1.06 4.42-2.82 6.2l-6.11 6.15-17.21-17.75 6.1-6.15c1.76-1.77 3.86-2.85 6.11-2.81 3.84.08 6.02 2.71 8.6 5.38s5.28 5.07 5.32 8.98h.01zm-13.81-9.54c-1.27-.15-2.39.24-3.53 1.39l-2.5 2.52 11.22 11.57 2.49-2.52c1.15-1.15 1.54-2.29 1.41-3.59-.16-1.42-1.29-2.79-3.9-5.48s-3.8-3.72-5.19-3.89zm20.5 4.369l-20.36-13.82 8.68-13.31 3.54 2.41-6.1 9.37 4.77 3.24 5.2-7.97 3.54 2.4-5.19 7.97 4.93 3.37 6.11-9.37 3.55 2.4-8.68 13.32.01-.01z"/></g><g filter="url(#E)" class="e"><path d="M378.86 302.6c28.9 0 53.67 17.45 64.49 42.36h4.33c-11.06-27.18-37.66-46.37-68.82-46.37-31.15 0-57.76 19.19-68.82 46.37h4.33c10.82-24.91 35.59-42.36 64.49-42.36z"/><path d="M378.86 443.3c-28.69 0-53.31-17.2-64.26-41.82h-4.35c11.19 26.89 37.66 45.83 68.61 45.83s57.41-18.94 68.61-45.83h-4.35c-10.95 24.62-35.57 41.82-64.26 41.82z"/></g></g><defs><filter id="C" x="270.91" y="271.53" width="62.66" height="61" filterUnits="userSpaceOnUse" class="f"><feFlood result="A" class="g"/><feColorMatrix in="SourceAlpha" values="0 0 0 0 0 0 0 0 0 0 0 0 0 0 0 0 0 0 127 0"/><feOffset dx="2.14" dy="2.14"/><feGaussianBlur stdDeviation="2.14"/><feColorMatrix values="0 0 0 0 0.133333 0 0 0 0 0.121569 0 0 0 0 0.121569 0 0 0 0.75 0"/><feBlend in2="A"/><feBlend in="SourceGraphic"/></filter><filter id="D" x="244.79" y="347.72" width="37.58" height="55.79" filterUnits="userSpaceOnUse" class="f"><feFlood result="A" class="g"/><feColorMatrix in="SourceAlpha" values="0 0 0 0 0 0 0 0 0 0 0 0 0 0 0 0 0 0 127 0"/><feOffset dx="2.36" dy="2.36"/><feGaussianBlur stdDeviation="2.36"/><feColorMatrix values="0 0 0 0 0.133333 0 0 0 0 0.121569 0 0 0 0 0.121569 0 0 0 0.75 0"/><feBlend in2="A"/><feBlend in="SourceGraphic"/></filter><filter id="E" x="309.82" y="298.37" width="140.24" height="151.321" filterUnits="userSpaceOnUse" class="f"><feFlood result="A" class="g"/><feColorMatrix in="SourceAlpha" values="0 0 0 0 0 0 0 0 0 0 0 0 0 0 0 0 0 0 127 0"/><feOffset dx="1.08" dy="1.08"/><feGaussianBlur stdDeviation=".65"/><feColorMatrix values="0 0 0 0 0.133333 0 0 0 0 0.121569 0 0 0 0 0.121569 0 0 0 0.75 0"/><feBlend in2="A"/><feBlend in="SourceGraphic"/></filter><clipPath id="F"><path transform="translate(139 146)" d="M0 0h1721.81v1079.98H0z" class="C"/></clipPath><path id="G" d="M520.91 961.4l47.67 6.4v93.92l-32.55-22.66c-9.61-6.7-15.35-17.79-15.35-29.64v-47.99c.07 0 .16-.02.23-.03z"/><path id="H" d="M568.58 967.87l-47.88-6.5c6.2-.66 11.29-9.15 12.93-16.14l34.95 2.77v19.86.01z"/><path id="I" d="M616.28 961.4l-47.67 6.4v93.92l32.55-22.66c9.61-6.7 15.35-17.79 15.35-29.64v-47.99c-.07 0-.16-.02-.23-.03z"/><path id="J" d="M304.55 901.13l47.88-6.5c-6.2-.66-11.29-9.15-12.93-16.14l-34.95 2.77v19.86.01z"/><path id="K" d="M852.06 896.859l39.18 5.26v77.21l-26.75-18.63c-7.9-5.51-12.62-14.63-12.62-24.37v-39.45c.05 0 .13-.02.19-.02z"/><path id="L" d="M891.24 902.18l-39.36-5.34c5.1-.55 9.28-7.52 10.63-13.27l28.73 2.28v16.33z"/><path id="M" d="M930.45 896.859l-39.18 5.26v77.21l26.75-18.63c7.9-5.51 12.62-14.63 12.62-24.37v-39.45c-.05 0-.13-.02-.19-.02z"/><path id="N" d="M891.27 902.18l39.36-5.34c-5.1-.55-9.28-7.52-10.63-13.27l-28.73 2.28v16.33z"/><path id="O" d="M1751.4 995.71c2.4 0 4.35-1.948 4.35-4.35a4.35 4.35 0 1 0-8.7 0c0 2.402 1.95 4.35 4.35 4.35z"/><path id="P" d="M1580.19 870.94a4.35 4.35 0 0 0 4.35-4.35c0-2.402-1.95-4.35-4.35-4.35s-4.35 1.948-4.35 4.35a4.35 4.35 0 0 0 4.35 4.35z"/><path id="Q" d="M1452.51 937.68c4 0 7.25-3.246 7.25-7.25s-3.25-7.25-7.25-7.25-7.25 3.246-7.25 7.25 3.25 7.25 7.25 7.25z"/><path id="R" d="M1458.32 1146.6a7.26 7.26 0 0 0 7.25-7.25 7.26 7.26 0 0 0-7.25-7.25 7.26 7.26 0 0 0-7.25 7.25 7.26 7.26 0 0 0 7.25 7.25z"/><path id="S" d="M1258.22 450.579l.19-1.97h-.11l-.08 1.97z"/></defs></svg>