<svg xmlns="http://www.w3.org/2000/svg" width="2000" height="2000" fill="none" xmlns:v="https://vecta.io/nano"><style><![CDATA[.B{fill:#5586d4}.C{fill:#e6f5fe}.D{fill:#1f3e74}.E{fill:#2b5195}.F{fill-rule:evenodd}]]></style><path d="M0 0h2000v2000H0z" class="C"/><path d="M1736 866h-237.67v262.57H1736V866z" class="E"/><path d="M1558.93 993.899c10.31 0 18.66-8.229 18.66-18.381s-8.35-18.382-18.66-18.382c-10.3 0-18.65 8.23-18.65 18.382s8.35 18.381 18.65 18.381zm60.72 0c10.3 0 18.66-8.229 18.66-18.381s-8.36-18.382-18.66-18.382-18.66 8.23-18.66 18.382 8.36 18.381 18.66 18.381zm-60.72 55.751c10.31 0 18.66-8.23 18.66-18.38s-8.35-18.38-18.66-18.38c-10.3 0-18.65 8.23-18.65 18.38s8.35 18.38 18.65 18.38zm60.72 0c10.3 0 18.66-8.23 18.66-18.38s-8.36-18.38-18.66-18.38-18.66 8.23-18.66 18.38 8.36 18.38 18.66 18.38z" class="C"/><path d="M1638.31 1068.64h-98.03v36.76h98.03v-36.76z" class="B"/><g class="C"><path d="M1698.97 889.5h-158.69v50.521h158.69V889.5z"/><use href="#E"/><path d="M1680.37 993.899c10.3 0 18.65-8.229 18.65-18.381s-8.35-18.382-18.65-18.382c-10.31 0-18.66 8.23-18.66 18.382s8.35 18.381 18.66 18.381z"/><use href="#E" y="55.75"/></g><path d="M1440.79 1055.15v-19.21c-16.92-1.65-32.9-6.32-43.62-12.82l-4.13-2.53 18.15-40.56 5.42 3.137c11.23 6.549 26.08 10.567 38.76 10.567 6.71 0 9.44-.826 10.45-1.321-2.35-1.761-10.78-3.467-16.53-4.678-21.01-4.292-52.85-10.841-52.85-44.577 0-23.115 16.82-40.285 44.3-45.623v-20.198h36.53v19.592c12.85 1.706 24.41 5.283 33.68 10.402l4.36 2.366-16.98 40.34-5.36-2.697c-11.46-5.723-22.4-8.64-32.57-8.64-7.88 0-10.17 1.541-10.67 1.981 2.18 1.651 10.61 3.302 16.26 4.458 21.22 4.183 53.23 10.456 53.23 44.082 0 22.179-15.92 39.129-41.95 45.129v20.69h-36.53l.05.11z" class="B"/><path d="M1471.74 882.951v18.987c13.29 1.265 26.31 4.622 36.53 10.291l-12.79 30.324c-12.4-6.219-24.13-9.246-35.08-9.246-12.4 0-16.36 3.522-16.36 7.815 0 14.914 69.65 2.476 69.65 48.209 0 19.149-14.02 35.829-41.95 40.619v19.7h-25.36v-18.82c-17.98-1.05-35.47-5.84-46.25-12.44l13.69-30.489c11.89 6.934 27.7 11.337 41.55 11.337 12.07 0 16.37-2.477 16.37-6.77 0-15.629-69.65-3.026-69.65-49.31 0-20.032 14.74-36.873 44.29-40.945v-19.317h25.36m11.17-10.952h-47.7v21.298c-27.54 6.824-44.29 25.371-44.29 50.026 0 15.96 6.47 26.581 15.52 33.846l-2.85 6.384-13.68 30.492-3.91 8.8 8.27 5.07c10.27 6.27 25.08 10.89 40.94 13.04v19.81h47.7v-21.96c26.09-7.43 41.95-25.7 41.95-49.364 0-18.986-9.33-30.378-21.17-37.478l2.12-5.063 12.79-30.323 3.8-9.026-8.65-4.788c-8.66-4.788-19.22-8.31-30.84-10.291v-20.363-.11z" class="C"/><g clip-path="url(#A)"><path d="M612.086 963.985H395.688v-39.32c0-2.407-.602-4.813-1.915-6.836s-3.226-3.61-5.468-4.594c-1.532-.656-3.117-.984-4.758-.984-.766 0-1.586.054-2.352.218-2.351.493-4.539 1.641-6.289 3.336l-86.953 85.475a12.61 12.61 0 0 0-3.39 8.59c0 3.17 1.203 6.23 3.39 8.58l86.953 85.48c1.696 1.7 3.883 2.9 6.289 3.34.766.16 1.532.21 2.352.21 1.641 0 3.226-.32 4.758-.98 2.242-.93 4.101-2.57 5.468-4.59 1.313-2.03 1.969-4.43 1.915-6.84v-36.59h217.054s1.149-70.159-.601-94.714l-.055.219z" class="D"/><path d="M526.664 882.61l-58.133-57.258c-3.445-5.031-9.187-1.531-9.187 5.797v25.156H264v62.453h80.719l16.679-16.406c4.43-4.43 10.008-7.437 16.188-8.64 1.969-.383 3.992-.602 6.016-.602 4.211 0 8.312.82 12.25 2.516 5.796 2.461 10.609 6.562 14.054 11.812 2.242 3.5 3.664 7.328 4.43 11.32h45.117v26.907c0 7.328 5.797 10.992 9.188 5.851l58.132-57.258c1.04-1.75 1.586-3.773 1.586-5.796s-.546-4.047-1.586-5.797l-.109-.055z" class="B"/></g><g clip-path="url(#B)"><path d="M1072.75 1130.21l-52.31 34.56.52-113.35 102.72 18.69-.17 94.74-50.76-34.64z" class="E"/><path d="M1025.25 1056.56l94.06 17.15v83.08l-46.56-31.72-48.1 31.72.51-100.23m-8.4-10.29v10.21l-.6 100.23v16.03l13.29-8.83 43.3-28.55 41.67 28.47 13.37 9.17v-16.21l.18-83.08v-7.2l-7.04-1.29-94.05-17.15-10.04-1.8h-.08z" class="C"/><path d="M1022.67 926.577h101.35l-.09 99.293-101.6 18.69.34-117.983z" class="E"/><path d="M1119.73 930.865v91.405l-93.11 17.14.34-108.545h92.77zm8.58-8.575h-109.93v8.575l-.34 108.545v10.29l10.12-1.88 93.03-17.15 7.03-1.29v-7.11-91.405-8.575h.09z" class="C"/><path d="M1072.32 1096.86l-14.66 10.98-9.18-15.87-17.83 4.46-2.4-18.09-18.09-2.66 4.71-17.75-15.689-9.34 11.149-14.58-10.978-14.66 15.858-9.17-4.45-17.753 18.09-2.4 2.66-18.092 17.74 4.716 9.35-15.777 14.58 11.147 14.66-10.975 9.17 15.862 17.75-4.459 2.4 18.178 18.18 2.658-4.8 17.665 15.77 9.43-11.14 14.49 10.89 14.66-15.78 9.26 4.46 17.75-18.18 2.4-2.66 18.09-17.66-4.71-9.43 15.69-14.49-11.15z" class="B"/><path d="M1090.07 954.201l4.81 8.317 4.76 8.263 9.21-2.302 9.35-2.4 1.09-.28.15 1.115 1.28 9.517v.001l1.27 9.454 9.37 1.35 9.52 1.372 1.12.161-.29 1.086-2.49 9.346v.001l-2.46 9.218 8.18 4.84h0l8.32 4.98.96.57-.68.89-5.83 7.63h0l-5.8 7.55 5.72 7.62h0l5.74 7.72.67.9-.97.56-8.32 4.81-8.26 4.76 2.3 9.21 2.4 9.35.28 1.09-1.11.15-9.52 1.28h0l-9.45 1.27-1.35 9.37-1.38 9.52-.16 1.11-1.08-.28-9.35-2.49h0l-9.21-2.46-4.85 8.18h0l-4.97 8.32-.58.96-.89-.68-7.63-5.83h0l-7.54-5.8-7.63 5.72h0l-7.72 5.74-.9.67-.56-.97-4.8-8.32-4.77-8.26-9.22 2.3h0l-9.33 2.4-1.09.28-.15-1.11-1.29-9.52h0l-1.27-9.45-9.46-1.35h0l-9.51-1.38-1.12-.16.29-1.08 2.49-9.35h0l2.46-9.21-8.18-4.85h0l-8.32-4.97-.961-.58.68-.89 5.831-7.63h.001l5.799-7.55-5.72-7.62h-.002l-5.745-7.72-.671-.9.974-.56 8.314-4.8 8.27-4.77-2.31-9.21v.001l-2.4-9.346-.28-1.09 1.12-.15 9.52-1.286h0l9.45-1.272 1.35-9.369 1.37-9.517.16-1.114 1.09.289 9.35 2.488h0l9.21 2.462 4.84-8.179.01-.004 4.97-8.317.29-.487h.99l.27.205 7.63 5.831v.001l7.55 5.797 7.62-5.717v-.002l7.72-5.746.9-.67.56.973zm-37.99 27.935l-.38.647-.73-.192-15.12-4.001-2.24 15.438-.11.747-.75.101-15.52 2.08 3.84 15.114.18.74-.65.37-13.52 7.84 9.36 12.57.46.6-.47.6-9.51 12.4 13.43 8 .65.38-.19.73-4 15.12 15.44 2.25.75.1.09.75 2.08 15.52 15.12-3.84.73-.18.38.65 7.84 13.52 12.57-9.36.6-.45.6.46 12.4 9.52 8-13.44.38-.65.73.19 15.12 4 2.24-15.43.11-.75.75-.1 15.52-2.08-3.84-15.12-.18-.73.65-.38 13.52-7.84-9.36-12.56-.45-.61.46-.6 9.51-12.4-13.43-7.99-.65-.39.19-.73 4-15.121-15.44-2.24-.74-.109-.1-.748-2.08-15.521-15.12 3.84-.73.185-.38-.653-7.84-13.521-12.56 9.363-.61.452-.6-.461-12.4-9.519-8 13.439z" stroke="#e6f5fe" stroke-width="2" class="C"/><path d="M988.977 823H823.666C808.918 823 797 834.918 797 849.666v89.515c0 14.747 11.918 26.666 26.666 26.666h94.231l38.241 43.903c2.4 2.31 6.345.6 6.345-2.75l-4.373-41.239h30.867c14.743 0 26.663-11.918 26.663-26.666v-89.429c0-14.748-11.92-26.666-26.663-26.666z" class="E"/><g class="C"><path d="M834 856h123v15H834zm0 34h144v14H834zm0 33h61v15h-61z"/></g></g><g clip-path="url(#C)"><g class="D"><path d="M593.328 1455.39h-99.969v40.03h42.219v37.63h14.984v-37.63h42.766v-40.03zm-209.234 92.2l-10.719 22.75c-2.625 5.69-7 10.39-12.25 13.57-5.028 2.98-10.763 4.56-16.61 4.58a32.75 32.75 0 0 1-16.64-4.47c-5.578-3.29-9.844-8.1-12.359-13.68l-10.719-22.86H267.5v46.05h13.125v136.72h35.109v-99.53h133.219v99.2h48.891v-99.2h63.437v99.53h34.891v-136.72H610.5v-46.05H384.094v.11z"/></g><path d="M389.89 1399.72c-5.906-6.13-13.015-10.94-20.781-14.33-7.766-3.28-16.188-5.03-24.719-5.03s-16.844 1.75-24.719 5.14a63.38 63.38 0 0 0-20.801 14.33c-5.9 6.13-10.506 13.38-13.542 21.33-3.063 7.87-4.485 16.4-4.157 24.82-.328 7.55 1.094 15.1 4.047 22.1l45.063 95.48c1.203 2.74 3.281 4.92 5.797 6.46 2.515 1.53 5.359 2.29 8.312 2.29s5.797-.76 8.313-2.29c2.515-1.54 4.593-3.72 5.906-6.46l44.953-95.48c2.953-7 4.375-14.55 4.047-22.1.328-8.53-1.094-16.95-4.156-24.82-3.063-7.88-7.657-15.21-13.563-21.33v-.11zm-17.719 61.03c-2.406 4.59-6.015 8.53-10.281 11.37-4.375 2.85-9.297 4.71-14.547 5.15-.984 0-2.078.11-3.062.11-4.156 0-8.313-.77-12.141-2.41a31.1 31.1 0 0 1-12.359-9.19c-3.281-4.05-5.578-8.86-6.563-13.89a31.71 31.71 0 0 1 .776-15.43 31.73 31.73 0 0 1 7.974-13.23c4.485-4.37 10.063-7.43 16.188-8.64 2.078-.43 4.047-.54 6.125-.54 4.156 0 8.312.76 12.14 2.4 5.797 2.41 10.719 6.46 14.219 11.6s5.36 11.26 5.36 17.5c0 5.25-1.313 10.39-3.719 14.98l-.11.22z" class="B"/></g><path d="M1386 1446v209.65h89.2l48.22 80.07v-80.07H1736V1446h-350zm163.76 55.95h128.77v19.9h-128.77v-19.9zm64.38 109.22h-64.38v-19.9h64.38v19.9zm86.74-44.72h-151.12v-19.9h151.12v19.9z" class="D"/><path d="M1488.19 1611.28v18.73h-23.76v-17.91c-16.86-1.05-33.25-5.61-43.31-11.82l12.76-29.03c11.12 6.56 25.98 10.77 38.98 10.77 11.23 0 15.33-2.34 15.33-6.44 0-14.86-65.2-2.81-65.2-46.82 0-19.08 13.81-35 41.44-38.98v-18.38h23.76v18.03c12.53 1.17 24.58 4.33 34.18 9.71l-11.94 28.8c-11.59-5.85-22.59-8.78-32.89-8.78-11.59 0-15.34 3.4-15.34 7.38 0 14.16 65.2 2.34 65.2 45.88 0 18.26-13.11 34.07-39.21 38.63v.23z" class="B"/><g class="F"><path d="M1115.5 1596.27h-28.98v-30.3h45.17v14.11c0 8.86-7.33 16.19-16.19 16.19zm-282.625 0h28.984v-30.3h-45.172v14.11c0 8.86 7.328 16.19 16.188 16.19zm290.935 66.61v-52.51H823.797v92.97c0 7.26 2.88 14.21 8.008 19.34s12.083 8.01 19.335 8.01h3.172c7.252 0 14.207-2.88 19.335-8.01s8.009-12.08 8.009-19.34v-14.65h183.964v14.65a27.38 27.38 0 0 0 8.01 19.34c5.13 5.13 12.09 8.01 19.34 8.01h3.17c7.25 0 14.21-2.88 19.34-8.01a27.37 27.37 0 0 0 8-19.34v-40.46h.33z" class="D"/><path d="M1035.33 1646.36l23.29-15.2 42.55-8.1v6.67c0 9.3-7.44 16.85-16.73 16.85h-49.22l.11-.22zm-120.862 0l-23.297-15.2-42.547-8.1v7.22c0 8.97 7.329 16.3 16.188 16.3h49.766l-.11-.22z" fill="#fff"/></g><path d="M967.296 1445.33c0-4.27 3.938-7.88 16.188-7.88 10.828 0 22.426 3.07 34.676 9.3l12.57-30.41c-10.17-5.68-22.96-9.07-36.09-10.28v-19.03h-25.047v19.36c-29.093 4.05-43.75 21-43.75 41.02 0 46.37 68.797 33.79 68.797 49.43 0 4.27-4.265 6.79-16.187 6.79-13.672 0-29.313-4.49-41.016-11.38l-13.453 30.52c4.375 2.62 9.953 4.92 16.078 6.89 8.859 2.84 19.031 4.92 29.641 5.57v18.82h25.047v-19.69c5.8-.98 10.94-2.63 15.53-4.7 17.17-7.44 25.92-20.89 25.92-36.1 0-45.83-68.794-33.36-68.794-48.34l-.11.11z" class="B"/><path d="M1038.17 1529.77c-6.89 7.43-16.08 13.45-27.12 17.28v23.4h-57.863v-20.67c-14.656-2.51-28.109-7.11-37.843-13.12l-11.485-7.11h-9.406l-25.703 66.5h192.06l14.44-66.5h-37.08v.22zm569.64-1064.848c-4.81.656-9.73.984-14.6.984-55.12 0-102.1-41.234-109.37-95.976-.5-3.938-.82-7.821-.93-11.649h-5.69c-13.56 0-26.14 6.891-33.47 18.266L1428 410.945h-42v13.508a15.47 15.47 0 0 0 15.48 15.477h7.93l-11.98 18.648c-2.57 3.992-3.94 8.586-3.94 13.344v81.922c0 14.437 11.81 26.304 26.31 26.304h3.06c14.44 0 26.3-11.812 26.3-26.304v-14.055h176.43v14.055c0 14.437 11.81 26.304 26.3 26.304h3.06c14.44 0 26.31-11.812 26.31-26.304V515.07l.33-31.117-30.96-34.125c-12.9 7.82-27.4 13.07-42.82 15.094zm-176.58 34.289c-8.86 0-16.03-7.219-16.03-16.078v-6.344l40.85 7.82 22.32 14.602h-47.14zm226.18-15.531c0 8.586-6.94 15.531-15.47 15.531h-47.69l22.31-14.602 40.85-7.82v6.891z" class="D"/><g class="B"><path d="M1723.42 465.141l-53.1-58.516c-.27-.273-.55-.492-.82-.711 11.76-17.773 17.5-39.648 14.49-62.398-5.96-45.336-44.9-79.516-90.56-79.516a89.9 89.9 0 0 0-12.09.82c-49.98 6.618-85.31 52.664-78.69 102.649 6.01 45.336 44.95 79.461 90.56 79.461 3.99 0 8.09-.274 12.09-.821 17.5-2.297 33.19-9.57 45.88-20.015l52.01 57.312c2.68 2.953 6.4 4.485 10.11 4.485 3.29 0 6.57-1.149 9.14-3.555 5.58-5.031 6.01-13.672.93-19.25l.05.055zm-121.35-43.75c-2.95.382-5.91.601-8.8.601-32.82 0-61.42-24.336-65.79-57.75-4.82-36.367 20.78-69.781 57.2-74.594 2.95-.382 5.91-.601 8.8-.601 32.82 0 61.42 24.336 65.79 57.75 4.82 36.367-20.78 69.781-57.2 74.594z"/><path d="M564.016 352.812l1.094 49.766.164 5.414-3.172 4.43-118.453 166.742 35.875 20.07 104.398-183.312-19.906-63.11z" class="F"/></g><path d="M481.219 264l65.57 46.539v-.055l2.023 92.422-128.898 181.453L264 473.617l128.898-181.453L481.219 264zm.054 68.906c4.594 3.282 10.938 2.188 14.219-2.406s2.188-10.937-2.406-14.219-10.938-2.187-14.219 2.407-2.187 10.937 2.406 14.218zm-96.359 166.852c12.031 5.633 22.914 7.383 32.648 5.14h-.109c9.734-2.187 17.227-7.601 22.477-16.187 4.757-7.766 6.562-15.313 5.414-22.586s-3.719-13.781-7.821-19.578c-4.047-5.742-9.461-12.141-16.242-19.196-5.195-5.468-8.75-9.679-10.719-12.632-1.914-2.899-2.242-5.469-.929-7.602 2.734-4.484 8.531-3.609 17.281 2.625 8.859 6.344 16.625 15.695 23.297 28.109l26.304-18.867c-5.085-10.5-13.015-20.453-23.898-29.804l10.008-16.407-20.344-14.547-10.226 16.68c-12.524-6.453-23.79-8.64-33.852-6.562-10.063 2.023-17.828 7.601-23.352 16.57-4.757 7.766-6.562 15.258-5.523 22.586 1.094 7.328 3.609 13.836 7.602 19.523s9.351 12.196 16.078 19.524c5.25 5.687 8.859 10.008 10.828 13.015s2.242 5.633.875 7.875c-1.149 1.914-3.063 2.68-5.688 2.188-2.625-.438-6.289-2.352-10.992-5.742-5.469-3.938-10.664-8.914-15.531-14.985s-8.805-12.304-11.813-18.703l-27.125 18.539c2.571 5.961 6.563 12.25 11.977 18.922s11.648 12.742 18.594 18.32l-9.953 16.243 20.343 14.547 10.391-17.008z" class="D F"/><g clip-path="url(#D)"><g class="B"><path d="M826.257 265.531l-18.922 18.922 38.992 41.89 16.297 3.719 84.766 84.712 9.243-9.188-84.767-84.766-3.718-16.297-41.891-38.992zm140.946 203.018l43.237-43.233 111.13 111.137c11.91 11.91 11.95 31.284 0 43.233-11.91 11.91-31.28 11.949-43.23 0L967.203 468.549z"/></g><g class="D"><path d="M1115.82 299.45l.01-.013-.06-.109c.02.04.03.081.05.122z"/><path d="M1086.41 330.062l29.41-30.612c1.88 5.433 2.91 11.243 2.91 17.268 0 29.149-23.63 52.828-52.83 52.828-4.81 0-9.52-.711-13.95-1.914L899.047 516.437c7.055 18.266 3.719 39.703-10.5 55.016-19.852 21.382-53.266 22.64-74.649 2.789s-22.64-53.266-2.789-74.649c14.602-15.695 36.422-20.453 55.508-14.109l149.903-150.227c-2.14-5.797-3.4-11.976-3.4-18.484 0-29.148 23.63-52.828 52.83-52.828 6.24 0 12.25 1.094 17.83 3.062l-30.51 30.516 9.07 24.992 24.07 7.547zM843.922 561.554l25.922-7.383 5.414-26.359-19.524-18.102-25.922 7.383-5.414 26.36 19.524 18.101zm175.348-188.782c2.15-2.128 2.16-5.591.03-7.734-2.12-2.144-5.59-2.157-7.73-.029L894.264 481.438a5.47 5.47 0 0 0 7.705 7.763l117.301-116.429z" class="F"/></g></g><defs><clipPath id="A"><path fill="#fff" transform="translate(264 823)" d="M0 0h350v350H0z"/></clipPath><clipPath id="B"><path fill="#fff" transform="translate(797 823)" d="M0 0h355.659v350H0z"/></clipPath><clipPath id="C"><path fill="#fff" transform="translate(264 1382)" d="M0 0h350v350H0z"/></clipPath><clipPath id="D"><path fill="#fff" transform="translate(797 264)" d="M0 0h350v350H0z"/></clipPath><path id="E" d="M1680.37 1049.65c10.3 0 18.65-8.23 18.65-18.38s-8.35-18.38-18.65-18.38c-10.31 0-18.66 8.23-18.66 18.38s8.35 18.38 18.66 18.38z"/></defs></svg>