<svg xmlns="http://www.w3.org/2000/svg" width="2000" height="2000" fill="none" xmlns:v="https://vecta.io/nano"><style><![CDATA[.B{fill:#1f3e74}.C{fill:#f3bc2a}.D{fill:#fff}.E{fill:#e6f5fe}.F{fill-rule:evenodd}]]></style><path d="M0 0h2000v2000H0z" class="B"/><path d="M214.36 537h43.56v154h-43.56V537zm-59.4 154H111.4V537h43.56v154zm62.48-60.06h-65.56v-36.08h65.56v36.08zm129.066 62.04c-13.053 0-24.64-2.64-34.76-7.92s-18.113-12.54-23.98-21.78c-5.72-9.387-8.58-20.093-8.58-32.12s2.86-22.66 8.58-31.9c5.867-9.24 13.86-16.427 23.98-21.56 10.12-5.28 21.707-7.92 34.76-7.92s24.64 2.64 34.76 7.92c10.267 5.133 18.26 12.32 23.98 21.56s8.58 19.873 8.58 31.9-2.86 22.733-8.58 32.12c-5.72 9.24-13.713 16.5-23.98 21.78-10.12 5.28-21.707 7.92-34.76 7.92zm0-33.22c4.84 0 9.093-1.1 12.76-3.3 3.813-2.2 6.82-5.427 9.02-9.68 2.2-4.4 3.3-9.607 3.3-15.62s-1.1-11.073-3.3-15.18c-2.2-4.253-5.207-7.48-9.02-9.68-3.667-2.2-7.92-3.3-12.76-3.3-4.693 0-8.947 1.1-12.76 3.3-3.667 2.2-6.673 5.427-9.02 9.68-2.2 4.107-3.3 9.167-3.3 15.18s1.1 11.22 3.3 15.62c2.347 4.253 5.353 7.48 9.02 9.68 3.813 2.2 8.067 3.3 12.76 3.3zM458.347 691l-42.46-119.24h39.6l33.66 99.66h-18.92l34.98-99.66h35.64l33.66 99.66h-18.48l34.76-99.66h36.74L585.067 691h-40.48l-28.6-82.5h12.32l-29.48 82.5h-40.48zm306.915 1.98c-13.2 0-25.006-2.64-35.42-7.92-10.266-5.28-18.333-12.54-24.2-21.78-5.866-9.387-8.8-20.093-8.8-32.12s2.934-22.66 8.8-31.9 13.934-16.427 24.2-21.56c10.414-5.28 22.22-7.92 35.42-7.92 13.494 0 25.154 2.86 34.98 8.58s16.794 13.787 20.9 24.2l-32.34 16.5c-2.786-5.573-6.233-9.607-10.34-12.1-4.106-2.64-8.58-3.96-13.42-3.96s-9.24 1.1-13.2 3.3-7.113 5.427-9.46 9.68c-2.2 4.107-3.3 9.167-3.3 15.18 0 6.16 1.1 11.367 3.3 15.62 2.347 4.253 5.5 7.48 9.46 9.68s8.36 3.3 13.2 3.3a25.38 25.38 0 0 0 13.42-3.74c4.107-2.64 7.554-6.747 10.34-12.32l32.34 16.5c-4.106 10.413-11.073 18.48-20.9 24.2s-21.486 8.58-34.98 8.58zM909.701 691v-22.22l-2.86-5.5v-40.92c0-6.6-2.053-11.66-6.16-15.18-3.96-3.667-10.34-5.5-19.14-5.5-5.72 0-11.513.953-17.38 2.86-5.867 1.76-10.853 4.253-14.96 7.48l-14.08-28.38c6.747-4.4 14.813-7.773 24.2-10.12 9.533-2.493 18.993-3.74 28.38-3.74 19.36 0 34.32 4.473 44.88 13.42 10.707 8.8 16.06 22.66 16.06 41.58V691h-38.94zm-35.2 1.98c-9.533 0-17.6-1.613-24.2-4.84s-11.66-7.627-15.18-13.2c-3.373-5.573-5.06-11.807-5.06-18.7 0-7.333 1.833-13.64 5.5-18.92 3.813-5.427 9.607-9.533 17.38-12.32 7.773-2.933 17.82-4.4 30.14-4.4h28.16v21.78h-22.44c-6.747 0-11.513 1.1-14.3 3.3-2.64 2.2-3.96 5.133-3.96 8.8s1.393 6.6 4.18 8.8 6.6 3.3 11.44 3.3c4.547 0 8.653-1.1 12.32-3.3 3.813-2.347 6.6-5.867 8.36-10.56l5.72 15.4c-2.2 8.213-6.527 14.447-12.98 18.7-6.307 4.107-14.667 6.16-25.08 6.16zm178.189-123.2c9.24 0 17.6 1.907 25.08 5.72 7.48 3.667 13.34 9.387 17.6 17.16 4.4 7.773 6.6 17.82 6.6 30.14V691h-41.8v-61.38c0-8.507-1.76-14.667-5.28-18.48-3.38-3.96-8.14-5.94-14.3-5.94-4.4 0-8.44 1.027-12.1 3.08-3.67 1.907-6.53 4.913-8.58 9.02-2.06 4.107-3.08 9.46-3.08 16.06V691h-41.805V571.76h39.825v33.88l-7.7-9.9c4.54-8.653 10.78-15.107 18.7-19.36 7.92-4.4 16.86-6.6 26.84-6.6zm-865.61 256c9.24 0 17.6 1.907 25.08 5.72 7.48 3.667 13.347 9.387 17.6 17.16 4.4 7.773 6.6 17.82 6.6 30.14V947h-41.8v-61.38c0-8.507-1.76-14.667-5.28-18.48-3.373-3.96-8.14-5.94-14.3-5.94-4.4 0-8.433 1.027-12.1 3.08-3.667 1.907-6.527 4.913-8.58 9.02s-3.08 9.46-3.08 16.06V947h-41.8V783.76h41.8v77.88l-9.68-9.9c4.547-8.653 10.78-15.107 18.7-19.36 7.92-4.4 16.867-6.6 26.84-6.6zm139.508 123.2c-14.08 0-26.4-2.64-36.96-7.92-10.414-5.427-18.554-12.76-24.421-22-5.719-9.387-8.579-20.02-8.579-31.9s2.786-22.44 8.36-31.68c5.72-9.387 13.566-16.647 23.54-21.78 9.973-5.28 21.193-7.92 33.66-7.92 11.733 0 22.44 2.42 32.12 7.26 9.68 4.693 17.38 11.66 23.1 20.9s8.58 20.46 8.58 33.66c0 1.467-.074 3.153-.22 5.06l-.44 5.28h-94.38v-22h72.16l-15.84 6.16c.146-5.427-.88-10.12-3.08-14.08-2.054-3.96-4.987-7.04-8.8-9.24-3.667-2.2-7.994-3.3-12.98-3.3s-9.387 1.1-13.2 3.3c-3.667 2.2-6.527 5.353-8.58 9.46-2.054 3.96-3.08 8.653-3.08 14.08v6.38c0 5.867 1.173 10.927 3.52 15.18 2.493 4.253 6.013 7.553 10.56 9.9 4.546 2.2 9.973 3.3 16.28 3.3 5.866 0 10.853-.807 14.96-2.42 4.253-1.76 8.433-4.4 12.54-7.92l22 22.88c-5.72 6.307-12.76 11.147-21.12 14.52-8.36 3.227-18.26 4.84-29.7 4.84zM405.26 947V783.76h41.8V947h-41.8zm143.985 1.98c-10.12 0-18.774-2.2-25.96-6.6-7.187-4.547-12.687-11.293-16.5-20.24-3.667-9.093-5.5-20.68-5.5-34.76 0-14.227 1.76-25.813 5.28-34.76 3.52-9.093 8.8-15.84 15.84-20.24 7.186-4.4 16.133-6.6 26.84-6.6 10.853 0 20.68 2.567 29.48 7.7 8.946 4.987 15.986 12.1 21.12 21.34 5.28 9.093 7.92 19.947 7.92 32.56s-2.64 23.54-7.92 32.78c-5.134 9.24-12.174 16.353-21.12 21.34-8.8 4.987-18.627 7.48-29.48 7.48zm-75.02 40.7V827.76h39.82V848l-.22 39.38 2.2 39.6v62.7h-41.8zm66.22-73.92c4.693 0 8.873-1.1 12.54-3.3 3.813-2.2 6.82-5.427 9.02-9.68 2.346-4.253 3.52-9.387 3.52-15.4s-1.174-11.147-3.52-15.4c-2.2-4.253-5.207-7.48-9.02-9.68-3.667-2.2-7.847-3.3-12.54-3.3s-8.947 1.1-12.76 3.3c-3.667 2.2-6.674 5.427-9.02 9.68-2.2 4.253-3.3 9.387-3.3 15.4s1.1 11.147 3.3 15.4c2.346 4.253 5.353 7.48 9.02 9.68 3.813 2.2 8.066 3.3 12.76 3.3zm171.232 75.9c-6.307 0-12.687-1.027-19.14-3.08-6.307-1.907-11.44-4.473-15.4-7.7l14.52-29.26c2.493 2.2 5.353 3.887 8.58 5.06 3.373 1.32 6.673 1.98 9.9 1.98 4.547 0 8.14-1.027 10.78-3.08s4.913-5.28 6.82-9.68l5.5-13.86 3.3-4.18 40.48-100.1h39.82l-51.48 124.08c-4.107 10.267-8.873 18.26-14.3 23.98-5.28 5.867-11.22 9.973-17.82 12.32-6.453 2.347-13.64 3.52-21.56 3.52zm16.28-39.6l-52.58-124.3h42.9l38.72 96.36-29.04 27.94zm156.303-3.08c-13.053 0-24.64-2.64-34.76-7.92s-18.113-12.54-23.98-21.78c-5.72-9.387-8.58-20.093-8.58-32.12s2.86-22.66 8.58-31.9c5.867-9.24 13.86-16.427 23.98-21.56 10.12-5.28 21.707-7.92 34.76-7.92s24.64 2.64 34.76 7.92c10.267 5.133 18.26 12.32 23.98 21.56s8.58 19.873 8.58 31.9-2.86 22.733-8.58 32.12c-5.72 9.24-13.713 16.5-23.98 21.78-10.12 5.28-21.707 7.92-34.76 7.92zm0-33.22c4.84 0 9.093-1.1 12.76-3.3 3.813-2.2 6.82-5.427 9.02-9.68 2.2-4.4 3.3-9.607 3.3-15.62s-1.1-11.073-3.3-15.18c-2.2-4.253-5.207-7.48-9.02-9.68-3.667-2.2-7.92-3.3-12.76-3.3-4.693 0-8.947 1.1-12.76 3.3-3.667 2.2-6.673 5.427-9.02 9.68-2.2 4.107-3.3 9.167-3.3 15.18s1.1 11.22 3.3 15.62c2.347 4.253 5.353 7.48 9.02 9.68 3.813 2.2 8.067 3.3 12.76 3.3zm136.84 33.22c-9.68 0-18.4-1.907-26.177-5.72-7.626-3.813-13.64-9.753-18.04-17.82-4.253-8.213-6.38-18.553-6.38-31.02v-66.66h41.797v59.84c0 9.24 1.69 15.84 5.06 19.8 3.52 3.96 8.44 5.94 14.74 5.94 4.11 0 7.85-.953 11.22-2.86 3.38-1.907 6.09-4.913 8.14-9.02 2.06-4.253 3.08-9.68 3.08-16.28v-57.42h41.8V947h-39.82v-33.66l7.7 9.46c-4.1 8.8-10.04 15.4-17.82 19.8-7.77 4.253-16.2 6.38-25.3 6.38zm142.69-58.08c0-4.84.74-9.093 2.2-12.76 1.62-3.813 3.6-7.187 5.94-10.12 2.35-2.933 4.84-5.573 7.48-7.92l7.7-7.04c2.35-2.347 4.26-4.693 5.72-7.04 1.62-2.347 2.42-4.913 2.42-7.7 0-4.4-1.83-7.847-5.5-10.34-3.52-2.493-8.14-3.74-13.86-3.74-5.86 0-11.22 1.393-16.06 4.18-4.69 2.787-8.5 6.673-11.44 11.66l-32.78-17.6c5.72-9.827 14.01-17.673 24.86-23.54 10.86-6.013 24.35-9.02 40.48-9.02 11.3 0 21.27 1.613 29.92 4.84 8.8 3.08 15.7 7.7 20.68 13.86 4.99 6.16 7.48 13.713 7.48 22.66 0 5.72-.88 10.707-2.64 14.96s-4.03 7.993-6.82 11.22a83.16 83.16 0 0 1-8.58 9.02l-8.8 7.7c-2.64 2.493-4.84 5.06-6.6 7.7s-2.64 5.647-2.64 9.02h-39.16zm19.58 58.08c-7.18 0-13.12-2.273-17.82-6.82-4.69-4.547-7.04-9.973-7.04-16.28 0-6.453 2.35-11.807 7.04-16.06 4.7-4.4 10.64-6.6 17.82-6.6 7.48 0 13.5 2.2 18.04 6.6 4.7 4.253 7.04 9.607 7.04 16.06 0 6.307-2.34 11.733-7.04 16.28-4.54 4.547-10.56 6.82-18.04 6.82z" class="D"/><path d="M1233.15 656.9l-2.42-48.84 66.22-71.06h47.96l-66 71.5-24.2 25.3-21.56 23.1zm-38.94 34.1V537h43.12v154h-43.12zm103.4 0l-50.16-63.58 28.38-30.36 72.38 93.94h-50.6zm117.81 1.98c-14.08 0-26.4-2.64-36.96-7.92-10.42-5.427-18.56-12.76-24.42-22-5.72-9.387-8.58-20.02-8.58-31.9s2.78-22.44 8.36-31.68c5.72-9.387 13.56-16.647 23.54-21.78 9.97-5.28 21.19-7.92 33.66-7.92 11.73 0 22.44 2.42 32.12 7.26 9.68 4.693 17.38 11.66 23.1 20.9s8.58 20.46 8.58 33.66c0 1.467-.08 3.153-.22 5.06l-.44 5.28h-94.38v-22h72.16l-15.84 6.16c.14-5.427-.88-10.12-3.08-14.08-2.06-3.96-4.99-7.04-8.8-9.24-3.67-2.2-8-3.3-12.98-3.3-4.99 0-9.39 1.1-13.2 3.3-3.67 2.2-6.53 5.353-8.58 9.46-2.06 3.96-3.08 8.653-3.08 14.08v6.38c0 5.867 1.17 10.927 3.52 15.18 2.49 4.253 6.01 7.553 10.56 9.9 4.54 2.2 9.97 3.3 16.28 3.3 5.86 0 10.85-.807 14.96-2.42 4.25-1.76 8.43-4.4 12.54-7.92l22 22.88c-5.72 6.307-12.76 11.147-21.12 14.52-8.36 3.227-18.26 4.84-29.7 4.84zm78.67-1.98V527.76h41.8V691h-41.8zm68.96 0V527.76h41.8V691h-41.8zm131.45 1.98c-14.08 0-26.4-2.64-36.96-7.92-10.42-5.427-18.56-12.76-24.42-22-5.72-9.387-8.58-20.02-8.58-31.9s2.78-22.44 8.36-31.68c5.72-9.387 13.56-16.647 23.54-21.78 9.97-5.28 21.19-7.92 33.66-7.92 11.73 0 22.44 2.42 32.12 7.26 9.68 4.693 17.38 11.66 23.1 20.9s8.58 20.46 8.58 33.66c0 1.467-.08 3.153-.22 5.06l-.44 5.28h-94.38v-22h72.16l-15.84 6.16c.14-5.427-.88-10.12-3.08-14.08-2.06-3.96-4.99-7.04-8.8-9.24-3.67-2.2-8-3.3-12.98-3.3-4.99 0-9.39 1.1-13.2 3.3-3.67 2.2-6.53 5.353-8.58 9.46-2.06 3.96-3.08 8.653-3.08 14.08v6.38c0 5.867 1.17 10.927 3.52 15.18 2.49 4.253 6.01 7.553 10.56 9.9 4.54 2.2 9.97 3.3 16.28 3.3 5.86 0 10.85-.807 14.96-2.42 4.25-1.76 8.43-4.4 12.54-7.92l22 22.88c-5.72 6.307-12.76 11.147-21.12 14.52-8.36 3.227-18.26 4.84-29.7 4.84zm96.98 42.68c-6.31 0-12.69-1.027-19.14-3.08-6.31-1.907-11.44-4.473-15.4-7.7l14.52-29.26c2.49 2.2 5.35 3.887 8.58 5.06 3.37 1.32 6.67 1.98 9.9 1.98 4.55 0 8.14-1.027 10.78-3.08s4.91-5.28 6.82-9.68l5.5-13.86 3.3-4.18 40.48-100.1h39.82l-51.48 124.08c-4.11 10.267-8.87 18.26-14.3 23.98-5.28 5.867-11.22 9.973-17.82 12.32-6.45 2.347-13.64 3.52-21.56 3.52zm16.28-39.6l-52.58-124.3h42.9l38.72 96.36-29.04 27.94z" class="C"/><rect x="96" y="1156" width="872" height="256" rx="128" class="E"/><g class="B"><use href="#G"/><use href="#H"/></g><use href="#I" class="C"/><rect x="96" y="1500" width="872" height="256" rx="128" class="E"/><use href="#J" class="B"/><g clip-path="url(#C)"><g class="C"><use href="#K"/><use href="#L"/></g><g class="B"><use href="#M"/><use href="#N" class="F"/></g></g><rect x="1032" y="1156" width="872" height="256" rx="128" class="E"/><use href="#O" class="B"/><g class="F"><use href="#P" class="C"/><use href="#Q" class="B"/></g><rect x="1032" y="1500" width="872" height="256" rx="128" class="E"/><use href="#R" class="B"/><g clip-path="url(#D)"><use href="#S" class="B"/><use href="#T" class="C"/></g><rect x="96" y="1156" width="872" height="256" rx="128" class="E"/><g class="B"><use href="#G"/><use href="#H"/></g><use href="#I" class="C"/><rect x="96" y="1500" width="872" height="256" rx="128" class="E"/><use href="#J" class="B"/><g clip-path="url(#E)"><g class="C"><use href="#K"/><use href="#L"/></g><g class="B"><use href="#M"/><use href="#N" class="F"/></g></g><rect x="1032" y="1156" width="872" height="256" rx="128" class="E"/><use href="#O" class="B"/><g class="F"><use href="#P" class="C"/><use href="#Q" class="B"/></g><rect x="1032" y="1500" width="872" height="256" rx="128" class="E"/><use href="#R" class="B"/><g clip-path="url(#F)"><use href="#S" class="B"/><use href="#T" class="C"/></g><path fill="#162d5b" d="M0 0h2000v256H0z"/><mask id="A" maskUnits="userSpaceOnUse" x="1712" y="88" width="80" height="79" mask-type="alpha"><path d="M1772.21 151.736c7.21-5.776 11.79-14.568 11.79-24.344C1784 110.17 1769.79 96 1752 96s-32 14.17-32 31.392c0 10.637 5.42 20.109 13.76 25.798a19.36 19.36 0 0 1-.95-4.845c-.56-8.605 4.57-16.275 12.22-19.436-3.48-2.305-5.88-6.117-6.17-10.556-.5-7.598 5.35-14.157 13.07-14.648s14.38 5.271 14.87 12.869c.34 5.096-2.18 9.724-6.21 12.368 6.73 2.82 11.64 9.185 12.14 16.861a19.46 19.46 0 0 1-.52 5.933zM1752 166.785c22.09 0 40-17.637 40-39.393S1774.09 88 1752 88s-40 17.637-40 39.392 17.91 39.393 40 39.393z" fill="#000" class="F"/></mask><g mask="url(#A)" class="D"><path d="M1712 88h80v80h-80z"/></g><path d="M1856 98.65a4 4 0 0 1 4-4h72a4 4 0 0 1 0 8h-72a4 4 0 0 1-4-4zm26.67 29.333a4 4 0 0 1 4-4H1932a4 4 0 1 1 0 8.001h-45.33a4 4 0 0 1-4-4.001zM1860 153.316a4 4 0 1 0 0 8.001h72a4 4 0 1 0 0-8.001h-72z" fill="#000" class="F"/><mask id="B" maskUnits="userSpaceOnUse" x="1856" y="94" width="81" height="68"><path d="M1856 98.65a4 4 0 0 1 4-4h72a4 4 0 0 1 0 8h-72a4 4 0 0 1-4-4zm26.67 29.333a4 4 0 0 1 4-4H1932a4 4 0 1 1 0 8.001h-45.33a4 4 0 0 1-4-4.001zM1860 153.316a4 4 0 1 0 0 8.001h72a4 4 0 1 0 0-8.001h-72z" class="D F"/></mask><g mask="url(#B)" class="D"><path d="M1856 88h80v80h-80z"/></g><g class="F"><path d="M361.058 109.033L373.065 132H388l-18.376-33.349L387.415 76h-15.668l-15.081 19.82V76H344v56h12.666v-17.54l4.392-5.427zm47.539-9.726c2.981 0 4.663 1.538 5.428 3.231.534 1.153.688 2.23.688 3.23H402.48c0-1 .153-2.077.689-3.23.764-1.693 2.446-3.231 5.428-3.231zm1.15 21.308c-4.663 0-7.263-3.078-7.263-6.462h24.617v-5.231c0-11.384-6.575-19.999-18.501-19.999-10.779 0-18.424 7.615-18.424 21.153 0 17.845 10.473 21.154 19.571 21.154 7.645 0 11.774-2.308 15.978-6.539l-7.492-7.539c-2.217 2.232-4.128 3.463-8.486 3.463zM445.15 132c-9.37 0-13.15-6.686-13.15-12.506V76h12.914v42.55c0 1.651.866 2.596 2.598 2.596H452V132h-6.85zM456 119.494c0 5.82 3.779 12.506 13.15 12.506H476v-10.854h-4.488c-1.733 0-2.598-.945-2.598-2.596V76H456v43.494zm47.551-16.956c-.764-1.693-2.446-3.231-5.427-3.231s-4.664 1.538-5.428 3.231c-.536 1.153-.688 2.23-.688 3.23h12.231c0-1-.152-2.077-.688-3.23zm-11.543 11.615c0 3.384 2.599 6.462 7.262 6.462 4.358 0 6.27-1.231 8.487-3.463l7.491 7.539c-4.204 4.231-8.333 6.539-15.978 6.539-9.097 0-19.571-3.309-19.571-21.154 0-13.538 7.645-21.153 18.426-21.153 11.926 0 18.5 8.615 18.5 19.999v5.231h-24.617zm43.686 26.336c1.302-1.325 2.375-3.119 3.218-5.537L556 88h-13.18l-6.667 21.76L529.18 88H516l13.716 37.826-1.149 3.51c-.843 2.574-1.992 3.121-4.215 3.121h-2.681V144h4.751c3.678 0 6.82-.859 9.272-3.511zm62.656-31.414h-9.022v9.616h9.022c3.67 0 4.893-2.539 4.893-4.847s-1.223-4.769-4.893-4.769zm-.688-20.998h-8.334v8.922h8.334c3.669 0 4.816-2.307 4.816-4.461s-1.147-4.461-4.816-4.461zm1.987 42.691h-23.7V76h22.552c11.315 0 17.356 6.385 17.356 15.846 0 6.231-4.282 9.692-5.964 10.846 2.218 1.385 6.727 4.231 6.727 11.923 0 10.462-7.262 16.154-16.971 16.154zM624 119.494c0 5.82 3.78 12.506 13.15 12.506H644v-10.854h-4.488c-1.733 0-2.598-.945-2.598-2.596V76H624v43.494zm47.478 12.021v-3.559c-2.583 2.668-6.418 4.044-9.783 4.044-3.991 0-7.199-1.376-9.47-3.721-3.598-3.72-4.225-7.846-4.225-12.456V88h12.835v26.044c0 5.015 3.444 5.984 5.164 5.984s5.167-.969 5.167-5.984V88H684v43.515h-12.522zm35.966-32.208c2.982 0 4.664 1.538 5.428 3.231.536 1.153.688 2.23.688 3.23h-12.232c0-1 .154-2.077.688-3.23.765-1.693 2.447-3.231 5.428-3.231zm1.147 21.308c-4.663 0-7.263-3.078-7.263-6.462h24.617v-5.231c0-11.384-6.576-19.999-18.501-19.999-10.779 0-18.424 7.615-18.424 21.153 0 17.845 10.473 21.154 19.571 21.154 7.645 0 11.773-2.308 15.977-6.539l-7.49-7.539c-2.218 2.232-4.13 3.463-8.487 3.463zm62.076-11.54h-9.022v9.616h9.022c3.67 0 4.892-2.539 4.892-4.847s-1.222-4.769-4.892-4.769zm-.688-20.998h-8.334v8.922h8.334c3.669 0 4.816-2.307 4.816-4.461s-1.147-4.461-4.816-4.461zm1.987 42.691h-23.7V76h22.552c11.315 0 17.355 6.385 17.355 15.846 0 6.231-4.281 9.692-5.964 10.846 2.218 1.385 6.728 4.231 6.728 11.923 0 10.462-7.262 16.154-16.971 16.154zm40.209-30.461c1.529 0 2.598.384 3.364 1.154 1.605 1.615 1.835 4.538 1.835 8.615s-.23 6.999-1.835 8.615c-.766.768-1.835 1.153-3.364 1.153s-2.601-.385-3.363-1.153c-1.606-1.616-1.835-4.539-1.835-8.615s.229-7 1.835-8.615c.762-.77 1.834-1.154 3.363-1.154zm.003 30.923c6.65 0 10.778-2.693 13.225-5.308 3.44-3.769 4.511-7.692 4.511-15.846 0-8.077-1.071-12.076-4.511-15.845-2.447-2.616-6.575-5.308-13.225-5.308s-10.781 2.692-13.227 5.308c-3.441 3.769-4.51 7.768-4.51 15.845 0 8.154 1.069 12.077 4.51 15.846 2.446 2.615 6.575 5.308 13.227 5.308zm43.881-29.769c-.764-.77-1.835-1.154-3.364-1.154s-2.599.384-3.364 1.154c-1.606 1.615-1.835 4.538-1.835 8.615s.229 6.999 1.835 8.615c.765.768 1.835 1.153 3.364 1.153s2.6-.385 3.364-1.153c1.605-1.616 1.835-4.539 1.835-8.615s-.23-7-1.835-8.615zm9.865 24.461c-2.447 2.615-6.575 5.308-13.227 5.308s-10.779-2.693-13.225-5.308c-3.44-3.769-4.511-7.692-4.511-15.846 0-8.077 1.071-12.076 4.511-15.845 2.446-2.616 6.575-5.308 13.225-5.308s10.78 2.692 13.227 5.308c3.44 3.769 4.51 7.768 4.51 15.845 0 8.154-1.07 12.077-4.51 15.846zm25.419-9.417L900.11 132H916l-15.89-24.776 15.5-17.539h-15.421l-11.351 14.786V76H876v56h12.838v-12.742l2.505-2.753zm-537.167 39.674V176h-4.352v-19.821H344V152h16v4.179h-5.824zm24.469 9.776V176H384v-24h-5.355v9.809h-9.288V152H364v24h5.357v-10.045h9.288zM388 176v-24h16v4.179h-11.258v5.63h9.586v4.179h-9.586v5.832H404V176h-16zm38.176 0v-19.821H432V152h-16v4.179h5.824V176h4.352zm18.759-19.984h-4.474v6.461h4.474c2.084 0 3.45-1.34 3.45-3.231s-1.366-3.23-3.45-3.23zm3.695 20.208l-4.748-9.76h-3.415v9.76h-4.748v-24.468h9.529c4.953 0 7.891 3.403 7.891 7.491 0 3.436-2.084 5.568-4.441 6.427l5.431 10.55h-5.499zm7.37-8.579c0 5.046 4.427 8.355 10.001 8.355s9.999-3.309 9.999-8.355V152h-5.267v15.476c0 2.742-1.871 4.381-4.732 4.381s-4.696-1.639-4.696-4.381V152H456v15.645zM485.923 176c-4.122 0-7.251-.761-9.923-3.115l3.436-2.984c1.716 1.492 4.044 1.99 6.526 1.99 3.167 0 4.847-1.062 4.847-2.951 0-.796-.267-1.459-.84-1.957-.534-.43-1.069-.629-2.443-.795l-3.243-.431c-2.405-.298-4.046-.928-5.268-1.956-1.298-1.094-1.946-2.652-1.946-4.641 0-4.209 3.588-7.16 9.465-7.16 3.741 0 6.45.796 8.778 2.751l-3.358 2.885c-1.679-1.426-3.779-1.625-5.573-1.625-2.824 0-4.159 1.358-4.159 2.983 0 .631.19 1.228.763 1.692.535.43 1.335.762 2.481.894l3.243.431c2.482.299 4.008.862 5.191 1.857 1.451 1.161 2.1 2.851 2.1 4.973 0 4.574-4.351 7.159-10.077 7.159zm22.797 0v-19.821H516V176h20v-4.18h-14.072v-5.832h11.983v-4.179h-11.983v-5.63H536V152h-20-20v4.179h7.28V176h5.44zm39.135-19.982c1.605 0 2.766.515 3.552 1.512.887 1.065.99 2.611.99 6.461s-.103 5.396-.99 6.461c-.786.996-1.947 1.511-3.552 1.511h-3.621v-15.945h3.621zm.415 20.206c3.314 0 5.602-1.134 7.344-3.574 1.503-2.096 1.537-4.606 1.537-8.659s-.034-6.565-1.537-8.661c-1.742-2.44-4.03-3.574-7.344-3.574h-8.778v24.468h8.778zm30.18-20.208h-4.473v6.461h4.473c2.084 0 3.45-1.34 3.45-3.231s-1.366-3.23-3.45-3.23zm3.695 20.208l-4.748-9.76h-3.415v9.76h-4.748v-24.468h9.53c4.953 0 7.889 3.403 7.889 7.491 0 3.436-2.084 5.568-4.44 6.427l5.431 10.55h-5.499zM592 152v24h16v-4.18h-11.258v-5.832h9.586v-4.179h-9.586v-5.63H608V152h-16zm27.939 24c-3.297 0-5.801-.761-7.939-3.115l2.749-2.984c1.374 1.492 3.235 1.99 5.22 1.99 2.535 0 3.878-1.062 3.878-2.951 0-.796-.213-1.459-.672-1.957-.427-.43-.855-.629-1.954-.795l-2.595-.431c-1.923-.298-3.237-.928-4.214-1.956-1.038-1.094-1.557-2.652-1.557-4.641 0-4.209 2.87-7.16 7.572-7.16 2.993 0 5.16.796 7.023 2.751l-2.687 2.885c-1.343-1.426-3.023-1.625-4.458-1.625-2.258 0-3.328 1.358-3.328 2.983 0 .631.154 1.228.611 1.692.427.43 1.068.762 1.985.894l2.594.431c1.986.299 3.207.862 4.154 1.857 1.16 1.161 1.679 2.851 1.679 4.973 0 4.574-3.481 7.159-8.061 7.159zm19.601-20.189c1.297 0 2.357.516 3.041 1.305.886 1.031 1.195 2.199 1.195 6.874s-.309 5.806-1.195 6.838c-.684.791-1.744 1.341-3.041 1.341s-2.356-.55-3.074-1.341c-.888-1.032-1.161-2.165-1.161-6.838s.273-5.843 1.161-6.874c.718-.789 1.776-1.305 3.074-1.305zm.004 20.619c2.8 0 4.85-.926 6.49-2.576 2.424-2.441 2.494-5.19 2.494-9.862s-.07-7.424-2.494-9.864c-1.64-1.649-3.69-2.577-6.49-2.577s-4.884.928-6.523 2.577c-2.425 2.44-2.459 5.188-2.459 9.864s.034 7.421 2.459 9.862c1.639 1.65 3.723 2.576 6.523 2.576zm24.455-.43c-4.457 0-7.999-3.309-7.999-8.355V152h4.244v15.476c0 2.742 1.465 4.381 3.755 4.381s3.788-1.639 3.788-4.381V152H672v15.645c0 5.046-3.543 8.355-8.001 8.355zm16.247-19.984h4.473c2.084 0 3.45 1.341 3.45 3.23s-1.366 3.231-3.45 3.231h-4.473v-6.461zm3.42 10.448l4.748 9.76h5.5l-5.431-10.55c2.356-.859 4.44-2.991 4.44-6.427 0-4.088-2.937-7.491-7.89-7.491h-9.529v24.468h4.748v-9.76h3.414zM708.03 176c-2.504 0-4.336-.893-5.832-2.485-2.168-2.355-2.198-5.006-2.198-9.514s.03-7.161 2.198-9.515c1.496-1.591 3.328-2.486 5.832-2.486 4.061 0 7.176 2.519 7.97 7.458h-4.335c-.429-1.922-1.528-3.348-3.635-3.348-1.16 0-2.107.464-2.717 1.227-.795.994-1.069 2.154-1.069 6.664s.274 5.668 1.069 6.662c.61.764 1.557 1.228 2.717 1.228 2.107 0 3.238-1.426 3.665-3.349H716c-.794 4.94-3.94 7.458-7.97 7.458zM720 152v24h16v-4.18h-11.258v-5.832h9.586v-4.179h-9.586v-5.63H736V152h-16z" fill="#fffffe"/><path d="M135.629 37.938l15.072 10.095 6.695-16.425 12.725 12.722 9.911-14.854 9.896 14.856 12.731-12.712 6.686 16.425 15.074-10.08 3.218 17.36 11.216-4.708V5.414H121.059v45.119l11.342 4.76 3.228-17.355zm88.737 205.805l-15.078-10.08-6.689 16.423-12.721-12.719-9.908 14.852-9.899-14.861-12.729 12.712-6.691-16.428-15.07 10.087-3.229-17.363-11.313 4.751v69.803l58.974-43.459 58.934 43.458v-69.763l-11.356-4.773-3.225 17.36z" class="B"/><path d="M238.947 300.919l-58.934-43.458-58.974 43.459v-69.803l11.313-4.751 3.229 17.363 15.07-10.087 6.691 16.428 12.729-12.712 9.899 14.861 9.908-14.852 12.72 12.719 6.69-16.423 15.078 10.08 3.225-17.36 11.356 4.773v69.763zM121.059 5.414h117.794v45.201l-11.216 4.708-3.218-17.36-15.074 10.08-6.686-16.425-12.731 12.712-9.896-14.856-9.911 14.854-12.725-12.722-6.695 16.425-15.072-10.095-3.228 17.355-11.342-4.76V5.414zM280.525 150.37L296 140.869l-15.47-9.509 13.247-12.217-17.103-6.426 10.505-14.471-18.08-3.105 7.367-16.153-18.366.348 3.944-17.225-17.552 3.694V0H115.419l-.004 65.758-17.418-3.679 3.934 17.222-18.369-.355 7.362 16.159L72.839 98.2l10.501 14.47-17.109 6.419 13.249 12.227-15.48 9.5 15.469 9.512-13.246 12.218 17.101 6.429-10.501 14.461 18.073 3.105-7.36 16.156 18.362-.346-3.945 17.222 17.453-3.675-.006 96.005 64.611-47.615 64.576 47.617v-95.968l17.416 3.675-3.94-17.225 18.37.347-7.36-16.152 18.083-3.096-10.5-14.471 17.111-6.419-13.242-12.226z" class="C"/><path d="M179.948 48.34c-53.3 0-96.47 41.495-96.47 92.632 0 51.107 43.17 92.523 96.471 92.523 53.277 0 96.534-41.416 96.534-92.523 0-51.138-43.257-92.632-96.534-92.632z" class="B"/><path d="M238.132 104.905l-9.313 6.241-3.084-4.209 9.311-6.239 8.611-15.505 3.374 4.608-6.178 10.189 12.079-2.139 3.375 4.607-18.175 2.447zm-29.701-13.072l16.786-21.099 14.528 10.575-2.918 3.673-10.227-7.439-3.937 4.951 8.707 6.334-2.927 3.675-8.702-6.337-4.076 5.128 10.221 7.439-2.928 3.674-14.527-10.575zm-19.437-6.323l7.421-25.549 5.209 1.384-6.126 21.099 12.122 3.219-1.295 4.45-17.331-4.603zm-20.918.604l-2.495-26.411 5.395-.465 2.055 21.811 12.525-1.08.437 4.6-17.917 1.545zm-20.24 7.802l-11.548-24.107 16.602-7.273 2.013 4.196-11.682 5.12 2.709 5.655 9.948-4.361 2.011 4.198-9.95 4.359 2.807 5.856 11.68-5.115 2.012 4.195-16.602 7.276zm-6.325 5.704l-14.165-2.886.833 5.278 6.243 5.28-3.586 3.875-20.763-17.559 3.588-3.877 9.038 7.646-2.57-14.645 4.359-4.713 2.168 13.56 19.032 3.523-4.177 4.517zm119.539 55.992l-6.574-13.333-3.308 4.527v8.806h-4.988v-29.293h4.988v12.757l9.016-12.757h6.075l-8.477 11.643 9.085 17.65h-5.817zm-24.392-22.876c-.716-.943-1.83-1.561-3.195-1.561s-2.516.618-3.232 1.561c-.971 1.237-1.22 2.594-1.22 8.228s.249 6.993 1.22 8.228c.716.947 1.867 1.566 3.232 1.566s2.479-.619 3.195-1.566c.972-1.235 1.257-2.59 1.257-8.228s-.285-6.991-1.257-8.228zm3.703 19.914c-1.797 2.054-3.989 3.208-6.898 3.208s-5.134-1.154-6.931-3.208c-2.587-2.963-2.515-6.625-2.515-11.686s-.072-8.721 2.515-11.682c1.797-2.054 4.021-3.21 6.931-3.21s5.101 1.156 6.898 3.21c2.584 2.961 2.548 6.623 2.548 11.682s.036 8.723-2.548 11.686zm-25.003-19.914c-.718-.943-1.833-1.561-3.196-1.561-1.369 0-2.518.618-3.234 1.561-.972 1.237-1.222 2.594-1.222 8.228s.25 6.993 1.222 8.228c.716.947 1.865 1.566 3.234 1.566a3.93 3.93 0 0 0 3.196-1.566c.97-1.235 1.257-2.59 1.257-8.228s-.287-6.991-1.257-8.228zm3.699 19.914c-1.797 2.054-3.989 3.208-6.895 3.208s-5.137-1.154-6.933-3.208c-2.588-2.963-2.513-6.625-2.513-11.686s-.075-8.721 2.513-11.682c1.796-2.054 4.024-3.21 6.933-3.21s5.098 1.156 6.895 3.21c2.587 2.961 2.551 6.623 2.551 11.682s.036 8.723-2.551 11.686zm-27.085-9.338h-5.21v7.2h5.21c2.264 0 3.34-1.648 3.34-3.623s-1.076-3.577-3.34-3.577zm-.323-11.891h-4.887v6.747h4.887c2.117 0 3.305-1.358 3.305-3.374s-1.188-3.373-3.305-3.373zm.825 24.191h-10.702v-29.293h10.272c4.993 0 7.9 3.209 7.9 8.228 0 3.249-1.868 5.349-3.158 6.047 1.545.824 3.52 2.675 3.52 6.585 0 5.47-3.269 8.433-7.832 8.433zm-37.104 0v-29.293h16.842v5.102h-11.853v6.87h10.095v5.101h-10.095v7.12h11.853v5.1H155.37zm-13.148.246c-5.247 0-9.413-4.073-9.413-10.286v-19.253h4.993v19.048c0 3.374 1.724 5.391 4.42 5.391s4.452-2.017 4.452-5.391v-19.048h4.956v19.253c0 6.213-4.165 10.286-9.408 10.286zm-27.403-.246v-29.293h4.994v24.193h11.6v5.1h-16.594zm-11.605-12.3h-5.207v7.2h5.207c2.264 0 3.345-1.648 3.345-3.623s-1.081-3.577-3.345-3.577zm-.323-11.891h-4.884v6.747h4.884c2.12 0 3.308-1.358 3.308-3.374s-1.188-3.373-3.308-3.373zm.83 24.191H93.018v-29.293h10.269c4.992 0 7.902 3.209 7.902 8.228 0 3.249-1.866 5.349-3.161 6.047 1.544.824 3.519 2.675 3.519 6.585 0 5.47-3.268 8.433-7.826 8.433zm19.584 19.995c.176-.643.07-1.384-.406-2.054s-1.158-1.055-1.837-1.116c-.893-.105-1.596.188-4.14 1.912-2.551 1.72-3.078 2.259-3.295 3.115-.181.644-.057 1.403.416 2.074s1.145 1.033 1.824 1.099c.896.1 1.608-.174 4.158-1.896s3.06-2.28 3.28-3.134zm-7.713 7.911c-1.557-.259-2.84-.987-3.855-2.421s-1.267-2.884-.964-4.398c.439-2.183 2.116-3.268 4.404-4.813s3.922-2.703 6.161-2.333c1.557.256 2.852 1.002 3.867 2.434 1.013 1.438 1.256 2.87.955 4.386-.44 2.18-2.107 3.282-4.396 4.826-2.288 1.55-3.934 2.687-6.172 2.319zm13.75-1.076l-2.865 2.676 4.266 4.381-2.028 1.893-4.27-4.373-4.725 4.42-2.112-2.167 11.646-10.893 7.117 7.306-2.028 1.896-5.001-5.139zm9.57 8.724l-2.338 3.133 4.99 3.567-1.654 2.219-4.992-3.57-3.852 5.17-2.472-1.766 9.501-12.734 8.326 5.956-1.651 2.218-5.858-4.193zm2.068 16.775l7.392-14.012 2.718 1.374-7.396 14.011-2.714-1.373zm11.436 5.016c-1.613-.581-2.717-1.639-3.361-3.045-.933-2.034-.193-3.871.753-6.429.957-2.56 1.605-4.428 3.653-5.394 1.419-.671 2.954-.78 4.567-.206 2.749.985 4.307 3.335 3.669 6.617l-2.914-1.035c.156-1.293-.248-2.474-1.693-2.989-.788-.283-1.533-.222-2.125.107-.794.427-1.22 1.079-2.285 3.928s-1.159 3.616-.837 4.442c.237.625.767 1.148 1.553 1.431 1.447.519 2.531-.134 3.26-1.219l2.916 1.043c-1.676 2.917-4.433 3.721-7.156 2.749zm9.028 2.666l3.313-15.44 2.989.615-3.306 15.437-2.996-.612zm12.723-9.304l-2.443 5.562 3.878.307-1.435-5.869zm2.725 11.368l-.691-2.859-5.547-.437-1.171 2.707-3.173-.252 6.967-15.258 2.387.189 4.405 16.161-3.177-.251zm5.195-.007l-.931-15.741 3.053-.172.768 12.991 7.091-.401.16 2.738-10.141.585zm25.84-6.88c-.723 1.646-1.961 2.602-3.533 3.163-1.613.57-3.151.454-4.569-.218-2.041-.977-2.682-2.842-3.632-5.41s-1.672-4.398-.739-6.429c.649-1.409 1.717-2.448 3.369-3.032 3.41-1.211 5.977.422 7.298 2.787l-2.891 1.025c-.853-1.279-1.983-1.746-3.454-1.229-.783.279-1.308.819-1.543 1.444-.33.823-.222 1.562.835 4.42s1.458 3.512 2.249 3.939c.592.328 1.339.395 2.123.116.869-.308 1.458-.869 1.739-1.559.275-.71.218-1.442-.069-2.216l-.204-.562-2.713.963-.889-2.419 5.558-1.97.799 2.164c.794 2.147.9 3.575.266 5.023zm10.834-2.726c-2.802 1.531-6.123.828-7.785-2.09l-5.155-9.057 2.668-1.456 5.103 8.958c.909 1.588 2.367 2.032 3.808 1.245s1.843-2.247.941-3.832l-5.104-8.961 2.657-1.446 5.148 9.051c1.669 2.924.532 6.057-2.281 7.588zm9.125-5.645l-10.172-12.235 2.374-1.886 10.162 12.233-2.364 1.888zm2.292-18.011c-.836-.092-1.574.152-2.322.878l-1.644 1.593 7.386 7.314 1.636-1.591c.757-.728 1.018-1.449.928-2.267-.103-.896-.847-1.762-2.569-3.467-1.715-1.699-2.498-2.35-3.415-2.46zm9.094 6.033c.013 1.45-.698 2.796-1.858 3.919l-4.02 3.888-11.328-11.219 4.017-3.891c1.161-1.12 2.539-1.802 4.024-1.774 2.526.055 3.961 1.716 5.665 3.399 1.696 1.688 3.477 3.208 3.5 5.678zm4.404-3.27l-13.403-8.735 5.713-8.415 2.332 1.522-4.016 5.922 3.137 2.05 3.425-5.041 2.334 1.521-3.417 5.037 3.249 2.128 4.023-5.921 2.336 1.516-5.713 8.416z" class="D"/><path d="M179.723 96.304c19.022 0 35.331 11.031 42.458 26.776h2.847c-7.28-17.178-24.796-29.309-45.305-29.309s-38.024 12.132-45.304 29.31h2.847c7.126-15.745 23.433-26.776 42.457-26.776zm0 88.931c-18.886 0-35.096-10.871-42.303-26.435h-2.862c7.369 16.999 24.792 28.97 45.165 28.97s37.797-11.971 45.166-28.97h-2.862c-7.208 15.564-23.419 26.435-42.304 26.435z" class="C"/></g><defs><clipPath id="C"><path transform="translate(278 1540)" d="M0 0h180v180H0z" class="D"/></clipPath><clipPath id="D"><path transform="translate(1234 1546)" d="M0 0h180v180H0z" class="D"/></clipPath><clipPath id="E"><path transform="translate(278 1540)" d="M0 0h180v180H0z" class="D"/></clipPath><clipPath id="F"><path transform="translate(1234 1546)" d="M0 0h180v180H0z" class="D"/></clipPath><path id="G" d="M581.04 1310v-50.4h25.776c6.624 0 11.568 1.22 14.832 3.67 3.264 2.4 4.896 5.57 4.896 9.51 0 2.59-.696 4.87-2.088 6.84-1.344 1.92-3.264 3.45-5.76 4.6-2.448 1.11-5.376 1.66-8.784 1.66l1.44-3.46c3.552 0 6.648.56 9.288 1.66 2.64 1.06 4.68 2.62 6.12 4.68 1.488 2.02 2.232 4.49 2.232 7.42 0 4.36-1.776 7.77-5.328 10.22-3.504 2.4-8.64 3.6-15.408 3.6H581.04zm14.112-10.3h11.952c2.448 0 4.296-.4 5.544-1.22 1.296-.86 1.944-2.16 1.944-3.89s-.648-3-1.944-3.81c-1.248-.87-3.096-1.3-5.544-1.3h-12.96v-9.86h10.8c2.4 0 4.2-.41 5.4-1.23 1.2-.81 1.8-2.04 1.8-3.67s-.6-2.83-1.8-3.6c-1.2-.82-3-1.22-5.4-1.22h-9.792v29.8zm56.992 10.95c-3.168 0-6.024-.63-8.568-1.87-2.496-1.25-4.464-3.2-5.904-5.84-1.392-2.68-2.088-6.07-2.088-10.15v-21.81h13.68v19.58c0 3.02.552 5.18 1.656 6.48 1.152 1.3 2.76 1.94 4.824 1.94 1.344 0 2.568-.31 3.672-.93 1.104-.63 1.992-1.61 2.664-2.95.672-1.4 1.008-3.17 1.008-5.33v-18.79h13.68V1310h-13.032v-11.02l2.52 3.1c-1.344 2.88-3.288 5.04-5.832 6.48-2.544 1.39-5.304 2.09-8.28 2.09zm40.132 13.97c-2.064 0-4.152-.34-6.264-1.01-2.064-.63-3.744-1.47-5.041-2.52l4.753-9.58c.816.72 1.752 1.27 2.808 1.66 1.104.43 2.183.65 3.239.65 1.489 0 2.665-.34 3.529-1.01s1.608-1.73 2.232-3.17l1.8-4.54 1.08-1.36 13.248-32.76h13.032l-16.848 40.6c-1.344 3.36-2.904 5.98-4.68 7.85-1.728 1.92-3.672 3.27-5.832 4.03-2.112.77-4.464 1.16-7.056 1.16zm5.328-12.96l-17.209-40.68h14.041l12.672 31.53-9.504 9.15z"/><path id="H" d="M448.075 1297.33c-2.475.34-5.006.51-7.509.51-28.35 0-52.51-21.21-56.25-49.36-.254-2.03-.422-4.02-.479-5.99h-2.925a20.46 20.46 0 0 0-17.212 9.39l-8.1 17.69H334v6.95a7.96 7.96 0 0 0 7.959 7.96h4.078l-6.159 9.59c-1.322 2.05-2.025 4.41-2.025 6.86v42.13c0 7.43 6.075 13.53 13.528 13.53h1.575c7.425 0 13.528-6.07 13.528-13.53v-7.23h90.732v7.23c0 7.43 6.075 13.53 13.528 13.53h1.575c7.425 0 13.528-6.07 13.528-13.53v-19.94l.169-16-15.919-17.55c-6.638 4.02-14.091 6.72-22.022 7.76zm-90.816 17.64c-4.556 0-8.24-3.72-8.24-8.27v-3.27l21.009 4.03 11.475 7.51h-24.244zm116.325-7.99c0 4.41-3.572 7.99-7.959 7.99H441.1l11.475-7.51 21.009-4.03v3.55z"/><path id="I" d="M507.531 1297.44l-27.309-30.09c-.141-.14-.281-.25-.422-.37 6.047-9.14 9-20.39 7.453-32.09-3.065-23.31-23.09-40.89-46.575-40.89a46.35 46.35 0 0 0-6.215.42c-25.707 3.41-43.875 27.09-40.472 52.79 3.093 23.32 23.118 40.87 46.575 40.87a46.35 46.35 0 0 0 6.215-.42c9-1.19 17.072-4.93 23.597-10.3l26.747 29.48c1.378 1.52 3.291 2.3 5.203 2.3 1.688 0 3.375-.59 4.697-1.82 2.869-2.59 3.094-7.04.478-9.9l.028.02zm-62.409-22.5c-1.519.2-3.038.31-4.528.31-16.875 0-31.585-12.51-33.835-29.7-2.475-18.7 10.688-35.88 29.419-38.36 1.519-.2 3.038-.31 4.528-.31 16.875 0 31.585 12.52 33.835 29.7 2.475 18.7-10.688 35.89-29.419 38.36z"/><path id="J" d="M526.752 1657.01c-4.128 0-8.112-.51-11.952-1.51-3.792-1.06-6.888-2.4-9.288-4.04l4.68-10.51c2.256 1.44 4.848 2.64 7.776 3.6 2.976.91 5.928 1.37 8.856 1.37 1.968 0 3.552-.17 4.752-.5 1.2-.39 2.064-.87 2.592-1.44.576-.63.864-1.35.864-2.16 0-1.16-.528-2.07-1.584-2.74s-2.424-1.22-4.104-1.66c-1.68-.43-3.552-.86-5.616-1.29-2.016-.43-4.056-.99-6.12-1.66-2.016-.67-3.864-1.53-5.544-2.59a13.29 13.29 0 0 1-4.104-4.25c-1.056-1.77-1.584-4.01-1.584-6.69 0-3.03.816-5.76 2.448-8.21 1.68-2.45 4.176-4.42 7.488-5.91 3.312-1.48 7.44-2.23 12.384-2.23 3.312 0 6.552.39 9.72 1.15 3.216.72 6.072 1.8 8.568 3.24l-4.392 10.59c-2.4-1.3-4.776-2.26-7.128-2.88-2.352-.67-4.632-1.01-6.84-1.01-1.968 0-3.552.22-4.752.65-1.2.38-2.064.91-2.592 1.58s-.792 1.44-.792 2.31c0 1.1.504 1.99 1.512 2.66 1.056.62 2.424 1.15 4.104 1.58l5.616 1.23c2.064.43 4.104.98 6.12 1.65 2.064.63 3.936 1.49 5.616 2.6 1.68 1.05 3.024 2.47 4.032 4.24 1.056 1.73 1.584 3.92 1.584 6.56 0 2.92-.84 5.64-2.52 8.13-1.632 2.45-4.104 4.42-7.416 5.91-3.264 1.48-7.392 2.23-12.384 2.23zm48.705-.36c-4.608 0-8.64-.87-12.096-2.59-3.408-1.78-6.072-4.18-7.992-7.2-1.872-3.08-2.808-6.56-2.808-10.44 0-3.89.912-7.35 2.736-10.37 1.872-3.07 4.44-5.45 7.704-7.13 3.264-1.73 6.936-2.59 11.016-2.59 3.84 0 7.344.79 10.512 2.37a17.98 17.98 0 0 1 7.56 6.84c1.872 3.03 2.808 6.7 2.808 11.02 0 .48-.024 1.03-.072 1.66l-.144 1.72h-30.888v-7.2h23.616l-5.184 2.02c.048-1.78-.288-3.31-1.008-4.61-.672-1.29-1.632-2.3-2.88-3.02-1.2-.72-2.616-1.08-4.248-1.08s-3.072.36-4.32 1.08c-1.2.72-2.136 1.75-2.808 3.09-.672 1.3-1.008 2.84-1.008 4.61v2.09c0 1.92.384 3.58 1.152 4.97.816 1.39 1.968 2.47 3.456 3.24 1.488.72 3.264 1.08 5.328 1.08 1.92 0 3.552-.27 4.896-.79 1.392-.58 2.76-1.44 4.104-2.6l7.2 7.49c-1.872 2.07-4.176 3.65-6.912 4.75-2.736 1.06-5.976 1.59-9.72 1.59zm25.748-.65v-39.02h13.032v11.37l-1.944-3.24c1.152-2.93 3.024-5.11 5.616-6.55 2.592-1.49 5.736-2.23 9.432-2.23v12.31c-.624-.1-1.176-.14-1.656-.14a12.53 12.53 0 0 0-1.44-.08c-2.784 0-5.04.77-6.768 2.31-1.728 1.49-2.592 3.93-2.592 7.34V1656h-13.68zm43.848 0l-16.056-39.02h14.04l12.816 32.61h-7.056l13.464-32.61h13.032L659.165 1656h-14.112zm33.777 0v-39.02h13.68V1656h-13.68zm6.84-43.34c-2.496 0-4.512-.7-6.048-2.09a6.71 6.71 0 0 1-2.304-5.19c0-2.06.768-3.79 2.304-5.18s3.552-2.09 6.048-2.09 4.512.67 6.048 2.02c1.536 1.29 2.304 2.97 2.304 5.04 0 2.16-.768 3.96-2.304 5.4-1.488 1.39-3.504 2.09-6.048 2.09zm35.674 43.99c-4.32 0-8.184-.87-11.592-2.59-3.36-1.73-6-4.11-7.92-7.13-1.92-3.07-2.88-6.58-2.88-10.51 0-3.94.96-7.42 2.88-10.44 1.92-3.03 4.56-5.38 7.92-7.06 3.408-1.73 7.272-2.59 11.592-2.59 4.416 0 8.232.93 11.448 2.81 3.216 1.87 5.496 4.51 6.84 7.92l-10.584 5.4c-.912-1.83-2.04-3.15-3.384-3.96a7.92 7.92 0 0 0-4.392-1.3c-1.584 0-3.024.36-4.32 1.08s-2.328 1.78-3.096 3.17c-.72 1.34-1.08 3-1.08 4.97 0 2.01.36 3.72 1.08 5.11.768 1.39 1.8 2.45 3.096 3.17s2.736 1.08 4.32 1.08 3.048-.41 4.392-1.23c1.344-.86 2.472-2.21 3.384-4.03l10.584 5.4c-1.344 3.41-3.624 6.05-6.84 7.92s-7.032 2.81-11.448 2.81zm43.465 0c-4.608 0-8.64-.87-12.096-2.59-3.408-1.78-6.072-4.18-7.992-7.2-1.872-3.08-2.808-6.56-2.808-10.44 0-3.89.912-7.35 2.736-10.37 1.872-3.07 4.44-5.45 7.704-7.13 3.264-1.73 6.936-2.59 11.016-2.59 3.84 0 7.344.79 10.512 2.37a17.98 17.98 0 0 1 7.56 6.84c1.872 3.03 2.808 6.7 2.808 11.02 0 .48-.024 1.03-.072 1.66l-.144 1.72h-30.888v-7.2h23.616l-5.184 2.02c.048-1.78-.288-3.31-1.008-4.61-.672-1.29-1.632-2.3-2.88-3.02-1.2-.72-2.616-1.08-4.248-1.08s-3.072.36-4.32 1.08c-1.2.72-2.136 1.75-2.808 3.09-.672 1.3-1.008 2.84-1.008 4.61v2.09c0 1.92.384 3.58 1.152 4.97.816 1.39 1.968 2.47 3.456 3.24 1.488.72 3.264 1.08 5.328 1.08 1.92 0 3.552-.27 4.896-.79 1.392-.58 2.76-1.44 4.104-2.6l7.2 7.49c-1.872 2.07-4.176 3.65-6.912 4.75-2.736 1.06-5.976 1.59-9.72 1.59z"/><path id="K" d="M293.046 1540.79l-9.731 9.73 20.053 21.54 8.382 1.92 43.594 43.56 4.753-4.72-43.594-43.6-1.913-8.38-21.544-20.05z"/><path id="L" d="M365.533 1645.2l22.234-22.24 57.156 57.16a15.73 15.73 0 0 1 0 22.23c-6.125 6.13-16.089 6.15-22.234 0l-57.156-57.15z"/><path id="M" d="M441.963 1558.23h.006l-.028-.06.022.06z"/><path id="N" d="M426.837 1573.98l15.126-15.75c.97 2.8 1.496 5.78 1.496 8.88 0 14.99-12.15 27.17-27.168 27.17-2.475 0-4.894-.36-7.172-.98l-78.638 76.53c3.628 9.39 1.913 20.41-5.4 28.29-10.209 11-27.393 11.64-38.39 1.43s-11.644-27.39-1.435-38.39c7.51-8.07 18.731-10.52 28.547-7.25l77.091-77.26c-1.097-2.98-1.744-6.16-1.744-9.51 0-14.99 12.15-27.17 27.169-27.17 3.206 0 6.3.57 9.169 1.58l-15.694 15.69 4.669 12.85 12.374 3.89zm-124.706 119.05l13.332-3.8 2.784-13.55-10.041-9.31-13.331 3.79-2.784 13.56 10.04 9.31zm90.181-97.09c1.103-1.09 1.11-2.87.015-3.98a2.81 2.81 0 0 0-3.977-.01l-60.328 59.88c-1.103 1.09-1.109 2.87-.015 3.97a2.81 2.81 0 0 0 3.977.02l60.328-59.88z"/><path id="O" d="M1522.75 1311.01a47.21 47.21 0 0 1-11.95-1.51c-3.79-1.06-6.89-2.4-9.29-4.04l4.68-10.51c2.26 1.44 4.85 2.64 7.78 3.6 2.97.91 5.93 1.37 8.85 1.37 1.97 0 3.56-.17 4.76-.5 1.2-.39 2.06-.87 2.59-1.44.57-.63.86-1.35.86-2.16 0-1.16-.53-2.07-1.58-2.74-1.06-.67-2.43-1.22-4.11-1.66a129.42 129.42 0 0 0-5.61-1.29c-2.02-.43-4.06-.99-6.12-1.66-2.02-.67-3.87-1.53-5.55-2.59a13.32 13.32 0 0 1-4.1-4.25c-1.06-1.77-1.58-4.01-1.58-6.69 0-3.03.81-5.76 2.44-8.21 1.68-2.45 4.18-4.42 7.49-5.91 3.31-1.48 7.44-2.23 12.39-2.23a41.55 41.55 0 0 1 9.72 1.15c3.21.72 6.07 1.8 8.56 3.24l-4.39 10.59c-2.4-1.3-4.77-2.26-7.13-2.88-2.35-.67-4.63-1.01-6.84-1.01-1.96 0-3.55.22-4.75.65-1.2.38-2.06.91-2.59 1.58s-.79 1.44-.79 2.31c0 1.1.5 1.99 1.51 2.66 1.06.62 2.42 1.15 4.1 1.58l5.62 1.23c2.06.43 4.1.98 6.12 1.65 2.06.63 3.94 1.49 5.62 2.6 1.68 1.05 3.02 2.47 4.03 4.24 1.05 1.73 1.58 3.92 1.58 6.56 0 2.92-.84 5.64-2.52 8.13-1.63 2.45-4.1 4.42-7.41 5.91-3.27 1.48-7.4 2.23-12.39 2.23zm48.71-.36c-4.61 0-8.64-.87-12.1-2.59-3.41-1.78-6.07-4.18-7.99-7.2-1.87-3.08-2.81-6.56-2.81-10.44 0-3.89.91-7.35 2.74-10.37 1.87-3.07 4.44-5.45 7.7-7.13 3.27-1.73 6.94-2.59 11.02-2.59 3.84 0 7.34.79 10.51 2.37 3.17 1.54 5.69 3.82 7.56 6.84 1.87 3.03 2.81 6.7 2.81 11.02 0 .48-.03 1.03-.07 1.66l-.15 1.72h-30.89v-7.2h23.62l-5.18 2.02c.04-1.78-.29-3.31-1.01-4.61a7.29 7.29 0 0 0-2.88-3.02c-1.2-.72-2.62-1.08-4.25-1.08s-3.07.36-4.32 1.08c-1.2.72-2.14 1.75-2.81 3.09-.67 1.3-1.01 2.84-1.01 4.61v2.09c0 1.92.39 3.58 1.16 4.97.81 1.39 1.96 2.47 3.45 3.24 1.49.72 3.27 1.08 5.33 1.08 1.92 0 3.55-.27 4.9-.79 1.39-.58 2.76-1.44 4.1-2.6l7.2 7.49c-1.87 2.07-4.18 3.65-6.91 4.75-2.74 1.06-5.98 1.59-9.72 1.59zm25.74-.65v-53.42h13.68V1310h-13.68zm22.57 0v-53.42h13.68V1310h-13.68z"/><path id="P" d="M1452.29 1239.67l.57 25.6.08 2.78-1.63 2.28-60.92 85.75 18.45 10.33 53.69-94.28-10.24-32.46z"/><path id="Q" d="M1409.71 1194l33.72 23.93v-.02l1.05 47.53-66.3 93.32-80.18-56.96 66.29-93.32 45.42-14.48zm.03 35.44c2.36 1.69 5.63 1.12 7.31-1.24 1.69-2.36 1.13-5.62-1.23-7.31-2.37-1.69-5.63-1.13-7.32 1.23-1.68 2.37-1.12 5.63 1.24 7.32zm-49.56 85.81c6.19 2.89 11.79 3.79 16.79 2.64h-.05c5-1.12 8.86-3.91 11.56-8.32 2.44-4 3.37-7.88 2.78-11.62s-1.91-7.09-4.02-10.07c-2.08-2.95-4.87-6.24-8.35-9.87-2.67-2.81-4.5-4.98-5.52-6.5-.98-1.49-1.15-2.81-.47-3.91 1.4-2.3 4.38-1.85 8.88 1.35 4.56 3.27 8.55 8.07 11.99 14.46l13.52-9.7c-2.61-5.4-6.69-10.52-12.29-15.33l5.15-8.44-10.46-7.48-5.26 8.58c-6.44-3.32-12.24-4.45-17.41-3.38-5.18 1.04-9.17 3.91-12.01 8.52-2.45 4-3.38 7.85-2.84 11.62.56 3.77 1.85 7.12 3.91 10.04 2.05 2.93 4.81 6.27 8.27 10.04 2.7 2.93 4.55 5.15 5.57 6.69 1.01 1.55 1.15 2.9.45 4.05-.6.99-1.58 1.38-2.93 1.13-1.35-.23-3.23-1.21-5.65-2.95-2.82-2.03-5.49-4.59-7.99-7.71s-4.53-6.33-6.08-9.62l-13.95 9.54c1.33 3.06 3.38 6.3 6.16 9.73 2.79 3.43 5.99 6.55 9.57 9.42l-5.12 8.35 10.46 7.48 5.34-8.74z"/><path id="R" d="M1487.77 1654v-39.1h-15.48v-11.3h45.14v11.3h-15.41v39.1h-14.25zm33.55 0v-39.02h13.03v11.37l-1.94-3.24c1.15-2.93 3.02-5.11 5.62-6.55 2.59-1.49 5.73-2.23 9.43-2.23v12.31a10.59 10.59 0 0 0-1.66-.14 12.48 12.48 0 0 0-1.44-.08c-2.78 0-5.04.77-6.77 2.31-1.72 1.49-2.59 3.93-2.59 7.34V1654h-13.68zm53.29 0v-7.27l-.93-1.8v-13.39c0-2.16-.67-3.82-2.02-4.97-1.29-1.2-3.38-1.8-6.26-1.8-1.87 0-3.77.31-5.69.93-1.92.58-3.55 1.4-4.9 2.45l-4.6-9.29c2.2-1.44 4.84-2.54 7.92-3.31 3.12-.81 6.21-1.22 9.28-1.22 6.34 0 11.24 1.46 14.69 4.39 3.51 2.88 5.26 7.42 5.26 13.61V1654h-12.75zm-11.52.65c-3.12 0-5.76-.53-7.92-1.59-2.16-1.05-3.81-2.49-4.96-4.32-1.11-1.82-1.66-3.86-1.66-6.12 0-2.4.6-4.46 1.8-6.19 1.25-1.77 3.14-3.12 5.69-4.03 2.54-.96 5.83-1.44 9.86-1.44h9.22v7.13h-7.35c-2.2 0-3.76.36-4.68 1.08-.86.72-1.29 1.68-1.29 2.88s.45 2.16 1.37 2.88c.91.72 2.16 1.08 3.74 1.08 1.49 0 2.83-.36 4.03-1.08 1.25-.77 2.16-1.92 2.74-3.46l1.87 5.04c-.72 2.69-2.14 4.73-4.25 6.12-2.06 1.35-4.8 2.02-8.21 2.02zm50.39 0c-3.55 0-6.79-.82-9.72-2.45-2.88-1.68-5.19-4.01-6.91-6.98-1.73-3.03-2.6-6.63-2.6-10.8 0-4.13.87-7.68 2.6-10.66 1.72-3.02 4.03-5.35 6.91-6.98 2.93-1.64 6.17-2.45 9.72-2.45 3.36 0 6.19.72 8.49 2.16 2.36 1.44 4.13 3.65 5.33 6.62 1.2 2.98 1.8 6.75 1.8 11.31 0 4.65-.57 8.47-1.73 11.44-1.15 2.98-2.88 5.19-5.18 6.63s-5.21 2.16-8.71 2.16zm2.88-10.87c1.53 0 2.9-.36 4.1-1.08 1.25-.72 2.23-1.78 2.95-3.17.72-1.44 1.08-3.15 1.08-5.11 0-1.97-.36-3.63-1.08-4.97-.72-1.39-1.7-2.45-2.95-3.17-1.2-.72-2.57-1.08-4.1-1.08-1.59 0-3 .36-4.25 1.08-1.2.72-2.16 1.78-2.88 3.17-.72 1.34-1.08 3-1.08 4.97 0 1.96.36 3.67 1.08 5.11.72 1.39 1.68 2.45 2.88 3.17 1.25.72 2.66 1.08 4.25 1.08zm8.57 10.22v-6.7l.07-12.88-.72-12.89v-20.95h13.68V1654h-13.03zm42.28.65c-4.61 0-8.64-.87-12.1-2.59-3.41-1.78-6.07-4.18-7.99-7.2-1.87-3.08-2.81-6.56-2.81-10.44 0-3.89.91-7.35 2.74-10.37 1.87-3.07 4.44-5.45 7.7-7.13 3.27-1.73 6.94-2.59 11.02-2.59 3.84 0 7.34.79 10.51 2.37 3.17 1.54 5.69 3.82 7.56 6.84 1.87 3.03 2.81 6.7 2.81 11.02 0 .48-.03 1.03-.07 1.66l-.15 1.72h-30.89v-7.2h23.62l-5.18 2.02c.04-1.78-.29-3.31-1.01-4.61a7.29 7.29 0 0 0-2.88-3.02c-1.2-.72-2.62-1.08-4.25-1.08s-3.07.36-4.32 1.08c-1.2.72-2.14 1.75-2.81 3.09-.67 1.3-1.01 2.84-1.01 4.61v2.09c0 1.92.39 3.58 1.16 4.97.81 1.39 1.96 2.47 3.45 3.24 1.49.72 3.27 1.08 5.33 1.08 1.92 0 3.55-.27 4.9-.79 1.39-.58 2.76-1.44 4.1-2.6l7.2 7.49c-1.87 2.07-4.18 3.65-6.91 4.75-2.74 1.06-5.98 1.59-9.72 1.59z"/><path id="S" d="M1413.02 1618.51h-111.29v-20.23c0-1.23-.31-2.47-.99-3.51-.67-1.04-1.66-1.86-2.81-2.36-.79-.34-1.6-.51-2.45-.51a6.26 6.26 0 0 0-1.21.11c-1.21.26-2.33.85-3.23 1.72l-44.72 43.96a6.44 6.44 0 0 0-1.74 4.41c0 1.63.61 3.21 1.74 4.42l44.72 43.96c.87.87 1.99 1.49 3.23 1.71a5.4 5.4 0 0 0 1.21.12c.85 0 1.66-.17 2.45-.51 1.15-.48 2.11-1.32 2.81-2.36.68-1.04 1.01-2.28.99-3.52v-18.81h111.62s.59-36.09-.31-48.72l-.02.12z"/><path id="T" d="M1369.08 1576.66l-29.89-29.45c-1.77-2.59-4.73-.79-4.73 2.98v12.94H1234v32.12h41.51l8.58-8.44c2.28-2.28 5.15-3.83 8.33-4.44 1.01-.2 2.05-.31 3.09-.31a15.82 15.82 0 0 1 6.3 1.29c2.98 1.27 5.46 3.38 7.23 6.08 1.15 1.8 1.88 3.76 2.28 5.82h23.2v13.83c0 3.77 2.98 5.66 4.72 3.01l29.9-29.44c.54-.9.82-1.94.82-2.98a5.85 5.85 0 0 0-.82-2.99l-.06-.02z"/></defs></svg>