<svg width="2000" height="1510" viewBox="0 0 2000 1510" fill="none" xmlns="http://www.w3.org/2000/svg">
<g clip-path="url(#clip0_1711_15464)">
<path d="M2000 0H0V1509.8H2000V0Z" fill="#F8F8F8"/>
<mask id="mask0_1711_15464" style="mask-type:luminance" maskUnits="userSpaceOnUse" x="89" y="91" width="388" height="388">
<path d="M476.954 91.4194H89.635V478.739H476.954V91.4194Z" fill="white"/>
</mask>
<g mask="url(#mask0_1711_15464)">
<path d="M476.954 91.4194H89.635V478.739H476.954V91.4194Z" fill="white"/>
<path d="M283.299 430.323C363.517 430.323 428.545 365.295 428.545 285.079C428.545 204.863 363.517 139.835 283.299 139.835C203.084 139.835 138.055 204.863 138.055 285.079C138.055 365.295 203.084 430.323 283.299 430.323Z" fill="#0000FF" fill-opacity="0.3" stroke="#0000FF" stroke-opacity="0.7" stroke-width="1.61383" stroke-miterlimit="10"/>
<path d="M283.293 365.771C327.856 365.771 363.985 329.642 363.985 285.079C363.985 240.514 327.856 204.388 283.293 204.388C238.729 204.388 202.602 240.514 202.602 285.079C202.602 329.642 238.729 365.771 283.293 365.771Z" stroke="#0000FF" stroke-opacity="0.7" stroke-width="1.61383" stroke-miterlimit="10"/>
<path d="M468.884 99.4888H97.7048V470.668H468.884V99.4888Z" stroke="#FF0000" stroke-opacity="0.1" stroke-width="16.1383"/>
</g>
<mask id="mask1_1711_15464" style="mask-type:luminance" maskUnits="userSpaceOnUse" x="566" y="91" width="388" height="388">
<path d="M953.911 91.4194H566.591V478.739H953.911V91.4194Z" fill="white"/>
</mask>
<g mask="url(#mask1_1711_15464)">
<path d="M953.911 91.4194H566.591V478.739H953.911V91.4194Z" fill="white"/>
<path d="M869.188 139.835H651.32C631.266 139.835 615.009 156.092 615.009 176.146V394.014C615.009 414.068 631.266 430.325 651.32 430.325H869.188C889.242 430.325 905.499 414.068 905.499 394.014V176.146C905.499 156.092 889.242 139.835 869.188 139.835Z" fill="#0000FF" fill-opacity="0.3" stroke="#0000FF" stroke-opacity="0.7" stroke-width="1.61383"/>
<path d="M945.84 99.4888H574.661V470.668H945.84V99.4888Z" stroke="#FF0000" stroke-opacity="0.1" stroke-width="16.1383"/>
</g>
<mask id="mask2_1711_15464" style="mask-type:luminance" maskUnits="userSpaceOnUse" x="1043" y="91" width="388" height="388">
<path d="M1430.86 91.4194H1043.54V478.739H1430.86V91.4194Z" fill="white"/>
</mask>
<g mask="url(#mask2_1711_15464)">
<path d="M1430.86 91.4194H1043.54V478.739H1430.86V91.4194Z" fill="white"/>
<path d="M1362.27 155.972H1112.13C1092.07 155.972 1075.82 172.229 1075.82 192.283V377.873C1075.82 397.927 1092.07 414.184 1112.13 414.184H1362.27C1382.32 414.184 1398.58 397.927 1398.58 377.873V192.283C1398.58 172.229 1382.32 155.972 1362.27 155.972Z" fill="#0000FF" fill-opacity="0.3" stroke="#0000FF" stroke-opacity="0.7" stroke-width="1.61383"/>
<path d="M1422.79 99.4888H1051.61V470.668H1422.79V99.4888Z" stroke="#FF0000" stroke-opacity="0.1" stroke-width="16.1383"/>
</g>
<mask id="mask3_1711_15464" style="mask-type:luminance" maskUnits="userSpaceOnUse" x="1520" y="91" width="388" height="388">
<path d="M1907.82 91.4194H1520.5V478.739H1907.82V91.4194Z" fill="white"/>
</mask>
<g mask="url(#mask3_1711_15464)">
<path d="M1907.82 91.4194H1520.5V478.739H1907.82V91.4194Z" fill="white"/>
<path d="M1806.95 123.697H1621.36C1601.3 123.697 1585.05 139.954 1585.05 160.008V410.151C1585.05 430.205 1601.3 446.462 1621.36 446.462H1806.95C1827 446.462 1843.26 430.205 1843.26 410.151V160.008C1843.26 139.954 1827 123.697 1806.95 123.697Z" fill="#0000FF" fill-opacity="0.3" stroke="#0000FF" stroke-opacity="0.7" stroke-width="1.61383"/>
<path d="M1899.75 99.4888H1528.57V470.668H1899.75V99.4888Z" stroke="#FF0000" stroke-opacity="0.1" stroke-width="16.1383"/>
</g>
<mask id="mask4_1711_15464" style="mask-type:luminance" maskUnits="userSpaceOnUse" x="89" y="512" width="388" height="388">
<path d="M476.946 512.605H89.635V899.919H476.946V512.605Z" fill="white"/>
</mask>
<g mask="url(#mask4_1711_15464)">
<path d="M476.946 512.605H89.635V899.919H476.946V512.605Z" fill="white"/>
<path d="M379.828 814.784C357.727 785.619 322.713 766.776 283.299 766.776C243.882 766.776 208.867 785.619 186.767 814.784M379.828 814.784C409.716 788.182 428.54 749.42 428.54 706.26C428.54 626.045 363.512 561.017 283.299 561.017C203.083 561.017 138.055 626.045 138.055 706.26C138.055 749.42 156.881 788.182 186.767 814.784M379.828 814.784C354.167 837.624 320.352 851.501 283.299 851.501C246.242 851.501 212.428 837.624 186.767 814.784M331.711 669.949C331.711 696.686 310.036 718.364 283.299 718.364C256.559 718.364 234.884 696.686 234.884 669.949C234.884 643.21 256.559 621.535 283.299 621.535C310.036 621.535 331.711 643.21 331.711 669.949Z" stroke="#0F172A" stroke-opacity="0.5" stroke-width="24.207" stroke-linecap="round" stroke-linejoin="round"/>
<path d="M283.291 851.504C363.506 851.504 428.534 786.476 428.534 706.26C428.534 626.045 363.506 561.02 283.291 561.02C203.077 561.02 138.05 626.045 138.05 706.26C138.05 786.476 203.077 851.504 283.291 851.504Z" stroke="#0000FF" stroke-width="1.6138" stroke-miterlimit="10"/>
<path d="M468.884 520.672H97.71V891.849H468.884V520.672Z" stroke="#FF0000" stroke-opacity="0.1" stroke-width="16.138"/>
</g>
<path d="M476.947 957.984H89.636V1345.3H476.947V957.984Z" fill="white"/>
<path d="M283.288 1296.89C363.504 1296.89 428.532 1231.86 428.532 1151.64C428.532 1071.43 363.504 1006.4 283.288 1006.4C203.075 1006.4 138.048 1071.43 138.048 1151.64C138.048 1231.86 203.075 1296.89 283.288 1296.89Z" stroke="#0000FF" stroke-width="1.6138" stroke-miterlimit="10"/>
<mask id="mask5_1711_15464" style="mask-type:luminance" maskUnits="userSpaceOnUse" x="568" y="957" width="388" height="389">
<path d="M955.937 957.983H568.626V1345.3H955.937V957.983Z" fill="white"/>
</mask>
<g mask="url(#mask5_1711_15464)">
<path d="M955.937 957.983H568.626V1345.3H955.937V957.983Z" fill="white"/>
<path d="M871.212 1007.2H653.351C633.743 1007.2 617.848 1023.1 617.848 1042.71V1260.57C617.848 1280.18 633.743 1296.08 653.351 1296.08H871.212C890.82 1296.08 906.716 1280.18 906.716 1260.57V1042.71C906.716 1023.1 890.82 1007.2 871.212 1007.2Z" stroke="#0000FF" stroke-width="1.6138"/>
<g opacity="0.5">
<path d="M689.669 1296.88L617.047 1224.26M617.047 1224.26L689.669 1151.64M617.047 1224.26H834.91M834.91 1006.39L907.532 1079.02M907.532 1079.02L834.91 1151.64M907.532 1079.02H689.669" stroke="#0F172A" stroke-width="24.207" stroke-linecap="round" stroke-linejoin="round"/>
</g>
<path d="M947.875 966.05H576.701V1337.23H947.875V966.05Z" stroke="#FF0000" stroke-opacity="0.1" stroke-width="16.138"/>
</g>
<mask id="mask6_1711_15464" style="mask-type:luminance" maskUnits="userSpaceOnUse" x="568" y="512" width="388" height="388">
<path d="M955.937 512.605H568.626V899.919H955.937V512.605Z" fill="white"/>
</mask>
<g mask="url(#mask6_1711_15464)">
<path d="M955.937 512.605H568.626V899.919H955.937V512.605Z" fill="white"/>
<path d="M871.212 561.827H653.351C633.743 561.827 617.848 577.723 617.848 597.331V815.195C617.848 834.803 633.743 850.698 653.351 850.698H871.212C890.82 850.698 906.716 834.803 906.716 815.195V597.331C906.716 577.723 890.82 561.827 871.212 561.827Z" stroke="#0000FF" stroke-width="1.6138"/>
<g opacity="0.5">
<path d="M629.148 609.432C629.148 589.378 645.406 573.121 665.459 573.121H701.77C721.823 573.121 738.081 589.378 738.081 609.432V645.742C738.081 665.796 721.823 682.053 701.77 682.053H665.459C645.406 682.053 629.148 665.796 629.148 645.742V609.432Z" stroke="#0F172A" stroke-width="24.207" stroke-linecap="round" stroke-linejoin="round"/>
<path d="M629.148 766.776C629.148 746.723 645.405 730.465 665.459 730.465H701.77C721.823 730.465 738.08 746.723 738.08 766.776V803.087C738.08 823.14 721.823 839.398 701.77 839.398H665.459C645.405 839.398 629.148 823.14 629.148 803.087V766.776Z" stroke="#0F172A" stroke-width="24.207" stroke-linecap="round" stroke-linejoin="round"/>
<path d="M786.495 609.432C786.495 589.378 802.752 573.121 822.806 573.121H859.116C879.17 573.121 895.425 589.378 895.425 609.432V645.742C895.425 665.796 879.17 682.053 859.116 682.053H822.806C802.752 682.053 786.495 665.796 786.495 645.742V609.432Z" stroke="#0F172A" stroke-width="24.207" stroke-linecap="round" stroke-linejoin="round"/>
<path d="M786.495 766.776C786.495 746.723 802.752 730.465 822.806 730.465H859.116C879.17 730.465 895.425 746.723 895.425 766.776V803.087C895.425 823.14 879.17 839.398 859.116 839.398H822.806C802.752 839.398 786.495 823.14 786.495 803.087V766.776Z" stroke="#0F172A" stroke-width="24.207" stroke-linecap="round" stroke-linejoin="round"/>
</g>
<path d="M947.875 520.672H576.701V891.849H947.875V520.672Z" stroke="#FF0000" stroke-opacity="0.1" stroke-width="16.138"/>
</g>
<mask id="mask7_1711_15464" style="mask-type:luminance" maskUnits="userSpaceOnUse" x="1521" y="537" width="388" height="389">
<path d="M1908.32 537.815H1521.01V925.129H1908.32V537.815Z" fill="white"/>
</mask>
<g mask="url(#mask7_1711_15464)">
<path d="M1908.32 537.815H1521.01V925.129H1908.32V537.815Z" fill="white"/>
<path d="M1586.37 606.398V856.539C1586.37 876.147 1602.27 892.042 1621.88 892.042H1807.46C1827.07 892.042 1842.97 876.147 1842.97 856.539V606.398C1842.97 586.789 1827.07 570.894 1807.46 570.894H1621.88C1602.27 570.894 1586.37 586.789 1586.37 606.398Z" stroke="#0000FF" stroke-width="1.6138"/>
<path d="M1775.19 791.987V828.298M1654.15 719.368H1654.27V719.488H1654.15V719.368ZM1654.15 755.679H1654.27V755.799H1654.15V755.679ZM1654.15 791.987H1654.27V792.11H1654.15V791.987ZM1654.15 828.298H1654.27V828.418H1654.15V828.298ZM1694.46 719.368H1694.58V719.488H1694.46V719.368ZM1694.46 755.679H1694.58V755.799H1694.46V755.679ZM1694.46 791.987H1694.58V792.11H1694.46V791.987ZM1694.46 828.298H1694.58V828.418H1694.46V828.298ZM1734.88 719.368H1735V719.488H1734.88V719.368ZM1734.88 755.679H1735V755.799H1734.88V755.679ZM1734.88 791.987H1735V792.11H1734.88V791.987ZM1734.88 828.298H1735V828.418H1734.88V828.298ZM1775.19 719.368H1775.31V719.488H1775.19V719.368ZM1775.19 755.679H1775.31V755.799H1775.19V755.679ZM1654.15 634.642H1775.19V670.953H1654.15V634.642ZM1714.67 574.124C1684.14 574.124 1654.02 575.892 1624.41 579.329C1606.64 581.39 1593.64 596.701 1593.64 614.583V852.505C1593.64 872.558 1609.89 888.816 1629.95 888.816H1799.39C1819.45 888.816 1835.71 872.558 1835.71 852.505V614.583C1835.71 596.701 1822.7 581.39 1804.94 579.329C1775.32 575.892 1745.2 574.124 1714.67 574.124Z" stroke="#0F172A" stroke-opacity="0.5" stroke-width="24.207" stroke-linecap="round" stroke-linejoin="round"/>
<path d="M1900.26 545.882H1529.08V917.058H1900.26V545.882Z" stroke="#FF0000" stroke-opacity="0.1" stroke-width="16.138"/>
</g>
<mask id="mask8_1711_15464" style="mask-type:luminance" maskUnits="userSpaceOnUse" x="1521" y="957" width="388" height="389">
<path d="M1908.32 957.984H1521.01V1345.3H1908.32V957.984Z" fill="white"/>
</mask>
<g mask="url(#mask8_1711_15464)">
<path d="M1908.32 957.984H1521.01V1345.3H1908.32V957.984Z" fill="white"/>
<path d="M1586.37 1026.57V1276.71C1586.37 1296.32 1602.27 1312.22 1621.88 1312.22H1807.46C1827.07 1312.22 1842.97 1296.32 1842.97 1276.71V1026.57C1842.97 1006.96 1827.07 991.068 1807.46 991.068H1621.88C1602.27 991.068 1586.37 1006.96 1586.37 1026.57Z" stroke="#0000FF" stroke-width="1.6138"/>
<g opacity="0.5">
<path d="M1758.9 1103.23L1753.31 1248.47M1676.03 1248.47L1670.45 1103.23M1831.31 1051.43C1836.83 1052.26 1842.33 1053.16 1847.81 1054.1M1831.31 1051.43L1814.08 1275.46C1812.62 1294.38 1796.85 1308.98 1777.88 1308.98H1651.47C1632.5 1308.98 1616.72 1294.38 1615.27 1275.46L1598.03 1051.43M1831.31 1051.43C1812.81 1048.64 1794.09 1046.5 1775.19 1045.04M1598.03 1051.43C1592.51 1052.26 1587.01 1053.16 1581.53 1054.1M1598.03 1051.43C1616.53 1048.64 1635.25 1046.5 1654.15 1045.04M1775.19 1045.04V1030.25C1775.19 1011.22 1760.49 995.329 1741.47 994.721C1732.57 994.438 1723.64 994.292 1714.67 994.292C1705.71 994.292 1696.77 994.438 1687.87 994.721C1668.85 995.329 1654.15 1011.22 1654.15 1030.25V1045.04M1775.19 1045.04C1755.22 1043.49 1735.04 1042.71 1714.67 1042.71C1694.3 1042.71 1674.12 1043.49 1654.15 1045.04" stroke="#0F172A" stroke-width="24.207" stroke-linecap="round" stroke-linejoin="round"/>
</g>
<path d="M1900.26 966.051H1529.08V1337.23H1900.26V966.051Z" stroke="#FF0000" stroke-opacity="0.1" stroke-width="16.138"/>
</g>
<mask id="mask9_1711_15464" style="mask-type:luminance" maskUnits="userSpaceOnUse" x="1044" y="537" width="389" height="389">
<path d="M1432.13 537.815H1044.82V925.129H1432.13V537.815Z" fill="white"/>
</mask>
<g mask="url(#mask9_1711_15464)">
<path d="M1432.13 537.815H1044.82V925.129H1432.13V537.815Z" fill="white"/>
<g opacity="0.5">
<path d="M1395.83 646.745V816.193C1395.83 836.246 1379.57 852.504 1359.51 852.504H1117.44C1097.39 852.504 1081.13 836.246 1081.13 816.193V646.745M1395.83 646.745C1395.83 626.692 1379.57 610.434 1359.51 610.434H1117.44C1097.39 610.434 1081.13 626.692 1081.13 646.745M1395.83 646.745V650.661C1395.83 663.272 1389.28 674.977 1378.55 681.585L1257.51 756.07C1245.84 763.252 1231.12 763.252 1219.45 756.07L1098.41 681.585C1087.67 674.977 1081.13 663.272 1081.13 650.661V646.745" stroke="#0F172A" stroke-width="24.207" stroke-linecap="round" stroke-linejoin="round"/>
</g>
<path d="M1363.55 602.368H1113.42C1093.36 602.368 1077.1 618.625 1077.1 638.678V824.267C1077.1 844.32 1093.36 860.577 1113.42 860.577H1363.55C1383.61 860.577 1399.86 844.32 1399.86 824.267V638.678C1399.86 618.625 1383.61 602.368 1363.55 602.368Z" stroke="#0000FF" stroke-width="1.6138"/>
<path d="M1424.07 545.882H1052.89V917.058H1424.07V545.882Z" stroke="#FF0000" stroke-opacity="0.1" stroke-width="16.138"/>
</g>
<mask id="mask10_1711_15464" style="mask-type:luminance" maskUnits="userSpaceOnUse" x="1044" y="957" width="389" height="389">
<path d="M1432.13 957.984H1044.82V1345.3H1432.13V957.984Z" fill="white"/>
</mask>
<g mask="url(#mask10_1711_15464)">
<path d="M1432.13 957.984H1044.82V1345.3H1432.13V957.984Z" fill="white"/>
<path d="M1363.55 1022.54H1113.42C1093.36 1022.54 1077.1 1038.79 1077.1 1058.85V1244.43C1077.1 1264.49 1093.36 1280.75 1113.42 1280.75H1363.55C1383.61 1280.75 1399.86 1264.49 1399.86 1244.43V1058.85C1399.86 1038.79 1383.61 1022.54 1363.55 1022.54Z" stroke="#0000FF" stroke-width="1.6138"/>
<g opacity="0.5">
<path d="M1155 1041.5C1149.17 1050.83 1139.41 1056.97 1128.51 1058.52C1122.39 1059.39 1116.29 1060.33 1110.21 1061.35C1093.22 1064.18 1081.13 1079.12 1081.13 1096.35V1232.33C1081.13 1252.38 1097.39 1268.64 1117.44 1268.64H1359.51C1379.57 1268.64 1395.83 1252.38 1395.83 1232.33V1096.35C1395.83 1079.12 1383.74 1064.18 1366.74 1061.35C1360.67 1060.33 1354.57 1059.39 1348.44 1058.52C1337.55 1056.97 1327.79 1050.83 1321.96 1041.5L1308.71 1020.26C1302.6 1010.47 1292.21 1004.11 1280.69 1003.49C1266.71 1002.74 1252.64 1002.36 1238.48 1002.36C1224.32 1002.36 1210.25 1002.74 1196.27 1003.49C1184.75 1004.11 1174.36 1010.47 1168.25 1020.26L1155 1041.5Z" stroke="#0F172A" stroke-width="24.207" stroke-linecap="round" stroke-linejoin="round"/>
<path d="M1311.1 1147.6C1311.1 1187.71 1278.59 1220.22 1238.48 1220.22C1198.37 1220.22 1165.86 1187.71 1165.86 1147.6C1165.86 1107.5 1198.37 1074.98 1238.48 1074.98C1278.59 1074.98 1311.1 1107.5 1311.1 1147.6Z" stroke="#0F172A" stroke-width="24.207" stroke-linecap="round" stroke-linejoin="round"/>
<path d="M1347.41 1111.3H1347.53V1111.41H1347.41V1111.3Z" stroke="#0F172A" stroke-width="24.207" stroke-linecap="round" stroke-linejoin="round"/>
</g>
<path d="M1424.07 966.051H1052.89V1337.23H1424.07V966.051Z" stroke="#FF0000" stroke-opacity="0.1" stroke-width="16.138"/>
</g>
<g opacity="0.5">
<path d="M256.541 1021.57C258 1012.81 265.574 1006.4 274.45 1006.4H292.104C300.978 1006.4 308.552 1012.81 310.011 1021.57L312.417 1035.99C313.557 1042.84 318.608 1048.33 325.017 1050.99C331.431 1053.66 338.795 1053.3 344.448 1049.26L356.35 1040.76C363.571 1035.6 373.465 1036.42 379.739 1042.7L392.224 1055.18C398.499 1061.46 399.319 1071.35 394.16 1078.57L385.655 1090.48C381.619 1096.13 381.263 1103.49 383.924 1109.9C386.585 1116.31 392.076 1121.36 398.922 1122.5L413.347 1124.91C422.104 1126.36 428.518 1133.94 428.518 1142.81V1160.47C428.518 1169.34 422.104 1176.92 413.347 1178.38L398.924 1180.78C392.078 1181.92 386.585 1186.97 383.924 1193.38C381.26 1199.79 381.616 1207.16 385.653 1212.81L394.154 1224.71C399.314 1231.93 398.493 1241.82 392.218 1248.1L379.734 1260.58C373.459 1266.86 363.566 1267.68 356.344 1262.52L344.44 1254.02C338.793 1249.98 331.429 1249.63 325.017 1252.29C318.608 1254.95 313.557 1260.44 312.417 1267.29L310.011 1281.71C308.552 1290.47 300.978 1296.88 292.104 1296.88H274.45C265.574 1296.88 258 1290.47 256.541 1281.71L254.137 1267.29C252.996 1260.44 247.946 1254.95 241.536 1252.29C235.122 1249.63 227.758 1249.98 222.107 1254.02L210.203 1262.52C202.981 1267.68 193.089 1266.86 186.813 1260.58L174.33 1248.1C168.054 1241.82 167.235 1231.93 172.394 1224.71L180.899 1212.8C184.934 1207.15 185.29 1199.79 182.628 1193.38C179.967 1186.97 174.477 1181.92 167.632 1180.78L153.205 1178.38C144.451 1176.92 138.034 1169.34 138.034 1160.47V1142.81C138.034 1133.94 144.451 1126.36 153.205 1124.91L167.629 1122.5C174.476 1121.36 179.967 1116.31 182.629 1109.9C185.292 1103.49 184.936 1096.12 180.9 1090.47L172.4 1078.57C167.242 1071.35 168.06 1061.45 174.336 1055.18L186.82 1042.7C193.095 1036.42 202.988 1035.6 210.21 1040.76L222.113 1049.26C227.763 1053.3 235.125 1053.65 241.537 1050.99C247.947 1048.33 252.996 1042.84 254.137 1036L256.541 1021.57Z" stroke="#0F172A" stroke-width="24.207" stroke-linecap="round" stroke-linejoin="round"/>
<path d="M331.702 1151.64C331.702 1178.38 310.024 1200.05 283.288 1200.05C256.549 1200.05 234.873 1178.38 234.873 1151.64C234.873 1124.9 256.549 1103.23 283.288 1103.23C310.024 1103.23 331.702 1124.9 331.702 1151.64Z" stroke="#0F172A" stroke-width="24.207" stroke-linecap="round" stroke-linejoin="round"/>
</g>
<path d="M468.88 966.054H97.7058V1337.23H468.88V966.054Z" stroke="#FF0000" stroke-opacity="0.1" stroke-width="16.138"/>
</g>
<defs>
<clipPath id="clip0_1711_15464">
<rect width="2000" height="1509.8" fill="white"/>
</clipPath>
</defs>
</svg>
