<svg xmlns="http://www.w3.org/2000/svg" width="1000" height="1000" viewBox="0 0 1000 1000"><title>sitemix_thumbnail</title><g style="isolation:isolate"><g id="a1cd7292-a88d-4012-86c9-313079e84b37" data-name="Layer 1"><rect x="-8.6" y="-8.6" width="1017.21" height="1017.21" style="fill:#f61;mix-blend-mode:multiply"/><path d="M709.61,437.82,609,290.44a18.51,18.51,0,0,0-13.65-7.21H391.19a17.14,17.14,0,0,0-13.27,7.53l-87.77,147a18,18,0,0,0-.64,15.36L414.64,708.84a15.46,15.46,0,0,0,12.71,7.93H556.76a16.35,16.35,0,0,0,13-7.71L710.34,452.83A15.73,15.73,0,0,0,709.61,437.82ZM404.07,591.52,383.28,549c17.09,18.91,40.34,31.14,69,36a166.89,166.89,0,0,0,27.61,2.23,177.31,177.31,0,0,0,35.77-3.53c24.23-3.28,42.13-12.48,53.2-27.33a55.46,55.46,0,0,0,10.56-40l-.09-.45c-5.82-31-31.88-42.1-54.33-42.1a62.81,62.81,0,0,0-9.73.74l-37.69,5.79c-5.2.82-9.28.41-11.47-1.19-2.44-1.78-3.42-5.31-3.69-6.5-.11-5.73,1.75-8.4,3.15-9.9,5.81-6.22,16.37-7.65,22.68-8.49l7.44-.89c2-.16,4.28-.42,6.72-.7a181.46,181.46,0,0,1,20.79-1.47c32.76,0,56.95,15,73.89,45.74a92.41,92.41,0,0,1,6.3,33.65C603.24,554,593,572.93,572.92,587c-1.64,1.09-40.67,26.7-89,26.7-24.49,0-42.67-4.44-67.16-15.18ZM633.84,479.73l-.59-1.18c-20.31-37.64-53.09-60.62-92.29-64.71a266,266,0,0,0-27.49-1.4c-12,0-21.75.81-26.11,1.6-.76.11-1.67.23-2.7.35-10.72,1.33-33,4.09-48.52,20.46-10.17,10.74-15.08,24.94-14.22,41.06l.09,1c.24,2.18,2.72,21.67,19.3,34.38,6,4.59,16.31,10.05,31.49,10.05a71.42,71.42,0,0,0,11-.89l37.59-5.77h0l.13,0a24.92,24.92,0,0,1,3.21-.18,28.27,28.27,0,0,1,7.62,1c4.33,1.26,6.31,2,7.5,7.2,0,.43.13.93.23,1.47.84,4.4,2.4,12.57-29.6,19.62l-3.66.58a133.87,133.87,0,0,1-26.05,2.38A131.55,131.55,0,0,1,459,545c-32-5.42-52.39-22.73-62.18-52.83a88.77,88.77,0,0,1,1.41-39.79c7.87-29,30.77-49.43,68.1-60.7l.81-.27c.52-.17,13-4.12,32.79-4.71,1.53,0,3.13-.07,4.79-.07,18.62,0,50.24,2.16,83.64,16.95.84.42,3.1,1.57,4.26,2.26a201.84,201.84,0,0,1,23.46,16.48c13.39,10.95,20.26,19,29.12,30.11A160.09,160.09,0,0,1,654.58,467l-15.4,28.07A108,108,0,0,0,633.84,479.73Zm-296.43-39,65-108.87a15.15,15.15,0,0,1,11.54-6.55H574.21a16.51,16.51,0,0,1,12,6.33l29.51,43.23c-4.78-3-8.26-4.91-9.6-5.63l-1.18-.59c-32.89-15-66.51-22.57-99.92-22.57-28.46,0-47.24,5.71-50.69,6.85-64.06,19.45-87.14,59.05-95.23,88.84a131.3,131.3,0,0,0-3.26,51.2l-19-38.79A16,16,0,0,1,337.41,440.72ZM544.3,668A14.38,14.38,0,0,1,533,674.7H452.35a13.48,13.48,0,0,1-10.9-6.8l-10.88-22.24A165,165,0,0,0,484,654.34c5.4,0,10.92-.25,16.41-.74a201.08,201.08,0,0,0,32.05-5.66,226.86,226.86,0,0,0,28-9.27Z" style="fill:#fff"/></g></g></svg>