<svg xmlns="http://www.w3.org/2000/svg" viewBox="0 0 2000 1552.83" xmlns:v="https://vecta.io/nano"><style><![CDATA[.B{stroke-width:11.89}.C{fill:none}.D{fill:#ff8200}.E{stroke:#ff8200}.F{stroke-miterlimit:10}.G{stroke-width:5.95}.H{stroke-linecap:round}]]></style><defs><clipPath id="A"><path d="M440.74 1015.38c467.88 163.76 659.06 197.46 709.3 204.84 7.63 1.12 12.44 8.75 10.23 16.14l-8.27 68.67c-1.72 5.76-7.25 9.46-13.24 8.98-213.79-17.15-662.71-186.89-728.57-213.19a9.44 9.44 0 0 1-5.36-12.02l24.59-67.5a9.47 9.47 0 0 1 11.33-5.91h0z" class="C"/></clipPath></defs><path d="M-80.37-75.01h2154.75v1788.3H-80.37z" fill="#fff"/><path d="M1039.82 276.51c1.53 10.01-5.34 19.37-15.35 20.9s-19.37-5.34-20.9-15.35 7.37-11.41 17.39-12.95c10.01-1.53 17.34-2.62 18.87 7.4z" class="D"/><ellipse cx="1023.18" cy="273.26" rx="9.19" ry="9.44" fill="#fff"/><path d="M961.46 295.67c5.58-17.3 40.59-43.1 61.24-47.01 20.64-3.91 43.8.42 57.75 25.53l25.11 44.36m-105.6 421.82s30.13 40.17 43.52 89.27 83.69 100.43 209.79 51.33c0 0 170.74 11.16 224.3-30.13 0 0 104.9 14.51 120.52-88.16l17.3-125.54s9.1-20.6 7.33-40.94c-.27-3.05.89-6.03 3.05-8.2 10.69-10.71 38.59-45.99.22-93.15-41.21-50.65-208.35-124.71-244.66-140.41-4.29-1.85-7.3-5.74-8.05-10.35-.97-5.96.29-14.74.23-19.42-.14-11.58 1.95-35.01 8.65-43.38s12.28-31.39-19.53-63.19c0 0-14.51-11.16-18.41-28.46-3.91-17.3-61.38-58.03-61.38-58.03s-114.81-51.26-187.73-47.41c-5.15.27-10.3-.43-15.06-2.41-10.51-4.37-37.7-10.89-100.44-4.03-3.11.34-6.25.38-9.36.06-27.66-2.86-182.98-12.44-304.53 115.17 0 0-13.39 13.39-63.61 23.43 0 0-65.28 16.74-85.37 105.46 0 0-28.46 40.17-43.52 55.24-15.07 15.07-103.78 137.26-108.8 369.93 0 0-8.37 41.85 31.8 66.96 0 0 8.37 5.02 3.35 45.2-5.02 40.17 13.39 88.72 80.35 107.13 0 0 137.26 23.43 154 61.93 8.37 19.25 28.87 52.31 47.29 80.56l34.73 51.68s45.2 58.59 85.37-93.74c40.17-152.32 83.69-274.52 66.96-391.69 0 0-6.7-60.26-60.26-182.45s-52.73-265.03-12.55-302.98" class="B C E F H"/><path d="M1073.03 810.41a4.41 4.41 0 0 1 2.35.69c26.89 17.07 156.97 65.29 156.97 65.29-16.03 3.01-30.84 4.29-44.43 4.29-57.16 0-92.76-22.55-107.06-33.18-11.69-8.69-12.8-23.77-12.2-33.01.16-2.43 2.18-4.07 4.36-4.07m.01-10.79c-7.96 0-14.6 6.22-15.12 14.15-1.2 18.51 4.67 33.56 16.52 42.37 21.68 16.11 58.97 35.3 113.49 35.3 15.01 0 30.63-1.5 46.42-4.47l38.23-7.18-36.47-13.52c-44.62-16.54-134.43-51.26-154.94-64.28-2.44-1.55-5.26-2.37-8.13-2.37h0z" class="D"/><path d="M1443.54,867.59s68.39-27.76,95.07-82.71c1.02-2.11-.13,3.23-.92,5.44-7.81,21.76-10.32,54.16-41.15,61.1" class="B C E F H"/><g class="D"><circle cx="1309.35" cy="679.27" r="3.77"/><circle cx="1316.88" cy="626.13" r="3.77"/><circle cx="1292.33" cy="728.79" r="3.77"/><circle cx="1298.47" cy="776.08" r="3.77"/><circle cx="1263.73" cy="770.5" r="3.77"/><circle cx="1231.09" cy="755.43" r="3.77"/><circle cx="1334.18" cy="775.52" r="3.77"/><circle cx="1369.33" cy="767.71" r="3.77"/><circle cx="1407.27" cy="795.05" r="3.77"/><circle cx="1365.98" cy="807.88" r="3.77"/><circle cx="1325.95" cy="809.56" r="3.77"/><circle cx="1290.66" cy="812.77" r="3.77"/><circle cx="1403.92" cy="755.43" r="3.77"/><circle cx="1261.78" cy="722.51" r="3.77"/><circle cx="1234.44" cy="715.26" r="3.77"/><circle cx="1203.06" cy="698.52" r="3.77"/><circle cx="1331.39" cy="732.56" r="3.77"/><circle cx="1356.53" cy="727.04" r="3.77"/><circle cx="1389.3" cy="719.29" r="3.77"/><circle cx="1424.43" cy="711.91" r="3.77"/><circle cx="1349.52" cy="679.27" r="3.77"/><circle cx="1367.93" cy="632.82" r="3.77"/><circle cx="1390.11" cy="670.9" r="3.77"/><circle cx="1272.52" cy="670.48" r="3.77"/><circle cx="1243.23" cy="655" r="3.77"/></g><path d="M1336.23 258.6s.63-1.15 10.25 1.36 29.29 29.71 4.18 59c0 0-9.62 1.05-10.04-15.69s-1.99-33.79-4.39-44.67z" class="C E F G"/><path d="M1340.21 270.56c.42.56 12.14 3.35 11.16 16.88s-9.76 12.83-9.76 12.83l-1.39-29.71z" class="D"/><ellipse cx="1345.34" cy="282.87" rx="1.78" ry="4.08" fill="#fff"/><path d="M1615.52,569.64s0-34.48,19.98-30.36c0,0,0,33.96-19.98,30.36Z" class="D"/><g class="C E F H"><g class="B"><path d="M1591.96 464.73s-126.66-46.87-154.56 23.43c0 0-6.7 15.07-13.39 15.62 0 0-26.22 11.16-18.97 42.96 0 0 17.3 65.84 77.56 72.54 0 0 26.78 3.35 32.92 17.85 6.14 14.51 24.55 34.04 42.96 19.53 0 0 9.76-4.18 13.67-22.04 0 0-5.86 27.69 1.95 29.36 0 0 29.57-2.3 41.29-26.85M1157.3 903.3s-35.71 254.43 123.87 238.81c0 0 149.53-60.26 119.4-183.01l-24.55-78.12m-949.01 226.36l-72.62 180.39m125.54-321.38c.86 1.29-7.05 23.26-19.28 55.16m692.89 278.02c12.93 55.45 34.86 111.23 70.44 161.45"/><path d="M1154.3 973.67c-3.75 22.22-25.43 125.59-13.86 245.02m-59.08-388.53c22.99 15.99 78.66 44.24 163.57 49.93"/></g><path d="M1603.67 725.86s21.2 3.35 39.06 78.12m-98.2 33.48s5.58 51.33 55.8 60.26m-66.96-53.57s6.7 29.01 16.74 42.41m47.98-123.87s21.2 27.9 22.32 49.1" class="G"/><g class="B"><path d="M1026.74 76.39c-2.65 2.03 51.03 10.44 120.24 65.56 68.09 54.23 71.14 142.28 71.14 142.28 5.38 64.56-14.86 100.52-26.87 115.79-5.6 7.13-9.73 15.34-12.54 23.96-28.35 86.96-90.06 50.4-132.17 147.32-33.31 76.68-78.74 117.18-99.3 132.59-6.2 4.65-7.85 13.26-3.58 19.73 12.63 19.13 36.65 53.53 82.51 66.41m350.69-438.28c-53.01-29.85-189.71-202.26-189.71-202.26s-41.01-51.33-101.27-67.51m357.94 393.63s-61.66-56.08-135.86-100.71m230.12 411.56s13.56-25.1-19.92-58.02c0 0-85.51 134.68-173.67 152.53"/><path d="M1511.33,740.37s29.85-40.17,58.31-96.25"/></g><path d="M1315.76 832.99s-34.59 22.32-40.17 75.88m-45.47-152.88s-53.56 1.12-78.12 68.07m95.69-36.82s-26.78 24.55-20.09 53.56" class="G"/><path d="M1566.29 649.98l33.69-89.14" class="B"/><path d="M1049.48,245.87c6.59,7.32,18.97,22.32,15.2,36.97-5.29,20.58-19.87,39.44-47.84,39.44s-43.39-20.75-47.3-39.44" stroke-width="6.2"/></g><path d="M1561.47,553.96c-1.9-6.4-8.97-9.63-15.06-6.89-5.64,2.54-11.98.53-18.06,1.92-6.89,1.57-12.76,11.32-13.62,18.33-.04.32-.15.61-.2.92-3.24,7.07-10.22,10.89-13.89,12.44-15.73,4.32-46.42,9.19-57.3-14.54-4.44-20.87-15.78-42.59-16.54-43.1,0,0-1.67-2.51-6.97,3.07-4.7,4.94,17.66,38.29,22.84,45.85,31.34,50.92,102.29,25.71,102.29,25.71,23.2-6.21,21.01-28.59,16.52-43.71Z" class="D"/><g class="C E F H"><g class="G"><path d="M884.18 1308.1l194.45.02m-245.51 27.2h326.41m-296.28-54.84l95.92.02m-79.73 82.05h160.13m-188.65 27.22h155.73m152.04 0h25.68M885.02 1417h141.02m146.05 0h22.82m-33.7 27.22h46.87m-357.16 0h155.73m-61.37 27.22H1016M1456.37 664h117.73m-125.54 27.14h140.05M1448 718.28h132.94m-132.38-81.54h159.58m-28.18 108.93H1444.1m118.42 54.04h-127.35m18.13-27.14h122.2m-171.02 54.28h140.89M1337.8 528.2h68.35m-61.65 27.15h63.89m39.05-27.15h142.29m32.36 0h18.69m-190.82 27.15h138.93m-229.33 27.14h61.66m-91.79-81.55h100.16m-205.61 27.26h21.67m-23.62 27.15h33.33m-23.01 27.14h40.17m-40.17 26.78h63.61m-88.3 27.1h45.19m209.24-135.43h162.23m-158.46-27.34h136.7m-236.02 0h72.53m-26.78 136.28h39.48m-930.83 79.58H674.1m-147.3 27.22h151.49M532.38 743.9h149.68m-140.19 27.23h143.39m-134.47 27.22h137.82M561.4 825.58h128.89M573.11 852.8h119.97m-106.02 27.25h106.02m-90.4 27.22h92.77m-76.03 27.23h76.86m-56.77 27.22h56.77m-34.45 23.23h34.66M509.5 526.11h124.99m-125.54 27.22h132.09m-130.98 27.23h140.19m-138.79 27.22h145.49m-143.54 27.23h149.4m-145.22 27.22h150.66m-251.93 475.48h46.87m-21.2 27.22H554.7m-116.62 27.23h121.08m-149.53 27.22h159.58m-177.44 27.25h154m-119.4 27.22h102.66m-49.1-272.26h63.61"/><path d="M481.05 1028.81h78.39m292.62 119.62h47.85M781.06 410.47h243.73M789.6 437.7h221.79m-213.66 27.22h217.01m-203.19 27.22h54.22m20.92 27.23H988.8m-97.65 27.22h89.28m-129.73 0h-18.69m63.61 27.23h84.25m-78.67 27.24h77.55m-72.53 27.11h77.56m-69.75 27.23h54.12m-96.53 27.22h31.25m47.99 0h55.51m-128.95 34.12h45.26m22.53 0h72.88m29.85-115.4h68.07m-79.23 27.23h86.77m-90.12 27.22h97.65m-89.56-108.85h91.23m-93.74 27.23h82.58m-61.37 108.85h91.22m-60.54 33.72h70.59m-38.78 27.22h54.68M767.24 328.8h121.12m-118.28 27.22h148.41m-151.25-54.56H873.3m-97.12 81.79h189.18m138.94 27.22h174.64m-189.71 27.23h197.52m-225.42 27.22h176.32"/><path d="M1051.29 492.14h113.82m-113.82 27.23h87.04m4.47-190.57h103.78m-119.69 27.22h106.85m-79.23-54.56h89.28m55.93 0h29.3m-213.01 81.79h118.29m35.71-136.05h48.35m-27.43 27.22h22.6m-68.07-54.56h40.17m63.58 27.34h33.51m-43.52-27.34h26.22m-140.05-27.34h44.64m62.49 0h11.72m-109.36-26.99h35.15m38.5 0h16.18m-71.33-28.55h32.27m76.27 273.49h141.73m-110.85 27.23h45.2m73.63 0h31.25m-249.41-100.53h75.32m-53.56 27.22h81.18m-72.43 18.86h121.64m-957.86-20.41h72.54m-98.76 27.22h111.03m-122.33 27.22h134.61M495 444.51h100.43m-82.86 27.22h97.51m-99.6 27.23h111.31M521.22 308.39h21.48m-34.31 27.22h41.01"/><path d="M547.73 254.06h37.66m-54.12 27.22h28.45m632.46 785.36h155.95m-143.4 27.22H1318m-87.33 27.23h63.61M1157.3 903.3h187.2m-173.25 27.22h162.37m-161.53 27.22h172.69m-171.85 27.23h172.96m-242.15 0h47.98m-140.05-78.75h83.14m27.34 0h35.15m-161.25 27.23h95.69m37.11 0h25.38m-148.69-54.57h70.86m-98.48 81.79h103.78"/><path d="M1108.2 960.67h42.69m20.36 51.52h179.11m-167.39 27.23h161.81m-286.8 27.22h83.14m-104.62 27.22h100.44m-157.35 0h21.48m-12.27 27.23h38.78m46.59 0h61.93m-43.8 27.34h43.8m-32.64 27.48h32.64m-14.23 27.34h14.23m-45.75-191.06h59.98m-82.02 27.23h76.44m27.11 327.6h-12.95m-430.59-786.4h84.72m-79.79 27.22h91.5m-85.92 27.23h99.32m-88.16 27.22h99.87m-95.41 27.22h100.02m-98.9 27.23h100.57m-96.11 27.22h87.04m26.23 0H933m22.32 0h29.57m-237.13 27.3h76.93m44.42.19l78.4-.39m40.17.39l15.62-.39m-260.57 27.42h75.33m-78.67 27.22h71.97m-73.09 27.23h62.21m53.85-54.45h82.58m-92.07 27.22h83.14m52.45-27.22h49.66m-34.6 27.22h45.76m-42.41 26.79h51.89m-209.24.44h81.47m-180.64 27.22h51.89m-45.62 27.23h40.18m-42.69 27.17h31.25m-28.74 27.23h25.95m-25.95 23.18h21.48m59.71-104.81h88.71m-97.08 27.23h85.92m-92.62 27.17h123.87m-130.84 27.23h109.92m-109.92 23.19l95.69.02m-98.2 27.2h117.45M670.76 417.27h68.07m-53.57 27.23h65.84m-44.63 27.22h54.68m-32.83 27.22h42.87"/><path d="M728.32 526.17h55.15m-55.15 27.22h70.77m-70.77-163.28h-73.19m15.63-163.35h51.05"/><path d="M685.26 253.99h27.9m-54.12 27.22h47.43m-47.33 27.22h50.12m-63.05 27.23h68.07m-70.86 27.22h74.62m52.31-225.9h69.47m-41.01-27.34h67.79m-25.32-19.25h52.94m45.82 0h68.84m-268.66 73.93h86.21m229.98-27.34h50.4m-152.89-27.34h25.02m71.79 54.68h71.42m-464.78 35.2H757.8m17.57 27.24h24.28m-31.81 27.23h20.09m-23.44 27.22h12.28m14.51-81.69h23.43M400.42 833.15h52.73m-52.73 27.23h56.08m-56.08 27.22h56.08m-46.87 27.23h57.47m-35.29 27.22H495M364.99 751.48h76.02m-73.23 27.23h76.16m-61.09 27.22h61.09m-78.95-108.85h70.58m-67.79 27.22h69.47m-66.12-54.84h61.1m-52.73-54.4h53.56m-59.7 27.22h55.52m-46.03-54.7h50.21"/><path d="M397.35 533.18h38.22M390.1 560.4h42.96m-27.9-54.84h27.07m-16.46-27.18h13.11m716.82-286.07h21.88m-170.41 0h73.09m80.35 27.22h31.8m-219.28 0h111.59m80.63 27.23h67.79m-293.49 0h158.74m-184.4 27.22h76.44m-23.72 27.22h-40.73m164.46-27.22h48.96m36.83 0h61.38m-131.68 27.22h27.62"/></g><path d="M940.46,326.29s13.74-25.04,22.11-35.64" class="B"/><path d="M824.56 519.37h33.11m23.16-27.23h119.68m552.39 117.74h68.77m-45.34-26.79h54.41" class="G"/><path d="M1337.39,244.9s41.71,5.58,40.59,40.17" class="B"/><path d="M961.46,295.67s5.66,15.31,19.72,27c12.78,10.63,32.49,18.27,61.19,8.71,0,0,13.87-5.5,25.95-20.41,6.38-7.87,12.25-18.35,15.34-32.04" class="G"/><path d="M781.49 1127.63c226.22 68.86 332.89 87.36 368.55 92.59 7.63 1.12 12.44 8.75 10.23 16.14l-8.27 68.67c-1.72 5.76-7.25 9.46-13.24 8.98-213.79-17.15-662.71-186.89-728.57-213.19a9.44 9.44 0 0 1-5.36-12.02l24.59-67.5a9.47 9.47 0 0 1 11.33-5.91h0l230.27 77.59" class="B"/></g><g clip-path="url(#A)" stroke-width="7.62" class="C E F H"><path d="M477.8 999.16l-.97 129.27m-26.26-126.61l-.97 117.41m-26.27-114.53l-.95 106.16m218.61-86.45l-.82 210.05m-26.37-200.28l-.85 200.19m-26.33-213.56l-.9 213.47m-26.29-222.26l-.93 146.54m-26.27-153.04l-.96 152.95m-26.26-155.1l-.96 136.78m245.82 28.22l-.88 66.45m-26.47-69.09l-.75 69m-26.51-106.53l-.71 106.44m-26.48-187.7l-.75 187.61m355.05-76.49l-.97 151.81m-26.26-149.15l-.96 149.06m-26.27-146.18l-.96 146.09m-26.3-139.41l-.92 106.29m-26.33-111.31l-.89 105.07m-26.39-134.73l-.84 134.64m-26.43-120.08l-.79 119.99m-26.53-162.08l-.72 161.99m-26.5-136.14l-.72 136.05M777 1134.56l-.64 102.68m382.02-10.88l-.86 109.23m-26.32-122.6l-.9 122.51m-26.3-131.3l-.93 110.04m-26.27-149.82l-.95 145.63m-26.27-147.78l-.95 147.69"/></g><g class="C E F H"><path d="M633.93 1028.28c8.37 19.25 28.87 52.31 47.29 80.56l34.73 51.68s45.2 58.59 85.37-93.74" class="B"/><path d="M676.36 1012.1h20.13m66.33 27.32h140.61m-145.63 27.22h215.93m-205.33 27.22h192.78m-200.03 27.23h153.16m-207.56 27.34h22.03m27.21 0h14.36m-173.24-109.11h66.95m-33.68 27.23h48.19m-7.81 27.22h28.45m-11.71 27.32h49.65M618.09 1012.1h22.05m105.94.09h11.16" class="G"/></g><path d="M1099.11 1342c-.48 0-.98-.02-1.47-.07-4.4-.39-8.38-2.47-11.21-5.86a16.39 16.39 0 0 1-3.78-12.07 16.43 16.43 0 0 1 16.45-15.06c.48 0 .98.02 1.47.07 9.08.8 15.8 8.84 15 17.92-.77 8.59-7.84 15.06-16.45 15.06z" fill="#fff"/><g class="D"><path d="M1099.09 1314.89l.95.04c5.82.52 10.12 5.66 9.6 11.48-.49 5.5-5.11 9.64-10.53 9.64-.31 0-.63-.01-.95-.04-5.82-.52-10.12-5.66-9.6-11.48.49-5.5 5.11-9.64 10.53-9.64m0-11.89h0c-11.71 0-21.33 8.8-22.37 20.48-.53 5.98 1.29 11.81 5.15 16.41a22.31 22.31 0 0 0 15.24 7.96 22.47 22.47 0 0 0 2 .09c11.71 0 21.33-8.8 22.37-20.48 1.1-12.34-8.05-23.28-20.39-24.38a22.47 22.47 0 0 0-2-.09h0z"/><path d="M1152.67 1354.41l1.9 36.53-13.26.69c-1.51-6.6-5.91-10.03-12.29-11.1a18.75 18.75 0 0 0-3.05-.26c-3.64 0-7.03 1.15-10.1 3.4-2.71 1.98-4.11 4.42-3.87 8.12l2.22 40.87c.6 11.21 6.55 17.52 17.91 18.81l.68 13.01-57.96 3.02-.67-12.82c2.17-.75 4.45-1.19 6.39-2.26 6.82-3.73 9.85-9.74 9.49-17.39l-2.31-43.33c-.09-1.47-.87-3.23-1.92-4.25-3.19-3.1-6.89-4.51-10.89-4.51-1.63 0-3.32.24-5.03.69-6.15 1.62-10.21 5.38-11.02 12.17l-13.35.7-1.9-36.4 109.03-5.68m11.26-12.5l-11.87.62-37.47 1.95-71.57 3.73-11.87.62.62 11.87 1.9 36.4.62 11.87 11.87-.62 13.35-.7 10-.52 1.18-9.95c.16-1.3.18-1.54 2.25-2.08.74-.2 1.41-.29 2-.29a3.7 3.7 0 0 1 1.1.15l2.14 40.6c.18 3.76-1.03 5.15-3.32 6.4-.29.14-1.27.43-1.98.64-.86.25-1.72.51-2.56.8l-8.48 2.91.47 8.95.67 12.83.62 11.87 11.87-.62 57.96-3.02 11.87-.62-.62-11.87-.61-11.63-.07-1.38-.53-10.06-10.01-1.13c-5.57-.63-7.09-2.2-7.37-7.63l-.64-12.59-1.48-26.82c.83-.4 1.48-.46 2-.46.34 0 .7.03 1.08.1 2.3.39 2.39.77 2.68 2.03l2.23 9.74 9.97-.52 3.68-.19 9.58-.5 11.87-.62-.62-11.87-.95-18.26-.95-18.26-.62-11.87h0z"/></g></svg>