<svg xmlns="http://www.w3.org/2000/svg" viewBox="0 0 2000 1625.14" xmlns:v="https://vecta.io/nano"><style><![CDATA[.B{stroke-miterlimit:10}.C{stroke-linecap:round}.D{stroke-width:4.58}.E{stroke:#ba0c2f}.F{stroke-width:9.15}.G{fill:none}.H{stroke:#fff}.I{fill:#ba0c2f}]]></style><defs><clipPath id="A"><path d="M434.58 744.63s-75.91 99.1-66.89 230.53c9.02 131.42 10.74 205.29 291.62 385.67 0 0 245.23 194.13 583.67 36.08 0 0 322.97-152.9 365.92-386.53 0 0 16.25-68.43-24.32-186.99l-.72 9.53c-3.06 54.22-13.22 116.16-34.8 150.44-32.38 51.43-51.43 63.81-51.43 85.71 0 0-4.31 25.69-17.84 54.83l-4.07 12.41c-.24.72.02 1.49.6 1.97 10.57 8.76 11.44 24.84 11.25 32.05-.03 1.1-1.46 1.48-2.07.56-7.72-11.73-18.1-12.58-23.44-12.09-1.19.11-1.79 1.51-1.01 2.41 3.81 4.42 3.82 14.28 3.65 18.32-.04.83-.94 1.26-1.66.86-14.25-7.92-24.74.37-24.74.37-14.9 12.49-33.29 21.75-55.9 24.49 0 0-18.32 9.71-8 14.49 13.99 6.47 12.98 13.98 11.74 17.15-.28.7-1.16.88-1.71.37-4.63-4.37-20.18-5.86-28.26-6.34-1.25-.08-1.71 1.58-.64 2.23 15.01 9.22 17.75 18.88 18.19 23.08.1.94-.91 1.54-1.71 1.04-24.41-15.03-45.92-2.74-45.92-2.74l-.77 9.57c-.24 2.96-2.79 5.22-5.75 4.99-7.57-.59-17.33 3.48-17.33 3.48-6.49 2.84-7.62 11.31-7.56 17.19.02 2.51-2.41 4.34-4.78 3.5-18.15-6.38-45.93 3.16-45.93 3.16-54.09 24.85-123.7 47.15-208.23 55.18 0 0-114.28 22.86-335.23-49.52 0 0-52.17-23.08-66.44-62.09-4.82-13.19-13.51-24.61-24.21-33.71-26.7-22.7-74.77-60.79-118.35-80.79-.33-.15-.71-.19-1.04-.04-4.45 2.08-6.91 14.53-7.53 18.01-.08.46-.61.69-1.02.46-16.41-8.98-7.03-38.32-4.75-44.71.19-.54-.28-1.11-.84-.98-8.46 1.93-18.17 8.93-21.05 11.11-.43.33-1.06.12-1.25-.39-7.97-21.57 5.4-40.53 9.54-45.68.39-.48-.03-1.18-.63-1.06-9.66 1.86-23.96 7.16-28.02 8.71a.81.81 0 0 1-1.09-.78c.56-14.37 10.87-28.46 13.8-32.19.66-.84.68-2.1-.12-2.81-4.11-3.6-20.79-6.07-24.84-6.62-.42-.06-.58-.52-.33-.86 13.81-19.05 4.83-52.88 4.83-52.88-8.57-29.52 4.76-69.52 4.76-69.52-6.67-34.28-1.9-55.24-1.9-55.24 11.43-31.43 4.76-55.24 4.76-55.24 2.86-15 2.23-32.41.33-48.31l-.56-1.85z" class="G"/></clipPath><path id="B" d="M575.39 598.55v957.43"/></defs><path d="M-71.33-75.01h2154.75v1788.3H-71.33z" fill="#fff"/><g clip-path="url(#A)" class="B C D E G"><path d="M638.26 607.57v948.41M617.3 586.09v969.89m-20.95-987.92v987.92"/><use href="#B"/><path d="M554.43 598.55v957.43m-20.95-957.43v957.43m-20.96-957.43v957.43m-20.96-957.43v957.43M365.83 598.55v957.43m104.78-957.43v957.43m-20.96-957.43v957.43m-20.96-957.43v957.43m-20.95-957.43v957.43m-20.96-957.43v957.43m649.65-952.28v952.28m-20.96-973.75v973.75m-20.95-991.79v991.79m-20.96-957.43v957.43M952.6 598.55v957.43m-20.95-957.43v957.43m-20.96-957.43v957.43m-20.96-957.43v957.43M764 598.55v957.43m-20.96-957.43v957.43m-20.96-957.43v957.43m-20.95-957.43v957.43m-20.96-957.43v957.43m-20.96-957.43v957.43m209.57-957.43v957.43m-20.96-957.43v957.43m-20.95-957.43v957.43m-20.96-957.43v957.43m-20.96-957.43v957.43m649.65-919.21v919.21m-20.96-940.68v940.68m-20.95-958.72v958.72m-20.96-957.43v957.43m-20.96-957.43v957.43m-20.95-957.43v957.43m-20.96-957.43v957.43m-20.96-957.43v957.43m-125.73-957.43v957.43m-20.96-957.43v957.43m-20.96-957.43v957.43m-20.95-957.43v957.43m-20.96-957.43v957.43m-20.96-957.43v957.43m209.57-957.43v957.43m-20.96-957.43v957.43m-20.95-957.43v957.43m-20.96-957.43v957.43m-20.96-957.43v957.43m377.22-957.43v957.43m-20.96-957.43v957.43m-20.96-957.43v957.43m-20.95-957.43v957.43m-20.96-957.43v957.43m-20.95-957.43v957.43m146.69-957.43v957.43m-20.96-957.43v957.43"/></g><g class="B E G"><path d="M439.43 744.63s-75.91 99.1-66.89 230.53c9.02 131.42 10.74 205.29 291.62 385.67 0 0 245.23 194.13 583.67 36.08 0 0 322.97-152.9 365.92-386.53 0 0 16.25-68.43-24.32-186.99l-.72 9.53c-3.06 54.22-13.22 116.16-34.8 150.44-32.38 51.43-51.43 63.81-51.43 85.71 0 0-4.31 25.69-17.84 54.83l-4.07 12.41c-.24.72.02 1.49.6 1.97 10.57 8.76 11.44 24.84 11.25 32.05-.03 1.1-1.46 1.48-2.07.56-7.72-11.73-18.1-12.58-23.44-12.09-1.19.11-1.79 1.51-1.01 2.41 3.81 4.42 3.82 14.28 3.65 18.32-.04.83-.94 1.26-1.66.86-14.25-7.92-24.74.37-24.74.37-14.9 12.49-33.29 21.75-55.9 24.49 0 0-18.32 9.71-8 14.49 13.99 6.47 12.98 13.98 11.74 17.15-.28.7-1.16.88-1.71.37-4.63-4.37-20.18-5.86-28.26-6.34-1.25-.08-1.71 1.58-.64 2.23 15.01 9.22 17.75 18.88 18.19 23.08.1.94-.91 1.54-1.71 1.04-24.41-15.03-45.92-2.74-45.92-2.74l-.77 9.57c-.24 2.96-2.79 5.22-5.75 4.99-7.57-.59-17.33 3.48-17.33 3.48-6.49 2.84-7.62 11.31-7.56 17.19.02 2.51-2.41 4.34-4.78 3.5-18.15-6.38-45.93 3.16-45.93 3.16-54.09 24.85-123.7 47.15-208.23 55.18 0 0-114.28 22.86-335.23-49.52 0 0-52.17-23.08-66.44-62.09-4.82-13.19-13.51-24.61-24.21-33.71-26.7-22.7-74.77-60.79-118.35-80.79-.33-.15-.71-.19-1.04-.04-4.45 2.08-6.91 14.53-7.53 18.01-.08.46-.61.69-1.02.46-16.41-8.98-7.03-38.32-4.75-44.71.19-.54-.28-1.11-.84-.98-8.46 1.93-18.17 8.93-21.05 11.11-.43.33-1.06.12-1.25-.39-7.97-21.57 5.4-40.53 9.54-45.68.39-.48-.03-1.18-.63-1.06-9.66 1.86-23.96 7.16-28.02 8.71a.81.81 0 0 1-1.09-.78c.56-14.37 10.87-28.46 13.8-32.19.66-.84.68-2.1-.12-2.81-4.11-3.6-20.79-6.07-24.84-6.62-.42-.06-.58-.52-.33-.86 13.81-19.05 4.83-52.88 4.83-52.88-8.57-29.52 4.76-69.52 4.76-69.52-6.67-34.28-1.9-55.24-1.9-55.24 11.43-31.43 4.76-55.24 4.76-55.24 2.86-15 2.23-32.41.33-48.31l-.56-1.85z" stroke-width="9.34"/><g class="C F"><path d="M1317.4 171.96s-122.04-73.16-210.56-57.39c-3.77.67-7.67.1-11.13-1.54-24.41-11.64-136.56-51.53-368.77 55.13 0 0-43.49-22.86-102.54-5.71 0 0-76.19 0-105.71-12.38 0 0-57.14-19.05-65.71 18.09s-35.24 86.66-35.24 86.66l-42.86 95.23s-44.76 119.04-12.38 163.8c0 0 34.75 69.49 102.37 34.1.65-.34 1.43.1 1.41.83-.12 5.46-.87 23.4-5.69 29.83 0 0-35.24 67.62-30.48 119.04 0 0 17.14 57.14 9.52 97.14 0 0 6.67 23.81-4.76 55.24 0 0-4.76 20.95 1.9 55.24 0 0-13.33 40-4.76 69.52 0 0 8.98 33.83-4.83 52.88-.25.34-.08.8.33.86 4.05.55 20.73 3.02 24.84 6.62.81.71.79 1.96.12 2.81-2.94 3.73-13.24 17.82-13.8 32.19a.81.81 0 0 0 1.09.78c4.06-1.54 18.35-6.85 28.02-8.71.61-.12 1.02.58.63 1.06-4.14 5.15-17.51 24.12-9.54 45.68.19.51.82.71 1.25.39 2.88-2.18 12.59-9.18 21.05-11.11.56-.13 1.03.44.84.98-2.28 6.39-11.67 35.72 4.75 44.71.41.22.94 0 1.02-.46.61-3.49 3.08-15.94 7.53-18.01.33-.15.71-.11 1.04.04 43.58 19.99 91.66 58.09 118.35 80.79 10.7 9.1 19.38 20.51 24.21 33.71 14.27 39.02 66.44 62.09 66.44 62.09 220.94 72.38 335.23 49.52 335.23 49.52 84.54-8.03 154.15-30.33 208.23-55.18 0 0 27.78-9.54 45.93-3.16 2.37.83 4.81-.99 4.78-3.5-.06-5.88 1.07-14.34 7.56-17.19 0 0 9.76-4.07 17.33-3.48 2.96.23 5.51-2.04 5.75-4.99l.77-9.57s21.51-12.29 45.92 2.74c.8.49 1.81-.1 1.71-1.04-.44-4.2-3.18-13.86-18.19-23.08-1.07-.66-.62-2.31.64-2.23 8.07.48 23.63 1.97 28.26 6.34.55.52 1.44.34 1.71-.37 1.24-3.17 2.25-10.67-11.74-17.15-10.33-4.78 8-14.49 8-14.49 22.61-2.74 41-12 55.9-24.49 0 0 10.49-8.29 24.74-.37.73.4 1.63-.03 1.66-.86.17-4.04.16-13.91-3.65-18.32-.78-.9-.18-2.3 1.01-2.41 5.34-.48 15.73.36 23.44 12.09.61.92 2.04.55 2.07-.56.19-7.21-.69-23.3-11.25-32.05-.58-.48-.84-1.25-.6-1.97l4.07-12.41c13.53-29.14 17.84-54.83 17.84-54.83 0-21.9 19.05-34.28 51.43-85.71s39.05-165.07 34.6-221.58 17.14-72.38 17.78-116.19c.63-43.81-46.35-78.73-46.35-78.73-5.08-16.51 17.78-38.09 17.78-38.09 93.33 33.65 118.73-36.19 118.73-36.19 40.63-83.81-41.9-132.69-48.25-160.63s-91.9-110.95-91.9-110.95c-22.86-19.52-29.52-50.47-29.52-50.47-6.67-52.38-38.57-60.95-38.57-60.95-49.05-10.48-92.06 42.06-92.06 42.06s-64.76-5.08-95.23 11.43"/><path d="M695.73,445.39s-7.92,28.53,12.46,52.56c3.98,4.7,9.97,7.25,16.12,7.07l18.45.28,74.09-61.85s1.53-39.13-24.5-55"/></g></g><path d="M915.14 521.08c.42-.05 32.64-4.02 50.87-10.16 6.33-2.13 10.65-8.05 10.54-14.73-.22-12.62-2.78-31.56-9.41-40.7-.32-.44-.07-1.03.47-1.09 6.46-.72 36.99-1.98 32.66 39.72-3.3 31.82-16.65 48.06-24.78 55.16-3.52 3.07-8.18 4.44-12.78 3.62-18.27-3.26-81.26-27.42-56.42-47.66 0 0 2.26 14.05 8.83 15.84h.03zm210.16-.43c23.2 2.88 31.98.28 33.64-.34.17-.06.36.05.42.22 6.08 19.72-66.06 31.75-66.06 31.75s-32.03 9.39-35.75-42.78c-3.58-50.26 22.15-53.12 29.64-52.9.79.02 1.2.93.65 1.5-3.49 3.6-12.49 13.92-11.54 23.86 1.17 12.31 2.34 28.72 19.93 32.82 7.98 1.86 24.9 5.36 29.08 5.88z" class="I"/><g class="E G F"><g class="B C"><path d="M905.17 514.19s3.35-11.92 11.11-27.56c14.47-29.18 44.25-71.33 96.14-73.24 79.7-2.93 128.93 29.89 142.41 107.83m-128.64-44.24s-2.64 23.73 3.52 58.02c6.15 34.28-7.03 86.15-7.03 86.15s-9.35 90.31-.33 107.06m-461.7 120.25s131.2 179.1 237.86 131.05c97.86-44.09 206.57-222.53 223.83-251.3.99-1.66 3.41-1.51 4.19.26 20.29 46.1 207.15 448.94 448.26 151.42m-330.51 33.98c-10.55 28.13 4.69 59.78 4.69 59.78 78.53 63.29 28.13 130.1 8.2 142.99s-71.5 100.8-71.5 100.8c-30.47 63.29-49.23 84.39-121.9 80.87s-142.99-100.8-159.4-169.95 97.28-193.39 97.28-193.39 20.23-30.34 25.92-69.42"/><path d="M940.34 851.75s55.98-1.84 74.55 27.78c3.42 5.45 11.09 6.03 15.57 1.42 12.82-13.19 35.84-32.72 59.9-32.72m-489.93 50.4s25.79 78.53 33.99 121.9 80.87 158.23 173.47 127.76m-51.69 4.33c10.05 18.99 52.94 93.22 102.09 78.88"/><path d="M634.42 1020.53s141.82 67.98 179.33 41.02m374.51 11.51s113.18-51.66 117.87-83.3m-249.57 278.83c16.71 3.11 85.81 12.72 121.71-32.4 0 0 85.56-4.69 109-90.25 0 0 144.17-76.18 195.74-230.9 0 0 51.57-48.06 62.12-86.73m-148.86-82.05s-89.08-295.36-220.35-351.62M689.07 662.06s-214.05 56.07-194.12 169.76m15.23-96.1s1.17-80.87 52.74-131.27 28.13-128.93 28.13-128.93-18.38-55.25 71.81-142.86m374.76-134.93s20.54 8.61 31.23 19.86c5.36 5.64 13.32 8 20.62 5.31 10.18-3.75 23.86-7.03 34.49-3.15 3.61 1.32 7.52 1.36 11-.26 15.64-7.3 57.6-25.17 68.5-12.38 13.48 15.82 59.19 12.31 76.77 37.8M673.69 815.42s75.6-123.95 89.66-190.76 159.99-175.81 159.99-175.81m213.91 18.46s64.46 43.37 80.87 72.67m24.61 3.52s44.54 33.99 56.26 97.28 59.78 147.68 59.78 147.68"/><path d="M1415.03 748.61s132.44 59.78 78.53 116.04m-16.41-22.28s11.72-32.82-15.24-45.71m-229.73-93.76s24.61 79.7 80.87 83.22M723.5 822.45s50.4 36.33 132.44-52.74M722.33 871.68s90.25 71.5 158.23-58.6m297.71-62.13s55.09 118.38 147.68 91.42m-593.07-78.52s79.7-65.64 117.21-161.75c0 0 8.2-11.72 21.1-18.75 12.89-7.03 26.9-37.6 26.9-37.6m57.48-190.96s44.54-24.61 45.71-79.7m-207.45-48.06s109-50.4 151.2-44.54m9.96-35.16s-14.65 33.99 5.27 60.95m467.66 172.3s43.37 49.23 26.96 118.38c0 0 2.34 33.99 19.93 55.09 17.58 21.1 32.82 92.59 32.82 92.59s2.34 19.93 29.3 32.82 5.86 59.78 5.86 59.78-7.03 15.24 4.69 30.47M956.75 373.54s-192 66.86-236.54 172.35m-74.73-115.32s62.31-125.32 164.92-157.19M634.52 492.42s5.15-29.63 57.34-34.14c1.8 2.71 16.75-66.35 110.64-72.36l18.85-.87M466.32 547.18s-45.8-74.6-29.98-109.76-17.58-54.5 21.1-77.36 24.61-70.32 73.84-68.57c31.67 1.13-52.74-91.42-52.74-91.42m1099.17 328.7s40.09-89.59-70.67-151.12c0 0-1.76-87.91-84.39-124.83m-428.4 832.17l29.38-199.59m72.44 315.79c30.92-5.59 177.84-36.53 217.78-71.96"/><path d="M1193.51 1053.35s28.13-37.51 4.69-78.53l-23.44 25.79m-343.43 26.95l-4.47-60.32a1.47 1.47 0 0 1 2.27-1.34l27.98 18.29m520.21-519.58s-9.76 60.72-35.54 58.96c-15.82-7.91-52.16-17-52.16-17l-28.72-40.14c-6.15-23.73 15.82-54.5 15.82-54.5s60.65-7.03 85.27 31.65c3.08 4.85 6.04 9.13 8.86 12.91 2.25 3.01 4.4 5.71 6.46 8.12 15.96 18.7 25.99 20.29 25.99 20.29"/></g><ellipse cx="1311.07" cy="458.43" rx="37.8" ry="42.19"/><path d="M1271.45 419.41s13.74-36.08 59.7-17.18c42.55 17.5 45.53 36.72 45.53 36.72M554.64 880.24s-3.87-63.13 50.25-106.94C659 729.49 718.27 610.96 729.87 583.9s52.83-83.75 52.83-83.75m694.47-234.5s33.5-60.56 28.35-94.06 7.73 42.52 27.06 48.96m3.86 59.28s65.71 41.23 59.27 88.9 0 90.19 0 90.19m-1134.7-46.38s72.15-53.26 79.02-96.2m751.6-1.73s86.33 20.62 96.63 74.73c10.31 54.11 30.92 60.56 30.92 60.56m-545-21.9s161.06-76.02 336.28 19.33m-573.79 785.19s-26.38-125.74-84.02-191.85m-66.3-187.49s36.08 146.88 36.08 189.4 97.49 132.39 97.49 132.39m-97.49-288.29s41.23 43.81 48.96 78.6 57.98 112.09 95.34 124.98m845.66-634.78s25.77 104.79 56.69 118.54m-220.76 43.38s76.02 50.25 119.83 56.69M474.76 513.03s16.75-43.81 47.67-39.94m-5.15 15.46s16.75-45.1 18.04-65.71 20.62-124.98 76.02-158.48" class="B C"/></g><circle cx="758.45" cy="436.82" r="21.55" class="I"/><g class="B E G F"><path d="M782.7 144.54s-68.72 24.05-99.21 51.54m280.88 617.16s6.44-54.11-18.04-64.42-21.9-63.13-18.04-69.58c3.87-6.44-16.11-100.18-43.16-106.62m160.41 183.93s29.63-11.6 28.35-36.08c-1.29-24.48 11.6-39.94 15.46-42.52 3.87-2.58 37.36-42.52 39.94-51.54s6.44-5.15 19.33-15.46c12.88-10.31 5.15-23.19 9.02-30.92s11.6-12.88 16.75-14.17m-23.2 692.86c11.6-6.64 31.03-20.72 34.79-46.49" class="C"/><path d="M758.86,493.06c-25.26,0-45.74-20.33-45.74-45.42s20.48-45.42,45.74-45.42,45.74,20.33,45.74,45.42v3.42"/></g><circle cx="1310.04" cy="453.46" r="21.55" class="I"/><g class="G B"><g class="C D E"><path d="M1525.05 212.54h21.69m-63.77 0h31.56m-100.07 0h34.36m-239.22 0h49.39m-221.61 0h118.54m-364.63 0h75.15m-203.36 0h41.66m-227.73 0h36.4m-76.66 0h21.9m1088.74 20.96h23.4m-76.87 0h34.46m-131.96 0h70.44m-243.95 0h88.48m-257.48 0h43.81m-612.23 0h64.86m-123.91 0h34.79m1104.2 20.95h25.12m-108.87 0h61.2m-144.74 0h54.55m-395.56 0h25.77m185.54 0h45.52m-854.66 0h119.18m999.83 20.96h29.42m-115.1 0h35.43m-110.16 0h41.23m-149.46 0h30.92m-292.05 0h34.36m-240.94 0h20.19m-92.34 0h55.4m-240.29 0h28.99m-155.26 0h115.96m-148.81 0h12.24m1168.62 20.96h20.83m-91.91 0h47.56m-153 0h80.96m-158.48 0h24.05m-92.77 0h14.82m-259.19 0h51.96m8.59 0h14.39m75.16 0h30.49m-232.56 0h21.47m-185.53 0h60.12m10.1 0h19.75m-344.23 0h30.07m-154.19 0h112.96m-141.95 0h15.25m1173.34 20.95h23.2m-173.94 0h78.16m-157.4 0h29.63m-226.12 0h72.15m-99.53 0h17.39m-133.46 0h92.77m-150.32 0h34.36m-210.45 0h103.08m10.31 0h25.98m-383.15 0h9.29m-48.43 0h29.96m-118.54 0h63.14m-86.97 0h9.66m1222.09 20.96h-21.26m-10.31 0h7.73m-146.24 0h73.23m31.35 0h7.3m-196.91 0h25.77m-77.96 0h35.44m-200.36 0h107.37m-241.79 0h102.64m-179.52 0h57.55m-237.93 0h133.99m13.21 0h19.33m-431.09 0h68.71m-157.19 0h61.2m-83.1 0h11.59m621.89-230.52h51.97m-102.21 0h20.4m-105.01 0h64.42m495.62 20.95h54.12m-383.1 0h97.06m-284.32 0h44.67m-160.2 0h35.65m631.34 20.96h17.39m-111.45 0h27.7m-260.91 0h109.52"/><path d="M771.1 149.67h199.28m516.45 20.96h31.25m-80.21 0h25.77m-68.93 0h19.32m-265.85 0h54.98m-323.83 0h99.64m-353.89 0h134.85m-306.65 0h12.89m1024.53 20.95h34.46m-107.26 0h25.77m-314.38 0h103.07m-212.59 0h52.83m11.16 0h14.6m-285.39 0h161.7m-326.4 0h82.24m-284.74 0h18.68m22.55 0h8.37m1120.31 167.65h33.49m-89.97 0h15.03m-88.69 0h48.32m-135.29 0h18.68m-59.91 0h30.28m-175.01 0h86.32m-137.86 0h29.2m-200.13 0h143.44m-382.45 0H910.9m-360.98 0h15.03m-75.59 0h42.95m-116.61 0h59.92m-82.03 0h11.16m1210.71 20.96h50.46m-126.05 0h37.8m-82.46 0h16.32m-91.91 0h32.21m-79.03 0h31.36m-231.07 0h173.52m-241.8 0h13.31m-138.72 0h106.08m-240.94 0h52.83m-172.65 0h57.33m-82.98-83.82h38.53m-47.88 20.95h43.59m-55.09 20.96h22.44m-63.99 0h21.05m11.06 20.95h23.29m-70.43 0h12.03m18.03 20.96h26.63m-67 0h12.03m-78.6 0h29.85m-100.71 0h40.37m-124.55 0h49.82m1210.28 20.96h30.92m-88.26 0h17.4m-70.87 0h31.78m-139.36 0h28.99m-69.58 0h21.26m-79.67 0h41.66m-185.53 0h96.63m-160.2 0h26.63m-206.15 0h160.63m-299.57 0h55.62m-135.5 0h65.92m-98.13 0h20.61m-68.5 0h17.61m-209.16 0h19.76m-68.29 0h33.5m-59.91 0h11.27m1266.22 20.95h34.36m-97.82 0h22.66m-56.16 0h17.94m-140.02 0h37.37m-77.74 0h20.4m-81.81 0h48.53m-92.98 0h46.59m-117.24 0h48.74m-294.09 0h138.19m-182.31 0h23.19m-141.73 0h32.21m-262.2-20.95h25.13m-32.22 20.95h19.98m-75.38 0h11.6m167.82 0h11.7m-32.64 0h11.92m74.73 0h29.52m-166.85 0h21.05m-238.15 0h55.83m-79.24 0h9.66m-31.56 0h11.92m1167.43 125.74h16.65m-104.69 0h65.28m-210.87 0h70.22m-162.35 0h63.78m-96.42 0h13.1m-336.07 0h311.16m-381.38 0h38.65m-97.27 0h16.53m-54.22 0h8.48m-173.72 0h60.55m-178.45 0h71.08m984.81 20.96h86.97m-232.25 0h69.26m13.85 0h18.04m-159.23 0h31.35m-56.69 0h25.34m-75.87 0h19.29m-351.43 0h310.3m-389.11 0h28.56m-92.13 0h18.9m-50.25 0h12.89m-177.38 0h65.71m-124.12 0h19.76m991.46 20.95h80.09m-219.03 0h53.25m-134.42 0h55.83m-134.64 0h10.3m12.23 0h25.52m12.72 0h4.72m-352.49 0h268.31m-315.66 0h36.72m-117.47 0h31.78m-77.95 0h21.26m-63.99 0h19.76m-178.02 0h77.95m-133.14 0h15.89m1014.65 20.96h86.97m-130.78 0h21.26"/><path d="M1444.31 589.75h12.89m-112.74 20.96h45.09m-119.82 0h47.03m-87.83 0h24.05m-66.14 0h21.04m-309.22 0h267.99m-336.93 0h36.4m-118.21 0h28.77m-79.67 0h20.62m-45.74 0h15.46m-188.11 0h71.51m-124.98 0h11.59m1028.83 20.96h101.78m-147.31 0h17.18m-114.24 0h51.75m-117.03 0h46.17m-79.67 0h14.6m-76.02 0h24.91m-307.08 0h243.09m-284.32 0h17.61m-71.72 0h39.94m-104.36 0h47.02m-116.6 0h33.5m-54.12 0h10.63m-166.53 0h67m-124.55 0h12.24m1043.86 20.95h94.48m-178.88 0h36.08m-92.55 0h26.2m-105.66 0h58.63m-109.52 0h27.06m-84.4 0h28.35m-285.39 0h229.99m-294.41 0h42.3m-93.84 0h40.91m-95.03 0h27.71m-101.79 0h30.92m-220.97 0h72.16m-113.6 0h15.46m1050.94 20.96h87.62m-226.34 0h29.85m-99.86 0h47.68m-117.9 0h43.81m-98.57 0h22.55m-60.56 0h13.86m-233.54 0h202.93m-271.64 0h18.89m-77.73 0h33.07m-87.19 0h30.28m-104.68 0h31.89m-208.73 0h63.45m-108.98 0h15.25m1223.38-230.52h29.2m-102.64 0h34.35"/><path d="M1573.8 443.06h9.83m-138.67 0h37.36m-87.61 0h34.14m-67.64 0h25.77m-63.14 0h19.65"/></g><path d="M1287.66 443.06h18.14" class="C D H"/><g class="E"><path d="M1240.09 443.06h21.26m-208.24 0h102.59m-130.45 0h13.36m-92.28 0h65.06m-109.73 0h30.07m-274.66 0h39.94m-76.23 0h22.76m-76.66 0H589m-97.49 0h39.94m-120.47 0h43.16m-88.26 0h13.53m1296.18 20.96h22.76m-117.14 0h47.14m-113.17 0h28.34m-95.99 0h40.59m-110.16 0h45.74m-178.45 0h14.17m65.71 0h21.26m-417.24 0h255.54m-306.22 0h38.65m-292.04 0h68.71m23.84 0h72.15m-220.97 0h39.95m-123.05 0h40.58m-104.79 0h32.64m-90.19 0h21.47m1199.33 20.95h34.58m12.24 0h8.37m40.8 0h19.33m-180.06 0h34.46m-114.02 0h52.82m-121.11 0h11.6m21.04 0h26.84m-178.66 0h21.47m9.02 0h55.83m-296.77 0h161.49m-288.61 0h96.2m-157.19 0h42.95m-219.04 0h21.26m-77.09 0h37.15m76.98 0h31.25m-208.09 0h44.46m-127.56 0h41.23m-92.55 0h26.84m-86.97 0h20.18m1285.87 20.96h19.12m-106.3 0h16.32m11.17 0h9.44m-91.05 0h19.97m-111.45 0h66.04m-139.91 0h60.13m-156.97 0h21.25m-114.24 0h47.25m-178.67 0h118.97m-269.29 0h113.81m-173.08 0h41.23m-112.95 0h15.89m-93.84 0h31.39m-59.95 0h15.03m-52.4 0h24.48m-83.74 0h45.95m-137 0h28.34m-66.14 0h26.63m-87.62 0h16.32m1255.38 20.95h27.06m-89.87 0h36.61m-79.02 0h21.47m-108.87 0h61.63m-133.14 0h30.28m-122.41 0h75.38m-167.5 0h60.56m-354 0h281.85m-320.61 0h28.77m-80.1 0h43.81m-105.65 0h15.46m-109.95 0h15.46m12.89 0h46.81m-175.66 0h43.81m-173.94 0h55.4m-91.48 0h16.75m1186.23 272.44h-17.61m-123.04 0h84.39m-170.72 0h41.23m-85.68 0h21.9m-156.76 0h82.03m-118.53 0h15.03m-209.59 0h179.53m-223.34 0h32.22m-56.27 0h10.31m-51.97 0h26.42m-77.09 0h32.64m-181.25 0h60.99m-175.66 0h80.75m-131.96 0h19.54m961.5 20.95h76.02m41.87 0h13.53m-220.97 0h39.3m-93.41 0h22.12m-166.64 0H1265m-334.13 0h179.73m-270.57 0h24.48m-71.57 0h31.63m-133.59 0h14.56m171.21 0h14.82m-372.15 0h79.67m-115.31 0h10.73m1072.85 62.87h17.18m-67 0h25.34m-123.26 0h72.58m-113.81 0h20.18m-106.94 0h32.64m-129.7 0h54.54m-328.12 0h235.35m-295.26 0h35m-78.11 0h25.93m-134.65 0h30.93m-167.18 0h57.66m-90.19 0h22.98m-51.33 0h17.4m-46.82 0h11.38m1066.84 20.96h20.18m-86.32 0h35.64m-102.64 0h45.95m-111.66 0h41.23m-194.13 0h93.63m-225.69 0h99.42m-209.59 0h85.68m-175.87 0h66.14m-106.72 0h21.9m-118.75 0h79.45m-233.85 0h61.84m-130.13 0h34.15m11.27 0h11.6m-93.74 0h26.2m1052.87 20.96h17.83m-95.78 0h33.07m-116.82 0h57.55m-96.2 0h28.35m-159.77 0h68.72m20.18 0h15.25m-259.41 0h109.73m-197.56 0h57.55m-198.42 0h99.64m-214.74 0h73.23m-205.83 0h69.04m-127.91 0h23.11m-81.17 0h45.31m1008.21-230.52h48.1m-212.59 0h54.11m-119.82 0h43.81m-130.14 0h54.12m-99.21 0h22.55m-58.63 0h12.24" class="C D"/><path d="M907.67 694.54h190.69m-249.31 0h31.57m-108.88 0h61.2m-119.18 0h36.72m-116.81 0h45.52m-211.52 0h64.64m-102.22 0h19.54m1088.52 20.95h39.09m-189.4 0h59.05m-139.15 0h46.38m-132.06 0h52.82m-102.43 0h10.95m-47.67 0h9.02m-237.93 0h185.17m-228.98 0h17.18m-118.75 0h80.09m-138.72 0h43.81m-139.15 0h62.27m-206.58 0h61.85m-88.91 0h12.24m1079.08 20.96h47.24m-181.67 0h50.68m25.77-.43h26.74m-173.2.43h39.52m-132.71 0h54.75m-116.17 0h27.92m-90.19 0h45.09m-91.91 0h11.6m-167.5 0h140.87m-191.55 0h25.77m-70.65 0h19.33m-79.24 0h31.56m-89.54 0h46.38m-159.77 0h80.75m-217.75 0h13.31m1089.6 20.95h46.38m-179.95 0h63.13m8.16 0h12.46m-159.77 0h38.66m-130.14 0h59.91m-145.37 0h48.95m-214.41 0h75.58m-119.28 0h32.42m-55.18 0h14.17m-47.25 0h16.75m-76.66 0h45.74m-90.19 0h24.48m-82.14 0h44.13m-94.05 0h38.97m-162.02 0h83.75m-164.06 0h43.37m-76.87 0h10.73m1118.37 20.96h18.47m-157.62 0h89.55m-168.14 0h30.92m-122.4 0h62.49m-153.11 0h58.98m-279.09 0h182.31m-216.89 0h26.85m-61.2 0h15.89m-78.6 0h47.24m-96.63 0h28.35m-75.49 0h16.75m-82.56 0h53.25m-168.78 0h77.73m-140.44 0h24.7m990.6 272.43h15.46m-22.76 0h7.3m-91.02 0h36.9m-246.72 0h91.25m27.27 0h15.68m32.26-.6l24.34.6m-450.22 0h80.97m-255.99 0h123.48m-293.12 0h122.4m-215.6 0h44.24m939.7 20.96h21.91m-115.96 0h75.59m-143.45 0h25.77m-212.81 0h154.4m-364.42 0h95.68m-417.14 0h273.79m-368.71 0h44.67m922.95 20.96h26.2m-137.43 0h82.03m-313.09 0h200.78m-407.79 0h97.84m-405.78 0h234.49m-338 0h52.61m899.98 20.95h27.49m-155.13 0h81.69m-305.36 0h189.76m-386.47 0h125.41m-417.45 0h234.49m-325.54 0h45.52m877.86 20.96h24.02m-172.37 0h101.11m-317.82 0h187.57m-358.5 0h110.16m-395.55 0h214.95m-336.71 0h36.08m31.78 0h25.34m677.92 20.95h128.22m-339.3 0h152.36m-315.89 0h137.01m-393.72 0h188.11m-290.12 0h27.49m694.9 20.96h113.39m-185.07 0h44.2m-150.48 0H1163m-297.69 0h217.12m-290.72 0h52.21m-179.12 0h106.94m-194.77 0h21.48m952.8-230.52h19.54m-98.13 0h40.58m-207.87 0h139.59m-344.66 0h129.49" class="C D"/><path d="M1256.84 946.01h26.42m-296.56 0h46.6m-237.08 0h137.22m-221.61 0h37.8m-160.85 0h93.85m-197.57 0h53.48m1003.69 20.96h20.83m-100.07 0h44.67m-171.36 0h99.64m-326.62 0h149.67m20.4 0h25.13m-322.12 0h41.88m-366.56 0h257.69m-323.4 0h39.08m-137.44 0h57.77m981.79 20.95h19.55m-98.78 0h38.22m-287.32 0h216.24m-315.02 0h77.73m-203.14 0h43.59m-163.85 0h24.91m-113.09 0h56.4m-227.63 0h77.31m-183.82 0h68.51m955.38 20.96h19.75m-99.64 0h53.69m-107.8 0h30.28m-206.8 0h136.15m-234.5 0h69.58m-182.1 0h27.48m-180.27 0h23.94m-146.23 0h108.44m-261.56 0h130.05m-201.77 0h42.09m965.69 20.96h19.54m-106.08 0h63.99m-91.05 0h13.74m-199.27 0h130.56m-223.33 0h76.44m-237.28 0h63.77m-278.3 0h150.1m-306.65 0h129.06m-210.44 0h40.8" class="C D"/><path d="M496.66 1029.84h43.81m720.24 167.65h108.66m-289.84 0h139.95m-343.24 0h194.75m-262.96 0h50m-175.19 0h104.37m-184.47 0h40.8m589.15 20.95h115.63m-176.51 0h33.5m-132.21 0h63.92m-258.05 0h185.94m-234.54 0h27.89m-167.69 0H800.3m-168.35 0h22.33m505.29 20.96h158.69m-256.65 0h67.68m-236.67 0h157.55m-350.36 0H881.7m-240.3 0h18.03m486.61 20.96h138.72m-239.43 0h62.91m-200.26 0h126.2m-328.79 0h191.84m-248.53 0h33.93m30.92 20.95h536.85m-577.44 0h20.83m66.14 20.96h420.04M465.09 736.45h54.12m1055.45 104.78h18.47m-51.97 0h20.19m-117.04 0h83.97m-159.77 0h55.98m-100.36 0h23.89m-162.9 0h82.57m-119.08 0h21.05m-232.78 0h193.27m-216.68 0h11.17m-95.56 0h54.11" class="C D"/><path d="M718.92 841.23h80.53m-281.74 0h92.33m-129.27 0h17.82m1074.78 20.96h13.74m-58.83 0h24.91m-77.31 0h37.36m-100.49 0h43.8m-266.28 0h143.45m-405.43 0h200.14m23.41 0h12.66m-279.37 0h19.97m15.46 0h10.74m-115.1 0h50.89m-359.48 0h114.03m-143.23 0h10.09m-71.72-607.74h18.04" class="C D"/><path d="M1429.5 694.54h17.6M572.36 925.06h7.41m345.94-565.83h22.34m-167.5 964h360.98m-274.23 20.95h230.21m50.67-565.82h11.17" class="C D"/><path d="M1081.04 1497.58c-.29 0-.51-.01-.69-.01h-44.57c-.37 0-.64-.1-.91-.36-5.47-5.24-11.61-9.5-18.51-12.64-6.06-2.76-12.39-4.46-19.03-5-3.55-.29-7.07.04-10.58.56-6.16.91-12.05 2.72-17.62 5.5-6.25 3.12-11.84 7.1-16.22 12.62-2.94 3.71-4.95 7.86-5.81 12.54-.74 4.04-.34 8.01.8 11.92 2.31 7.88 6.85 14.24 13.3 19.26 5.99 4.65 12.76 7.57 20.2 8.94 5.15.95 10.35 1.06 15.57.76a69.1 69.1 0 0 0 13.26-2.09c5.98-1.52 11.52-3.94 16.35-7.86 4.22-3.42 7.58-7.51 9.83-12.47.07-.15.12-.31.22-.54h-60.74v-18.16h.8 108.32.62c.84 0 1.01.13 1.1.99 1.01 9.14-.69 17.7-5.49 25.61-3.47 5.71-7.89 10.56-13.06 14.75-6.37 5.16-13.46 9.13-20.95 12.41-6.59 2.89-13.42 5.07-20.41 6.72-5.12 1.21-10.29 2.11-15.51 2.75-7.74.95-15.51 1.39-23.31 1.23-3.28-.07-6.56-.34-9.82-.69-3.62-.38-7.23-.85-10.82-1.45-6.75-1.13-13.36-2.83-19.78-5.23-11.7-4.38-22.37-10.49-31.27-19.34-5.72-5.69-10.27-12.21-13.05-19.88-1.82-5.03-2.3-10.22-1.96-15.52.38-5.89 2.57-11.13 5.62-16.07 3.65-5.91 8.44-10.77 13.86-15.06 6.24-4.94 13.07-8.85 20.36-11.99 7.22-3.12 14.69-5.49 22.37-7.17 6.49-1.42 13.04-2.36 19.67-2.87 6.87-.53 13.74-.61 20.61-.26 6.94.36 13.81 1.32 20.6 2.82 11.24 2.49 21.92 6.43 31.95 12.11 6.37 3.61 12.28 7.84 17.36 13.15 2.73 2.86 5.1 5.99 7.02 9.45.08.15.19.31.33.57z" class="F"/></g><g class="C D"><path d="M733.73 443.06h26.63" class="H"/><path d="M778.19 443.06h25.12" class="E"/><path d="M740.39 422.1h17.83" class="H"/><path d="M719.99 422.1h17.18m-22.12 20.96h16.75m544.37 0h9.66" class="E"/><path d="M1288.73 464.02h22.55" class="H"/><path d="M1274.88 464.02h11.6M1093.35 757.4h25.95" class="E"/></g></g></svg>