<svg width="1347" height="863" viewBox="0 0 1347 863" fill="none" xmlns="http://www.w3.org/2000/svg">
<rect width="1347" height="863" fill="#E6F5FE"/>
<g clip-path="url(#clip0_1690_87081)">
<path d="M317.2 134.2H193V210.7H317.2V134.2Z" fill="#505050"/>
<path d="M200.2 172C200.2 159.943 206.92 153.1 215.954 153.1C224.989 153.1 231.7 159.943 231.7 172C231.7 184.057 225.031 190.9 215.954 190.9C206.878 190.9 200.2 184.065 200.2 172ZM223.144 172C223.144 163.696 220.207 160.258 215.954 160.258C211.702 160.258 208.807 163.696 208.807 172C208.807 180.304 211.753 183.751 215.954 183.751C220.156 183.751 223.144 180.304 223.144 172V172Z" fill="white"/>
<path d="M238.9 172C238.9 159.943 245.62 153.1 254.655 153.1C263.689 153.1 270.4 159.943 270.4 172C270.4 184.057 263.731 190.9 254.655 190.9C245.578 190.9 238.9 184.065 238.9 172ZM261.844 172C261.844 163.696 258.907 160.258 254.655 160.258C250.402 160.258 247.508 163.696 247.508 172C247.508 180.304 250.453 183.751 254.655 183.751C258.856 183.751 261.844 180.304 261.844 172Z" fill="white"/>
<path d="M278.5 172C278.5 159.943 285.22 153.1 294.254 153.1C303.288 153.1 310 159.943 310 172C310 184.057 303.34 190.9 294.254 190.9C285.169 190.9 278.5 184.065 278.5 172ZM301.444 172C301.444 163.696 298.507 160.258 294.254 160.258C290.002 160.258 287.107 163.696 287.107 172C287.107 180.304 290.053 183.751 294.254 183.751C298.455 183.751 301.444 180.304 301.444 172V172Z" fill="white"/>
<path d="M373 134.2H326.2V210.7H373V134.2Z" fill="#C0C0C0"/>
<path d="M342.93 134.225C342.93 134.578 342.93 134.939 342.93 135.309C342.93 143.525 345.867 146.935 350.067 146.935C354.267 146.935 357.263 143.525 357.263 135.309C357.263 134.934 357.263 134.564 357.263 134.2H365.8C365.8 134.561 365.8 134.931 365.8 135.301C365.8 147.238 359.133 154 350.05 154C340.967 154 334.3 147.238 334.3 135.301C334.3 134.931 334.3 134.561 334.3 134.2L342.93 134.225Z" fill="#505050"/>
<path d="M354.772 206.884V174.7H338.8V181.561H346.201V206.884H338.808V210.7H362.2V206.884H354.772Z" fill="#505050"/>
</g>
<g clip-path="url(#clip1_1690_87081)">
<path d="M480.729 82H473.871C468.806 82 464.7 86.1198 464.7 91.2019V125.898C464.7 130.98 468.806 135.1 473.871 135.1H480.729C485.794 135.1 489.9 130.98 489.9 125.898V91.2019C489.9 86.1198 485.794 82 480.729 82Z" fill="#505050"/>
<path d="M612.128 82H605.271C600.206 82 596.1 86.1198 596.1 91.2019V125.898C596.1 130.98 600.206 135.1 605.271 135.1H612.128C617.193 135.1 621.3 130.98 621.3 125.898V91.2019C621.3 86.1198 617.193 82 612.128 82Z" fill="#505050"/>
<path d="M480.729 208.9H473.871C468.806 208.9 464.7 213.02 464.7 218.102V252.798C464.7 257.88 468.806 262 473.871 262H480.729C485.794 262 489.9 257.88 489.9 252.798V218.102C489.9 213.02 485.794 208.9 480.729 208.9Z" fill="#505050"/>
<path d="M612.128 208.9H605.271C600.206 208.9 596.1 213.02 596.1 218.102V252.798C596.1 257.88 600.206 262 605.271 262H612.128C617.193 262 621.3 257.88 621.3 252.798V218.102C621.3 213.02 617.193 208.9 612.128 208.9Z" fill="#505050"/>
<path d="M586.2 229.635H553.573C552.335 227.227 550.339 225.289 547.892 224.12V201.642H559.446V142.358H547.892V119.888C550.338 118.716 552.332 116.779 553.573 114.373H586.2V103.15H553.573C552.548 101.121 550.979 99.4148 549.039 98.2229C547.1 97.031 544.866 96.3999 542.588 96.3999C540.31 96.3999 538.076 97.031 536.137 98.2229C534.197 99.4148 532.628 101.121 531.603 103.15H498.9V114.373H531.528C532.649 116.553 534.397 118.352 536.548 119.538V142.358H524.986V201.642H536.548V224.462C534.397 225.652 532.649 227.452 531.528 229.635H498.9V240.858H531.528C532.553 242.885 534.123 244.589 536.061 245.779C538 246.969 540.232 247.6 542.509 247.6C544.785 247.6 547.017 246.969 548.956 245.779C550.894 244.589 552.464 242.885 553.489 240.858H586.167L586.2 229.635Z" fill="#C0C0C0"/>
</g>
<g clip-path="url(#clip2_1690_87081)">
<path d="M740.729 82H733.871C728.806 82 724.7 86.1198 724.7 91.2019V125.898C724.7 130.98 728.806 135.1 733.871 135.1H740.729C745.794 135.1 749.9 130.98 749.9 125.898V91.2019C749.9 86.1198 745.794 82 740.729 82Z" fill="#C0C0C0"/>
<path d="M872.128 82H865.271C860.206 82 856.1 86.1198 856.1 91.2019V125.898C856.1 130.98 860.206 135.1 865.271 135.1H872.128C877.193 135.1 881.3 130.98 881.3 125.898V91.2019C881.3 86.1198 877.193 82 872.128 82Z" fill="#C0C0C0"/>
<path d="M740.729 208.9H733.871C728.806 208.9 724.7 213.02 724.7 218.102V252.798C724.7 257.88 728.806 262 733.871 262H740.729C745.794 262 749.9 257.88 749.9 252.798V218.102C749.9 213.02 745.794 208.9 740.729 208.9Z" fill="#505050"/>
<path d="M872.128 208.9H865.271C860.206 208.9 856.1 213.02 856.1 218.102V252.798C856.1 257.88 860.206 262 865.271 262H872.128C877.193 262 881.3 257.88 881.3 252.798V218.102C881.3 213.02 877.193 208.9 872.128 208.9Z" fill="#505050"/>
<path d="M846.2 229.636H813.529C812.296 227.224 810.299 225.285 807.849 224.12V201.642H819.409V142.359H807.849V119.89C810.297 118.722 812.293 116.784 813.529 114.374H846.2V103.152H813.529C812.506 101.122 810.938 99.416 808.999 98.2237C807.06 97.0314 804.828 96.3999 802.55 96.3999C800.273 96.3999 798.04 97.0314 796.102 98.2237C794.163 99.416 792.595 101.122 791.572 103.152H758.9V114.374H791.572C792.693 116.555 794.44 118.353 796.591 119.539V142.359H785.031V201.642H796.591V224.463C794.44 225.652 792.693 227.453 791.572 229.636H758.9V240.858H791.572C792.597 242.885 794.166 244.589 796.104 245.779C798.043 246.969 800.274 247.6 802.55 247.6C804.826 247.6 807.058 246.969 808.996 245.779C810.935 244.589 812.504 242.885 813.529 240.858H846.2V229.636Z" fill="#C0C0C0"/>
</g>
<g clip-path="url(#clip3_1690_87081)">
<path d="M1000.73 82H993.871C988.806 82 984.7 86.1198 984.7 91.2019V125.898C984.7 130.98 988.806 135.1 993.871 135.1H1000.73C1005.79 135.1 1009.9 130.98 1009.9 125.898V91.2019C1009.9 86.1198 1005.79 82 1000.73 82Z" fill="#505050"/>
<path d="M1132.13 82H1125.27C1120.21 82 1116.1 86.1198 1116.1 91.2019V125.898C1116.1 130.98 1120.21 135.1 1125.27 135.1H1132.13C1137.19 135.1 1141.3 130.98 1141.3 125.898V91.2019C1141.3 86.1198 1137.19 82 1132.13 82Z" fill="#505050"/>
<path d="M1000.73 208.9H993.871C988.806 208.9 984.7 213.02 984.7 218.102V252.798C984.7 257.88 988.806 262 993.871 262H1000.73C1005.79 262 1009.9 257.88 1009.9 252.798V218.102C1009.9 213.02 1005.79 208.9 1000.73 208.9Z" fill="#C0C0C0"/>
<path d="M1132.13 208.9H1125.27C1120.21 208.9 1116.1 213.02 1116.1 218.102V252.798C1116.1 257.88 1120.21 262 1125.27 262H1132.13C1137.19 262 1141.3 257.88 1141.3 252.798V218.102C1141.3 213.02 1137.19 208.9 1132.13 208.9Z" fill="#C0C0C0"/>
<path d="M1106.2 229.636H1073.53C1072.29 227.224 1070.3 225.285 1067.85 224.12V201.642H1079.41V142.359H1067.85V119.89C1070.29 118.722 1072.29 116.784 1073.53 114.374H1106.2V103.152H1073.53C1072.5 101.122 1070.93 99.416 1069 98.2237C1067.06 97.0314 1064.82 96.3999 1062.55 96.3999C1060.27 96.3999 1058.04 97.0314 1056.1 98.2237C1054.16 99.416 1052.59 101.122 1051.57 103.152H1018.9V114.374H1051.57C1052.69 116.555 1054.44 118.353 1056.59 119.539V142.359H1045.03V201.642H1056.59V224.463C1054.44 225.652 1052.69 227.453 1051.57 229.636H1018.9V240.858H1051.57C1052.59 242.885 1054.16 244.589 1056.1 245.779C1058.04 246.969 1060.27 247.6 1062.55 247.6C1064.82 247.6 1067.05 246.969 1068.99 245.779C1070.93 244.589 1072.5 242.885 1073.53 240.858H1106.2V229.636Z" fill="#C0C0C0"/>
</g>
<g clip-path="url(#clip4_1690_87081)">
<path d="M348.834 342H246.195V497.275H348.834V342Z" fill="#505050"/>
<path d="M220.471 482.958C216.032 482.989 211.763 481.259 208.599 478.146C205.435 475.034 203.634 470.794 203.592 466.356V406.356H215.311V466.356C215.431 467.636 216.024 468.825 216.974 469.69C217.924 470.556 219.163 471.036 220.448 471.036C221.734 471.036 222.973 470.556 223.923 469.69C224.873 468.825 225.466 467.636 225.585 466.356V401.357C225.623 397.364 227.088 393.516 229.715 390.509C232.343 387.502 235.959 385.533 239.911 384.96V396.957C239.127 397.385 238.471 398.016 238.013 398.784C237.555 399.551 237.31 400.428 237.305 401.322V466.356C237.291 468.552 236.844 470.723 235.99 472.746C235.136 474.769 233.892 476.604 232.329 478.146C230.765 479.688 228.913 480.907 226.879 481.732C224.844 482.558 222.666 482.975 220.471 482.958" fill="#C0C0C0"/>
<path d="M215.32 384.764H203.601V406.481H215.32V384.764Z" fill="#505050"/>
<path d="M280.801 461.759L324.359 414.237H299.438L313.88 377.516L270.724 424.484H295.439L280.801 461.759Z" fill="white"/>
<path d="M370.801 507.317H194.8V522H370.801V507.317Z" fill="#C0C0C0"/>
</g>
<g clip-path="url(#clip5_1690_87081)">
<path d="M607.8 415.224H599.732V393.3H483.6V415.746V445.5H599.732H607.8V415.224Z" fill="#C0C0C0"/>
<path d="M574.5 362.7H508.8V374.088H533.17V383.4H551.189V374.088H574.5V362.7Z" fill="#505050"/>
<path d="M453 393.3V458.1H464.388V434.056H473.7V416.292H464.388V393.3H453Z" fill="#505050"/>
<path d="M632.1 415.8H616.8V470.7H632.1V415.8Z" fill="#505050"/>
<path d="M554.7 414H498V417.6H554.7V414Z" fill="white"/>
<path d="M554.7 423.9H498V427.5H554.7V423.9Z" fill="white"/>
<path d="M554.7 433.8H498V437.4H554.7V433.8Z" fill="white"/>
<path d="M607.8 445.5H483.6V469.941H498.889L514.748 501.3H600.259V469.941H607.8V445.5Z" fill="#505050"/>
</g>
<path d="M803.261 396.306C796.274 396.304 789.443 398.375 783.633 402.255C777.822 406.136 773.293 411.652 770.618 418.107C767.943 424.561 767.242 431.664 768.604 438.517C769.966 445.37 773.33 451.665 778.27 456.606C783.21 461.548 789.504 464.913 796.357 466.277C803.21 467.64 810.312 466.941 816.768 464.268C823.223 461.595 828.741 457.067 832.623 451.258C836.505 445.448 838.577 438.618 838.577 431.631C838.567 422.267 834.844 413.289 828.223 406.666C821.602 400.044 812.625 396.318 803.261 396.306V396.306Z" fill="#505050"/>
<path d="M816.419 444.816H810.398V429.516L803.594 440.685H802.919L796.115 429.516V444.816H790.094V418.491H796.115L803.261 430.191L810.398 418.491H816.419V444.816Z" fill="white"/>
<path d="M742.655 486.9H740.288V438.3H758.405C758.058 436.081 757.875 433.84 757.856 431.595C757.868 429.79 757.985 427.986 758.207 426.195H740.288V376.317H742.655C743.393 376.317 744.125 376.171 744.806 375.888C745.488 375.606 746.108 375.191 746.63 374.669C747.151 374.146 747.565 373.526 747.846 372.844C748.128 372.161 748.272 371.43 748.271 370.692V353.916C748.271 352.426 747.679 350.998 746.626 349.945C745.573 348.891 744.145 348.3 742.655 348.3H725.816C724.327 348.3 722.898 348.891 721.845 349.945C720.792 350.998 720.2 352.426 720.2 353.916V370.755C720.199 371.493 720.343 372.224 720.625 372.907C720.907 373.589 721.32 374.209 721.842 374.732C722.364 375.254 722.983 375.669 723.665 375.952C724.347 376.234 725.078 376.38 725.816 376.38H728.183V486.927H725.816C725.078 486.927 724.347 487.072 723.665 487.355C722.983 487.638 722.364 488.052 721.842 488.575C721.32 489.097 720.907 489.717 720.625 490.4C720.343 491.082 720.199 491.814 720.2 492.552V509.382C720.199 510.12 720.343 510.851 720.625 511.534C720.907 512.216 721.32 512.836 721.842 513.359C722.364 513.881 722.983 514.296 723.665 514.579C724.347 514.861 725.078 515.007 725.816 515.007H742.655C743.393 515.007 744.125 514.861 744.806 514.579C745.488 514.296 746.108 513.881 746.63 513.359C747.151 512.836 747.565 512.216 747.846 511.534C748.128 510.851 748.272 510.12 748.271 509.382V492.516C748.271 491.026 747.679 489.598 746.626 488.545C745.573 487.491 744.145 486.9 742.655 486.9V486.9ZM739.496 506.205H729.011V495.675H739.541L739.496 506.205ZM739.496 367.605H729.011V357.075H739.541L739.496 367.605Z" fill="#C0C0C0"/>
<path d="M811.091 486.9H808.724V476.667C806.911 476.896 805.087 477.016 803.261 477.027C801.039 477.012 798.822 476.831 796.628 476.487V486.9H794.252C793.514 486.9 792.782 487.045 792.1 487.328C791.418 487.611 790.799 488.026 790.278 488.548C789.756 489.07 789.342 489.69 789.061 490.373C788.779 491.055 788.635 491.787 788.636 492.525V509.355C788.635 510.093 788.779 510.824 789.061 511.507C789.342 512.189 789.756 512.809 790.278 513.332C790.799 513.854 791.418 514.269 792.1 514.552C792.782 514.834 793.514 514.98 794.252 514.98H811.091C811.829 514.98 812.56 514.834 813.242 514.552C813.924 514.269 814.543 513.854 815.065 513.332C815.587 512.809 816 512.189 816.282 511.507C816.563 510.824 816.708 510.093 816.707 509.355V492.516C816.707 491.026 816.115 489.598 815.062 488.545C814.009 487.492 812.58 486.9 811.091 486.9V486.9ZM807.932 506.205H797.411V495.675H807.932V506.205Z" fill="#C0C0C0"/>
<path d="M880.41 376.353C881.148 376.353 881.879 376.207 882.561 375.924C883.243 375.642 883.862 375.227 884.383 374.705C884.905 374.182 885.319 373.562 885.6 372.88C885.882 372.197 886.026 371.466 886.025 370.728V353.916C886.025 352.426 885.434 350.998 884.38 349.945C883.327 348.891 881.899 348.3 880.41 348.3H863.57C862.832 348.299 862.101 348.443 861.419 348.725C860.736 349.006 860.116 349.42 859.594 349.942C859.071 350.463 858.656 351.083 858.374 351.765C858.091 352.447 857.945 353.178 857.945 353.916V370.755C857.945 372.247 858.538 373.677 859.593 374.732C860.648 375.787 862.078 376.38 863.57 376.38H865.937V426.258H848.306C848.533 428.049 848.65 429.852 848.657 431.658C848.639 433.903 848.455 436.144 848.108 438.363H865.937V486.963H863.57C862.078 486.963 860.648 487.555 859.593 488.61C858.538 489.665 857.945 491.096 857.945 492.588V509.418C857.945 510.91 858.538 512.34 859.593 513.395C860.648 514.45 862.078 515.043 863.57 515.043H880.41C881.148 515.043 881.879 514.897 882.561 514.614C883.243 514.332 883.862 513.917 884.383 513.395C884.905 512.872 885.319 512.252 885.6 511.57C885.882 510.887 886.026 510.156 886.025 509.418V492.516C886.026 491.778 885.882 491.046 885.6 490.364C885.319 489.681 884.905 489.061 884.383 488.539C883.862 488.017 883.243 487.602 882.561 487.319C881.879 487.036 881.148 486.891 880.41 486.891H878.033V376.353H880.41ZM877.25 506.205H866.711V495.675H877.242L877.25 506.205ZM877.25 367.605H866.711V357.075H877.242L877.25 367.605Z" fill="#C0C0C0"/>
<path d="M794.252 376.353H796.628V386.766C798.822 386.421 801.039 386.241 803.261 386.226C805.087 386.237 806.911 386.357 808.724 386.586V376.353H811.091C811.829 376.353 812.56 376.207 813.242 375.924C813.924 375.642 814.543 375.227 815.065 374.705C815.587 374.182 816 373.562 816.282 372.88C816.563 372.197 816.708 371.466 816.707 370.728V353.916C816.707 352.426 816.115 350.998 815.062 349.945C814.009 348.891 812.58 348.3 811.091 348.3H794.252C792.762 348.3 791.334 348.891 790.281 349.945C789.227 350.998 788.636 352.426 788.636 353.916V370.755C788.641 372.241 789.234 373.665 790.287 374.714C791.339 375.764 792.766 376.353 794.252 376.353V376.353ZM797.411 357.048H807.932V367.578H797.411V357.048Z" fill="#C0C0C0"/>
<path d="M1082.79 468.504C1080.57 468.49 1078.35 468.291 1076.16 467.91V515.043H1088.25V468.126C1086.44 468.375 1084.62 468.501 1082.79 468.504V468.504Z" fill="#C0C0C0"/>
<path d="M1082.79 387.783C1084.62 387.797 1086.44 387.936 1088.25 388.197V348.3H1076.16V388.368C1078.35 387.994 1080.57 387.799 1082.79 387.783V387.783Z" fill="#C0C0C0"/>
<path d="M1031.9 357.075V367.605H1021.37V357.075H1031.9ZM1035.05 348.3H1018.22C1016.73 348.3 1015.3 348.891 1014.24 349.945C1013.19 350.998 1012.6 352.426 1012.6 353.916V370.755C1012.6 372.244 1013.19 373.673 1014.24 374.726C1015.3 375.779 1016.73 376.371 1018.22 376.371H1035.04C1036.53 376.371 1037.95 375.779 1039.01 374.726C1040.06 373.673 1040.65 372.244 1040.65 370.755V353.943C1040.65 352.453 1040.06 351.025 1039.01 349.972C1037.95 348.918 1036.53 348.327 1035.04 348.327L1035.05 348.3Z" fill="#C0C0C0"/>
<path d="M1031.9 403.281V413.811H1021.37V403.281H1031.9ZM1035.05 394.506H1018.22C1017.48 394.506 1016.75 394.652 1016.06 394.935C1015.38 395.217 1014.76 395.632 1014.24 396.154C1013.72 396.677 1013.31 397.297 1013.02 397.979C1012.74 398.662 1012.6 399.393 1012.6 400.131V416.943C1012.6 417.681 1012.74 418.413 1013.02 419.095C1013.31 419.778 1013.72 420.398 1014.24 420.92C1014.76 421.443 1015.38 421.857 1016.06 422.14C1016.75 422.423 1017.48 422.568 1018.22 422.568H1035.04C1035.78 422.568 1036.51 422.423 1037.19 422.14C1037.87 421.857 1038.49 421.443 1039.01 420.92C1039.53 420.398 1039.95 419.778 1040.23 419.095C1040.51 418.413 1040.65 417.681 1040.65 416.943V400.113C1040.65 399.375 1040.51 398.644 1040.23 397.961C1039.95 397.279 1039.53 396.659 1039.01 396.136C1038.49 395.614 1037.87 395.199 1037.19 394.917C1036.51 394.634 1035.78 394.488 1035.04 394.488L1035.05 394.506Z" fill="#C0C0C0"/>
<path d="M1031.9 449.496V460.017H1021.37V449.496H1031.9ZM1035.05 440.721H1018.22C1016.73 440.721 1015.3 441.312 1014.24 442.366C1013.19 443.419 1012.6 444.847 1012.6 446.337V463.176C1012.6 464.665 1013.19 466.094 1014.24 467.147C1015.3 468.2 1016.73 468.792 1018.22 468.792H1035.04C1036.53 468.792 1037.95 468.2 1039.01 467.147C1040.06 466.094 1040.65 464.665 1040.65 463.176V446.337C1040.65 444.847 1040.06 443.419 1039.01 442.366C1037.95 441.312 1036.53 440.721 1035.04 440.721H1035.05Z" fill="#C0C0C0"/>
<path d="M1031.9 495.702V506.232H1021.37V495.702H1031.9ZM1035.05 486.927H1018.22C1017.48 486.927 1016.75 487.072 1016.06 487.355C1015.38 487.638 1014.76 488.053 1014.24 488.575C1013.72 489.098 1013.31 489.718 1013.02 490.4C1012.74 491.082 1012.6 491.814 1012.6 492.552V509.382C1012.6 510.12 1012.74 510.852 1013.02 511.534C1013.31 512.216 1013.72 512.837 1014.24 513.359C1014.76 513.881 1015.38 514.296 1016.06 514.579C1016.75 514.861 1017.48 515.007 1018.22 515.007H1035.04C1035.78 515.007 1036.51 514.861 1037.19 514.579C1037.87 514.296 1038.49 513.881 1039.01 513.359C1039.53 512.837 1039.95 512.216 1040.23 511.534C1040.51 510.852 1040.65 510.12 1040.65 509.382V492.543C1040.65 491.805 1040.51 491.073 1040.23 490.391C1039.95 489.709 1039.53 489.089 1039.01 488.566C1038.49 488.044 1037.87 487.629 1037.19 487.346C1036.51 487.063 1035.78 486.918 1035.04 486.918L1035.05 486.927Z" fill="#C0C0C0"/>
<path d="M1082.79 397.863C1076.8 397.862 1070.94 399.636 1065.96 402.963C1060.98 406.29 1057.1 411.02 1054.8 416.555C1052.51 422.089 1051.91 428.179 1053.08 434.054C1054.25 439.93 1057.13 445.327 1061.37 449.563C1065.6 453.799 1071 456.683 1076.88 457.852C1082.75 459.02 1088.84 458.42 1094.38 456.126C1099.91 453.833 1104.64 449.95 1107.97 444.968C1111.29 439.986 1113.07 434.13 1113.07 428.139C1113.06 420.112 1109.86 412.417 1104.19 406.741C1098.51 401.066 1090.82 397.873 1082.79 397.863V397.863Z" fill="#505050"/>
<path d="M1087.58 436.986H1077.99L1076.71 441.045H1070.25L1079.03 415.242H1086.55L1095.32 441.045H1088.87L1087.58 436.986ZM1085.78 431.46L1082.76 421.983L1079.73 431.46H1085.78Z" fill="white"/>
<path d="M240.899 735.2C240.899 717.083 257.001 702.405 276.866 702.405C296.731 702.405 312.84 717.099 312.84 735.2H369.4V665.859H369.232V669.77H345.316C340.512 669.77 339.791 666.274 339.791 661.963L341.633 645.91C341.633 640.006 345.148 636.039 351.754 636.039H369.128V629H340.112C338.19 629.003 336.308 629.544 334.679 630.562C333.05 631.58 331.739 633.034 330.896 634.759C328.39 639.863 325.539 649.253 324.602 665.859H205.917C205.373 665.854 204.848 666.054 204.445 666.418C204.041 666.783 203.79 667.285 203.739 667.826C202.478 681.671 202.639 695.608 204.22 709.42H210.145V735.192L240.899 735.2Z" fill="#C0C0C0"/>
<path d="M277.15 769.4C293.801 769.4 307.3 755.901 307.3 739.25C307.3 722.598 293.801 709.1 277.15 709.1C260.499 709.1 247 722.598 247 739.25C247 755.901 260.499 769.4 277.15 769.4Z" fill="#505050"/>
<path d="M277.15 757.7C287.34 757.7 295.6 749.439 295.6 739.25C295.6 729.06 287.34 720.8 277.15 720.8C266.961 720.8 258.7 729.06 258.7 739.25C258.7 749.439 266.961 757.7 277.15 757.7Z" fill="#C0C0C0"/>
<path d="M210.1 735.2V709.1H196.6V726.192C196.603 728.492 197.488 730.704 199.072 732.371C200.656 734.038 202.819 735.033 205.114 735.151C205.276 735.151 205.43 735.2 205.591 735.2H210.1Z" fill="#505050"/>
<path d="M341.558 645.911L339.7 661.782C339.7 666.044 340.411 669.5 345.274 669.5H369.4V665.681L369.32 636.2H351.776C345.104 636.161 341.558 640.083 341.558 645.911Z" fill="#505050"/>
<path d="M309.1 615.5V655.1H319V615.5H309.1Z" fill="#505050"/>
<path d="M204.7 615.5V655.1H214.6V615.5H204.7Z" fill="#505050"/>
<path d="M283.9 641.6C286.882 641.6 289.3 639.182 289.3 636.2C289.3 633.217 286.882 630.8 283.9 630.8C280.918 630.8 278.5 633.217 278.5 636.2C278.5 639.182 280.918 641.6 283.9 641.6Z" fill="#505050"/>
<path d="M298.75 641.6C301.484 641.6 303.7 639.182 303.7 636.2C303.7 633.217 301.484 630.8 298.75 630.8C296.016 630.8 293.8 633.217 293.8 636.2C293.8 639.182 296.016 641.6 298.75 641.6Z" fill="#505050"/>
<path d="M254.2 641.6C257.182 641.6 259.6 639.182 259.6 636.2C259.6 633.217 257.182 630.8 254.2 630.8C251.217 630.8 248.8 633.217 248.8 636.2C248.8 639.182 251.217 641.6 254.2 641.6Z" fill="#505050"/>
<path d="M269.5 641.6C272.482 641.6 274.9 639.182 274.9 636.2C274.9 633.217 272.482 630.8 269.5 630.8C266.517 630.8 264.1 633.217 264.1 636.2C264.1 639.182 266.517 641.6 269.5 641.6Z" fill="#505050"/>
<path d="M224.95 641.6C227.684 641.6 229.9 639.182 229.9 636.2C229.9 633.217 227.684 630.8 224.95 630.8C222.216 630.8 220 633.217 220 636.2C220 639.182 222.216 641.6 224.95 641.6Z" fill="#505050"/>
<path d="M239.8 641.6C242.783 641.6 245.2 639.182 245.2 636.2C245.2 633.217 242.783 630.8 239.8 630.8C236.818 630.8 234.4 633.217 234.4 636.2C234.4 639.182 236.818 641.6 239.8 641.6Z" fill="#505050"/>
<path d="M524.438 618.613V624.613L502.575 624.613C498.075 624.613 494.4 628.25 494.4 632.788L494.4 763.475C494.4 767.975 498.038 771.65 502.575 771.65L583.425 771.65C587.925 771.65 591.6 768.013 591.6 763.475L591.6 632.788C591.6 628.288 587.963 624.613 583.425 624.613H561.563V618.613C561.563 615.163 558.788 612.388 555.338 612.388L530.663 612.388C527.213 612.388 524.438 615.163 524.438 618.613ZM577.688 638.525L577.688 757.7H508.313L508.313 638.525L577.688 638.525Z" fill="#C0C0C0"/>
<path d="M514.163 721.1L514.163 751.175H570.9V721.1H514.163Z" fill="#505050"/>
<path d="M514.163 682.888L514.163 712.963H570.9V682.888L514.163 682.888Z" fill="#505050"/>
<g clip-path="url(#clip6_1690_87081)">
<path d="M762.5 668.6H730.1V679.4H762.5V668.6Z" fill="#505050"/>
<path d="M791.3 690.2H730.1V701H791.3V690.2Z" fill="#505050"/>
<path d="M777.8 711.8H730.1V722.6H777.8V711.8Z" fill="#505050"/>
<path d="M872.3 663.2H827.3V708.2H872.3V663.2Z" fill="#C0C0C0"/>
<path d="M881.84 622.7H713V761.3H893V622.7H881.84ZM804.942 750.184H724.16V654.238H804.942V750.184ZM881.84 750.184H816.093V728.885H881.84V750.184ZM881.84 717.769H816.093V654.213H881.84V717.769Z" fill="#505050"/>
</g>
<g clip-path="url(#clip7_1690_87081)">
<path d="M981.236 641.752V656.121C981.239 659.212 982.469 662.177 984.655 664.362C986.842 666.548 989.808 667.775 992.899 667.775H1006.17C1009.26 667.775 1012.23 666.547 1014.41 664.362C1016.6 662.176 1017.83 659.212 1017.83 656.121V641.752H981.236Z" fill="#505050"/>
<path d="M991.847 606.5H985.257V623.091H991.847V606.5Z" fill="#C0C0C0"/>
<path d="M1013.82 606.5H1007.23V623.091H1013.82V606.5Z" fill="#C0C0C0"/>
<path d="M1026.06 627.773H973V637.46H1026.06V627.773Z" fill="#505050"/>
<path d="M1132.13 606.891H1034.6V754.446H1132.13V606.891Z" fill="#505050"/>
<path d="M1010.13 740.841C1005.92 740.868 1001.86 739.223 998.856 736.266C995.849 733.309 994.137 729.281 994.095 725.064V683.255H1005.23V725.064C1005.33 726.289 1005.89 727.432 1006.8 728.264C1007.7 729.097 1008.89 729.559 1010.12 729.559C1011.35 729.559 1012.53 729.097 1013.44 728.264C1014.34 727.432 1014.9 726.289 1015 725.064V678.497C1015.04 674.708 1016.42 671.055 1018.91 668.198C1021.4 665.341 1024.83 663.467 1028.57 662.915V674.315C1027.83 674.721 1027.21 675.321 1026.77 676.051C1026.34 676.78 1026.11 677.614 1026.11 678.463V725.064C1026.08 729.278 1024.37 733.308 1021.37 736.266C1018.37 739.225 1014.31 740.87 1010.1 740.841V740.841" fill="#C0C0C0"/>
<path d="M1005.25 662.729H994.112V683.366H1005.25V662.729Z" fill="#505050"/>
<path d="M1067.47 720.695L1108.87 675.536H1085.19L1098.91 640.641L1057.9 685.265H1081.39L1067.47 720.695Z" fill="white"/>
<path d="M1153 763.988H985.749V777.941H1153V763.988Z" fill="#C0C0C0"/>
</g>
<defs>
<clipPath id="clip0_1690_87081">
<rect width="180" height="180" fill="white" transform="translate(193 82)"/>
</clipPath>
<clipPath id="clip1_1690_87081">
<rect width="180" height="180" fill="white" transform="translate(453 82)"/>
</clipPath>
<clipPath id="clip2_1690_87081">
<rect width="180" height="180" fill="white" transform="translate(713 82)"/>
</clipPath>
<clipPath id="clip3_1690_87081">
<rect width="180" height="180" fill="white" transform="translate(973 82)"/>
</clipPath>
<clipPath id="clip4_1690_87081">
<rect width="180" height="180" fill="white" transform="translate(193 342)"/>
</clipPath>
<clipPath id="clip5_1690_87081">
<rect width="180" height="180" fill="white" transform="translate(453 342)"/>
</clipPath>
<clipPath id="clip6_1690_87081">
<rect width="180" height="180" fill="white" transform="translate(713 602)"/>
</clipPath>
<clipPath id="clip7_1690_87081">
<rect width="180" height="180" fill="white" transform="translate(973 602)"/>
</clipPath>
</defs>
</svg>
